M48
; DRILL file {KiCad (5.1.4)-1} date 25/11/2019 23:54:04
; FORMAT={-:-/ absolute / inch / decimal}
; #@! TF.CreationDate,2019-11-25T23:54:04+00:00
; #@! TF.GenerationSoftware,Kicad,Pcbnew,(5.1.4)-1
; #@! TF.FileFunction,Plated,1,2,PTH
FMAT,2
INCH
T1C0.0157
T2C0.0394
%
G90
G05
T1
X5.65Y-3.425
X5.65Y-3.55
X5.65Y-3.625
X5.675Y-3.3
X5.825Y-3.825
X5.9Y-3.225
X5.9785Y-3.175
X6.025Y-3.25
X6.025Y-3.325
X6.05Y-3.375
X6.35Y-3.25
T2
X6.175Y-2.825
X6.175Y-2.925
X5.375Y-3.1
X5.375Y-3.2
X5.375Y-3.3
X5.375Y-3.4
X5.375Y-3.5
X5.375Y-3.6
X5.375Y-3.7
X6.6Y-3.2
X6.6Y-3.3
X6.6Y-3.4
X6.6Y-3.5
X6.6Y-3.6
X5.675Y-4.05
X5.775Y-4.05
X5.875Y-4.05
X5.975Y-4.05
X6.075Y-4.05
X6.175Y-4.05
X6.275Y-4.05
T0
M30
