G04 #@! TF.GenerationSoftware,KiCad,Pcbnew,(5.1.4)-1*
G04 #@! TF.CreationDate,2019-11-25T23:53:57+00:00*
G04 #@! TF.ProjectId,KeyPad BCD encoder,4b657950-6164-4204-9243-4420656e636f,rev?*
G04 #@! TF.SameCoordinates,Original*
G04 #@! TF.FileFunction,Paste,Top*
G04 #@! TF.FilePolarity,Positive*
%FSLAX46Y46*%
G04 Gerber Fmt 4.6, Leading zero omitted, Abs format (unit mm)*
G04 Created by KiCad (PCBNEW (5.1.4)-1) date 2019-11-25 23:53:57*
%MOMM*%
%LPD*%
G04 APERTURE LIST*
%ADD10C,0.100000*%
%ADD11C,1.150000*%
%ADD12C,0.600000*%
%ADD13C,1.425000*%
G04 APERTURE END LIST*
D10*
G36*
X162274505Y-95821204D02*
G01*
X162298773Y-95824804D01*
X162322572Y-95830765D01*
X162345671Y-95839030D01*
X162367850Y-95849520D01*
X162388893Y-95862132D01*
X162408599Y-95876747D01*
X162426777Y-95893223D01*
X162443253Y-95911401D01*
X162457868Y-95931107D01*
X162470480Y-95952150D01*
X162480970Y-95974329D01*
X162489235Y-95997428D01*
X162495196Y-96021227D01*
X162498796Y-96045495D01*
X162500000Y-96069999D01*
X162500000Y-96970001D01*
X162498796Y-96994505D01*
X162495196Y-97018773D01*
X162489235Y-97042572D01*
X162480970Y-97065671D01*
X162470480Y-97087850D01*
X162457868Y-97108893D01*
X162443253Y-97128599D01*
X162426777Y-97146777D01*
X162408599Y-97163253D01*
X162388893Y-97177868D01*
X162367850Y-97190480D01*
X162345671Y-97200970D01*
X162322572Y-97209235D01*
X162298773Y-97215196D01*
X162274505Y-97218796D01*
X162250001Y-97220000D01*
X161599999Y-97220000D01*
X161575495Y-97218796D01*
X161551227Y-97215196D01*
X161527428Y-97209235D01*
X161504329Y-97200970D01*
X161482150Y-97190480D01*
X161461107Y-97177868D01*
X161441401Y-97163253D01*
X161423223Y-97146777D01*
X161406747Y-97128599D01*
X161392132Y-97108893D01*
X161379520Y-97087850D01*
X161369030Y-97065671D01*
X161360765Y-97042572D01*
X161354804Y-97018773D01*
X161351204Y-96994505D01*
X161350000Y-96970001D01*
X161350000Y-96069999D01*
X161351204Y-96045495D01*
X161354804Y-96021227D01*
X161360765Y-95997428D01*
X161369030Y-95974329D01*
X161379520Y-95952150D01*
X161392132Y-95931107D01*
X161406747Y-95911401D01*
X161423223Y-95893223D01*
X161441401Y-95876747D01*
X161461107Y-95862132D01*
X161482150Y-95849520D01*
X161504329Y-95839030D01*
X161527428Y-95830765D01*
X161551227Y-95824804D01*
X161575495Y-95821204D01*
X161599999Y-95820000D01*
X162250001Y-95820000D01*
X162274505Y-95821204D01*
X162274505Y-95821204D01*
G37*
D11*
X161925000Y-96520000D03*
D10*
G36*
X160224505Y-95821204D02*
G01*
X160248773Y-95824804D01*
X160272572Y-95830765D01*
X160295671Y-95839030D01*
X160317850Y-95849520D01*
X160338893Y-95862132D01*
X160358599Y-95876747D01*
X160376777Y-95893223D01*
X160393253Y-95911401D01*
X160407868Y-95931107D01*
X160420480Y-95952150D01*
X160430970Y-95974329D01*
X160439235Y-95997428D01*
X160445196Y-96021227D01*
X160448796Y-96045495D01*
X160450000Y-96069999D01*
X160450000Y-96970001D01*
X160448796Y-96994505D01*
X160445196Y-97018773D01*
X160439235Y-97042572D01*
X160430970Y-97065671D01*
X160420480Y-97087850D01*
X160407868Y-97108893D01*
X160393253Y-97128599D01*
X160376777Y-97146777D01*
X160358599Y-97163253D01*
X160338893Y-97177868D01*
X160317850Y-97190480D01*
X160295671Y-97200970D01*
X160272572Y-97209235D01*
X160248773Y-97215196D01*
X160224505Y-97218796D01*
X160200001Y-97220000D01*
X159549999Y-97220000D01*
X159525495Y-97218796D01*
X159501227Y-97215196D01*
X159477428Y-97209235D01*
X159454329Y-97200970D01*
X159432150Y-97190480D01*
X159411107Y-97177868D01*
X159391401Y-97163253D01*
X159373223Y-97146777D01*
X159356747Y-97128599D01*
X159342132Y-97108893D01*
X159329520Y-97087850D01*
X159319030Y-97065671D01*
X159310765Y-97042572D01*
X159304804Y-97018773D01*
X159301204Y-96994505D01*
X159300000Y-96970001D01*
X159300000Y-96069999D01*
X159301204Y-96045495D01*
X159304804Y-96021227D01*
X159310765Y-95997428D01*
X159319030Y-95974329D01*
X159329520Y-95952150D01*
X159342132Y-95931107D01*
X159356747Y-95911401D01*
X159373223Y-95893223D01*
X159391401Y-95876747D01*
X159411107Y-95862132D01*
X159432150Y-95849520D01*
X159454329Y-95839030D01*
X159477428Y-95830765D01*
X159501227Y-95824804D01*
X159525495Y-95821204D01*
X159549999Y-95820000D01*
X160200001Y-95820000D01*
X160224505Y-95821204D01*
X160224505Y-95821204D01*
G37*
D11*
X159875000Y-96520000D03*
D10*
G36*
X150844505Y-95186204D02*
G01*
X150868773Y-95189804D01*
X150892572Y-95195765D01*
X150915671Y-95204030D01*
X150937850Y-95214520D01*
X150958893Y-95227132D01*
X150978599Y-95241747D01*
X150996777Y-95258223D01*
X151013253Y-95276401D01*
X151027868Y-95296107D01*
X151040480Y-95317150D01*
X151050970Y-95339329D01*
X151059235Y-95362428D01*
X151065196Y-95386227D01*
X151068796Y-95410495D01*
X151070000Y-95434999D01*
X151070000Y-96335001D01*
X151068796Y-96359505D01*
X151065196Y-96383773D01*
X151059235Y-96407572D01*
X151050970Y-96430671D01*
X151040480Y-96452850D01*
X151027868Y-96473893D01*
X151013253Y-96493599D01*
X150996777Y-96511777D01*
X150978599Y-96528253D01*
X150958893Y-96542868D01*
X150937850Y-96555480D01*
X150915671Y-96565970D01*
X150892572Y-96574235D01*
X150868773Y-96580196D01*
X150844505Y-96583796D01*
X150820001Y-96585000D01*
X150169999Y-96585000D01*
X150145495Y-96583796D01*
X150121227Y-96580196D01*
X150097428Y-96574235D01*
X150074329Y-96565970D01*
X150052150Y-96555480D01*
X150031107Y-96542868D01*
X150011401Y-96528253D01*
X149993223Y-96511777D01*
X149976747Y-96493599D01*
X149962132Y-96473893D01*
X149949520Y-96452850D01*
X149939030Y-96430671D01*
X149930765Y-96407572D01*
X149924804Y-96383773D01*
X149921204Y-96359505D01*
X149920000Y-96335001D01*
X149920000Y-95434999D01*
X149921204Y-95410495D01*
X149924804Y-95386227D01*
X149930765Y-95362428D01*
X149939030Y-95339329D01*
X149949520Y-95317150D01*
X149962132Y-95296107D01*
X149976747Y-95276401D01*
X149993223Y-95258223D01*
X150011401Y-95241747D01*
X150031107Y-95227132D01*
X150052150Y-95214520D01*
X150074329Y-95204030D01*
X150097428Y-95195765D01*
X150121227Y-95189804D01*
X150145495Y-95186204D01*
X150169999Y-95185000D01*
X150820001Y-95185000D01*
X150844505Y-95186204D01*
X150844505Y-95186204D01*
G37*
D11*
X150495000Y-95885000D03*
D10*
G36*
X152894505Y-95186204D02*
G01*
X152918773Y-95189804D01*
X152942572Y-95195765D01*
X152965671Y-95204030D01*
X152987850Y-95214520D01*
X153008893Y-95227132D01*
X153028599Y-95241747D01*
X153046777Y-95258223D01*
X153063253Y-95276401D01*
X153077868Y-95296107D01*
X153090480Y-95317150D01*
X153100970Y-95339329D01*
X153109235Y-95362428D01*
X153115196Y-95386227D01*
X153118796Y-95410495D01*
X153120000Y-95434999D01*
X153120000Y-96335001D01*
X153118796Y-96359505D01*
X153115196Y-96383773D01*
X153109235Y-96407572D01*
X153100970Y-96430671D01*
X153090480Y-96452850D01*
X153077868Y-96473893D01*
X153063253Y-96493599D01*
X153046777Y-96511777D01*
X153028599Y-96528253D01*
X153008893Y-96542868D01*
X152987850Y-96555480D01*
X152965671Y-96565970D01*
X152942572Y-96574235D01*
X152918773Y-96580196D01*
X152894505Y-96583796D01*
X152870001Y-96585000D01*
X152219999Y-96585000D01*
X152195495Y-96583796D01*
X152171227Y-96580196D01*
X152147428Y-96574235D01*
X152124329Y-96565970D01*
X152102150Y-96555480D01*
X152081107Y-96542868D01*
X152061401Y-96528253D01*
X152043223Y-96511777D01*
X152026747Y-96493599D01*
X152012132Y-96473893D01*
X151999520Y-96452850D01*
X151989030Y-96430671D01*
X151980765Y-96407572D01*
X151974804Y-96383773D01*
X151971204Y-96359505D01*
X151970000Y-96335001D01*
X151970000Y-95434999D01*
X151971204Y-95410495D01*
X151974804Y-95386227D01*
X151980765Y-95362428D01*
X151989030Y-95339329D01*
X151999520Y-95317150D01*
X152012132Y-95296107D01*
X152026747Y-95276401D01*
X152043223Y-95258223D01*
X152061401Y-95241747D01*
X152081107Y-95227132D01*
X152102150Y-95214520D01*
X152124329Y-95204030D01*
X152147428Y-95195765D01*
X152171227Y-95189804D01*
X152195495Y-95186204D01*
X152219999Y-95185000D01*
X152870001Y-95185000D01*
X152894505Y-95186204D01*
X152894505Y-95186204D01*
G37*
D11*
X152545000Y-95885000D03*
D10*
G36*
X144619505Y-96191204D02*
G01*
X144643773Y-96194804D01*
X144667572Y-96200765D01*
X144690671Y-96209030D01*
X144712850Y-96219520D01*
X144733893Y-96232132D01*
X144753599Y-96246747D01*
X144771777Y-96263223D01*
X144788253Y-96281401D01*
X144802868Y-96301107D01*
X144815480Y-96322150D01*
X144825970Y-96344329D01*
X144834235Y-96367428D01*
X144840196Y-96391227D01*
X144843796Y-96415495D01*
X144845000Y-96439999D01*
X144845000Y-97090001D01*
X144843796Y-97114505D01*
X144840196Y-97138773D01*
X144834235Y-97162572D01*
X144825970Y-97185671D01*
X144815480Y-97207850D01*
X144802868Y-97228893D01*
X144788253Y-97248599D01*
X144771777Y-97266777D01*
X144753599Y-97283253D01*
X144733893Y-97297868D01*
X144712850Y-97310480D01*
X144690671Y-97320970D01*
X144667572Y-97329235D01*
X144643773Y-97335196D01*
X144619505Y-97338796D01*
X144595001Y-97340000D01*
X143694999Y-97340000D01*
X143670495Y-97338796D01*
X143646227Y-97335196D01*
X143622428Y-97329235D01*
X143599329Y-97320970D01*
X143577150Y-97310480D01*
X143556107Y-97297868D01*
X143536401Y-97283253D01*
X143518223Y-97266777D01*
X143501747Y-97248599D01*
X143487132Y-97228893D01*
X143474520Y-97207850D01*
X143464030Y-97185671D01*
X143455765Y-97162572D01*
X143449804Y-97138773D01*
X143446204Y-97114505D01*
X143445000Y-97090001D01*
X143445000Y-96439999D01*
X143446204Y-96415495D01*
X143449804Y-96391227D01*
X143455765Y-96367428D01*
X143464030Y-96344329D01*
X143474520Y-96322150D01*
X143487132Y-96301107D01*
X143501747Y-96281401D01*
X143518223Y-96263223D01*
X143536401Y-96246747D01*
X143556107Y-96232132D01*
X143577150Y-96219520D01*
X143599329Y-96209030D01*
X143622428Y-96200765D01*
X143646227Y-96194804D01*
X143670495Y-96191204D01*
X143694999Y-96190000D01*
X144595001Y-96190000D01*
X144619505Y-96191204D01*
X144619505Y-96191204D01*
G37*
D11*
X144145000Y-96765000D03*
D10*
G36*
X144619505Y-98241204D02*
G01*
X144643773Y-98244804D01*
X144667572Y-98250765D01*
X144690671Y-98259030D01*
X144712850Y-98269520D01*
X144733893Y-98282132D01*
X144753599Y-98296747D01*
X144771777Y-98313223D01*
X144788253Y-98331401D01*
X144802868Y-98351107D01*
X144815480Y-98372150D01*
X144825970Y-98394329D01*
X144834235Y-98417428D01*
X144840196Y-98441227D01*
X144843796Y-98465495D01*
X144845000Y-98489999D01*
X144845000Y-99140001D01*
X144843796Y-99164505D01*
X144840196Y-99188773D01*
X144834235Y-99212572D01*
X144825970Y-99235671D01*
X144815480Y-99257850D01*
X144802868Y-99278893D01*
X144788253Y-99298599D01*
X144771777Y-99316777D01*
X144753599Y-99333253D01*
X144733893Y-99347868D01*
X144712850Y-99360480D01*
X144690671Y-99370970D01*
X144667572Y-99379235D01*
X144643773Y-99385196D01*
X144619505Y-99388796D01*
X144595001Y-99390000D01*
X143694999Y-99390000D01*
X143670495Y-99388796D01*
X143646227Y-99385196D01*
X143622428Y-99379235D01*
X143599329Y-99370970D01*
X143577150Y-99360480D01*
X143556107Y-99347868D01*
X143536401Y-99333253D01*
X143518223Y-99316777D01*
X143501747Y-99298599D01*
X143487132Y-99278893D01*
X143474520Y-99257850D01*
X143464030Y-99235671D01*
X143455765Y-99212572D01*
X143449804Y-99188773D01*
X143446204Y-99164505D01*
X143445000Y-99140001D01*
X143445000Y-98489999D01*
X143446204Y-98465495D01*
X143449804Y-98441227D01*
X143455765Y-98417428D01*
X143464030Y-98394329D01*
X143474520Y-98372150D01*
X143487132Y-98351107D01*
X143501747Y-98331401D01*
X143518223Y-98313223D01*
X143536401Y-98296747D01*
X143556107Y-98282132D01*
X143577150Y-98269520D01*
X143599329Y-98259030D01*
X143622428Y-98250765D01*
X143646227Y-98244804D01*
X143670495Y-98241204D01*
X143694999Y-98240000D01*
X144595001Y-98240000D01*
X144619505Y-98241204D01*
X144619505Y-98241204D01*
G37*
D11*
X144145000Y-98815000D03*
D10*
G36*
X156669703Y-80345722D02*
G01*
X156684264Y-80347882D01*
X156698543Y-80351459D01*
X156712403Y-80356418D01*
X156725710Y-80362712D01*
X156738336Y-80370280D01*
X156750159Y-80379048D01*
X156761066Y-80388934D01*
X156770952Y-80399841D01*
X156779720Y-80411664D01*
X156787288Y-80424290D01*
X156793582Y-80437597D01*
X156798541Y-80451457D01*
X156802118Y-80465736D01*
X156804278Y-80480297D01*
X156805000Y-80495000D01*
X156805000Y-80795000D01*
X156804278Y-80809703D01*
X156802118Y-80824264D01*
X156798541Y-80838543D01*
X156793582Y-80852403D01*
X156787288Y-80865710D01*
X156779720Y-80878336D01*
X156770952Y-80890159D01*
X156761066Y-80901066D01*
X156750159Y-80910952D01*
X156738336Y-80919720D01*
X156725710Y-80927288D01*
X156712403Y-80933582D01*
X156698543Y-80938541D01*
X156684264Y-80942118D01*
X156669703Y-80944278D01*
X156655000Y-80945000D01*
X154905000Y-80945000D01*
X154890297Y-80944278D01*
X154875736Y-80942118D01*
X154861457Y-80938541D01*
X154847597Y-80933582D01*
X154834290Y-80927288D01*
X154821664Y-80919720D01*
X154809841Y-80910952D01*
X154798934Y-80901066D01*
X154789048Y-80890159D01*
X154780280Y-80878336D01*
X154772712Y-80865710D01*
X154766418Y-80852403D01*
X154761459Y-80838543D01*
X154757882Y-80824264D01*
X154755722Y-80809703D01*
X154755000Y-80795000D01*
X154755000Y-80495000D01*
X154755722Y-80480297D01*
X154757882Y-80465736D01*
X154761459Y-80451457D01*
X154766418Y-80437597D01*
X154772712Y-80424290D01*
X154780280Y-80411664D01*
X154789048Y-80399841D01*
X154798934Y-80388934D01*
X154809841Y-80379048D01*
X154821664Y-80370280D01*
X154834290Y-80362712D01*
X154847597Y-80356418D01*
X154861457Y-80351459D01*
X154875736Y-80347882D01*
X154890297Y-80345722D01*
X154905000Y-80345000D01*
X156655000Y-80345000D01*
X156669703Y-80345722D01*
X156669703Y-80345722D01*
G37*
D12*
X155780000Y-80645000D03*
D10*
G36*
X156669703Y-81615722D02*
G01*
X156684264Y-81617882D01*
X156698543Y-81621459D01*
X156712403Y-81626418D01*
X156725710Y-81632712D01*
X156738336Y-81640280D01*
X156750159Y-81649048D01*
X156761066Y-81658934D01*
X156770952Y-81669841D01*
X156779720Y-81681664D01*
X156787288Y-81694290D01*
X156793582Y-81707597D01*
X156798541Y-81721457D01*
X156802118Y-81735736D01*
X156804278Y-81750297D01*
X156805000Y-81765000D01*
X156805000Y-82065000D01*
X156804278Y-82079703D01*
X156802118Y-82094264D01*
X156798541Y-82108543D01*
X156793582Y-82122403D01*
X156787288Y-82135710D01*
X156779720Y-82148336D01*
X156770952Y-82160159D01*
X156761066Y-82171066D01*
X156750159Y-82180952D01*
X156738336Y-82189720D01*
X156725710Y-82197288D01*
X156712403Y-82203582D01*
X156698543Y-82208541D01*
X156684264Y-82212118D01*
X156669703Y-82214278D01*
X156655000Y-82215000D01*
X154905000Y-82215000D01*
X154890297Y-82214278D01*
X154875736Y-82212118D01*
X154861457Y-82208541D01*
X154847597Y-82203582D01*
X154834290Y-82197288D01*
X154821664Y-82189720D01*
X154809841Y-82180952D01*
X154798934Y-82171066D01*
X154789048Y-82160159D01*
X154780280Y-82148336D01*
X154772712Y-82135710D01*
X154766418Y-82122403D01*
X154761459Y-82108543D01*
X154757882Y-82094264D01*
X154755722Y-82079703D01*
X154755000Y-82065000D01*
X154755000Y-81765000D01*
X154755722Y-81750297D01*
X154757882Y-81735736D01*
X154761459Y-81721457D01*
X154766418Y-81707597D01*
X154772712Y-81694290D01*
X154780280Y-81681664D01*
X154789048Y-81669841D01*
X154798934Y-81658934D01*
X154809841Y-81649048D01*
X154821664Y-81640280D01*
X154834290Y-81632712D01*
X154847597Y-81626418D01*
X154861457Y-81621459D01*
X154875736Y-81617882D01*
X154890297Y-81615722D01*
X154905000Y-81615000D01*
X156655000Y-81615000D01*
X156669703Y-81615722D01*
X156669703Y-81615722D01*
G37*
D12*
X155780000Y-81915000D03*
D10*
G36*
X156669703Y-82885722D02*
G01*
X156684264Y-82887882D01*
X156698543Y-82891459D01*
X156712403Y-82896418D01*
X156725710Y-82902712D01*
X156738336Y-82910280D01*
X156750159Y-82919048D01*
X156761066Y-82928934D01*
X156770952Y-82939841D01*
X156779720Y-82951664D01*
X156787288Y-82964290D01*
X156793582Y-82977597D01*
X156798541Y-82991457D01*
X156802118Y-83005736D01*
X156804278Y-83020297D01*
X156805000Y-83035000D01*
X156805000Y-83335000D01*
X156804278Y-83349703D01*
X156802118Y-83364264D01*
X156798541Y-83378543D01*
X156793582Y-83392403D01*
X156787288Y-83405710D01*
X156779720Y-83418336D01*
X156770952Y-83430159D01*
X156761066Y-83441066D01*
X156750159Y-83450952D01*
X156738336Y-83459720D01*
X156725710Y-83467288D01*
X156712403Y-83473582D01*
X156698543Y-83478541D01*
X156684264Y-83482118D01*
X156669703Y-83484278D01*
X156655000Y-83485000D01*
X154905000Y-83485000D01*
X154890297Y-83484278D01*
X154875736Y-83482118D01*
X154861457Y-83478541D01*
X154847597Y-83473582D01*
X154834290Y-83467288D01*
X154821664Y-83459720D01*
X154809841Y-83450952D01*
X154798934Y-83441066D01*
X154789048Y-83430159D01*
X154780280Y-83418336D01*
X154772712Y-83405710D01*
X154766418Y-83392403D01*
X154761459Y-83378543D01*
X154757882Y-83364264D01*
X154755722Y-83349703D01*
X154755000Y-83335000D01*
X154755000Y-83035000D01*
X154755722Y-83020297D01*
X154757882Y-83005736D01*
X154761459Y-82991457D01*
X154766418Y-82977597D01*
X154772712Y-82964290D01*
X154780280Y-82951664D01*
X154789048Y-82939841D01*
X154798934Y-82928934D01*
X154809841Y-82919048D01*
X154821664Y-82910280D01*
X154834290Y-82902712D01*
X154847597Y-82896418D01*
X154861457Y-82891459D01*
X154875736Y-82887882D01*
X154890297Y-82885722D01*
X154905000Y-82885000D01*
X156655000Y-82885000D01*
X156669703Y-82885722D01*
X156669703Y-82885722D01*
G37*
D12*
X155780000Y-83185000D03*
D10*
G36*
X156669703Y-84155722D02*
G01*
X156684264Y-84157882D01*
X156698543Y-84161459D01*
X156712403Y-84166418D01*
X156725710Y-84172712D01*
X156738336Y-84180280D01*
X156750159Y-84189048D01*
X156761066Y-84198934D01*
X156770952Y-84209841D01*
X156779720Y-84221664D01*
X156787288Y-84234290D01*
X156793582Y-84247597D01*
X156798541Y-84261457D01*
X156802118Y-84275736D01*
X156804278Y-84290297D01*
X156805000Y-84305000D01*
X156805000Y-84605000D01*
X156804278Y-84619703D01*
X156802118Y-84634264D01*
X156798541Y-84648543D01*
X156793582Y-84662403D01*
X156787288Y-84675710D01*
X156779720Y-84688336D01*
X156770952Y-84700159D01*
X156761066Y-84711066D01*
X156750159Y-84720952D01*
X156738336Y-84729720D01*
X156725710Y-84737288D01*
X156712403Y-84743582D01*
X156698543Y-84748541D01*
X156684264Y-84752118D01*
X156669703Y-84754278D01*
X156655000Y-84755000D01*
X154905000Y-84755000D01*
X154890297Y-84754278D01*
X154875736Y-84752118D01*
X154861457Y-84748541D01*
X154847597Y-84743582D01*
X154834290Y-84737288D01*
X154821664Y-84729720D01*
X154809841Y-84720952D01*
X154798934Y-84711066D01*
X154789048Y-84700159D01*
X154780280Y-84688336D01*
X154772712Y-84675710D01*
X154766418Y-84662403D01*
X154761459Y-84648543D01*
X154757882Y-84634264D01*
X154755722Y-84619703D01*
X154755000Y-84605000D01*
X154755000Y-84305000D01*
X154755722Y-84290297D01*
X154757882Y-84275736D01*
X154761459Y-84261457D01*
X154766418Y-84247597D01*
X154772712Y-84234290D01*
X154780280Y-84221664D01*
X154789048Y-84209841D01*
X154798934Y-84198934D01*
X154809841Y-84189048D01*
X154821664Y-84180280D01*
X154834290Y-84172712D01*
X154847597Y-84166418D01*
X154861457Y-84161459D01*
X154875736Y-84157882D01*
X154890297Y-84155722D01*
X154905000Y-84155000D01*
X156655000Y-84155000D01*
X156669703Y-84155722D01*
X156669703Y-84155722D01*
G37*
D12*
X155780000Y-84455000D03*
D10*
G36*
X156669703Y-85425722D02*
G01*
X156684264Y-85427882D01*
X156698543Y-85431459D01*
X156712403Y-85436418D01*
X156725710Y-85442712D01*
X156738336Y-85450280D01*
X156750159Y-85459048D01*
X156761066Y-85468934D01*
X156770952Y-85479841D01*
X156779720Y-85491664D01*
X156787288Y-85504290D01*
X156793582Y-85517597D01*
X156798541Y-85531457D01*
X156802118Y-85545736D01*
X156804278Y-85560297D01*
X156805000Y-85575000D01*
X156805000Y-85875000D01*
X156804278Y-85889703D01*
X156802118Y-85904264D01*
X156798541Y-85918543D01*
X156793582Y-85932403D01*
X156787288Y-85945710D01*
X156779720Y-85958336D01*
X156770952Y-85970159D01*
X156761066Y-85981066D01*
X156750159Y-85990952D01*
X156738336Y-85999720D01*
X156725710Y-86007288D01*
X156712403Y-86013582D01*
X156698543Y-86018541D01*
X156684264Y-86022118D01*
X156669703Y-86024278D01*
X156655000Y-86025000D01*
X154905000Y-86025000D01*
X154890297Y-86024278D01*
X154875736Y-86022118D01*
X154861457Y-86018541D01*
X154847597Y-86013582D01*
X154834290Y-86007288D01*
X154821664Y-85999720D01*
X154809841Y-85990952D01*
X154798934Y-85981066D01*
X154789048Y-85970159D01*
X154780280Y-85958336D01*
X154772712Y-85945710D01*
X154766418Y-85932403D01*
X154761459Y-85918543D01*
X154757882Y-85904264D01*
X154755722Y-85889703D01*
X154755000Y-85875000D01*
X154755000Y-85575000D01*
X154755722Y-85560297D01*
X154757882Y-85545736D01*
X154761459Y-85531457D01*
X154766418Y-85517597D01*
X154772712Y-85504290D01*
X154780280Y-85491664D01*
X154789048Y-85479841D01*
X154798934Y-85468934D01*
X154809841Y-85459048D01*
X154821664Y-85450280D01*
X154834290Y-85442712D01*
X154847597Y-85436418D01*
X154861457Y-85431459D01*
X154875736Y-85427882D01*
X154890297Y-85425722D01*
X154905000Y-85425000D01*
X156655000Y-85425000D01*
X156669703Y-85425722D01*
X156669703Y-85425722D01*
G37*
D12*
X155780000Y-85725000D03*
D10*
G36*
X156669703Y-86695722D02*
G01*
X156684264Y-86697882D01*
X156698543Y-86701459D01*
X156712403Y-86706418D01*
X156725710Y-86712712D01*
X156738336Y-86720280D01*
X156750159Y-86729048D01*
X156761066Y-86738934D01*
X156770952Y-86749841D01*
X156779720Y-86761664D01*
X156787288Y-86774290D01*
X156793582Y-86787597D01*
X156798541Y-86801457D01*
X156802118Y-86815736D01*
X156804278Y-86830297D01*
X156805000Y-86845000D01*
X156805000Y-87145000D01*
X156804278Y-87159703D01*
X156802118Y-87174264D01*
X156798541Y-87188543D01*
X156793582Y-87202403D01*
X156787288Y-87215710D01*
X156779720Y-87228336D01*
X156770952Y-87240159D01*
X156761066Y-87251066D01*
X156750159Y-87260952D01*
X156738336Y-87269720D01*
X156725710Y-87277288D01*
X156712403Y-87283582D01*
X156698543Y-87288541D01*
X156684264Y-87292118D01*
X156669703Y-87294278D01*
X156655000Y-87295000D01*
X154905000Y-87295000D01*
X154890297Y-87294278D01*
X154875736Y-87292118D01*
X154861457Y-87288541D01*
X154847597Y-87283582D01*
X154834290Y-87277288D01*
X154821664Y-87269720D01*
X154809841Y-87260952D01*
X154798934Y-87251066D01*
X154789048Y-87240159D01*
X154780280Y-87228336D01*
X154772712Y-87215710D01*
X154766418Y-87202403D01*
X154761459Y-87188543D01*
X154757882Y-87174264D01*
X154755722Y-87159703D01*
X154755000Y-87145000D01*
X154755000Y-86845000D01*
X154755722Y-86830297D01*
X154757882Y-86815736D01*
X154761459Y-86801457D01*
X154766418Y-86787597D01*
X154772712Y-86774290D01*
X154780280Y-86761664D01*
X154789048Y-86749841D01*
X154798934Y-86738934D01*
X154809841Y-86729048D01*
X154821664Y-86720280D01*
X154834290Y-86712712D01*
X154847597Y-86706418D01*
X154861457Y-86701459D01*
X154875736Y-86697882D01*
X154890297Y-86695722D01*
X154905000Y-86695000D01*
X156655000Y-86695000D01*
X156669703Y-86695722D01*
X156669703Y-86695722D01*
G37*
D12*
X155780000Y-86995000D03*
D10*
G36*
X156669703Y-87965722D02*
G01*
X156684264Y-87967882D01*
X156698543Y-87971459D01*
X156712403Y-87976418D01*
X156725710Y-87982712D01*
X156738336Y-87990280D01*
X156750159Y-87999048D01*
X156761066Y-88008934D01*
X156770952Y-88019841D01*
X156779720Y-88031664D01*
X156787288Y-88044290D01*
X156793582Y-88057597D01*
X156798541Y-88071457D01*
X156802118Y-88085736D01*
X156804278Y-88100297D01*
X156805000Y-88115000D01*
X156805000Y-88415000D01*
X156804278Y-88429703D01*
X156802118Y-88444264D01*
X156798541Y-88458543D01*
X156793582Y-88472403D01*
X156787288Y-88485710D01*
X156779720Y-88498336D01*
X156770952Y-88510159D01*
X156761066Y-88521066D01*
X156750159Y-88530952D01*
X156738336Y-88539720D01*
X156725710Y-88547288D01*
X156712403Y-88553582D01*
X156698543Y-88558541D01*
X156684264Y-88562118D01*
X156669703Y-88564278D01*
X156655000Y-88565000D01*
X154905000Y-88565000D01*
X154890297Y-88564278D01*
X154875736Y-88562118D01*
X154861457Y-88558541D01*
X154847597Y-88553582D01*
X154834290Y-88547288D01*
X154821664Y-88539720D01*
X154809841Y-88530952D01*
X154798934Y-88521066D01*
X154789048Y-88510159D01*
X154780280Y-88498336D01*
X154772712Y-88485710D01*
X154766418Y-88472403D01*
X154761459Y-88458543D01*
X154757882Y-88444264D01*
X154755722Y-88429703D01*
X154755000Y-88415000D01*
X154755000Y-88115000D01*
X154755722Y-88100297D01*
X154757882Y-88085736D01*
X154761459Y-88071457D01*
X154766418Y-88057597D01*
X154772712Y-88044290D01*
X154780280Y-88031664D01*
X154789048Y-88019841D01*
X154798934Y-88008934D01*
X154809841Y-87999048D01*
X154821664Y-87990280D01*
X154834290Y-87982712D01*
X154847597Y-87976418D01*
X154861457Y-87971459D01*
X154875736Y-87967882D01*
X154890297Y-87965722D01*
X154905000Y-87965000D01*
X156655000Y-87965000D01*
X156669703Y-87965722D01*
X156669703Y-87965722D01*
G37*
D12*
X155780000Y-88265000D03*
D10*
G36*
X156669703Y-89235722D02*
G01*
X156684264Y-89237882D01*
X156698543Y-89241459D01*
X156712403Y-89246418D01*
X156725710Y-89252712D01*
X156738336Y-89260280D01*
X156750159Y-89269048D01*
X156761066Y-89278934D01*
X156770952Y-89289841D01*
X156779720Y-89301664D01*
X156787288Y-89314290D01*
X156793582Y-89327597D01*
X156798541Y-89341457D01*
X156802118Y-89355736D01*
X156804278Y-89370297D01*
X156805000Y-89385000D01*
X156805000Y-89685000D01*
X156804278Y-89699703D01*
X156802118Y-89714264D01*
X156798541Y-89728543D01*
X156793582Y-89742403D01*
X156787288Y-89755710D01*
X156779720Y-89768336D01*
X156770952Y-89780159D01*
X156761066Y-89791066D01*
X156750159Y-89800952D01*
X156738336Y-89809720D01*
X156725710Y-89817288D01*
X156712403Y-89823582D01*
X156698543Y-89828541D01*
X156684264Y-89832118D01*
X156669703Y-89834278D01*
X156655000Y-89835000D01*
X154905000Y-89835000D01*
X154890297Y-89834278D01*
X154875736Y-89832118D01*
X154861457Y-89828541D01*
X154847597Y-89823582D01*
X154834290Y-89817288D01*
X154821664Y-89809720D01*
X154809841Y-89800952D01*
X154798934Y-89791066D01*
X154789048Y-89780159D01*
X154780280Y-89768336D01*
X154772712Y-89755710D01*
X154766418Y-89742403D01*
X154761459Y-89728543D01*
X154757882Y-89714264D01*
X154755722Y-89699703D01*
X154755000Y-89685000D01*
X154755000Y-89385000D01*
X154755722Y-89370297D01*
X154757882Y-89355736D01*
X154761459Y-89341457D01*
X154766418Y-89327597D01*
X154772712Y-89314290D01*
X154780280Y-89301664D01*
X154789048Y-89289841D01*
X154798934Y-89278934D01*
X154809841Y-89269048D01*
X154821664Y-89260280D01*
X154834290Y-89252712D01*
X154847597Y-89246418D01*
X154861457Y-89241459D01*
X154875736Y-89237882D01*
X154890297Y-89235722D01*
X154905000Y-89235000D01*
X156655000Y-89235000D01*
X156669703Y-89235722D01*
X156669703Y-89235722D01*
G37*
D12*
X155780000Y-89535000D03*
D10*
G36*
X156669703Y-90505722D02*
G01*
X156684264Y-90507882D01*
X156698543Y-90511459D01*
X156712403Y-90516418D01*
X156725710Y-90522712D01*
X156738336Y-90530280D01*
X156750159Y-90539048D01*
X156761066Y-90548934D01*
X156770952Y-90559841D01*
X156779720Y-90571664D01*
X156787288Y-90584290D01*
X156793582Y-90597597D01*
X156798541Y-90611457D01*
X156802118Y-90625736D01*
X156804278Y-90640297D01*
X156805000Y-90655000D01*
X156805000Y-90955000D01*
X156804278Y-90969703D01*
X156802118Y-90984264D01*
X156798541Y-90998543D01*
X156793582Y-91012403D01*
X156787288Y-91025710D01*
X156779720Y-91038336D01*
X156770952Y-91050159D01*
X156761066Y-91061066D01*
X156750159Y-91070952D01*
X156738336Y-91079720D01*
X156725710Y-91087288D01*
X156712403Y-91093582D01*
X156698543Y-91098541D01*
X156684264Y-91102118D01*
X156669703Y-91104278D01*
X156655000Y-91105000D01*
X154905000Y-91105000D01*
X154890297Y-91104278D01*
X154875736Y-91102118D01*
X154861457Y-91098541D01*
X154847597Y-91093582D01*
X154834290Y-91087288D01*
X154821664Y-91079720D01*
X154809841Y-91070952D01*
X154798934Y-91061066D01*
X154789048Y-91050159D01*
X154780280Y-91038336D01*
X154772712Y-91025710D01*
X154766418Y-91012403D01*
X154761459Y-90998543D01*
X154757882Y-90984264D01*
X154755722Y-90969703D01*
X154755000Y-90955000D01*
X154755000Y-90655000D01*
X154755722Y-90640297D01*
X154757882Y-90625736D01*
X154761459Y-90611457D01*
X154766418Y-90597597D01*
X154772712Y-90584290D01*
X154780280Y-90571664D01*
X154789048Y-90559841D01*
X154798934Y-90548934D01*
X154809841Y-90539048D01*
X154821664Y-90530280D01*
X154834290Y-90522712D01*
X154847597Y-90516418D01*
X154861457Y-90511459D01*
X154875736Y-90507882D01*
X154890297Y-90505722D01*
X154905000Y-90505000D01*
X156655000Y-90505000D01*
X156669703Y-90505722D01*
X156669703Y-90505722D01*
G37*
D12*
X155780000Y-90805000D03*
D10*
G36*
X147369703Y-90505722D02*
G01*
X147384264Y-90507882D01*
X147398543Y-90511459D01*
X147412403Y-90516418D01*
X147425710Y-90522712D01*
X147438336Y-90530280D01*
X147450159Y-90539048D01*
X147461066Y-90548934D01*
X147470952Y-90559841D01*
X147479720Y-90571664D01*
X147487288Y-90584290D01*
X147493582Y-90597597D01*
X147498541Y-90611457D01*
X147502118Y-90625736D01*
X147504278Y-90640297D01*
X147505000Y-90655000D01*
X147505000Y-90955000D01*
X147504278Y-90969703D01*
X147502118Y-90984264D01*
X147498541Y-90998543D01*
X147493582Y-91012403D01*
X147487288Y-91025710D01*
X147479720Y-91038336D01*
X147470952Y-91050159D01*
X147461066Y-91061066D01*
X147450159Y-91070952D01*
X147438336Y-91079720D01*
X147425710Y-91087288D01*
X147412403Y-91093582D01*
X147398543Y-91098541D01*
X147384264Y-91102118D01*
X147369703Y-91104278D01*
X147355000Y-91105000D01*
X145605000Y-91105000D01*
X145590297Y-91104278D01*
X145575736Y-91102118D01*
X145561457Y-91098541D01*
X145547597Y-91093582D01*
X145534290Y-91087288D01*
X145521664Y-91079720D01*
X145509841Y-91070952D01*
X145498934Y-91061066D01*
X145489048Y-91050159D01*
X145480280Y-91038336D01*
X145472712Y-91025710D01*
X145466418Y-91012403D01*
X145461459Y-90998543D01*
X145457882Y-90984264D01*
X145455722Y-90969703D01*
X145455000Y-90955000D01*
X145455000Y-90655000D01*
X145455722Y-90640297D01*
X145457882Y-90625736D01*
X145461459Y-90611457D01*
X145466418Y-90597597D01*
X145472712Y-90584290D01*
X145480280Y-90571664D01*
X145489048Y-90559841D01*
X145498934Y-90548934D01*
X145509841Y-90539048D01*
X145521664Y-90530280D01*
X145534290Y-90522712D01*
X145547597Y-90516418D01*
X145561457Y-90511459D01*
X145575736Y-90507882D01*
X145590297Y-90505722D01*
X145605000Y-90505000D01*
X147355000Y-90505000D01*
X147369703Y-90505722D01*
X147369703Y-90505722D01*
G37*
D12*
X146480000Y-90805000D03*
D10*
G36*
X147369703Y-89235722D02*
G01*
X147384264Y-89237882D01*
X147398543Y-89241459D01*
X147412403Y-89246418D01*
X147425710Y-89252712D01*
X147438336Y-89260280D01*
X147450159Y-89269048D01*
X147461066Y-89278934D01*
X147470952Y-89289841D01*
X147479720Y-89301664D01*
X147487288Y-89314290D01*
X147493582Y-89327597D01*
X147498541Y-89341457D01*
X147502118Y-89355736D01*
X147504278Y-89370297D01*
X147505000Y-89385000D01*
X147505000Y-89685000D01*
X147504278Y-89699703D01*
X147502118Y-89714264D01*
X147498541Y-89728543D01*
X147493582Y-89742403D01*
X147487288Y-89755710D01*
X147479720Y-89768336D01*
X147470952Y-89780159D01*
X147461066Y-89791066D01*
X147450159Y-89800952D01*
X147438336Y-89809720D01*
X147425710Y-89817288D01*
X147412403Y-89823582D01*
X147398543Y-89828541D01*
X147384264Y-89832118D01*
X147369703Y-89834278D01*
X147355000Y-89835000D01*
X145605000Y-89835000D01*
X145590297Y-89834278D01*
X145575736Y-89832118D01*
X145561457Y-89828541D01*
X145547597Y-89823582D01*
X145534290Y-89817288D01*
X145521664Y-89809720D01*
X145509841Y-89800952D01*
X145498934Y-89791066D01*
X145489048Y-89780159D01*
X145480280Y-89768336D01*
X145472712Y-89755710D01*
X145466418Y-89742403D01*
X145461459Y-89728543D01*
X145457882Y-89714264D01*
X145455722Y-89699703D01*
X145455000Y-89685000D01*
X145455000Y-89385000D01*
X145455722Y-89370297D01*
X145457882Y-89355736D01*
X145461459Y-89341457D01*
X145466418Y-89327597D01*
X145472712Y-89314290D01*
X145480280Y-89301664D01*
X145489048Y-89289841D01*
X145498934Y-89278934D01*
X145509841Y-89269048D01*
X145521664Y-89260280D01*
X145534290Y-89252712D01*
X145547597Y-89246418D01*
X145561457Y-89241459D01*
X145575736Y-89237882D01*
X145590297Y-89235722D01*
X145605000Y-89235000D01*
X147355000Y-89235000D01*
X147369703Y-89235722D01*
X147369703Y-89235722D01*
G37*
D12*
X146480000Y-89535000D03*
D10*
G36*
X147369703Y-87965722D02*
G01*
X147384264Y-87967882D01*
X147398543Y-87971459D01*
X147412403Y-87976418D01*
X147425710Y-87982712D01*
X147438336Y-87990280D01*
X147450159Y-87999048D01*
X147461066Y-88008934D01*
X147470952Y-88019841D01*
X147479720Y-88031664D01*
X147487288Y-88044290D01*
X147493582Y-88057597D01*
X147498541Y-88071457D01*
X147502118Y-88085736D01*
X147504278Y-88100297D01*
X147505000Y-88115000D01*
X147505000Y-88415000D01*
X147504278Y-88429703D01*
X147502118Y-88444264D01*
X147498541Y-88458543D01*
X147493582Y-88472403D01*
X147487288Y-88485710D01*
X147479720Y-88498336D01*
X147470952Y-88510159D01*
X147461066Y-88521066D01*
X147450159Y-88530952D01*
X147438336Y-88539720D01*
X147425710Y-88547288D01*
X147412403Y-88553582D01*
X147398543Y-88558541D01*
X147384264Y-88562118D01*
X147369703Y-88564278D01*
X147355000Y-88565000D01*
X145605000Y-88565000D01*
X145590297Y-88564278D01*
X145575736Y-88562118D01*
X145561457Y-88558541D01*
X145547597Y-88553582D01*
X145534290Y-88547288D01*
X145521664Y-88539720D01*
X145509841Y-88530952D01*
X145498934Y-88521066D01*
X145489048Y-88510159D01*
X145480280Y-88498336D01*
X145472712Y-88485710D01*
X145466418Y-88472403D01*
X145461459Y-88458543D01*
X145457882Y-88444264D01*
X145455722Y-88429703D01*
X145455000Y-88415000D01*
X145455000Y-88115000D01*
X145455722Y-88100297D01*
X145457882Y-88085736D01*
X145461459Y-88071457D01*
X145466418Y-88057597D01*
X145472712Y-88044290D01*
X145480280Y-88031664D01*
X145489048Y-88019841D01*
X145498934Y-88008934D01*
X145509841Y-87999048D01*
X145521664Y-87990280D01*
X145534290Y-87982712D01*
X145547597Y-87976418D01*
X145561457Y-87971459D01*
X145575736Y-87967882D01*
X145590297Y-87965722D01*
X145605000Y-87965000D01*
X147355000Y-87965000D01*
X147369703Y-87965722D01*
X147369703Y-87965722D01*
G37*
D12*
X146480000Y-88265000D03*
D10*
G36*
X147369703Y-86695722D02*
G01*
X147384264Y-86697882D01*
X147398543Y-86701459D01*
X147412403Y-86706418D01*
X147425710Y-86712712D01*
X147438336Y-86720280D01*
X147450159Y-86729048D01*
X147461066Y-86738934D01*
X147470952Y-86749841D01*
X147479720Y-86761664D01*
X147487288Y-86774290D01*
X147493582Y-86787597D01*
X147498541Y-86801457D01*
X147502118Y-86815736D01*
X147504278Y-86830297D01*
X147505000Y-86845000D01*
X147505000Y-87145000D01*
X147504278Y-87159703D01*
X147502118Y-87174264D01*
X147498541Y-87188543D01*
X147493582Y-87202403D01*
X147487288Y-87215710D01*
X147479720Y-87228336D01*
X147470952Y-87240159D01*
X147461066Y-87251066D01*
X147450159Y-87260952D01*
X147438336Y-87269720D01*
X147425710Y-87277288D01*
X147412403Y-87283582D01*
X147398543Y-87288541D01*
X147384264Y-87292118D01*
X147369703Y-87294278D01*
X147355000Y-87295000D01*
X145605000Y-87295000D01*
X145590297Y-87294278D01*
X145575736Y-87292118D01*
X145561457Y-87288541D01*
X145547597Y-87283582D01*
X145534290Y-87277288D01*
X145521664Y-87269720D01*
X145509841Y-87260952D01*
X145498934Y-87251066D01*
X145489048Y-87240159D01*
X145480280Y-87228336D01*
X145472712Y-87215710D01*
X145466418Y-87202403D01*
X145461459Y-87188543D01*
X145457882Y-87174264D01*
X145455722Y-87159703D01*
X145455000Y-87145000D01*
X145455000Y-86845000D01*
X145455722Y-86830297D01*
X145457882Y-86815736D01*
X145461459Y-86801457D01*
X145466418Y-86787597D01*
X145472712Y-86774290D01*
X145480280Y-86761664D01*
X145489048Y-86749841D01*
X145498934Y-86738934D01*
X145509841Y-86729048D01*
X145521664Y-86720280D01*
X145534290Y-86712712D01*
X145547597Y-86706418D01*
X145561457Y-86701459D01*
X145575736Y-86697882D01*
X145590297Y-86695722D01*
X145605000Y-86695000D01*
X147355000Y-86695000D01*
X147369703Y-86695722D01*
X147369703Y-86695722D01*
G37*
D12*
X146480000Y-86995000D03*
D10*
G36*
X147369703Y-85425722D02*
G01*
X147384264Y-85427882D01*
X147398543Y-85431459D01*
X147412403Y-85436418D01*
X147425710Y-85442712D01*
X147438336Y-85450280D01*
X147450159Y-85459048D01*
X147461066Y-85468934D01*
X147470952Y-85479841D01*
X147479720Y-85491664D01*
X147487288Y-85504290D01*
X147493582Y-85517597D01*
X147498541Y-85531457D01*
X147502118Y-85545736D01*
X147504278Y-85560297D01*
X147505000Y-85575000D01*
X147505000Y-85875000D01*
X147504278Y-85889703D01*
X147502118Y-85904264D01*
X147498541Y-85918543D01*
X147493582Y-85932403D01*
X147487288Y-85945710D01*
X147479720Y-85958336D01*
X147470952Y-85970159D01*
X147461066Y-85981066D01*
X147450159Y-85990952D01*
X147438336Y-85999720D01*
X147425710Y-86007288D01*
X147412403Y-86013582D01*
X147398543Y-86018541D01*
X147384264Y-86022118D01*
X147369703Y-86024278D01*
X147355000Y-86025000D01*
X145605000Y-86025000D01*
X145590297Y-86024278D01*
X145575736Y-86022118D01*
X145561457Y-86018541D01*
X145547597Y-86013582D01*
X145534290Y-86007288D01*
X145521664Y-85999720D01*
X145509841Y-85990952D01*
X145498934Y-85981066D01*
X145489048Y-85970159D01*
X145480280Y-85958336D01*
X145472712Y-85945710D01*
X145466418Y-85932403D01*
X145461459Y-85918543D01*
X145457882Y-85904264D01*
X145455722Y-85889703D01*
X145455000Y-85875000D01*
X145455000Y-85575000D01*
X145455722Y-85560297D01*
X145457882Y-85545736D01*
X145461459Y-85531457D01*
X145466418Y-85517597D01*
X145472712Y-85504290D01*
X145480280Y-85491664D01*
X145489048Y-85479841D01*
X145498934Y-85468934D01*
X145509841Y-85459048D01*
X145521664Y-85450280D01*
X145534290Y-85442712D01*
X145547597Y-85436418D01*
X145561457Y-85431459D01*
X145575736Y-85427882D01*
X145590297Y-85425722D01*
X145605000Y-85425000D01*
X147355000Y-85425000D01*
X147369703Y-85425722D01*
X147369703Y-85425722D01*
G37*
D12*
X146480000Y-85725000D03*
D10*
G36*
X147369703Y-84155722D02*
G01*
X147384264Y-84157882D01*
X147398543Y-84161459D01*
X147412403Y-84166418D01*
X147425710Y-84172712D01*
X147438336Y-84180280D01*
X147450159Y-84189048D01*
X147461066Y-84198934D01*
X147470952Y-84209841D01*
X147479720Y-84221664D01*
X147487288Y-84234290D01*
X147493582Y-84247597D01*
X147498541Y-84261457D01*
X147502118Y-84275736D01*
X147504278Y-84290297D01*
X147505000Y-84305000D01*
X147505000Y-84605000D01*
X147504278Y-84619703D01*
X147502118Y-84634264D01*
X147498541Y-84648543D01*
X147493582Y-84662403D01*
X147487288Y-84675710D01*
X147479720Y-84688336D01*
X147470952Y-84700159D01*
X147461066Y-84711066D01*
X147450159Y-84720952D01*
X147438336Y-84729720D01*
X147425710Y-84737288D01*
X147412403Y-84743582D01*
X147398543Y-84748541D01*
X147384264Y-84752118D01*
X147369703Y-84754278D01*
X147355000Y-84755000D01*
X145605000Y-84755000D01*
X145590297Y-84754278D01*
X145575736Y-84752118D01*
X145561457Y-84748541D01*
X145547597Y-84743582D01*
X145534290Y-84737288D01*
X145521664Y-84729720D01*
X145509841Y-84720952D01*
X145498934Y-84711066D01*
X145489048Y-84700159D01*
X145480280Y-84688336D01*
X145472712Y-84675710D01*
X145466418Y-84662403D01*
X145461459Y-84648543D01*
X145457882Y-84634264D01*
X145455722Y-84619703D01*
X145455000Y-84605000D01*
X145455000Y-84305000D01*
X145455722Y-84290297D01*
X145457882Y-84275736D01*
X145461459Y-84261457D01*
X145466418Y-84247597D01*
X145472712Y-84234290D01*
X145480280Y-84221664D01*
X145489048Y-84209841D01*
X145498934Y-84198934D01*
X145509841Y-84189048D01*
X145521664Y-84180280D01*
X145534290Y-84172712D01*
X145547597Y-84166418D01*
X145561457Y-84161459D01*
X145575736Y-84157882D01*
X145590297Y-84155722D01*
X145605000Y-84155000D01*
X147355000Y-84155000D01*
X147369703Y-84155722D01*
X147369703Y-84155722D01*
G37*
D12*
X146480000Y-84455000D03*
D10*
G36*
X147369703Y-82885722D02*
G01*
X147384264Y-82887882D01*
X147398543Y-82891459D01*
X147412403Y-82896418D01*
X147425710Y-82902712D01*
X147438336Y-82910280D01*
X147450159Y-82919048D01*
X147461066Y-82928934D01*
X147470952Y-82939841D01*
X147479720Y-82951664D01*
X147487288Y-82964290D01*
X147493582Y-82977597D01*
X147498541Y-82991457D01*
X147502118Y-83005736D01*
X147504278Y-83020297D01*
X147505000Y-83035000D01*
X147505000Y-83335000D01*
X147504278Y-83349703D01*
X147502118Y-83364264D01*
X147498541Y-83378543D01*
X147493582Y-83392403D01*
X147487288Y-83405710D01*
X147479720Y-83418336D01*
X147470952Y-83430159D01*
X147461066Y-83441066D01*
X147450159Y-83450952D01*
X147438336Y-83459720D01*
X147425710Y-83467288D01*
X147412403Y-83473582D01*
X147398543Y-83478541D01*
X147384264Y-83482118D01*
X147369703Y-83484278D01*
X147355000Y-83485000D01*
X145605000Y-83485000D01*
X145590297Y-83484278D01*
X145575736Y-83482118D01*
X145561457Y-83478541D01*
X145547597Y-83473582D01*
X145534290Y-83467288D01*
X145521664Y-83459720D01*
X145509841Y-83450952D01*
X145498934Y-83441066D01*
X145489048Y-83430159D01*
X145480280Y-83418336D01*
X145472712Y-83405710D01*
X145466418Y-83392403D01*
X145461459Y-83378543D01*
X145457882Y-83364264D01*
X145455722Y-83349703D01*
X145455000Y-83335000D01*
X145455000Y-83035000D01*
X145455722Y-83020297D01*
X145457882Y-83005736D01*
X145461459Y-82991457D01*
X145466418Y-82977597D01*
X145472712Y-82964290D01*
X145480280Y-82951664D01*
X145489048Y-82939841D01*
X145498934Y-82928934D01*
X145509841Y-82919048D01*
X145521664Y-82910280D01*
X145534290Y-82902712D01*
X145547597Y-82896418D01*
X145561457Y-82891459D01*
X145575736Y-82887882D01*
X145590297Y-82885722D01*
X145605000Y-82885000D01*
X147355000Y-82885000D01*
X147369703Y-82885722D01*
X147369703Y-82885722D01*
G37*
D12*
X146480000Y-83185000D03*
D10*
G36*
X147369703Y-81615722D02*
G01*
X147384264Y-81617882D01*
X147398543Y-81621459D01*
X147412403Y-81626418D01*
X147425710Y-81632712D01*
X147438336Y-81640280D01*
X147450159Y-81649048D01*
X147461066Y-81658934D01*
X147470952Y-81669841D01*
X147479720Y-81681664D01*
X147487288Y-81694290D01*
X147493582Y-81707597D01*
X147498541Y-81721457D01*
X147502118Y-81735736D01*
X147504278Y-81750297D01*
X147505000Y-81765000D01*
X147505000Y-82065000D01*
X147504278Y-82079703D01*
X147502118Y-82094264D01*
X147498541Y-82108543D01*
X147493582Y-82122403D01*
X147487288Y-82135710D01*
X147479720Y-82148336D01*
X147470952Y-82160159D01*
X147461066Y-82171066D01*
X147450159Y-82180952D01*
X147438336Y-82189720D01*
X147425710Y-82197288D01*
X147412403Y-82203582D01*
X147398543Y-82208541D01*
X147384264Y-82212118D01*
X147369703Y-82214278D01*
X147355000Y-82215000D01*
X145605000Y-82215000D01*
X145590297Y-82214278D01*
X145575736Y-82212118D01*
X145561457Y-82208541D01*
X145547597Y-82203582D01*
X145534290Y-82197288D01*
X145521664Y-82189720D01*
X145509841Y-82180952D01*
X145498934Y-82171066D01*
X145489048Y-82160159D01*
X145480280Y-82148336D01*
X145472712Y-82135710D01*
X145466418Y-82122403D01*
X145461459Y-82108543D01*
X145457882Y-82094264D01*
X145455722Y-82079703D01*
X145455000Y-82065000D01*
X145455000Y-81765000D01*
X145455722Y-81750297D01*
X145457882Y-81735736D01*
X145461459Y-81721457D01*
X145466418Y-81707597D01*
X145472712Y-81694290D01*
X145480280Y-81681664D01*
X145489048Y-81669841D01*
X145498934Y-81658934D01*
X145509841Y-81649048D01*
X145521664Y-81640280D01*
X145534290Y-81632712D01*
X145547597Y-81626418D01*
X145561457Y-81621459D01*
X145575736Y-81617882D01*
X145590297Y-81615722D01*
X145605000Y-81615000D01*
X147355000Y-81615000D01*
X147369703Y-81615722D01*
X147369703Y-81615722D01*
G37*
D12*
X146480000Y-81915000D03*
D10*
G36*
X147369703Y-80345722D02*
G01*
X147384264Y-80347882D01*
X147398543Y-80351459D01*
X147412403Y-80356418D01*
X147425710Y-80362712D01*
X147438336Y-80370280D01*
X147450159Y-80379048D01*
X147461066Y-80388934D01*
X147470952Y-80399841D01*
X147479720Y-80411664D01*
X147487288Y-80424290D01*
X147493582Y-80437597D01*
X147498541Y-80451457D01*
X147502118Y-80465736D01*
X147504278Y-80480297D01*
X147505000Y-80495000D01*
X147505000Y-80795000D01*
X147504278Y-80809703D01*
X147502118Y-80824264D01*
X147498541Y-80838543D01*
X147493582Y-80852403D01*
X147487288Y-80865710D01*
X147479720Y-80878336D01*
X147470952Y-80890159D01*
X147461066Y-80901066D01*
X147450159Y-80910952D01*
X147438336Y-80919720D01*
X147425710Y-80927288D01*
X147412403Y-80933582D01*
X147398543Y-80938541D01*
X147384264Y-80942118D01*
X147369703Y-80944278D01*
X147355000Y-80945000D01*
X145605000Y-80945000D01*
X145590297Y-80944278D01*
X145575736Y-80942118D01*
X145561457Y-80938541D01*
X145547597Y-80933582D01*
X145534290Y-80927288D01*
X145521664Y-80919720D01*
X145509841Y-80910952D01*
X145498934Y-80901066D01*
X145489048Y-80890159D01*
X145480280Y-80878336D01*
X145472712Y-80865710D01*
X145466418Y-80852403D01*
X145461459Y-80838543D01*
X145457882Y-80824264D01*
X145455722Y-80809703D01*
X145455000Y-80795000D01*
X145455000Y-80495000D01*
X145455722Y-80480297D01*
X145457882Y-80465736D01*
X145461459Y-80451457D01*
X145466418Y-80437597D01*
X145472712Y-80424290D01*
X145480280Y-80411664D01*
X145489048Y-80399841D01*
X145498934Y-80388934D01*
X145509841Y-80379048D01*
X145521664Y-80370280D01*
X145534290Y-80362712D01*
X145547597Y-80356418D01*
X145561457Y-80351459D01*
X145575736Y-80347882D01*
X145590297Y-80345722D01*
X145605000Y-80345000D01*
X147355000Y-80345000D01*
X147369703Y-80345722D01*
X147369703Y-80345722D01*
G37*
D12*
X146480000Y-80645000D03*
D10*
G36*
X152252004Y-74056204D02*
G01*
X152276273Y-74059804D01*
X152300071Y-74065765D01*
X152323171Y-74074030D01*
X152345349Y-74084520D01*
X152366393Y-74097133D01*
X152386098Y-74111747D01*
X152404277Y-74128223D01*
X152420753Y-74146402D01*
X152435367Y-74166107D01*
X152447980Y-74187151D01*
X152458470Y-74209329D01*
X152466735Y-74232429D01*
X152472696Y-74256227D01*
X152476296Y-74280496D01*
X152477500Y-74305000D01*
X152477500Y-75555000D01*
X152476296Y-75579504D01*
X152472696Y-75603773D01*
X152466735Y-75627571D01*
X152458470Y-75650671D01*
X152447980Y-75672849D01*
X152435367Y-75693893D01*
X152420753Y-75713598D01*
X152404277Y-75731777D01*
X152386098Y-75748253D01*
X152366393Y-75762867D01*
X152345349Y-75775480D01*
X152323171Y-75785970D01*
X152300071Y-75794235D01*
X152276273Y-75800196D01*
X152252004Y-75803796D01*
X152227500Y-75805000D01*
X151302500Y-75805000D01*
X151277996Y-75803796D01*
X151253727Y-75800196D01*
X151229929Y-75794235D01*
X151206829Y-75785970D01*
X151184651Y-75775480D01*
X151163607Y-75762867D01*
X151143902Y-75748253D01*
X151125723Y-75731777D01*
X151109247Y-75713598D01*
X151094633Y-75693893D01*
X151082020Y-75672849D01*
X151071530Y-75650671D01*
X151063265Y-75627571D01*
X151057304Y-75603773D01*
X151053704Y-75579504D01*
X151052500Y-75555000D01*
X151052500Y-74305000D01*
X151053704Y-74280496D01*
X151057304Y-74256227D01*
X151063265Y-74232429D01*
X151071530Y-74209329D01*
X151082020Y-74187151D01*
X151094633Y-74166107D01*
X151109247Y-74146402D01*
X151125723Y-74128223D01*
X151143902Y-74111747D01*
X151163607Y-74097133D01*
X151184651Y-74084520D01*
X151206829Y-74074030D01*
X151229929Y-74065765D01*
X151253727Y-74059804D01*
X151277996Y-74056204D01*
X151302500Y-74055000D01*
X152227500Y-74055000D01*
X152252004Y-74056204D01*
X152252004Y-74056204D01*
G37*
D13*
X151765000Y-74930000D03*
D10*
G36*
X149277004Y-74056204D02*
G01*
X149301273Y-74059804D01*
X149325071Y-74065765D01*
X149348171Y-74074030D01*
X149370349Y-74084520D01*
X149391393Y-74097133D01*
X149411098Y-74111747D01*
X149429277Y-74128223D01*
X149445753Y-74146402D01*
X149460367Y-74166107D01*
X149472980Y-74187151D01*
X149483470Y-74209329D01*
X149491735Y-74232429D01*
X149497696Y-74256227D01*
X149501296Y-74280496D01*
X149502500Y-74305000D01*
X149502500Y-75555000D01*
X149501296Y-75579504D01*
X149497696Y-75603773D01*
X149491735Y-75627571D01*
X149483470Y-75650671D01*
X149472980Y-75672849D01*
X149460367Y-75693893D01*
X149445753Y-75713598D01*
X149429277Y-75731777D01*
X149411098Y-75748253D01*
X149391393Y-75762867D01*
X149370349Y-75775480D01*
X149348171Y-75785970D01*
X149325071Y-75794235D01*
X149301273Y-75800196D01*
X149277004Y-75803796D01*
X149252500Y-75805000D01*
X148327500Y-75805000D01*
X148302996Y-75803796D01*
X148278727Y-75800196D01*
X148254929Y-75794235D01*
X148231829Y-75785970D01*
X148209651Y-75775480D01*
X148188607Y-75762867D01*
X148168902Y-75748253D01*
X148150723Y-75731777D01*
X148134247Y-75713598D01*
X148119633Y-75693893D01*
X148107020Y-75672849D01*
X148096530Y-75650671D01*
X148088265Y-75627571D01*
X148082304Y-75603773D01*
X148078704Y-75579504D01*
X148077500Y-75555000D01*
X148077500Y-74305000D01*
X148078704Y-74280496D01*
X148082304Y-74256227D01*
X148088265Y-74232429D01*
X148096530Y-74209329D01*
X148107020Y-74187151D01*
X148119633Y-74166107D01*
X148134247Y-74146402D01*
X148150723Y-74128223D01*
X148168902Y-74111747D01*
X148188607Y-74097133D01*
X148209651Y-74084520D01*
X148231829Y-74074030D01*
X148254929Y-74065765D01*
X148278727Y-74059804D01*
X148302996Y-74056204D01*
X148327500Y-74055000D01*
X149252500Y-74055000D01*
X149277004Y-74056204D01*
X149277004Y-74056204D01*
G37*
D13*
X148790000Y-74930000D03*
D10*
G36*
X152252004Y-70246204D02*
G01*
X152276273Y-70249804D01*
X152300071Y-70255765D01*
X152323171Y-70264030D01*
X152345349Y-70274520D01*
X152366393Y-70287133D01*
X152386098Y-70301747D01*
X152404277Y-70318223D01*
X152420753Y-70336402D01*
X152435367Y-70356107D01*
X152447980Y-70377151D01*
X152458470Y-70399329D01*
X152466735Y-70422429D01*
X152472696Y-70446227D01*
X152476296Y-70470496D01*
X152477500Y-70495000D01*
X152477500Y-71745000D01*
X152476296Y-71769504D01*
X152472696Y-71793773D01*
X152466735Y-71817571D01*
X152458470Y-71840671D01*
X152447980Y-71862849D01*
X152435367Y-71883893D01*
X152420753Y-71903598D01*
X152404277Y-71921777D01*
X152386098Y-71938253D01*
X152366393Y-71952867D01*
X152345349Y-71965480D01*
X152323171Y-71975970D01*
X152300071Y-71984235D01*
X152276273Y-71990196D01*
X152252004Y-71993796D01*
X152227500Y-71995000D01*
X151302500Y-71995000D01*
X151277996Y-71993796D01*
X151253727Y-71990196D01*
X151229929Y-71984235D01*
X151206829Y-71975970D01*
X151184651Y-71965480D01*
X151163607Y-71952867D01*
X151143902Y-71938253D01*
X151125723Y-71921777D01*
X151109247Y-71903598D01*
X151094633Y-71883893D01*
X151082020Y-71862849D01*
X151071530Y-71840671D01*
X151063265Y-71817571D01*
X151057304Y-71793773D01*
X151053704Y-71769504D01*
X151052500Y-71745000D01*
X151052500Y-70495000D01*
X151053704Y-70470496D01*
X151057304Y-70446227D01*
X151063265Y-70422429D01*
X151071530Y-70399329D01*
X151082020Y-70377151D01*
X151094633Y-70356107D01*
X151109247Y-70336402D01*
X151125723Y-70318223D01*
X151143902Y-70301747D01*
X151163607Y-70287133D01*
X151184651Y-70274520D01*
X151206829Y-70264030D01*
X151229929Y-70255765D01*
X151253727Y-70249804D01*
X151277996Y-70246204D01*
X151302500Y-70245000D01*
X152227500Y-70245000D01*
X152252004Y-70246204D01*
X152252004Y-70246204D01*
G37*
D13*
X151765000Y-71120000D03*
D10*
G36*
X149277004Y-70246204D02*
G01*
X149301273Y-70249804D01*
X149325071Y-70255765D01*
X149348171Y-70264030D01*
X149370349Y-70274520D01*
X149391393Y-70287133D01*
X149411098Y-70301747D01*
X149429277Y-70318223D01*
X149445753Y-70336402D01*
X149460367Y-70356107D01*
X149472980Y-70377151D01*
X149483470Y-70399329D01*
X149491735Y-70422429D01*
X149497696Y-70446227D01*
X149501296Y-70470496D01*
X149502500Y-70495000D01*
X149502500Y-71745000D01*
X149501296Y-71769504D01*
X149497696Y-71793773D01*
X149491735Y-71817571D01*
X149483470Y-71840671D01*
X149472980Y-71862849D01*
X149460367Y-71883893D01*
X149445753Y-71903598D01*
X149429277Y-71921777D01*
X149411098Y-71938253D01*
X149391393Y-71952867D01*
X149370349Y-71965480D01*
X149348171Y-71975970D01*
X149325071Y-71984235D01*
X149301273Y-71990196D01*
X149277004Y-71993796D01*
X149252500Y-71995000D01*
X148327500Y-71995000D01*
X148302996Y-71993796D01*
X148278727Y-71990196D01*
X148254929Y-71984235D01*
X148231829Y-71975970D01*
X148209651Y-71965480D01*
X148188607Y-71952867D01*
X148168902Y-71938253D01*
X148150723Y-71921777D01*
X148134247Y-71903598D01*
X148119633Y-71883893D01*
X148107020Y-71862849D01*
X148096530Y-71840671D01*
X148088265Y-71817571D01*
X148082304Y-71793773D01*
X148078704Y-71769504D01*
X148077500Y-71745000D01*
X148077500Y-70495000D01*
X148078704Y-70470496D01*
X148082304Y-70446227D01*
X148088265Y-70422429D01*
X148096530Y-70399329D01*
X148107020Y-70377151D01*
X148119633Y-70356107D01*
X148134247Y-70336402D01*
X148150723Y-70318223D01*
X148168902Y-70301747D01*
X148188607Y-70287133D01*
X148209651Y-70274520D01*
X148231829Y-70264030D01*
X148254929Y-70255765D01*
X148278727Y-70249804D01*
X148302996Y-70246204D01*
X148327500Y-70245000D01*
X149252500Y-70245000D01*
X149277004Y-70246204D01*
X149277004Y-70246204D01*
G37*
D13*
X148790000Y-71120000D03*
M02*
