G04 #@! TF.GenerationSoftware,KiCad,Pcbnew,(5.1.4)-1*
G04 #@! TF.CreationDate,2019-11-25T23:53:57+00:00*
G04 #@! TF.ProjectId,KeyPad BCD encoder,4b657950-6164-4204-9243-4420656e636f,rev?*
G04 #@! TF.SameCoordinates,Original*
G04 #@! TF.FileFunction,Soldermask,Top*
G04 #@! TF.FilePolarity,Negative*
%FSLAX46Y46*%
G04 Gerber Fmt 4.6, Leading zero omitted, Abs format (unit mm)*
G04 Created by KiCad (PCBNEW (5.1.4)-1) date 2019-11-25 23:53:57*
%MOMM*%
%LPD*%
G04 APERTURE LIST*
%ADD10C,0.100000*%
G04 APERTURE END LIST*
D10*
G36*
X160286000Y-103771000D02*
G01*
X158484000Y-103771000D01*
X158484000Y-101969000D01*
X160286000Y-101969000D01*
X160286000Y-103771000D01*
X160286000Y-103771000D01*
G37*
G36*
X156955442Y-101975518D02*
G01*
X157021627Y-101982037D01*
X157191466Y-102033557D01*
X157347991Y-102117222D01*
X157383729Y-102146552D01*
X157485186Y-102229814D01*
X157568448Y-102331271D01*
X157597778Y-102367009D01*
X157681443Y-102523534D01*
X157732963Y-102693373D01*
X157750359Y-102870000D01*
X157732963Y-103046627D01*
X157681443Y-103216466D01*
X157597778Y-103372991D01*
X157568448Y-103408729D01*
X157485186Y-103510186D01*
X157383729Y-103593448D01*
X157347991Y-103622778D01*
X157191466Y-103706443D01*
X157021627Y-103757963D01*
X156955443Y-103764481D01*
X156889260Y-103771000D01*
X156800740Y-103771000D01*
X156734557Y-103764481D01*
X156668373Y-103757963D01*
X156498534Y-103706443D01*
X156342009Y-103622778D01*
X156306271Y-103593448D01*
X156204814Y-103510186D01*
X156121552Y-103408729D01*
X156092222Y-103372991D01*
X156008557Y-103216466D01*
X155957037Y-103046627D01*
X155939641Y-102870000D01*
X155957037Y-102693373D01*
X156008557Y-102523534D01*
X156092222Y-102367009D01*
X156121552Y-102331271D01*
X156204814Y-102229814D01*
X156306271Y-102146552D01*
X156342009Y-102117222D01*
X156498534Y-102033557D01*
X156668373Y-101982037D01*
X156734558Y-101975518D01*
X156800740Y-101969000D01*
X156889260Y-101969000D01*
X156955442Y-101975518D01*
X156955442Y-101975518D01*
G37*
G36*
X154415442Y-101975518D02*
G01*
X154481627Y-101982037D01*
X154651466Y-102033557D01*
X154807991Y-102117222D01*
X154843729Y-102146552D01*
X154945186Y-102229814D01*
X155028448Y-102331271D01*
X155057778Y-102367009D01*
X155141443Y-102523534D01*
X155192963Y-102693373D01*
X155210359Y-102870000D01*
X155192963Y-103046627D01*
X155141443Y-103216466D01*
X155057778Y-103372991D01*
X155028448Y-103408729D01*
X154945186Y-103510186D01*
X154843729Y-103593448D01*
X154807991Y-103622778D01*
X154651466Y-103706443D01*
X154481627Y-103757963D01*
X154415443Y-103764481D01*
X154349260Y-103771000D01*
X154260740Y-103771000D01*
X154194557Y-103764481D01*
X154128373Y-103757963D01*
X153958534Y-103706443D01*
X153802009Y-103622778D01*
X153766271Y-103593448D01*
X153664814Y-103510186D01*
X153581552Y-103408729D01*
X153552222Y-103372991D01*
X153468557Y-103216466D01*
X153417037Y-103046627D01*
X153399641Y-102870000D01*
X153417037Y-102693373D01*
X153468557Y-102523534D01*
X153552222Y-102367009D01*
X153581552Y-102331271D01*
X153664814Y-102229814D01*
X153766271Y-102146552D01*
X153802009Y-102117222D01*
X153958534Y-102033557D01*
X154128373Y-101982037D01*
X154194558Y-101975518D01*
X154260740Y-101969000D01*
X154349260Y-101969000D01*
X154415442Y-101975518D01*
X154415442Y-101975518D01*
G37*
G36*
X151875442Y-101975518D02*
G01*
X151941627Y-101982037D01*
X152111466Y-102033557D01*
X152267991Y-102117222D01*
X152303729Y-102146552D01*
X152405186Y-102229814D01*
X152488448Y-102331271D01*
X152517778Y-102367009D01*
X152601443Y-102523534D01*
X152652963Y-102693373D01*
X152670359Y-102870000D01*
X152652963Y-103046627D01*
X152601443Y-103216466D01*
X152517778Y-103372991D01*
X152488448Y-103408729D01*
X152405186Y-103510186D01*
X152303729Y-103593448D01*
X152267991Y-103622778D01*
X152111466Y-103706443D01*
X151941627Y-103757963D01*
X151875443Y-103764481D01*
X151809260Y-103771000D01*
X151720740Y-103771000D01*
X151654557Y-103764481D01*
X151588373Y-103757963D01*
X151418534Y-103706443D01*
X151262009Y-103622778D01*
X151226271Y-103593448D01*
X151124814Y-103510186D01*
X151041552Y-103408729D01*
X151012222Y-103372991D01*
X150928557Y-103216466D01*
X150877037Y-103046627D01*
X150859641Y-102870000D01*
X150877037Y-102693373D01*
X150928557Y-102523534D01*
X151012222Y-102367009D01*
X151041552Y-102331271D01*
X151124814Y-102229814D01*
X151226271Y-102146552D01*
X151262009Y-102117222D01*
X151418534Y-102033557D01*
X151588373Y-101982037D01*
X151654558Y-101975518D01*
X151720740Y-101969000D01*
X151809260Y-101969000D01*
X151875442Y-101975518D01*
X151875442Y-101975518D01*
G37*
G36*
X146795442Y-101975518D02*
G01*
X146861627Y-101982037D01*
X147031466Y-102033557D01*
X147187991Y-102117222D01*
X147223729Y-102146552D01*
X147325186Y-102229814D01*
X147408448Y-102331271D01*
X147437778Y-102367009D01*
X147521443Y-102523534D01*
X147572963Y-102693373D01*
X147590359Y-102870000D01*
X147572963Y-103046627D01*
X147521443Y-103216466D01*
X147437778Y-103372991D01*
X147408448Y-103408729D01*
X147325186Y-103510186D01*
X147223729Y-103593448D01*
X147187991Y-103622778D01*
X147031466Y-103706443D01*
X146861627Y-103757963D01*
X146795443Y-103764481D01*
X146729260Y-103771000D01*
X146640740Y-103771000D01*
X146574557Y-103764481D01*
X146508373Y-103757963D01*
X146338534Y-103706443D01*
X146182009Y-103622778D01*
X146146271Y-103593448D01*
X146044814Y-103510186D01*
X145961552Y-103408729D01*
X145932222Y-103372991D01*
X145848557Y-103216466D01*
X145797037Y-103046627D01*
X145779641Y-102870000D01*
X145797037Y-102693373D01*
X145848557Y-102523534D01*
X145932222Y-102367009D01*
X145961552Y-102331271D01*
X146044814Y-102229814D01*
X146146271Y-102146552D01*
X146182009Y-102117222D01*
X146338534Y-102033557D01*
X146508373Y-101982037D01*
X146574558Y-101975518D01*
X146640740Y-101969000D01*
X146729260Y-101969000D01*
X146795442Y-101975518D01*
X146795442Y-101975518D01*
G37*
G36*
X144255442Y-101975518D02*
G01*
X144321627Y-101982037D01*
X144491466Y-102033557D01*
X144647991Y-102117222D01*
X144683729Y-102146552D01*
X144785186Y-102229814D01*
X144868448Y-102331271D01*
X144897778Y-102367009D01*
X144981443Y-102523534D01*
X145032963Y-102693373D01*
X145050359Y-102870000D01*
X145032963Y-103046627D01*
X144981443Y-103216466D01*
X144897778Y-103372991D01*
X144868448Y-103408729D01*
X144785186Y-103510186D01*
X144683729Y-103593448D01*
X144647991Y-103622778D01*
X144491466Y-103706443D01*
X144321627Y-103757963D01*
X144255443Y-103764481D01*
X144189260Y-103771000D01*
X144100740Y-103771000D01*
X144034557Y-103764481D01*
X143968373Y-103757963D01*
X143798534Y-103706443D01*
X143642009Y-103622778D01*
X143606271Y-103593448D01*
X143504814Y-103510186D01*
X143421552Y-103408729D01*
X143392222Y-103372991D01*
X143308557Y-103216466D01*
X143257037Y-103046627D01*
X143239641Y-102870000D01*
X143257037Y-102693373D01*
X143308557Y-102523534D01*
X143392222Y-102367009D01*
X143421552Y-102331271D01*
X143504814Y-102229814D01*
X143606271Y-102146552D01*
X143642009Y-102117222D01*
X143798534Y-102033557D01*
X143968373Y-101982037D01*
X144034558Y-101975518D01*
X144100740Y-101969000D01*
X144189260Y-101969000D01*
X144255442Y-101975518D01*
X144255442Y-101975518D01*
G37*
G36*
X149335442Y-101975518D02*
G01*
X149401627Y-101982037D01*
X149571466Y-102033557D01*
X149727991Y-102117222D01*
X149763729Y-102146552D01*
X149865186Y-102229814D01*
X149948448Y-102331271D01*
X149977778Y-102367009D01*
X150061443Y-102523534D01*
X150112963Y-102693373D01*
X150130359Y-102870000D01*
X150112963Y-103046627D01*
X150061443Y-103216466D01*
X149977778Y-103372991D01*
X149948448Y-103408729D01*
X149865186Y-103510186D01*
X149763729Y-103593448D01*
X149727991Y-103622778D01*
X149571466Y-103706443D01*
X149401627Y-103757963D01*
X149335443Y-103764481D01*
X149269260Y-103771000D01*
X149180740Y-103771000D01*
X149114557Y-103764481D01*
X149048373Y-103757963D01*
X148878534Y-103706443D01*
X148722009Y-103622778D01*
X148686271Y-103593448D01*
X148584814Y-103510186D01*
X148501552Y-103408729D01*
X148472222Y-103372991D01*
X148388557Y-103216466D01*
X148337037Y-103046627D01*
X148319641Y-102870000D01*
X148337037Y-102693373D01*
X148388557Y-102523534D01*
X148472222Y-102367009D01*
X148501552Y-102331271D01*
X148584814Y-102229814D01*
X148686271Y-102146552D01*
X148722009Y-102117222D01*
X148878534Y-102033557D01*
X149048373Y-101982037D01*
X149114558Y-101975518D01*
X149180740Y-101969000D01*
X149269260Y-101969000D01*
X149335442Y-101975518D01*
X149335442Y-101975518D01*
G37*
G36*
X144733674Y-98193465D02*
G01*
X144771367Y-98204899D01*
X144806103Y-98223466D01*
X144836548Y-98248452D01*
X144861534Y-98278897D01*
X144880101Y-98313633D01*
X144891535Y-98351326D01*
X144896000Y-98396661D01*
X144896000Y-99233339D01*
X144891535Y-99278674D01*
X144880101Y-99316367D01*
X144861534Y-99351103D01*
X144836548Y-99381548D01*
X144806103Y-99406534D01*
X144771367Y-99425101D01*
X144733674Y-99436535D01*
X144688339Y-99441000D01*
X143601661Y-99441000D01*
X143556326Y-99436535D01*
X143518633Y-99425101D01*
X143483897Y-99406534D01*
X143453452Y-99381548D01*
X143428466Y-99351103D01*
X143409899Y-99316367D01*
X143398465Y-99278674D01*
X143394000Y-99233339D01*
X143394000Y-98396661D01*
X143398465Y-98351326D01*
X143409899Y-98313633D01*
X143428466Y-98278897D01*
X143453452Y-98248452D01*
X143483897Y-98223466D01*
X143518633Y-98204899D01*
X143556326Y-98193465D01*
X143601661Y-98189000D01*
X144688339Y-98189000D01*
X144733674Y-98193465D01*
X144733674Y-98193465D01*
G37*
G36*
X144733674Y-96143465D02*
G01*
X144771367Y-96154899D01*
X144806103Y-96173466D01*
X144836548Y-96198452D01*
X144861534Y-96228897D01*
X144880101Y-96263633D01*
X144891535Y-96301326D01*
X144896000Y-96346661D01*
X144896000Y-97183339D01*
X144891535Y-97228674D01*
X144880101Y-97266367D01*
X144861534Y-97301103D01*
X144836548Y-97331548D01*
X144806103Y-97356534D01*
X144771367Y-97375101D01*
X144733674Y-97386535D01*
X144688339Y-97391000D01*
X143601661Y-97391000D01*
X143556326Y-97386535D01*
X143518633Y-97375101D01*
X143483897Y-97356534D01*
X143453452Y-97331548D01*
X143428466Y-97301103D01*
X143409899Y-97266367D01*
X143398465Y-97228674D01*
X143394000Y-97183339D01*
X143394000Y-96346661D01*
X143398465Y-96301326D01*
X143409899Y-96263633D01*
X143428466Y-96228897D01*
X143453452Y-96198452D01*
X143483897Y-96173466D01*
X143518633Y-96154899D01*
X143556326Y-96143465D01*
X143601661Y-96139000D01*
X144688339Y-96139000D01*
X144733674Y-96143465D01*
X144733674Y-96143465D01*
G37*
G36*
X162388674Y-95773465D02*
G01*
X162426367Y-95784899D01*
X162461103Y-95803466D01*
X162491548Y-95828452D01*
X162516534Y-95858897D01*
X162535101Y-95893633D01*
X162546535Y-95931326D01*
X162551000Y-95976661D01*
X162551000Y-97063339D01*
X162546535Y-97108674D01*
X162535101Y-97146367D01*
X162516534Y-97181103D01*
X162491548Y-97211548D01*
X162461103Y-97236534D01*
X162426367Y-97255101D01*
X162388674Y-97266535D01*
X162343339Y-97271000D01*
X161506661Y-97271000D01*
X161461326Y-97266535D01*
X161423633Y-97255101D01*
X161388897Y-97236534D01*
X161358452Y-97211548D01*
X161333466Y-97181103D01*
X161314899Y-97146367D01*
X161303465Y-97108674D01*
X161299000Y-97063339D01*
X161299000Y-95976661D01*
X161303465Y-95931326D01*
X161314899Y-95893633D01*
X161333466Y-95858897D01*
X161358452Y-95828452D01*
X161388897Y-95803466D01*
X161423633Y-95784899D01*
X161461326Y-95773465D01*
X161506661Y-95769000D01*
X162343339Y-95769000D01*
X162388674Y-95773465D01*
X162388674Y-95773465D01*
G37*
G36*
X160338674Y-95773465D02*
G01*
X160376367Y-95784899D01*
X160411103Y-95803466D01*
X160441548Y-95828452D01*
X160466534Y-95858897D01*
X160485101Y-95893633D01*
X160496535Y-95931326D01*
X160501000Y-95976661D01*
X160501000Y-97063339D01*
X160496535Y-97108674D01*
X160485101Y-97146367D01*
X160466534Y-97181103D01*
X160441548Y-97211548D01*
X160411103Y-97236534D01*
X160376367Y-97255101D01*
X160338674Y-97266535D01*
X160293339Y-97271000D01*
X159456661Y-97271000D01*
X159411326Y-97266535D01*
X159373633Y-97255101D01*
X159338897Y-97236534D01*
X159308452Y-97211548D01*
X159283466Y-97181103D01*
X159264899Y-97146367D01*
X159253465Y-97108674D01*
X159249000Y-97063339D01*
X159249000Y-95976661D01*
X159253465Y-95931326D01*
X159264899Y-95893633D01*
X159283466Y-95858897D01*
X159308452Y-95828452D01*
X159338897Y-95803466D01*
X159373633Y-95784899D01*
X159411326Y-95773465D01*
X159456661Y-95769000D01*
X160293339Y-95769000D01*
X160338674Y-95773465D01*
X160338674Y-95773465D01*
G37*
G36*
X153008674Y-95138465D02*
G01*
X153046367Y-95149899D01*
X153081103Y-95168466D01*
X153111548Y-95193452D01*
X153136534Y-95223897D01*
X153155101Y-95258633D01*
X153166535Y-95296326D01*
X153171000Y-95341661D01*
X153171000Y-96428339D01*
X153166535Y-96473674D01*
X153155101Y-96511367D01*
X153136534Y-96546103D01*
X153111548Y-96576548D01*
X153081103Y-96601534D01*
X153046367Y-96620101D01*
X153008674Y-96631535D01*
X152963339Y-96636000D01*
X152126661Y-96636000D01*
X152081326Y-96631535D01*
X152043633Y-96620101D01*
X152008897Y-96601534D01*
X151978452Y-96576548D01*
X151953466Y-96546103D01*
X151934899Y-96511367D01*
X151923465Y-96473674D01*
X151919000Y-96428339D01*
X151919000Y-95341661D01*
X151923465Y-95296326D01*
X151934899Y-95258633D01*
X151953466Y-95223897D01*
X151978452Y-95193452D01*
X152008897Y-95168466D01*
X152043633Y-95149899D01*
X152081326Y-95138465D01*
X152126661Y-95134000D01*
X152963339Y-95134000D01*
X153008674Y-95138465D01*
X153008674Y-95138465D01*
G37*
G36*
X150958674Y-95138465D02*
G01*
X150996367Y-95149899D01*
X151031103Y-95168466D01*
X151061548Y-95193452D01*
X151086534Y-95223897D01*
X151105101Y-95258633D01*
X151116535Y-95296326D01*
X151121000Y-95341661D01*
X151121000Y-96428339D01*
X151116535Y-96473674D01*
X151105101Y-96511367D01*
X151086534Y-96546103D01*
X151061548Y-96576548D01*
X151031103Y-96601534D01*
X150996367Y-96620101D01*
X150958674Y-96631535D01*
X150913339Y-96636000D01*
X150076661Y-96636000D01*
X150031326Y-96631535D01*
X149993633Y-96620101D01*
X149958897Y-96601534D01*
X149928452Y-96576548D01*
X149903466Y-96546103D01*
X149884899Y-96511367D01*
X149873465Y-96473674D01*
X149869000Y-96428339D01*
X149869000Y-95341661D01*
X149873465Y-95296326D01*
X149884899Y-95258633D01*
X149903466Y-95223897D01*
X149928452Y-95193452D01*
X149958897Y-95168466D01*
X149993633Y-95149899D01*
X150031326Y-95138465D01*
X150076661Y-95134000D01*
X150913339Y-95134000D01*
X150958674Y-95138465D01*
X150958674Y-95138465D01*
G37*
G36*
X136635443Y-93085519D02*
G01*
X136701627Y-93092037D01*
X136871466Y-93143557D01*
X137027991Y-93227222D01*
X137063729Y-93256552D01*
X137165186Y-93339814D01*
X137248448Y-93441271D01*
X137277778Y-93477009D01*
X137361443Y-93633534D01*
X137412963Y-93803373D01*
X137430359Y-93980000D01*
X137412963Y-94156627D01*
X137361443Y-94326466D01*
X137277778Y-94482991D01*
X137248448Y-94518729D01*
X137165186Y-94620186D01*
X137063729Y-94703448D01*
X137027991Y-94732778D01*
X136871466Y-94816443D01*
X136701627Y-94867963D01*
X136635443Y-94874481D01*
X136569260Y-94881000D01*
X136480740Y-94881000D01*
X136414557Y-94874481D01*
X136348373Y-94867963D01*
X136178534Y-94816443D01*
X136022009Y-94732778D01*
X135986271Y-94703448D01*
X135884814Y-94620186D01*
X135801552Y-94518729D01*
X135772222Y-94482991D01*
X135688557Y-94326466D01*
X135637037Y-94156627D01*
X135619641Y-93980000D01*
X135637037Y-93803373D01*
X135688557Y-93633534D01*
X135772222Y-93477009D01*
X135801552Y-93441271D01*
X135884814Y-93339814D01*
X135986271Y-93256552D01*
X136022009Y-93227222D01*
X136178534Y-93143557D01*
X136348373Y-93092037D01*
X136414557Y-93085519D01*
X136480740Y-93079000D01*
X136569260Y-93079000D01*
X136635443Y-93085519D01*
X136635443Y-93085519D01*
G37*
G36*
X167745909Y-90545072D02*
G01*
X167816627Y-90552037D01*
X167986466Y-90603557D01*
X168142991Y-90687222D01*
X168178729Y-90716552D01*
X168280186Y-90799814D01*
X168363448Y-90901271D01*
X168392778Y-90937009D01*
X168476443Y-91093534D01*
X168527963Y-91263373D01*
X168545359Y-91440000D01*
X168527963Y-91616627D01*
X168476443Y-91786466D01*
X168392778Y-91942991D01*
X168363448Y-91978729D01*
X168280186Y-92080186D01*
X168178729Y-92163448D01*
X168142991Y-92192778D01*
X167986466Y-92276443D01*
X167816627Y-92327963D01*
X167750443Y-92334481D01*
X167684260Y-92341000D01*
X167595740Y-92341000D01*
X167529557Y-92334481D01*
X167463373Y-92327963D01*
X167293534Y-92276443D01*
X167137009Y-92192778D01*
X167101271Y-92163448D01*
X166999814Y-92080186D01*
X166916552Y-91978729D01*
X166887222Y-91942991D01*
X166803557Y-91786466D01*
X166752037Y-91616627D01*
X166734641Y-91440000D01*
X166752037Y-91263373D01*
X166803557Y-91093534D01*
X166887222Y-90937009D01*
X166916552Y-90901271D01*
X166999814Y-90799814D01*
X167101271Y-90716552D01*
X167137009Y-90687222D01*
X167293534Y-90603557D01*
X167463373Y-90552037D01*
X167534091Y-90545072D01*
X167595740Y-90539000D01*
X167684260Y-90539000D01*
X167745909Y-90545072D01*
X167745909Y-90545072D01*
G37*
G36*
X136630909Y-90545072D02*
G01*
X136701627Y-90552037D01*
X136871466Y-90603557D01*
X137027991Y-90687222D01*
X137063729Y-90716552D01*
X137165186Y-90799814D01*
X137248448Y-90901271D01*
X137277778Y-90937009D01*
X137361443Y-91093534D01*
X137412963Y-91263373D01*
X137430359Y-91440000D01*
X137412963Y-91616627D01*
X137361443Y-91786466D01*
X137277778Y-91942991D01*
X137248448Y-91978729D01*
X137165186Y-92080186D01*
X137063729Y-92163448D01*
X137027991Y-92192778D01*
X136871466Y-92276443D01*
X136701627Y-92327963D01*
X136635443Y-92334481D01*
X136569260Y-92341000D01*
X136480740Y-92341000D01*
X136414557Y-92334481D01*
X136348373Y-92327963D01*
X136178534Y-92276443D01*
X136022009Y-92192778D01*
X135986271Y-92163448D01*
X135884814Y-92080186D01*
X135801552Y-91978729D01*
X135772222Y-91942991D01*
X135688557Y-91786466D01*
X135637037Y-91616627D01*
X135619641Y-91440000D01*
X135637037Y-91263373D01*
X135688557Y-91093534D01*
X135772222Y-90937009D01*
X135801552Y-90901271D01*
X135884814Y-90799814D01*
X135986271Y-90716552D01*
X136022009Y-90687222D01*
X136178534Y-90603557D01*
X136348373Y-90552037D01*
X136419091Y-90545072D01*
X136480740Y-90539000D01*
X136569260Y-90539000D01*
X136630909Y-90545072D01*
X136630909Y-90545072D01*
G37*
G36*
X147464928Y-90456764D02*
G01*
X147486009Y-90463160D01*
X147505445Y-90473548D01*
X147522476Y-90487524D01*
X147536452Y-90504555D01*
X147546840Y-90523991D01*
X147553236Y-90545072D01*
X147556000Y-90573140D01*
X147556000Y-91036860D01*
X147553236Y-91064928D01*
X147546840Y-91086009D01*
X147536452Y-91105445D01*
X147522476Y-91122476D01*
X147505445Y-91136452D01*
X147486009Y-91146840D01*
X147464928Y-91153236D01*
X147436860Y-91156000D01*
X145523140Y-91156000D01*
X145495072Y-91153236D01*
X145473991Y-91146840D01*
X145454555Y-91136452D01*
X145437524Y-91122476D01*
X145423548Y-91105445D01*
X145413160Y-91086009D01*
X145406764Y-91064928D01*
X145404000Y-91036860D01*
X145404000Y-90573140D01*
X145406764Y-90545072D01*
X145413160Y-90523991D01*
X145423548Y-90504555D01*
X145437524Y-90487524D01*
X145454555Y-90473548D01*
X145473991Y-90463160D01*
X145495072Y-90456764D01*
X145523140Y-90454000D01*
X147436860Y-90454000D01*
X147464928Y-90456764D01*
X147464928Y-90456764D01*
G37*
G36*
X156764928Y-90456764D02*
G01*
X156786009Y-90463160D01*
X156805445Y-90473548D01*
X156822476Y-90487524D01*
X156836452Y-90504555D01*
X156846840Y-90523991D01*
X156853236Y-90545072D01*
X156856000Y-90573140D01*
X156856000Y-91036860D01*
X156853236Y-91064928D01*
X156846840Y-91086009D01*
X156836452Y-91105445D01*
X156822476Y-91122476D01*
X156805445Y-91136452D01*
X156786009Y-91146840D01*
X156764928Y-91153236D01*
X156736860Y-91156000D01*
X154823140Y-91156000D01*
X154795072Y-91153236D01*
X154773991Y-91146840D01*
X154754555Y-91136452D01*
X154737524Y-91122476D01*
X154723548Y-91105445D01*
X154713160Y-91086009D01*
X154706764Y-91064928D01*
X154704000Y-91036860D01*
X154704000Y-90573140D01*
X154706764Y-90545072D01*
X154713160Y-90523991D01*
X154723548Y-90504555D01*
X154737524Y-90487524D01*
X154754555Y-90473548D01*
X154773991Y-90463160D01*
X154795072Y-90456764D01*
X154823140Y-90454000D01*
X156736860Y-90454000D01*
X156764928Y-90456764D01*
X156764928Y-90456764D01*
G37*
G36*
X156764928Y-89186764D02*
G01*
X156786009Y-89193160D01*
X156805445Y-89203548D01*
X156822476Y-89217524D01*
X156836452Y-89234555D01*
X156846840Y-89253991D01*
X156853236Y-89275072D01*
X156856000Y-89303140D01*
X156856000Y-89766860D01*
X156853236Y-89794928D01*
X156846840Y-89816009D01*
X156836452Y-89835445D01*
X156822476Y-89852476D01*
X156805445Y-89866452D01*
X156786009Y-89876840D01*
X156764928Y-89883236D01*
X156736860Y-89886000D01*
X154823140Y-89886000D01*
X154795072Y-89883236D01*
X154773991Y-89876840D01*
X154754555Y-89866452D01*
X154737524Y-89852476D01*
X154723548Y-89835445D01*
X154713160Y-89816009D01*
X154706764Y-89794928D01*
X154704000Y-89766860D01*
X154704000Y-89303140D01*
X154706764Y-89275072D01*
X154713160Y-89253991D01*
X154723548Y-89234555D01*
X154737524Y-89217524D01*
X154754555Y-89203548D01*
X154773991Y-89193160D01*
X154795072Y-89186764D01*
X154823140Y-89184000D01*
X156736860Y-89184000D01*
X156764928Y-89186764D01*
X156764928Y-89186764D01*
G37*
G36*
X147464928Y-89186764D02*
G01*
X147486009Y-89193160D01*
X147505445Y-89203548D01*
X147522476Y-89217524D01*
X147536452Y-89234555D01*
X147546840Y-89253991D01*
X147553236Y-89275072D01*
X147556000Y-89303140D01*
X147556000Y-89766860D01*
X147553236Y-89794928D01*
X147546840Y-89816009D01*
X147536452Y-89835445D01*
X147522476Y-89852476D01*
X147505445Y-89866452D01*
X147486009Y-89876840D01*
X147464928Y-89883236D01*
X147436860Y-89886000D01*
X145523140Y-89886000D01*
X145495072Y-89883236D01*
X145473991Y-89876840D01*
X145454555Y-89866452D01*
X145437524Y-89852476D01*
X145423548Y-89835445D01*
X145413160Y-89816009D01*
X145406764Y-89794928D01*
X145404000Y-89766860D01*
X145404000Y-89303140D01*
X145406764Y-89275072D01*
X145413160Y-89253991D01*
X145423548Y-89234555D01*
X145437524Y-89217524D01*
X145454555Y-89203548D01*
X145473991Y-89193160D01*
X145495072Y-89186764D01*
X145523140Y-89184000D01*
X147436860Y-89184000D01*
X147464928Y-89186764D01*
X147464928Y-89186764D01*
G37*
G36*
X136630909Y-88005072D02*
G01*
X136701627Y-88012037D01*
X136871466Y-88063557D01*
X137027991Y-88147222D01*
X137063729Y-88176552D01*
X137165186Y-88259814D01*
X137248448Y-88361271D01*
X137277778Y-88397009D01*
X137361443Y-88553534D01*
X137412963Y-88723373D01*
X137430359Y-88900000D01*
X137412963Y-89076627D01*
X137361443Y-89246466D01*
X137277778Y-89402991D01*
X137248448Y-89438729D01*
X137165186Y-89540186D01*
X137063729Y-89623448D01*
X137027991Y-89652778D01*
X136871466Y-89736443D01*
X136701627Y-89787963D01*
X136635443Y-89794481D01*
X136569260Y-89801000D01*
X136480740Y-89801000D01*
X136414557Y-89794481D01*
X136348373Y-89787963D01*
X136178534Y-89736443D01*
X136022009Y-89652778D01*
X135986271Y-89623448D01*
X135884814Y-89540186D01*
X135801552Y-89438729D01*
X135772222Y-89402991D01*
X135688557Y-89246466D01*
X135637037Y-89076627D01*
X135619641Y-88900000D01*
X135637037Y-88723373D01*
X135688557Y-88553534D01*
X135772222Y-88397009D01*
X135801552Y-88361271D01*
X135884814Y-88259814D01*
X135986271Y-88176552D01*
X136022009Y-88147222D01*
X136178534Y-88063557D01*
X136348373Y-88012037D01*
X136419091Y-88005072D01*
X136480740Y-87999000D01*
X136569260Y-87999000D01*
X136630909Y-88005072D01*
X136630909Y-88005072D01*
G37*
G36*
X167745909Y-88005072D02*
G01*
X167816627Y-88012037D01*
X167986466Y-88063557D01*
X168142991Y-88147222D01*
X168178729Y-88176552D01*
X168280186Y-88259814D01*
X168363448Y-88361271D01*
X168392778Y-88397009D01*
X168476443Y-88553534D01*
X168527963Y-88723373D01*
X168545359Y-88900000D01*
X168527963Y-89076627D01*
X168476443Y-89246466D01*
X168392778Y-89402991D01*
X168363448Y-89438729D01*
X168280186Y-89540186D01*
X168178729Y-89623448D01*
X168142991Y-89652778D01*
X167986466Y-89736443D01*
X167816627Y-89787963D01*
X167750443Y-89794481D01*
X167684260Y-89801000D01*
X167595740Y-89801000D01*
X167529557Y-89794481D01*
X167463373Y-89787963D01*
X167293534Y-89736443D01*
X167137009Y-89652778D01*
X167101271Y-89623448D01*
X166999814Y-89540186D01*
X166916552Y-89438729D01*
X166887222Y-89402991D01*
X166803557Y-89246466D01*
X166752037Y-89076627D01*
X166734641Y-88900000D01*
X166752037Y-88723373D01*
X166803557Y-88553534D01*
X166887222Y-88397009D01*
X166916552Y-88361271D01*
X166999814Y-88259814D01*
X167101271Y-88176552D01*
X167137009Y-88147222D01*
X167293534Y-88063557D01*
X167463373Y-88012037D01*
X167534091Y-88005072D01*
X167595740Y-87999000D01*
X167684260Y-87999000D01*
X167745909Y-88005072D01*
X167745909Y-88005072D01*
G37*
G36*
X156764928Y-87916764D02*
G01*
X156786009Y-87923160D01*
X156805445Y-87933548D01*
X156822476Y-87947524D01*
X156836452Y-87964555D01*
X156846840Y-87983991D01*
X156853236Y-88005072D01*
X156856000Y-88033140D01*
X156856000Y-88496860D01*
X156853236Y-88524928D01*
X156846840Y-88546009D01*
X156836452Y-88565445D01*
X156822476Y-88582476D01*
X156805445Y-88596452D01*
X156786009Y-88606840D01*
X156764928Y-88613236D01*
X156736860Y-88616000D01*
X154823140Y-88616000D01*
X154795072Y-88613236D01*
X154773991Y-88606840D01*
X154754555Y-88596452D01*
X154737524Y-88582476D01*
X154723548Y-88565445D01*
X154713160Y-88546009D01*
X154706764Y-88524928D01*
X154704000Y-88496860D01*
X154704000Y-88033140D01*
X154706764Y-88005072D01*
X154713160Y-87983991D01*
X154723548Y-87964555D01*
X154737524Y-87947524D01*
X154754555Y-87933548D01*
X154773991Y-87923160D01*
X154795072Y-87916764D01*
X154823140Y-87914000D01*
X156736860Y-87914000D01*
X156764928Y-87916764D01*
X156764928Y-87916764D01*
G37*
G36*
X147464928Y-87916764D02*
G01*
X147486009Y-87923160D01*
X147505445Y-87933548D01*
X147522476Y-87947524D01*
X147536452Y-87964555D01*
X147546840Y-87983991D01*
X147553236Y-88005072D01*
X147556000Y-88033140D01*
X147556000Y-88496860D01*
X147553236Y-88524928D01*
X147546840Y-88546009D01*
X147536452Y-88565445D01*
X147522476Y-88582476D01*
X147505445Y-88596452D01*
X147486009Y-88606840D01*
X147464928Y-88613236D01*
X147436860Y-88616000D01*
X145523140Y-88616000D01*
X145495072Y-88613236D01*
X145473991Y-88606840D01*
X145454555Y-88596452D01*
X145437524Y-88582476D01*
X145423548Y-88565445D01*
X145413160Y-88546009D01*
X145406764Y-88524928D01*
X145404000Y-88496860D01*
X145404000Y-88033140D01*
X145406764Y-88005072D01*
X145413160Y-87983991D01*
X145423548Y-87964555D01*
X145437524Y-87947524D01*
X145454555Y-87933548D01*
X145473991Y-87923160D01*
X145495072Y-87916764D01*
X145523140Y-87914000D01*
X147436860Y-87914000D01*
X147464928Y-87916764D01*
X147464928Y-87916764D01*
G37*
G36*
X147464928Y-86646764D02*
G01*
X147486009Y-86653160D01*
X147505445Y-86663548D01*
X147522476Y-86677524D01*
X147536452Y-86694555D01*
X147546840Y-86713991D01*
X147553236Y-86735072D01*
X147556000Y-86763140D01*
X147556000Y-87226860D01*
X147553236Y-87254928D01*
X147546840Y-87276009D01*
X147536452Y-87295445D01*
X147522476Y-87312476D01*
X147505445Y-87326452D01*
X147486009Y-87336840D01*
X147464928Y-87343236D01*
X147436860Y-87346000D01*
X145523140Y-87346000D01*
X145495072Y-87343236D01*
X145473991Y-87336840D01*
X145454555Y-87326452D01*
X145437524Y-87312476D01*
X145423548Y-87295445D01*
X145413160Y-87276009D01*
X145406764Y-87254928D01*
X145404000Y-87226860D01*
X145404000Y-86763140D01*
X145406764Y-86735072D01*
X145413160Y-86713991D01*
X145423548Y-86694555D01*
X145437524Y-86677524D01*
X145454555Y-86663548D01*
X145473991Y-86653160D01*
X145495072Y-86646764D01*
X145523140Y-86644000D01*
X147436860Y-86644000D01*
X147464928Y-86646764D01*
X147464928Y-86646764D01*
G37*
G36*
X156764928Y-86646764D02*
G01*
X156786009Y-86653160D01*
X156805445Y-86663548D01*
X156822476Y-86677524D01*
X156836452Y-86694555D01*
X156846840Y-86713991D01*
X156853236Y-86735072D01*
X156856000Y-86763140D01*
X156856000Y-87226860D01*
X156853236Y-87254928D01*
X156846840Y-87276009D01*
X156836452Y-87295445D01*
X156822476Y-87312476D01*
X156805445Y-87326452D01*
X156786009Y-87336840D01*
X156764928Y-87343236D01*
X156736860Y-87346000D01*
X154823140Y-87346000D01*
X154795072Y-87343236D01*
X154773991Y-87336840D01*
X154754555Y-87326452D01*
X154737524Y-87312476D01*
X154723548Y-87295445D01*
X154713160Y-87276009D01*
X154706764Y-87254928D01*
X154704000Y-87226860D01*
X154704000Y-86763140D01*
X154706764Y-86735072D01*
X154713160Y-86713991D01*
X154723548Y-86694555D01*
X154737524Y-86677524D01*
X154754555Y-86663548D01*
X154773991Y-86653160D01*
X154795072Y-86646764D01*
X154823140Y-86644000D01*
X156736860Y-86644000D01*
X156764928Y-86646764D01*
X156764928Y-86646764D01*
G37*
G36*
X136630909Y-85465072D02*
G01*
X136701627Y-85472037D01*
X136871466Y-85523557D01*
X137027991Y-85607222D01*
X137063729Y-85636552D01*
X137165186Y-85719814D01*
X137248448Y-85821271D01*
X137277778Y-85857009D01*
X137361443Y-86013534D01*
X137412963Y-86183373D01*
X137430359Y-86360000D01*
X137412963Y-86536627D01*
X137361443Y-86706466D01*
X137277778Y-86862991D01*
X137248448Y-86898729D01*
X137165186Y-87000186D01*
X137063729Y-87083448D01*
X137027991Y-87112778D01*
X136871466Y-87196443D01*
X136701627Y-87247963D01*
X136635442Y-87254482D01*
X136569260Y-87261000D01*
X136480740Y-87261000D01*
X136414558Y-87254482D01*
X136348373Y-87247963D01*
X136178534Y-87196443D01*
X136022009Y-87112778D01*
X135986271Y-87083448D01*
X135884814Y-87000186D01*
X135801552Y-86898729D01*
X135772222Y-86862991D01*
X135688557Y-86706466D01*
X135637037Y-86536627D01*
X135619641Y-86360000D01*
X135637037Y-86183373D01*
X135688557Y-86013534D01*
X135772222Y-85857009D01*
X135801552Y-85821271D01*
X135884814Y-85719814D01*
X135986271Y-85636552D01*
X136022009Y-85607222D01*
X136178534Y-85523557D01*
X136348373Y-85472037D01*
X136419091Y-85465072D01*
X136480740Y-85459000D01*
X136569260Y-85459000D01*
X136630909Y-85465072D01*
X136630909Y-85465072D01*
G37*
G36*
X167745909Y-85465072D02*
G01*
X167816627Y-85472037D01*
X167986466Y-85523557D01*
X168142991Y-85607222D01*
X168178729Y-85636552D01*
X168280186Y-85719814D01*
X168363448Y-85821271D01*
X168392778Y-85857009D01*
X168476443Y-86013534D01*
X168527963Y-86183373D01*
X168545359Y-86360000D01*
X168527963Y-86536627D01*
X168476443Y-86706466D01*
X168392778Y-86862991D01*
X168363448Y-86898729D01*
X168280186Y-87000186D01*
X168178729Y-87083448D01*
X168142991Y-87112778D01*
X167986466Y-87196443D01*
X167816627Y-87247963D01*
X167750442Y-87254482D01*
X167684260Y-87261000D01*
X167595740Y-87261000D01*
X167529558Y-87254482D01*
X167463373Y-87247963D01*
X167293534Y-87196443D01*
X167137009Y-87112778D01*
X167101271Y-87083448D01*
X166999814Y-87000186D01*
X166916552Y-86898729D01*
X166887222Y-86862991D01*
X166803557Y-86706466D01*
X166752037Y-86536627D01*
X166734641Y-86360000D01*
X166752037Y-86183373D01*
X166803557Y-86013534D01*
X166887222Y-85857009D01*
X166916552Y-85821271D01*
X166999814Y-85719814D01*
X167101271Y-85636552D01*
X167137009Y-85607222D01*
X167293534Y-85523557D01*
X167463373Y-85472037D01*
X167534091Y-85465072D01*
X167595740Y-85459000D01*
X167684260Y-85459000D01*
X167745909Y-85465072D01*
X167745909Y-85465072D01*
G37*
G36*
X147464928Y-85376764D02*
G01*
X147486009Y-85383160D01*
X147505445Y-85393548D01*
X147522476Y-85407524D01*
X147536452Y-85424555D01*
X147546840Y-85443991D01*
X147553236Y-85465072D01*
X147556000Y-85493140D01*
X147556000Y-85956860D01*
X147553236Y-85984928D01*
X147546840Y-86006009D01*
X147536452Y-86025445D01*
X147522476Y-86042476D01*
X147505445Y-86056452D01*
X147486009Y-86066840D01*
X147464928Y-86073236D01*
X147436860Y-86076000D01*
X145523140Y-86076000D01*
X145495072Y-86073236D01*
X145473991Y-86066840D01*
X145454555Y-86056452D01*
X145437524Y-86042476D01*
X145423548Y-86025445D01*
X145413160Y-86006009D01*
X145406764Y-85984928D01*
X145404000Y-85956860D01*
X145404000Y-85493140D01*
X145406764Y-85465072D01*
X145413160Y-85443991D01*
X145423548Y-85424555D01*
X145437524Y-85407524D01*
X145454555Y-85393548D01*
X145473991Y-85383160D01*
X145495072Y-85376764D01*
X145523140Y-85374000D01*
X147436860Y-85374000D01*
X147464928Y-85376764D01*
X147464928Y-85376764D01*
G37*
G36*
X156764928Y-85376764D02*
G01*
X156786009Y-85383160D01*
X156805445Y-85393548D01*
X156822476Y-85407524D01*
X156836452Y-85424555D01*
X156846840Y-85443991D01*
X156853236Y-85465072D01*
X156856000Y-85493140D01*
X156856000Y-85956860D01*
X156853236Y-85984928D01*
X156846840Y-86006009D01*
X156836452Y-86025445D01*
X156822476Y-86042476D01*
X156805445Y-86056452D01*
X156786009Y-86066840D01*
X156764928Y-86073236D01*
X156736860Y-86076000D01*
X154823140Y-86076000D01*
X154795072Y-86073236D01*
X154773991Y-86066840D01*
X154754555Y-86056452D01*
X154737524Y-86042476D01*
X154723548Y-86025445D01*
X154713160Y-86006009D01*
X154706764Y-85984928D01*
X154704000Y-85956860D01*
X154704000Y-85493140D01*
X154706764Y-85465072D01*
X154713160Y-85443991D01*
X154723548Y-85424555D01*
X154737524Y-85407524D01*
X154754555Y-85393548D01*
X154773991Y-85383160D01*
X154795072Y-85376764D01*
X154823140Y-85374000D01*
X156736860Y-85374000D01*
X156764928Y-85376764D01*
X156764928Y-85376764D01*
G37*
G36*
X156764928Y-84106764D02*
G01*
X156786009Y-84113160D01*
X156805445Y-84123548D01*
X156822476Y-84137524D01*
X156836452Y-84154555D01*
X156846840Y-84173991D01*
X156853236Y-84195072D01*
X156856000Y-84223140D01*
X156856000Y-84686860D01*
X156853236Y-84714928D01*
X156846840Y-84736009D01*
X156836452Y-84755445D01*
X156822476Y-84772476D01*
X156805445Y-84786452D01*
X156786009Y-84796840D01*
X156764928Y-84803236D01*
X156736860Y-84806000D01*
X154823140Y-84806000D01*
X154795072Y-84803236D01*
X154773991Y-84796840D01*
X154754555Y-84786452D01*
X154737524Y-84772476D01*
X154723548Y-84755445D01*
X154713160Y-84736009D01*
X154706764Y-84714928D01*
X154704000Y-84686860D01*
X154704000Y-84223140D01*
X154706764Y-84195072D01*
X154713160Y-84173991D01*
X154723548Y-84154555D01*
X154737524Y-84137524D01*
X154754555Y-84123548D01*
X154773991Y-84113160D01*
X154795072Y-84106764D01*
X154823140Y-84104000D01*
X156736860Y-84104000D01*
X156764928Y-84106764D01*
X156764928Y-84106764D01*
G37*
G36*
X147464928Y-84106764D02*
G01*
X147486009Y-84113160D01*
X147505445Y-84123548D01*
X147522476Y-84137524D01*
X147536452Y-84154555D01*
X147546840Y-84173991D01*
X147553236Y-84195072D01*
X147556000Y-84223140D01*
X147556000Y-84686860D01*
X147553236Y-84714928D01*
X147546840Y-84736009D01*
X147536452Y-84755445D01*
X147522476Y-84772476D01*
X147505445Y-84786452D01*
X147486009Y-84796840D01*
X147464928Y-84803236D01*
X147436860Y-84806000D01*
X145523140Y-84806000D01*
X145495072Y-84803236D01*
X145473991Y-84796840D01*
X145454555Y-84786452D01*
X145437524Y-84772476D01*
X145423548Y-84755445D01*
X145413160Y-84736009D01*
X145406764Y-84714928D01*
X145404000Y-84686860D01*
X145404000Y-84223140D01*
X145406764Y-84195072D01*
X145413160Y-84173991D01*
X145423548Y-84154555D01*
X145437524Y-84137524D01*
X145454555Y-84123548D01*
X145473991Y-84113160D01*
X145495072Y-84106764D01*
X145523140Y-84104000D01*
X147436860Y-84104000D01*
X147464928Y-84106764D01*
X147464928Y-84106764D01*
G37*
G36*
X136630909Y-82925072D02*
G01*
X136701627Y-82932037D01*
X136871466Y-82983557D01*
X137027991Y-83067222D01*
X137063729Y-83096552D01*
X137165186Y-83179814D01*
X137248448Y-83281271D01*
X137277778Y-83317009D01*
X137361443Y-83473534D01*
X137412963Y-83643373D01*
X137430359Y-83820000D01*
X137412963Y-83996627D01*
X137361443Y-84166466D01*
X137277778Y-84322991D01*
X137248448Y-84358729D01*
X137165186Y-84460186D01*
X137063729Y-84543448D01*
X137027991Y-84572778D01*
X136871466Y-84656443D01*
X136701627Y-84707963D01*
X136635443Y-84714481D01*
X136569260Y-84721000D01*
X136480740Y-84721000D01*
X136414557Y-84714481D01*
X136348373Y-84707963D01*
X136178534Y-84656443D01*
X136022009Y-84572778D01*
X135986271Y-84543448D01*
X135884814Y-84460186D01*
X135801552Y-84358729D01*
X135772222Y-84322991D01*
X135688557Y-84166466D01*
X135637037Y-83996627D01*
X135619641Y-83820000D01*
X135637037Y-83643373D01*
X135688557Y-83473534D01*
X135772222Y-83317009D01*
X135801552Y-83281271D01*
X135884814Y-83179814D01*
X135986271Y-83096552D01*
X136022009Y-83067222D01*
X136178534Y-82983557D01*
X136348373Y-82932037D01*
X136419091Y-82925072D01*
X136480740Y-82919000D01*
X136569260Y-82919000D01*
X136630909Y-82925072D01*
X136630909Y-82925072D01*
G37*
G36*
X167745909Y-82925072D02*
G01*
X167816627Y-82932037D01*
X167986466Y-82983557D01*
X168142991Y-83067222D01*
X168178729Y-83096552D01*
X168280186Y-83179814D01*
X168363448Y-83281271D01*
X168392778Y-83317009D01*
X168476443Y-83473534D01*
X168527963Y-83643373D01*
X168545359Y-83820000D01*
X168527963Y-83996627D01*
X168476443Y-84166466D01*
X168392778Y-84322991D01*
X168363448Y-84358729D01*
X168280186Y-84460186D01*
X168178729Y-84543448D01*
X168142991Y-84572778D01*
X167986466Y-84656443D01*
X167816627Y-84707963D01*
X167750443Y-84714481D01*
X167684260Y-84721000D01*
X167595740Y-84721000D01*
X167529557Y-84714481D01*
X167463373Y-84707963D01*
X167293534Y-84656443D01*
X167137009Y-84572778D01*
X167101271Y-84543448D01*
X166999814Y-84460186D01*
X166916552Y-84358729D01*
X166887222Y-84322991D01*
X166803557Y-84166466D01*
X166752037Y-83996627D01*
X166734641Y-83820000D01*
X166752037Y-83643373D01*
X166803557Y-83473534D01*
X166887222Y-83317009D01*
X166916552Y-83281271D01*
X166999814Y-83179814D01*
X167101271Y-83096552D01*
X167137009Y-83067222D01*
X167293534Y-82983557D01*
X167463373Y-82932037D01*
X167534091Y-82925072D01*
X167595740Y-82919000D01*
X167684260Y-82919000D01*
X167745909Y-82925072D01*
X167745909Y-82925072D01*
G37*
G36*
X147464928Y-82836764D02*
G01*
X147486009Y-82843160D01*
X147505445Y-82853548D01*
X147522476Y-82867524D01*
X147536452Y-82884555D01*
X147546840Y-82903991D01*
X147553236Y-82925072D01*
X147556000Y-82953140D01*
X147556000Y-83416860D01*
X147553236Y-83444928D01*
X147546840Y-83466009D01*
X147536452Y-83485445D01*
X147522476Y-83502476D01*
X147505445Y-83516452D01*
X147486009Y-83526840D01*
X147464928Y-83533236D01*
X147436860Y-83536000D01*
X145523140Y-83536000D01*
X145495072Y-83533236D01*
X145473991Y-83526840D01*
X145454555Y-83516452D01*
X145437524Y-83502476D01*
X145423548Y-83485445D01*
X145413160Y-83466009D01*
X145406764Y-83444928D01*
X145404000Y-83416860D01*
X145404000Y-82953140D01*
X145406764Y-82925072D01*
X145413160Y-82903991D01*
X145423548Y-82884555D01*
X145437524Y-82867524D01*
X145454555Y-82853548D01*
X145473991Y-82843160D01*
X145495072Y-82836764D01*
X145523140Y-82834000D01*
X147436860Y-82834000D01*
X147464928Y-82836764D01*
X147464928Y-82836764D01*
G37*
G36*
X156764928Y-82836764D02*
G01*
X156786009Y-82843160D01*
X156805445Y-82853548D01*
X156822476Y-82867524D01*
X156836452Y-82884555D01*
X156846840Y-82903991D01*
X156853236Y-82925072D01*
X156856000Y-82953140D01*
X156856000Y-83416860D01*
X156853236Y-83444928D01*
X156846840Y-83466009D01*
X156836452Y-83485445D01*
X156822476Y-83502476D01*
X156805445Y-83516452D01*
X156786009Y-83526840D01*
X156764928Y-83533236D01*
X156736860Y-83536000D01*
X154823140Y-83536000D01*
X154795072Y-83533236D01*
X154773991Y-83526840D01*
X154754555Y-83516452D01*
X154737524Y-83502476D01*
X154723548Y-83485445D01*
X154713160Y-83466009D01*
X154706764Y-83444928D01*
X154704000Y-83416860D01*
X154704000Y-82953140D01*
X154706764Y-82925072D01*
X154713160Y-82903991D01*
X154723548Y-82884555D01*
X154737524Y-82867524D01*
X154754555Y-82853548D01*
X154773991Y-82843160D01*
X154795072Y-82836764D01*
X154823140Y-82834000D01*
X156736860Y-82834000D01*
X156764928Y-82836764D01*
X156764928Y-82836764D01*
G37*
G36*
X147464928Y-81566764D02*
G01*
X147486009Y-81573160D01*
X147505445Y-81583548D01*
X147522476Y-81597524D01*
X147536452Y-81614555D01*
X147546840Y-81633991D01*
X147553236Y-81655072D01*
X147556000Y-81683140D01*
X147556000Y-82146860D01*
X147553236Y-82174928D01*
X147546840Y-82196009D01*
X147536452Y-82215445D01*
X147522476Y-82232476D01*
X147505445Y-82246452D01*
X147486009Y-82256840D01*
X147464928Y-82263236D01*
X147436860Y-82266000D01*
X145523140Y-82266000D01*
X145495072Y-82263236D01*
X145473991Y-82256840D01*
X145454555Y-82246452D01*
X145437524Y-82232476D01*
X145423548Y-82215445D01*
X145413160Y-82196009D01*
X145406764Y-82174928D01*
X145404000Y-82146860D01*
X145404000Y-81683140D01*
X145406764Y-81655072D01*
X145413160Y-81633991D01*
X145423548Y-81614555D01*
X145437524Y-81597524D01*
X145454555Y-81583548D01*
X145473991Y-81573160D01*
X145495072Y-81566764D01*
X145523140Y-81564000D01*
X147436860Y-81564000D01*
X147464928Y-81566764D01*
X147464928Y-81566764D01*
G37*
G36*
X156764928Y-81566764D02*
G01*
X156786009Y-81573160D01*
X156805445Y-81583548D01*
X156822476Y-81597524D01*
X156836452Y-81614555D01*
X156846840Y-81633991D01*
X156853236Y-81655072D01*
X156856000Y-81683140D01*
X156856000Y-82146860D01*
X156853236Y-82174928D01*
X156846840Y-82196009D01*
X156836452Y-82215445D01*
X156822476Y-82232476D01*
X156805445Y-82246452D01*
X156786009Y-82256840D01*
X156764928Y-82263236D01*
X156736860Y-82266000D01*
X154823140Y-82266000D01*
X154795072Y-82263236D01*
X154773991Y-82256840D01*
X154754555Y-82246452D01*
X154737524Y-82232476D01*
X154723548Y-82215445D01*
X154713160Y-82196009D01*
X154706764Y-82174928D01*
X154704000Y-82146860D01*
X154704000Y-81683140D01*
X154706764Y-81655072D01*
X154713160Y-81633991D01*
X154723548Y-81614555D01*
X154737524Y-81597524D01*
X154754555Y-81583548D01*
X154773991Y-81573160D01*
X154795072Y-81566764D01*
X154823140Y-81564000D01*
X156736860Y-81564000D01*
X156764928Y-81566764D01*
X156764928Y-81566764D01*
G37*
G36*
X136630909Y-80385072D02*
G01*
X136701627Y-80392037D01*
X136871466Y-80443557D01*
X137027991Y-80527222D01*
X137063729Y-80556552D01*
X137165186Y-80639814D01*
X137248448Y-80741271D01*
X137277778Y-80777009D01*
X137361443Y-80933534D01*
X137412963Y-81103373D01*
X137430359Y-81280000D01*
X137412963Y-81456627D01*
X137361443Y-81626466D01*
X137277778Y-81782991D01*
X137248448Y-81818729D01*
X137165186Y-81920186D01*
X137063729Y-82003448D01*
X137027991Y-82032778D01*
X136871466Y-82116443D01*
X136701627Y-82167963D01*
X136635443Y-82174481D01*
X136569260Y-82181000D01*
X136480740Y-82181000D01*
X136414557Y-82174481D01*
X136348373Y-82167963D01*
X136178534Y-82116443D01*
X136022009Y-82032778D01*
X135986271Y-82003448D01*
X135884814Y-81920186D01*
X135801552Y-81818729D01*
X135772222Y-81782991D01*
X135688557Y-81626466D01*
X135637037Y-81456627D01*
X135619641Y-81280000D01*
X135637037Y-81103373D01*
X135688557Y-80933534D01*
X135772222Y-80777009D01*
X135801552Y-80741271D01*
X135884814Y-80639814D01*
X135986271Y-80556552D01*
X136022009Y-80527222D01*
X136178534Y-80443557D01*
X136348373Y-80392037D01*
X136419091Y-80385072D01*
X136480740Y-80379000D01*
X136569260Y-80379000D01*
X136630909Y-80385072D01*
X136630909Y-80385072D01*
G37*
G36*
X168541000Y-82181000D02*
G01*
X166739000Y-82181000D01*
X166739000Y-80379000D01*
X168541000Y-80379000D01*
X168541000Y-82181000D01*
X168541000Y-82181000D01*
G37*
G36*
X156764928Y-80296764D02*
G01*
X156786009Y-80303160D01*
X156805445Y-80313548D01*
X156822476Y-80327524D01*
X156836452Y-80344555D01*
X156846840Y-80363991D01*
X156853236Y-80385072D01*
X156856000Y-80413140D01*
X156856000Y-80876860D01*
X156853236Y-80904928D01*
X156846840Y-80926009D01*
X156836452Y-80945445D01*
X156822476Y-80962476D01*
X156805445Y-80976452D01*
X156786009Y-80986840D01*
X156764928Y-80993236D01*
X156736860Y-80996000D01*
X154823140Y-80996000D01*
X154795072Y-80993236D01*
X154773991Y-80986840D01*
X154754555Y-80976452D01*
X154737524Y-80962476D01*
X154723548Y-80945445D01*
X154713160Y-80926009D01*
X154706764Y-80904928D01*
X154704000Y-80876860D01*
X154704000Y-80413140D01*
X154706764Y-80385072D01*
X154713160Y-80363991D01*
X154723548Y-80344555D01*
X154737524Y-80327524D01*
X154754555Y-80313548D01*
X154773991Y-80303160D01*
X154795072Y-80296764D01*
X154823140Y-80294000D01*
X156736860Y-80294000D01*
X156764928Y-80296764D01*
X156764928Y-80296764D01*
G37*
G36*
X147464928Y-80296764D02*
G01*
X147486009Y-80303160D01*
X147505445Y-80313548D01*
X147522476Y-80327524D01*
X147536452Y-80344555D01*
X147546840Y-80363991D01*
X147553236Y-80385072D01*
X147556000Y-80413140D01*
X147556000Y-80876860D01*
X147553236Y-80904928D01*
X147546840Y-80926009D01*
X147536452Y-80945445D01*
X147522476Y-80962476D01*
X147505445Y-80976452D01*
X147486009Y-80986840D01*
X147464928Y-80993236D01*
X147436860Y-80996000D01*
X145523140Y-80996000D01*
X145495072Y-80993236D01*
X145473991Y-80986840D01*
X145454555Y-80976452D01*
X145437524Y-80962476D01*
X145423548Y-80945445D01*
X145413160Y-80926009D01*
X145406764Y-80904928D01*
X145404000Y-80876860D01*
X145404000Y-80413140D01*
X145406764Y-80385072D01*
X145413160Y-80363991D01*
X145423548Y-80344555D01*
X145437524Y-80327524D01*
X145454555Y-80313548D01*
X145473991Y-80303160D01*
X145495072Y-80296764D01*
X145523140Y-80294000D01*
X147436860Y-80294000D01*
X147464928Y-80296764D01*
X147464928Y-80296764D01*
G37*
G36*
X137426000Y-79641000D02*
G01*
X135624000Y-79641000D01*
X135624000Y-77839000D01*
X137426000Y-77839000D01*
X137426000Y-79641000D01*
X137426000Y-79641000D01*
G37*
G36*
X149403062Y-74008181D02*
G01*
X149437981Y-74018774D01*
X149470163Y-74035976D01*
X149498373Y-74059127D01*
X149521524Y-74087337D01*
X149538726Y-74119519D01*
X149549319Y-74154438D01*
X149553500Y-74196895D01*
X149553500Y-75663105D01*
X149549319Y-75705562D01*
X149538726Y-75740481D01*
X149521524Y-75772663D01*
X149498373Y-75800873D01*
X149470163Y-75824024D01*
X149437981Y-75841226D01*
X149403062Y-75851819D01*
X149360605Y-75856000D01*
X148219395Y-75856000D01*
X148176938Y-75851819D01*
X148142019Y-75841226D01*
X148109837Y-75824024D01*
X148081627Y-75800873D01*
X148058476Y-75772663D01*
X148041274Y-75740481D01*
X148030681Y-75705562D01*
X148026500Y-75663105D01*
X148026500Y-74196895D01*
X148030681Y-74154438D01*
X148041274Y-74119519D01*
X148058476Y-74087337D01*
X148081627Y-74059127D01*
X148109837Y-74035976D01*
X148142019Y-74018774D01*
X148176938Y-74008181D01*
X148219395Y-74004000D01*
X149360605Y-74004000D01*
X149403062Y-74008181D01*
X149403062Y-74008181D01*
G37*
G36*
X152378062Y-74008181D02*
G01*
X152412981Y-74018774D01*
X152445163Y-74035976D01*
X152473373Y-74059127D01*
X152496524Y-74087337D01*
X152513726Y-74119519D01*
X152524319Y-74154438D01*
X152528500Y-74196895D01*
X152528500Y-75663105D01*
X152524319Y-75705562D01*
X152513726Y-75740481D01*
X152496524Y-75772663D01*
X152473373Y-75800873D01*
X152445163Y-75824024D01*
X152412981Y-75841226D01*
X152378062Y-75851819D01*
X152335605Y-75856000D01*
X151194395Y-75856000D01*
X151151938Y-75851819D01*
X151117019Y-75841226D01*
X151084837Y-75824024D01*
X151056627Y-75800873D01*
X151033476Y-75772663D01*
X151016274Y-75740481D01*
X151005681Y-75705562D01*
X151001500Y-75663105D01*
X151001500Y-74196895D01*
X151005681Y-74154438D01*
X151016274Y-74119519D01*
X151033476Y-74087337D01*
X151056627Y-74059127D01*
X151084837Y-74035976D01*
X151117019Y-74018774D01*
X151151938Y-74008181D01*
X151194395Y-74004000D01*
X152335605Y-74004000D01*
X152378062Y-74008181D01*
X152378062Y-74008181D01*
G37*
G36*
X157746000Y-75196000D02*
G01*
X155944000Y-75196000D01*
X155944000Y-73394000D01*
X157746000Y-73394000D01*
X157746000Y-75196000D01*
X157746000Y-75196000D01*
G37*
G36*
X156955442Y-70860518D02*
G01*
X157021627Y-70867037D01*
X157191466Y-70918557D01*
X157347991Y-71002222D01*
X157383729Y-71031552D01*
X157485186Y-71114814D01*
X157568448Y-71216271D01*
X157597778Y-71252009D01*
X157681443Y-71408534D01*
X157732963Y-71578373D01*
X157750359Y-71755000D01*
X157732963Y-71931627D01*
X157681443Y-72101466D01*
X157597778Y-72257991D01*
X157568448Y-72293729D01*
X157485186Y-72395186D01*
X157383729Y-72478448D01*
X157347991Y-72507778D01*
X157191466Y-72591443D01*
X157021627Y-72642963D01*
X156955443Y-72649481D01*
X156889260Y-72656000D01*
X156800740Y-72656000D01*
X156734557Y-72649481D01*
X156668373Y-72642963D01*
X156498534Y-72591443D01*
X156342009Y-72507778D01*
X156306271Y-72478448D01*
X156204814Y-72395186D01*
X156121552Y-72293729D01*
X156092222Y-72257991D01*
X156008557Y-72101466D01*
X155957037Y-71931627D01*
X155939641Y-71755000D01*
X155957037Y-71578373D01*
X156008557Y-71408534D01*
X156092222Y-71252009D01*
X156121552Y-71216271D01*
X156204814Y-71114814D01*
X156306271Y-71031552D01*
X156342009Y-71002222D01*
X156498534Y-70918557D01*
X156668373Y-70867037D01*
X156734558Y-70860518D01*
X156800740Y-70854000D01*
X156889260Y-70854000D01*
X156955442Y-70860518D01*
X156955442Y-70860518D01*
G37*
G36*
X152378062Y-70198181D02*
G01*
X152412981Y-70208774D01*
X152445163Y-70225976D01*
X152473373Y-70249127D01*
X152496524Y-70277337D01*
X152513726Y-70309519D01*
X152524319Y-70344438D01*
X152528500Y-70386895D01*
X152528500Y-71853105D01*
X152524319Y-71895562D01*
X152513726Y-71930481D01*
X152496524Y-71962663D01*
X152473373Y-71990873D01*
X152445163Y-72014024D01*
X152412981Y-72031226D01*
X152378062Y-72041819D01*
X152335605Y-72046000D01*
X151194395Y-72046000D01*
X151151938Y-72041819D01*
X151117019Y-72031226D01*
X151084837Y-72014024D01*
X151056627Y-71990873D01*
X151033476Y-71962663D01*
X151016274Y-71930481D01*
X151005681Y-71895562D01*
X151001500Y-71853105D01*
X151001500Y-70386895D01*
X151005681Y-70344438D01*
X151016274Y-70309519D01*
X151033476Y-70277337D01*
X151056627Y-70249127D01*
X151084837Y-70225976D01*
X151117019Y-70208774D01*
X151151938Y-70198181D01*
X151194395Y-70194000D01*
X152335605Y-70194000D01*
X152378062Y-70198181D01*
X152378062Y-70198181D01*
G37*
G36*
X149403062Y-70198181D02*
G01*
X149437981Y-70208774D01*
X149470163Y-70225976D01*
X149498373Y-70249127D01*
X149521524Y-70277337D01*
X149538726Y-70309519D01*
X149549319Y-70344438D01*
X149553500Y-70386895D01*
X149553500Y-71853105D01*
X149549319Y-71895562D01*
X149538726Y-71930481D01*
X149521524Y-71962663D01*
X149498373Y-71990873D01*
X149470163Y-72014024D01*
X149437981Y-72031226D01*
X149403062Y-72041819D01*
X149360605Y-72046000D01*
X148219395Y-72046000D01*
X148176938Y-72041819D01*
X148142019Y-72031226D01*
X148109837Y-72014024D01*
X148081627Y-71990873D01*
X148058476Y-71962663D01*
X148041274Y-71930481D01*
X148030681Y-71895562D01*
X148026500Y-71853105D01*
X148026500Y-70386895D01*
X148030681Y-70344438D01*
X148041274Y-70309519D01*
X148058476Y-70277337D01*
X148081627Y-70249127D01*
X148109837Y-70225976D01*
X148142019Y-70208774D01*
X148176938Y-70198181D01*
X148219395Y-70194000D01*
X149360605Y-70194000D01*
X149403062Y-70198181D01*
X149403062Y-70198181D01*
G37*
M02*
