G04 #@! TF.GenerationSoftware,KiCad,Pcbnew,(5.1.4)-1*
G04 #@! TF.CreationDate,2019-11-25T23:53:57+00:00*
G04 #@! TF.ProjectId,KeyPad BCD encoder,4b657950-6164-4204-9243-4420656e636f,rev?*
G04 #@! TF.SameCoordinates,Original*
G04 #@! TF.FileFunction,Copper,L1,Top*
G04 #@! TF.FilePolarity,Positive*
%FSLAX46Y46*%
G04 Gerber Fmt 4.6, Leading zero omitted, Abs format (unit mm)*
G04 Created by KiCad (PCBNEW (5.1.4)-1) date 2019-11-25 23:53:57*
%MOMM*%
%LPD*%
G04 APERTURE LIST*
%ADD10C,0.100000*%
%ADD11C,1.150000*%
%ADD12O,1.700000X1.700000*%
%ADD13R,1.700000X1.700000*%
%ADD14C,0.600000*%
%ADD15C,1.425000*%
%ADD16C,0.800000*%
%ADD17C,0.250000*%
%ADD18C,0.254000*%
G04 APERTURE END LIST*
D10*
G36*
X162274505Y-95821204D02*
G01*
X162298773Y-95824804D01*
X162322572Y-95830765D01*
X162345671Y-95839030D01*
X162367850Y-95849520D01*
X162388893Y-95862132D01*
X162408599Y-95876747D01*
X162426777Y-95893223D01*
X162443253Y-95911401D01*
X162457868Y-95931107D01*
X162470480Y-95952150D01*
X162480970Y-95974329D01*
X162489235Y-95997428D01*
X162495196Y-96021227D01*
X162498796Y-96045495D01*
X162500000Y-96069999D01*
X162500000Y-96970001D01*
X162498796Y-96994505D01*
X162495196Y-97018773D01*
X162489235Y-97042572D01*
X162480970Y-97065671D01*
X162470480Y-97087850D01*
X162457868Y-97108893D01*
X162443253Y-97128599D01*
X162426777Y-97146777D01*
X162408599Y-97163253D01*
X162388893Y-97177868D01*
X162367850Y-97190480D01*
X162345671Y-97200970D01*
X162322572Y-97209235D01*
X162298773Y-97215196D01*
X162274505Y-97218796D01*
X162250001Y-97220000D01*
X161599999Y-97220000D01*
X161575495Y-97218796D01*
X161551227Y-97215196D01*
X161527428Y-97209235D01*
X161504329Y-97200970D01*
X161482150Y-97190480D01*
X161461107Y-97177868D01*
X161441401Y-97163253D01*
X161423223Y-97146777D01*
X161406747Y-97128599D01*
X161392132Y-97108893D01*
X161379520Y-97087850D01*
X161369030Y-97065671D01*
X161360765Y-97042572D01*
X161354804Y-97018773D01*
X161351204Y-96994505D01*
X161350000Y-96970001D01*
X161350000Y-96069999D01*
X161351204Y-96045495D01*
X161354804Y-96021227D01*
X161360765Y-95997428D01*
X161369030Y-95974329D01*
X161379520Y-95952150D01*
X161392132Y-95931107D01*
X161406747Y-95911401D01*
X161423223Y-95893223D01*
X161441401Y-95876747D01*
X161461107Y-95862132D01*
X161482150Y-95849520D01*
X161504329Y-95839030D01*
X161527428Y-95830765D01*
X161551227Y-95824804D01*
X161575495Y-95821204D01*
X161599999Y-95820000D01*
X162250001Y-95820000D01*
X162274505Y-95821204D01*
X162274505Y-95821204D01*
G37*
D11*
X161925000Y-96520000D03*
D10*
G36*
X160224505Y-95821204D02*
G01*
X160248773Y-95824804D01*
X160272572Y-95830765D01*
X160295671Y-95839030D01*
X160317850Y-95849520D01*
X160338893Y-95862132D01*
X160358599Y-95876747D01*
X160376777Y-95893223D01*
X160393253Y-95911401D01*
X160407868Y-95931107D01*
X160420480Y-95952150D01*
X160430970Y-95974329D01*
X160439235Y-95997428D01*
X160445196Y-96021227D01*
X160448796Y-96045495D01*
X160450000Y-96069999D01*
X160450000Y-96970001D01*
X160448796Y-96994505D01*
X160445196Y-97018773D01*
X160439235Y-97042572D01*
X160430970Y-97065671D01*
X160420480Y-97087850D01*
X160407868Y-97108893D01*
X160393253Y-97128599D01*
X160376777Y-97146777D01*
X160358599Y-97163253D01*
X160338893Y-97177868D01*
X160317850Y-97190480D01*
X160295671Y-97200970D01*
X160272572Y-97209235D01*
X160248773Y-97215196D01*
X160224505Y-97218796D01*
X160200001Y-97220000D01*
X159549999Y-97220000D01*
X159525495Y-97218796D01*
X159501227Y-97215196D01*
X159477428Y-97209235D01*
X159454329Y-97200970D01*
X159432150Y-97190480D01*
X159411107Y-97177868D01*
X159391401Y-97163253D01*
X159373223Y-97146777D01*
X159356747Y-97128599D01*
X159342132Y-97108893D01*
X159329520Y-97087850D01*
X159319030Y-97065671D01*
X159310765Y-97042572D01*
X159304804Y-97018773D01*
X159301204Y-96994505D01*
X159300000Y-96970001D01*
X159300000Y-96069999D01*
X159301204Y-96045495D01*
X159304804Y-96021227D01*
X159310765Y-95997428D01*
X159319030Y-95974329D01*
X159329520Y-95952150D01*
X159342132Y-95931107D01*
X159356747Y-95911401D01*
X159373223Y-95893223D01*
X159391401Y-95876747D01*
X159411107Y-95862132D01*
X159432150Y-95849520D01*
X159454329Y-95839030D01*
X159477428Y-95830765D01*
X159501227Y-95824804D01*
X159525495Y-95821204D01*
X159549999Y-95820000D01*
X160200001Y-95820000D01*
X160224505Y-95821204D01*
X160224505Y-95821204D01*
G37*
D11*
X159875000Y-96520000D03*
D10*
G36*
X150844505Y-95186204D02*
G01*
X150868773Y-95189804D01*
X150892572Y-95195765D01*
X150915671Y-95204030D01*
X150937850Y-95214520D01*
X150958893Y-95227132D01*
X150978599Y-95241747D01*
X150996777Y-95258223D01*
X151013253Y-95276401D01*
X151027868Y-95296107D01*
X151040480Y-95317150D01*
X151050970Y-95339329D01*
X151059235Y-95362428D01*
X151065196Y-95386227D01*
X151068796Y-95410495D01*
X151070000Y-95434999D01*
X151070000Y-96335001D01*
X151068796Y-96359505D01*
X151065196Y-96383773D01*
X151059235Y-96407572D01*
X151050970Y-96430671D01*
X151040480Y-96452850D01*
X151027868Y-96473893D01*
X151013253Y-96493599D01*
X150996777Y-96511777D01*
X150978599Y-96528253D01*
X150958893Y-96542868D01*
X150937850Y-96555480D01*
X150915671Y-96565970D01*
X150892572Y-96574235D01*
X150868773Y-96580196D01*
X150844505Y-96583796D01*
X150820001Y-96585000D01*
X150169999Y-96585000D01*
X150145495Y-96583796D01*
X150121227Y-96580196D01*
X150097428Y-96574235D01*
X150074329Y-96565970D01*
X150052150Y-96555480D01*
X150031107Y-96542868D01*
X150011401Y-96528253D01*
X149993223Y-96511777D01*
X149976747Y-96493599D01*
X149962132Y-96473893D01*
X149949520Y-96452850D01*
X149939030Y-96430671D01*
X149930765Y-96407572D01*
X149924804Y-96383773D01*
X149921204Y-96359505D01*
X149920000Y-96335001D01*
X149920000Y-95434999D01*
X149921204Y-95410495D01*
X149924804Y-95386227D01*
X149930765Y-95362428D01*
X149939030Y-95339329D01*
X149949520Y-95317150D01*
X149962132Y-95296107D01*
X149976747Y-95276401D01*
X149993223Y-95258223D01*
X150011401Y-95241747D01*
X150031107Y-95227132D01*
X150052150Y-95214520D01*
X150074329Y-95204030D01*
X150097428Y-95195765D01*
X150121227Y-95189804D01*
X150145495Y-95186204D01*
X150169999Y-95185000D01*
X150820001Y-95185000D01*
X150844505Y-95186204D01*
X150844505Y-95186204D01*
G37*
D11*
X150495000Y-95885000D03*
D10*
G36*
X152894505Y-95186204D02*
G01*
X152918773Y-95189804D01*
X152942572Y-95195765D01*
X152965671Y-95204030D01*
X152987850Y-95214520D01*
X153008893Y-95227132D01*
X153028599Y-95241747D01*
X153046777Y-95258223D01*
X153063253Y-95276401D01*
X153077868Y-95296107D01*
X153090480Y-95317150D01*
X153100970Y-95339329D01*
X153109235Y-95362428D01*
X153115196Y-95386227D01*
X153118796Y-95410495D01*
X153120000Y-95434999D01*
X153120000Y-96335001D01*
X153118796Y-96359505D01*
X153115196Y-96383773D01*
X153109235Y-96407572D01*
X153100970Y-96430671D01*
X153090480Y-96452850D01*
X153077868Y-96473893D01*
X153063253Y-96493599D01*
X153046777Y-96511777D01*
X153028599Y-96528253D01*
X153008893Y-96542868D01*
X152987850Y-96555480D01*
X152965671Y-96565970D01*
X152942572Y-96574235D01*
X152918773Y-96580196D01*
X152894505Y-96583796D01*
X152870001Y-96585000D01*
X152219999Y-96585000D01*
X152195495Y-96583796D01*
X152171227Y-96580196D01*
X152147428Y-96574235D01*
X152124329Y-96565970D01*
X152102150Y-96555480D01*
X152081107Y-96542868D01*
X152061401Y-96528253D01*
X152043223Y-96511777D01*
X152026747Y-96493599D01*
X152012132Y-96473893D01*
X151999520Y-96452850D01*
X151989030Y-96430671D01*
X151980765Y-96407572D01*
X151974804Y-96383773D01*
X151971204Y-96359505D01*
X151970000Y-96335001D01*
X151970000Y-95434999D01*
X151971204Y-95410495D01*
X151974804Y-95386227D01*
X151980765Y-95362428D01*
X151989030Y-95339329D01*
X151999520Y-95317150D01*
X152012132Y-95296107D01*
X152026747Y-95276401D01*
X152043223Y-95258223D01*
X152061401Y-95241747D01*
X152081107Y-95227132D01*
X152102150Y-95214520D01*
X152124329Y-95204030D01*
X152147428Y-95195765D01*
X152171227Y-95189804D01*
X152195495Y-95186204D01*
X152219999Y-95185000D01*
X152870001Y-95185000D01*
X152894505Y-95186204D01*
X152894505Y-95186204D01*
G37*
D11*
X152545000Y-95885000D03*
D10*
G36*
X144619505Y-96191204D02*
G01*
X144643773Y-96194804D01*
X144667572Y-96200765D01*
X144690671Y-96209030D01*
X144712850Y-96219520D01*
X144733893Y-96232132D01*
X144753599Y-96246747D01*
X144771777Y-96263223D01*
X144788253Y-96281401D01*
X144802868Y-96301107D01*
X144815480Y-96322150D01*
X144825970Y-96344329D01*
X144834235Y-96367428D01*
X144840196Y-96391227D01*
X144843796Y-96415495D01*
X144845000Y-96439999D01*
X144845000Y-97090001D01*
X144843796Y-97114505D01*
X144840196Y-97138773D01*
X144834235Y-97162572D01*
X144825970Y-97185671D01*
X144815480Y-97207850D01*
X144802868Y-97228893D01*
X144788253Y-97248599D01*
X144771777Y-97266777D01*
X144753599Y-97283253D01*
X144733893Y-97297868D01*
X144712850Y-97310480D01*
X144690671Y-97320970D01*
X144667572Y-97329235D01*
X144643773Y-97335196D01*
X144619505Y-97338796D01*
X144595001Y-97340000D01*
X143694999Y-97340000D01*
X143670495Y-97338796D01*
X143646227Y-97335196D01*
X143622428Y-97329235D01*
X143599329Y-97320970D01*
X143577150Y-97310480D01*
X143556107Y-97297868D01*
X143536401Y-97283253D01*
X143518223Y-97266777D01*
X143501747Y-97248599D01*
X143487132Y-97228893D01*
X143474520Y-97207850D01*
X143464030Y-97185671D01*
X143455765Y-97162572D01*
X143449804Y-97138773D01*
X143446204Y-97114505D01*
X143445000Y-97090001D01*
X143445000Y-96439999D01*
X143446204Y-96415495D01*
X143449804Y-96391227D01*
X143455765Y-96367428D01*
X143464030Y-96344329D01*
X143474520Y-96322150D01*
X143487132Y-96301107D01*
X143501747Y-96281401D01*
X143518223Y-96263223D01*
X143536401Y-96246747D01*
X143556107Y-96232132D01*
X143577150Y-96219520D01*
X143599329Y-96209030D01*
X143622428Y-96200765D01*
X143646227Y-96194804D01*
X143670495Y-96191204D01*
X143694999Y-96190000D01*
X144595001Y-96190000D01*
X144619505Y-96191204D01*
X144619505Y-96191204D01*
G37*
D11*
X144145000Y-96765000D03*
D10*
G36*
X144619505Y-98241204D02*
G01*
X144643773Y-98244804D01*
X144667572Y-98250765D01*
X144690671Y-98259030D01*
X144712850Y-98269520D01*
X144733893Y-98282132D01*
X144753599Y-98296747D01*
X144771777Y-98313223D01*
X144788253Y-98331401D01*
X144802868Y-98351107D01*
X144815480Y-98372150D01*
X144825970Y-98394329D01*
X144834235Y-98417428D01*
X144840196Y-98441227D01*
X144843796Y-98465495D01*
X144845000Y-98489999D01*
X144845000Y-99140001D01*
X144843796Y-99164505D01*
X144840196Y-99188773D01*
X144834235Y-99212572D01*
X144825970Y-99235671D01*
X144815480Y-99257850D01*
X144802868Y-99278893D01*
X144788253Y-99298599D01*
X144771777Y-99316777D01*
X144753599Y-99333253D01*
X144733893Y-99347868D01*
X144712850Y-99360480D01*
X144690671Y-99370970D01*
X144667572Y-99379235D01*
X144643773Y-99385196D01*
X144619505Y-99388796D01*
X144595001Y-99390000D01*
X143694999Y-99390000D01*
X143670495Y-99388796D01*
X143646227Y-99385196D01*
X143622428Y-99379235D01*
X143599329Y-99370970D01*
X143577150Y-99360480D01*
X143556107Y-99347868D01*
X143536401Y-99333253D01*
X143518223Y-99316777D01*
X143501747Y-99298599D01*
X143487132Y-99278893D01*
X143474520Y-99257850D01*
X143464030Y-99235671D01*
X143455765Y-99212572D01*
X143449804Y-99188773D01*
X143446204Y-99164505D01*
X143445000Y-99140001D01*
X143445000Y-98489999D01*
X143446204Y-98465495D01*
X143449804Y-98441227D01*
X143455765Y-98417428D01*
X143464030Y-98394329D01*
X143474520Y-98372150D01*
X143487132Y-98351107D01*
X143501747Y-98331401D01*
X143518223Y-98313223D01*
X143536401Y-98296747D01*
X143556107Y-98282132D01*
X143577150Y-98269520D01*
X143599329Y-98259030D01*
X143622428Y-98250765D01*
X143646227Y-98244804D01*
X143670495Y-98241204D01*
X143694999Y-98240000D01*
X144595001Y-98240000D01*
X144619505Y-98241204D01*
X144619505Y-98241204D01*
G37*
D11*
X144145000Y-98815000D03*
D12*
X156845000Y-71755000D03*
D13*
X156845000Y-74295000D03*
D12*
X167640000Y-91440000D03*
X167640000Y-88900000D03*
X167640000Y-86360000D03*
X167640000Y-83820000D03*
D13*
X167640000Y-81280000D03*
D12*
X144145000Y-102870000D03*
X146685000Y-102870000D03*
X149225000Y-102870000D03*
X151765000Y-102870000D03*
X154305000Y-102870000D03*
X156845000Y-102870000D03*
D13*
X159385000Y-102870000D03*
D12*
X136525000Y-93980000D03*
X136525000Y-91440000D03*
X136525000Y-88900000D03*
X136525000Y-86360000D03*
X136525000Y-83820000D03*
X136525000Y-81280000D03*
D13*
X136525000Y-78740000D03*
D10*
G36*
X156669703Y-80345722D02*
G01*
X156684264Y-80347882D01*
X156698543Y-80351459D01*
X156712403Y-80356418D01*
X156725710Y-80362712D01*
X156738336Y-80370280D01*
X156750159Y-80379048D01*
X156761066Y-80388934D01*
X156770952Y-80399841D01*
X156779720Y-80411664D01*
X156787288Y-80424290D01*
X156793582Y-80437597D01*
X156798541Y-80451457D01*
X156802118Y-80465736D01*
X156804278Y-80480297D01*
X156805000Y-80495000D01*
X156805000Y-80795000D01*
X156804278Y-80809703D01*
X156802118Y-80824264D01*
X156798541Y-80838543D01*
X156793582Y-80852403D01*
X156787288Y-80865710D01*
X156779720Y-80878336D01*
X156770952Y-80890159D01*
X156761066Y-80901066D01*
X156750159Y-80910952D01*
X156738336Y-80919720D01*
X156725710Y-80927288D01*
X156712403Y-80933582D01*
X156698543Y-80938541D01*
X156684264Y-80942118D01*
X156669703Y-80944278D01*
X156655000Y-80945000D01*
X154905000Y-80945000D01*
X154890297Y-80944278D01*
X154875736Y-80942118D01*
X154861457Y-80938541D01*
X154847597Y-80933582D01*
X154834290Y-80927288D01*
X154821664Y-80919720D01*
X154809841Y-80910952D01*
X154798934Y-80901066D01*
X154789048Y-80890159D01*
X154780280Y-80878336D01*
X154772712Y-80865710D01*
X154766418Y-80852403D01*
X154761459Y-80838543D01*
X154757882Y-80824264D01*
X154755722Y-80809703D01*
X154755000Y-80795000D01*
X154755000Y-80495000D01*
X154755722Y-80480297D01*
X154757882Y-80465736D01*
X154761459Y-80451457D01*
X154766418Y-80437597D01*
X154772712Y-80424290D01*
X154780280Y-80411664D01*
X154789048Y-80399841D01*
X154798934Y-80388934D01*
X154809841Y-80379048D01*
X154821664Y-80370280D01*
X154834290Y-80362712D01*
X154847597Y-80356418D01*
X154861457Y-80351459D01*
X154875736Y-80347882D01*
X154890297Y-80345722D01*
X154905000Y-80345000D01*
X156655000Y-80345000D01*
X156669703Y-80345722D01*
X156669703Y-80345722D01*
G37*
D14*
X155780000Y-80645000D03*
D10*
G36*
X156669703Y-81615722D02*
G01*
X156684264Y-81617882D01*
X156698543Y-81621459D01*
X156712403Y-81626418D01*
X156725710Y-81632712D01*
X156738336Y-81640280D01*
X156750159Y-81649048D01*
X156761066Y-81658934D01*
X156770952Y-81669841D01*
X156779720Y-81681664D01*
X156787288Y-81694290D01*
X156793582Y-81707597D01*
X156798541Y-81721457D01*
X156802118Y-81735736D01*
X156804278Y-81750297D01*
X156805000Y-81765000D01*
X156805000Y-82065000D01*
X156804278Y-82079703D01*
X156802118Y-82094264D01*
X156798541Y-82108543D01*
X156793582Y-82122403D01*
X156787288Y-82135710D01*
X156779720Y-82148336D01*
X156770952Y-82160159D01*
X156761066Y-82171066D01*
X156750159Y-82180952D01*
X156738336Y-82189720D01*
X156725710Y-82197288D01*
X156712403Y-82203582D01*
X156698543Y-82208541D01*
X156684264Y-82212118D01*
X156669703Y-82214278D01*
X156655000Y-82215000D01*
X154905000Y-82215000D01*
X154890297Y-82214278D01*
X154875736Y-82212118D01*
X154861457Y-82208541D01*
X154847597Y-82203582D01*
X154834290Y-82197288D01*
X154821664Y-82189720D01*
X154809841Y-82180952D01*
X154798934Y-82171066D01*
X154789048Y-82160159D01*
X154780280Y-82148336D01*
X154772712Y-82135710D01*
X154766418Y-82122403D01*
X154761459Y-82108543D01*
X154757882Y-82094264D01*
X154755722Y-82079703D01*
X154755000Y-82065000D01*
X154755000Y-81765000D01*
X154755722Y-81750297D01*
X154757882Y-81735736D01*
X154761459Y-81721457D01*
X154766418Y-81707597D01*
X154772712Y-81694290D01*
X154780280Y-81681664D01*
X154789048Y-81669841D01*
X154798934Y-81658934D01*
X154809841Y-81649048D01*
X154821664Y-81640280D01*
X154834290Y-81632712D01*
X154847597Y-81626418D01*
X154861457Y-81621459D01*
X154875736Y-81617882D01*
X154890297Y-81615722D01*
X154905000Y-81615000D01*
X156655000Y-81615000D01*
X156669703Y-81615722D01*
X156669703Y-81615722D01*
G37*
D14*
X155780000Y-81915000D03*
D10*
G36*
X156669703Y-82885722D02*
G01*
X156684264Y-82887882D01*
X156698543Y-82891459D01*
X156712403Y-82896418D01*
X156725710Y-82902712D01*
X156738336Y-82910280D01*
X156750159Y-82919048D01*
X156761066Y-82928934D01*
X156770952Y-82939841D01*
X156779720Y-82951664D01*
X156787288Y-82964290D01*
X156793582Y-82977597D01*
X156798541Y-82991457D01*
X156802118Y-83005736D01*
X156804278Y-83020297D01*
X156805000Y-83035000D01*
X156805000Y-83335000D01*
X156804278Y-83349703D01*
X156802118Y-83364264D01*
X156798541Y-83378543D01*
X156793582Y-83392403D01*
X156787288Y-83405710D01*
X156779720Y-83418336D01*
X156770952Y-83430159D01*
X156761066Y-83441066D01*
X156750159Y-83450952D01*
X156738336Y-83459720D01*
X156725710Y-83467288D01*
X156712403Y-83473582D01*
X156698543Y-83478541D01*
X156684264Y-83482118D01*
X156669703Y-83484278D01*
X156655000Y-83485000D01*
X154905000Y-83485000D01*
X154890297Y-83484278D01*
X154875736Y-83482118D01*
X154861457Y-83478541D01*
X154847597Y-83473582D01*
X154834290Y-83467288D01*
X154821664Y-83459720D01*
X154809841Y-83450952D01*
X154798934Y-83441066D01*
X154789048Y-83430159D01*
X154780280Y-83418336D01*
X154772712Y-83405710D01*
X154766418Y-83392403D01*
X154761459Y-83378543D01*
X154757882Y-83364264D01*
X154755722Y-83349703D01*
X154755000Y-83335000D01*
X154755000Y-83035000D01*
X154755722Y-83020297D01*
X154757882Y-83005736D01*
X154761459Y-82991457D01*
X154766418Y-82977597D01*
X154772712Y-82964290D01*
X154780280Y-82951664D01*
X154789048Y-82939841D01*
X154798934Y-82928934D01*
X154809841Y-82919048D01*
X154821664Y-82910280D01*
X154834290Y-82902712D01*
X154847597Y-82896418D01*
X154861457Y-82891459D01*
X154875736Y-82887882D01*
X154890297Y-82885722D01*
X154905000Y-82885000D01*
X156655000Y-82885000D01*
X156669703Y-82885722D01*
X156669703Y-82885722D01*
G37*
D14*
X155780000Y-83185000D03*
D10*
G36*
X156669703Y-84155722D02*
G01*
X156684264Y-84157882D01*
X156698543Y-84161459D01*
X156712403Y-84166418D01*
X156725710Y-84172712D01*
X156738336Y-84180280D01*
X156750159Y-84189048D01*
X156761066Y-84198934D01*
X156770952Y-84209841D01*
X156779720Y-84221664D01*
X156787288Y-84234290D01*
X156793582Y-84247597D01*
X156798541Y-84261457D01*
X156802118Y-84275736D01*
X156804278Y-84290297D01*
X156805000Y-84305000D01*
X156805000Y-84605000D01*
X156804278Y-84619703D01*
X156802118Y-84634264D01*
X156798541Y-84648543D01*
X156793582Y-84662403D01*
X156787288Y-84675710D01*
X156779720Y-84688336D01*
X156770952Y-84700159D01*
X156761066Y-84711066D01*
X156750159Y-84720952D01*
X156738336Y-84729720D01*
X156725710Y-84737288D01*
X156712403Y-84743582D01*
X156698543Y-84748541D01*
X156684264Y-84752118D01*
X156669703Y-84754278D01*
X156655000Y-84755000D01*
X154905000Y-84755000D01*
X154890297Y-84754278D01*
X154875736Y-84752118D01*
X154861457Y-84748541D01*
X154847597Y-84743582D01*
X154834290Y-84737288D01*
X154821664Y-84729720D01*
X154809841Y-84720952D01*
X154798934Y-84711066D01*
X154789048Y-84700159D01*
X154780280Y-84688336D01*
X154772712Y-84675710D01*
X154766418Y-84662403D01*
X154761459Y-84648543D01*
X154757882Y-84634264D01*
X154755722Y-84619703D01*
X154755000Y-84605000D01*
X154755000Y-84305000D01*
X154755722Y-84290297D01*
X154757882Y-84275736D01*
X154761459Y-84261457D01*
X154766418Y-84247597D01*
X154772712Y-84234290D01*
X154780280Y-84221664D01*
X154789048Y-84209841D01*
X154798934Y-84198934D01*
X154809841Y-84189048D01*
X154821664Y-84180280D01*
X154834290Y-84172712D01*
X154847597Y-84166418D01*
X154861457Y-84161459D01*
X154875736Y-84157882D01*
X154890297Y-84155722D01*
X154905000Y-84155000D01*
X156655000Y-84155000D01*
X156669703Y-84155722D01*
X156669703Y-84155722D01*
G37*
D14*
X155780000Y-84455000D03*
D10*
G36*
X156669703Y-85425722D02*
G01*
X156684264Y-85427882D01*
X156698543Y-85431459D01*
X156712403Y-85436418D01*
X156725710Y-85442712D01*
X156738336Y-85450280D01*
X156750159Y-85459048D01*
X156761066Y-85468934D01*
X156770952Y-85479841D01*
X156779720Y-85491664D01*
X156787288Y-85504290D01*
X156793582Y-85517597D01*
X156798541Y-85531457D01*
X156802118Y-85545736D01*
X156804278Y-85560297D01*
X156805000Y-85575000D01*
X156805000Y-85875000D01*
X156804278Y-85889703D01*
X156802118Y-85904264D01*
X156798541Y-85918543D01*
X156793582Y-85932403D01*
X156787288Y-85945710D01*
X156779720Y-85958336D01*
X156770952Y-85970159D01*
X156761066Y-85981066D01*
X156750159Y-85990952D01*
X156738336Y-85999720D01*
X156725710Y-86007288D01*
X156712403Y-86013582D01*
X156698543Y-86018541D01*
X156684264Y-86022118D01*
X156669703Y-86024278D01*
X156655000Y-86025000D01*
X154905000Y-86025000D01*
X154890297Y-86024278D01*
X154875736Y-86022118D01*
X154861457Y-86018541D01*
X154847597Y-86013582D01*
X154834290Y-86007288D01*
X154821664Y-85999720D01*
X154809841Y-85990952D01*
X154798934Y-85981066D01*
X154789048Y-85970159D01*
X154780280Y-85958336D01*
X154772712Y-85945710D01*
X154766418Y-85932403D01*
X154761459Y-85918543D01*
X154757882Y-85904264D01*
X154755722Y-85889703D01*
X154755000Y-85875000D01*
X154755000Y-85575000D01*
X154755722Y-85560297D01*
X154757882Y-85545736D01*
X154761459Y-85531457D01*
X154766418Y-85517597D01*
X154772712Y-85504290D01*
X154780280Y-85491664D01*
X154789048Y-85479841D01*
X154798934Y-85468934D01*
X154809841Y-85459048D01*
X154821664Y-85450280D01*
X154834290Y-85442712D01*
X154847597Y-85436418D01*
X154861457Y-85431459D01*
X154875736Y-85427882D01*
X154890297Y-85425722D01*
X154905000Y-85425000D01*
X156655000Y-85425000D01*
X156669703Y-85425722D01*
X156669703Y-85425722D01*
G37*
D14*
X155780000Y-85725000D03*
D10*
G36*
X156669703Y-86695722D02*
G01*
X156684264Y-86697882D01*
X156698543Y-86701459D01*
X156712403Y-86706418D01*
X156725710Y-86712712D01*
X156738336Y-86720280D01*
X156750159Y-86729048D01*
X156761066Y-86738934D01*
X156770952Y-86749841D01*
X156779720Y-86761664D01*
X156787288Y-86774290D01*
X156793582Y-86787597D01*
X156798541Y-86801457D01*
X156802118Y-86815736D01*
X156804278Y-86830297D01*
X156805000Y-86845000D01*
X156805000Y-87145000D01*
X156804278Y-87159703D01*
X156802118Y-87174264D01*
X156798541Y-87188543D01*
X156793582Y-87202403D01*
X156787288Y-87215710D01*
X156779720Y-87228336D01*
X156770952Y-87240159D01*
X156761066Y-87251066D01*
X156750159Y-87260952D01*
X156738336Y-87269720D01*
X156725710Y-87277288D01*
X156712403Y-87283582D01*
X156698543Y-87288541D01*
X156684264Y-87292118D01*
X156669703Y-87294278D01*
X156655000Y-87295000D01*
X154905000Y-87295000D01*
X154890297Y-87294278D01*
X154875736Y-87292118D01*
X154861457Y-87288541D01*
X154847597Y-87283582D01*
X154834290Y-87277288D01*
X154821664Y-87269720D01*
X154809841Y-87260952D01*
X154798934Y-87251066D01*
X154789048Y-87240159D01*
X154780280Y-87228336D01*
X154772712Y-87215710D01*
X154766418Y-87202403D01*
X154761459Y-87188543D01*
X154757882Y-87174264D01*
X154755722Y-87159703D01*
X154755000Y-87145000D01*
X154755000Y-86845000D01*
X154755722Y-86830297D01*
X154757882Y-86815736D01*
X154761459Y-86801457D01*
X154766418Y-86787597D01*
X154772712Y-86774290D01*
X154780280Y-86761664D01*
X154789048Y-86749841D01*
X154798934Y-86738934D01*
X154809841Y-86729048D01*
X154821664Y-86720280D01*
X154834290Y-86712712D01*
X154847597Y-86706418D01*
X154861457Y-86701459D01*
X154875736Y-86697882D01*
X154890297Y-86695722D01*
X154905000Y-86695000D01*
X156655000Y-86695000D01*
X156669703Y-86695722D01*
X156669703Y-86695722D01*
G37*
D14*
X155780000Y-86995000D03*
D10*
G36*
X156669703Y-87965722D02*
G01*
X156684264Y-87967882D01*
X156698543Y-87971459D01*
X156712403Y-87976418D01*
X156725710Y-87982712D01*
X156738336Y-87990280D01*
X156750159Y-87999048D01*
X156761066Y-88008934D01*
X156770952Y-88019841D01*
X156779720Y-88031664D01*
X156787288Y-88044290D01*
X156793582Y-88057597D01*
X156798541Y-88071457D01*
X156802118Y-88085736D01*
X156804278Y-88100297D01*
X156805000Y-88115000D01*
X156805000Y-88415000D01*
X156804278Y-88429703D01*
X156802118Y-88444264D01*
X156798541Y-88458543D01*
X156793582Y-88472403D01*
X156787288Y-88485710D01*
X156779720Y-88498336D01*
X156770952Y-88510159D01*
X156761066Y-88521066D01*
X156750159Y-88530952D01*
X156738336Y-88539720D01*
X156725710Y-88547288D01*
X156712403Y-88553582D01*
X156698543Y-88558541D01*
X156684264Y-88562118D01*
X156669703Y-88564278D01*
X156655000Y-88565000D01*
X154905000Y-88565000D01*
X154890297Y-88564278D01*
X154875736Y-88562118D01*
X154861457Y-88558541D01*
X154847597Y-88553582D01*
X154834290Y-88547288D01*
X154821664Y-88539720D01*
X154809841Y-88530952D01*
X154798934Y-88521066D01*
X154789048Y-88510159D01*
X154780280Y-88498336D01*
X154772712Y-88485710D01*
X154766418Y-88472403D01*
X154761459Y-88458543D01*
X154757882Y-88444264D01*
X154755722Y-88429703D01*
X154755000Y-88415000D01*
X154755000Y-88115000D01*
X154755722Y-88100297D01*
X154757882Y-88085736D01*
X154761459Y-88071457D01*
X154766418Y-88057597D01*
X154772712Y-88044290D01*
X154780280Y-88031664D01*
X154789048Y-88019841D01*
X154798934Y-88008934D01*
X154809841Y-87999048D01*
X154821664Y-87990280D01*
X154834290Y-87982712D01*
X154847597Y-87976418D01*
X154861457Y-87971459D01*
X154875736Y-87967882D01*
X154890297Y-87965722D01*
X154905000Y-87965000D01*
X156655000Y-87965000D01*
X156669703Y-87965722D01*
X156669703Y-87965722D01*
G37*
D14*
X155780000Y-88265000D03*
D10*
G36*
X156669703Y-89235722D02*
G01*
X156684264Y-89237882D01*
X156698543Y-89241459D01*
X156712403Y-89246418D01*
X156725710Y-89252712D01*
X156738336Y-89260280D01*
X156750159Y-89269048D01*
X156761066Y-89278934D01*
X156770952Y-89289841D01*
X156779720Y-89301664D01*
X156787288Y-89314290D01*
X156793582Y-89327597D01*
X156798541Y-89341457D01*
X156802118Y-89355736D01*
X156804278Y-89370297D01*
X156805000Y-89385000D01*
X156805000Y-89685000D01*
X156804278Y-89699703D01*
X156802118Y-89714264D01*
X156798541Y-89728543D01*
X156793582Y-89742403D01*
X156787288Y-89755710D01*
X156779720Y-89768336D01*
X156770952Y-89780159D01*
X156761066Y-89791066D01*
X156750159Y-89800952D01*
X156738336Y-89809720D01*
X156725710Y-89817288D01*
X156712403Y-89823582D01*
X156698543Y-89828541D01*
X156684264Y-89832118D01*
X156669703Y-89834278D01*
X156655000Y-89835000D01*
X154905000Y-89835000D01*
X154890297Y-89834278D01*
X154875736Y-89832118D01*
X154861457Y-89828541D01*
X154847597Y-89823582D01*
X154834290Y-89817288D01*
X154821664Y-89809720D01*
X154809841Y-89800952D01*
X154798934Y-89791066D01*
X154789048Y-89780159D01*
X154780280Y-89768336D01*
X154772712Y-89755710D01*
X154766418Y-89742403D01*
X154761459Y-89728543D01*
X154757882Y-89714264D01*
X154755722Y-89699703D01*
X154755000Y-89685000D01*
X154755000Y-89385000D01*
X154755722Y-89370297D01*
X154757882Y-89355736D01*
X154761459Y-89341457D01*
X154766418Y-89327597D01*
X154772712Y-89314290D01*
X154780280Y-89301664D01*
X154789048Y-89289841D01*
X154798934Y-89278934D01*
X154809841Y-89269048D01*
X154821664Y-89260280D01*
X154834290Y-89252712D01*
X154847597Y-89246418D01*
X154861457Y-89241459D01*
X154875736Y-89237882D01*
X154890297Y-89235722D01*
X154905000Y-89235000D01*
X156655000Y-89235000D01*
X156669703Y-89235722D01*
X156669703Y-89235722D01*
G37*
D14*
X155780000Y-89535000D03*
D10*
G36*
X156669703Y-90505722D02*
G01*
X156684264Y-90507882D01*
X156698543Y-90511459D01*
X156712403Y-90516418D01*
X156725710Y-90522712D01*
X156738336Y-90530280D01*
X156750159Y-90539048D01*
X156761066Y-90548934D01*
X156770952Y-90559841D01*
X156779720Y-90571664D01*
X156787288Y-90584290D01*
X156793582Y-90597597D01*
X156798541Y-90611457D01*
X156802118Y-90625736D01*
X156804278Y-90640297D01*
X156805000Y-90655000D01*
X156805000Y-90955000D01*
X156804278Y-90969703D01*
X156802118Y-90984264D01*
X156798541Y-90998543D01*
X156793582Y-91012403D01*
X156787288Y-91025710D01*
X156779720Y-91038336D01*
X156770952Y-91050159D01*
X156761066Y-91061066D01*
X156750159Y-91070952D01*
X156738336Y-91079720D01*
X156725710Y-91087288D01*
X156712403Y-91093582D01*
X156698543Y-91098541D01*
X156684264Y-91102118D01*
X156669703Y-91104278D01*
X156655000Y-91105000D01*
X154905000Y-91105000D01*
X154890297Y-91104278D01*
X154875736Y-91102118D01*
X154861457Y-91098541D01*
X154847597Y-91093582D01*
X154834290Y-91087288D01*
X154821664Y-91079720D01*
X154809841Y-91070952D01*
X154798934Y-91061066D01*
X154789048Y-91050159D01*
X154780280Y-91038336D01*
X154772712Y-91025710D01*
X154766418Y-91012403D01*
X154761459Y-90998543D01*
X154757882Y-90984264D01*
X154755722Y-90969703D01*
X154755000Y-90955000D01*
X154755000Y-90655000D01*
X154755722Y-90640297D01*
X154757882Y-90625736D01*
X154761459Y-90611457D01*
X154766418Y-90597597D01*
X154772712Y-90584290D01*
X154780280Y-90571664D01*
X154789048Y-90559841D01*
X154798934Y-90548934D01*
X154809841Y-90539048D01*
X154821664Y-90530280D01*
X154834290Y-90522712D01*
X154847597Y-90516418D01*
X154861457Y-90511459D01*
X154875736Y-90507882D01*
X154890297Y-90505722D01*
X154905000Y-90505000D01*
X156655000Y-90505000D01*
X156669703Y-90505722D01*
X156669703Y-90505722D01*
G37*
D14*
X155780000Y-90805000D03*
D10*
G36*
X147369703Y-90505722D02*
G01*
X147384264Y-90507882D01*
X147398543Y-90511459D01*
X147412403Y-90516418D01*
X147425710Y-90522712D01*
X147438336Y-90530280D01*
X147450159Y-90539048D01*
X147461066Y-90548934D01*
X147470952Y-90559841D01*
X147479720Y-90571664D01*
X147487288Y-90584290D01*
X147493582Y-90597597D01*
X147498541Y-90611457D01*
X147502118Y-90625736D01*
X147504278Y-90640297D01*
X147505000Y-90655000D01*
X147505000Y-90955000D01*
X147504278Y-90969703D01*
X147502118Y-90984264D01*
X147498541Y-90998543D01*
X147493582Y-91012403D01*
X147487288Y-91025710D01*
X147479720Y-91038336D01*
X147470952Y-91050159D01*
X147461066Y-91061066D01*
X147450159Y-91070952D01*
X147438336Y-91079720D01*
X147425710Y-91087288D01*
X147412403Y-91093582D01*
X147398543Y-91098541D01*
X147384264Y-91102118D01*
X147369703Y-91104278D01*
X147355000Y-91105000D01*
X145605000Y-91105000D01*
X145590297Y-91104278D01*
X145575736Y-91102118D01*
X145561457Y-91098541D01*
X145547597Y-91093582D01*
X145534290Y-91087288D01*
X145521664Y-91079720D01*
X145509841Y-91070952D01*
X145498934Y-91061066D01*
X145489048Y-91050159D01*
X145480280Y-91038336D01*
X145472712Y-91025710D01*
X145466418Y-91012403D01*
X145461459Y-90998543D01*
X145457882Y-90984264D01*
X145455722Y-90969703D01*
X145455000Y-90955000D01*
X145455000Y-90655000D01*
X145455722Y-90640297D01*
X145457882Y-90625736D01*
X145461459Y-90611457D01*
X145466418Y-90597597D01*
X145472712Y-90584290D01*
X145480280Y-90571664D01*
X145489048Y-90559841D01*
X145498934Y-90548934D01*
X145509841Y-90539048D01*
X145521664Y-90530280D01*
X145534290Y-90522712D01*
X145547597Y-90516418D01*
X145561457Y-90511459D01*
X145575736Y-90507882D01*
X145590297Y-90505722D01*
X145605000Y-90505000D01*
X147355000Y-90505000D01*
X147369703Y-90505722D01*
X147369703Y-90505722D01*
G37*
D14*
X146480000Y-90805000D03*
D10*
G36*
X147369703Y-89235722D02*
G01*
X147384264Y-89237882D01*
X147398543Y-89241459D01*
X147412403Y-89246418D01*
X147425710Y-89252712D01*
X147438336Y-89260280D01*
X147450159Y-89269048D01*
X147461066Y-89278934D01*
X147470952Y-89289841D01*
X147479720Y-89301664D01*
X147487288Y-89314290D01*
X147493582Y-89327597D01*
X147498541Y-89341457D01*
X147502118Y-89355736D01*
X147504278Y-89370297D01*
X147505000Y-89385000D01*
X147505000Y-89685000D01*
X147504278Y-89699703D01*
X147502118Y-89714264D01*
X147498541Y-89728543D01*
X147493582Y-89742403D01*
X147487288Y-89755710D01*
X147479720Y-89768336D01*
X147470952Y-89780159D01*
X147461066Y-89791066D01*
X147450159Y-89800952D01*
X147438336Y-89809720D01*
X147425710Y-89817288D01*
X147412403Y-89823582D01*
X147398543Y-89828541D01*
X147384264Y-89832118D01*
X147369703Y-89834278D01*
X147355000Y-89835000D01*
X145605000Y-89835000D01*
X145590297Y-89834278D01*
X145575736Y-89832118D01*
X145561457Y-89828541D01*
X145547597Y-89823582D01*
X145534290Y-89817288D01*
X145521664Y-89809720D01*
X145509841Y-89800952D01*
X145498934Y-89791066D01*
X145489048Y-89780159D01*
X145480280Y-89768336D01*
X145472712Y-89755710D01*
X145466418Y-89742403D01*
X145461459Y-89728543D01*
X145457882Y-89714264D01*
X145455722Y-89699703D01*
X145455000Y-89685000D01*
X145455000Y-89385000D01*
X145455722Y-89370297D01*
X145457882Y-89355736D01*
X145461459Y-89341457D01*
X145466418Y-89327597D01*
X145472712Y-89314290D01*
X145480280Y-89301664D01*
X145489048Y-89289841D01*
X145498934Y-89278934D01*
X145509841Y-89269048D01*
X145521664Y-89260280D01*
X145534290Y-89252712D01*
X145547597Y-89246418D01*
X145561457Y-89241459D01*
X145575736Y-89237882D01*
X145590297Y-89235722D01*
X145605000Y-89235000D01*
X147355000Y-89235000D01*
X147369703Y-89235722D01*
X147369703Y-89235722D01*
G37*
D14*
X146480000Y-89535000D03*
D10*
G36*
X147369703Y-87965722D02*
G01*
X147384264Y-87967882D01*
X147398543Y-87971459D01*
X147412403Y-87976418D01*
X147425710Y-87982712D01*
X147438336Y-87990280D01*
X147450159Y-87999048D01*
X147461066Y-88008934D01*
X147470952Y-88019841D01*
X147479720Y-88031664D01*
X147487288Y-88044290D01*
X147493582Y-88057597D01*
X147498541Y-88071457D01*
X147502118Y-88085736D01*
X147504278Y-88100297D01*
X147505000Y-88115000D01*
X147505000Y-88415000D01*
X147504278Y-88429703D01*
X147502118Y-88444264D01*
X147498541Y-88458543D01*
X147493582Y-88472403D01*
X147487288Y-88485710D01*
X147479720Y-88498336D01*
X147470952Y-88510159D01*
X147461066Y-88521066D01*
X147450159Y-88530952D01*
X147438336Y-88539720D01*
X147425710Y-88547288D01*
X147412403Y-88553582D01*
X147398543Y-88558541D01*
X147384264Y-88562118D01*
X147369703Y-88564278D01*
X147355000Y-88565000D01*
X145605000Y-88565000D01*
X145590297Y-88564278D01*
X145575736Y-88562118D01*
X145561457Y-88558541D01*
X145547597Y-88553582D01*
X145534290Y-88547288D01*
X145521664Y-88539720D01*
X145509841Y-88530952D01*
X145498934Y-88521066D01*
X145489048Y-88510159D01*
X145480280Y-88498336D01*
X145472712Y-88485710D01*
X145466418Y-88472403D01*
X145461459Y-88458543D01*
X145457882Y-88444264D01*
X145455722Y-88429703D01*
X145455000Y-88415000D01*
X145455000Y-88115000D01*
X145455722Y-88100297D01*
X145457882Y-88085736D01*
X145461459Y-88071457D01*
X145466418Y-88057597D01*
X145472712Y-88044290D01*
X145480280Y-88031664D01*
X145489048Y-88019841D01*
X145498934Y-88008934D01*
X145509841Y-87999048D01*
X145521664Y-87990280D01*
X145534290Y-87982712D01*
X145547597Y-87976418D01*
X145561457Y-87971459D01*
X145575736Y-87967882D01*
X145590297Y-87965722D01*
X145605000Y-87965000D01*
X147355000Y-87965000D01*
X147369703Y-87965722D01*
X147369703Y-87965722D01*
G37*
D14*
X146480000Y-88265000D03*
D10*
G36*
X147369703Y-86695722D02*
G01*
X147384264Y-86697882D01*
X147398543Y-86701459D01*
X147412403Y-86706418D01*
X147425710Y-86712712D01*
X147438336Y-86720280D01*
X147450159Y-86729048D01*
X147461066Y-86738934D01*
X147470952Y-86749841D01*
X147479720Y-86761664D01*
X147487288Y-86774290D01*
X147493582Y-86787597D01*
X147498541Y-86801457D01*
X147502118Y-86815736D01*
X147504278Y-86830297D01*
X147505000Y-86845000D01*
X147505000Y-87145000D01*
X147504278Y-87159703D01*
X147502118Y-87174264D01*
X147498541Y-87188543D01*
X147493582Y-87202403D01*
X147487288Y-87215710D01*
X147479720Y-87228336D01*
X147470952Y-87240159D01*
X147461066Y-87251066D01*
X147450159Y-87260952D01*
X147438336Y-87269720D01*
X147425710Y-87277288D01*
X147412403Y-87283582D01*
X147398543Y-87288541D01*
X147384264Y-87292118D01*
X147369703Y-87294278D01*
X147355000Y-87295000D01*
X145605000Y-87295000D01*
X145590297Y-87294278D01*
X145575736Y-87292118D01*
X145561457Y-87288541D01*
X145547597Y-87283582D01*
X145534290Y-87277288D01*
X145521664Y-87269720D01*
X145509841Y-87260952D01*
X145498934Y-87251066D01*
X145489048Y-87240159D01*
X145480280Y-87228336D01*
X145472712Y-87215710D01*
X145466418Y-87202403D01*
X145461459Y-87188543D01*
X145457882Y-87174264D01*
X145455722Y-87159703D01*
X145455000Y-87145000D01*
X145455000Y-86845000D01*
X145455722Y-86830297D01*
X145457882Y-86815736D01*
X145461459Y-86801457D01*
X145466418Y-86787597D01*
X145472712Y-86774290D01*
X145480280Y-86761664D01*
X145489048Y-86749841D01*
X145498934Y-86738934D01*
X145509841Y-86729048D01*
X145521664Y-86720280D01*
X145534290Y-86712712D01*
X145547597Y-86706418D01*
X145561457Y-86701459D01*
X145575736Y-86697882D01*
X145590297Y-86695722D01*
X145605000Y-86695000D01*
X147355000Y-86695000D01*
X147369703Y-86695722D01*
X147369703Y-86695722D01*
G37*
D14*
X146480000Y-86995000D03*
D10*
G36*
X147369703Y-85425722D02*
G01*
X147384264Y-85427882D01*
X147398543Y-85431459D01*
X147412403Y-85436418D01*
X147425710Y-85442712D01*
X147438336Y-85450280D01*
X147450159Y-85459048D01*
X147461066Y-85468934D01*
X147470952Y-85479841D01*
X147479720Y-85491664D01*
X147487288Y-85504290D01*
X147493582Y-85517597D01*
X147498541Y-85531457D01*
X147502118Y-85545736D01*
X147504278Y-85560297D01*
X147505000Y-85575000D01*
X147505000Y-85875000D01*
X147504278Y-85889703D01*
X147502118Y-85904264D01*
X147498541Y-85918543D01*
X147493582Y-85932403D01*
X147487288Y-85945710D01*
X147479720Y-85958336D01*
X147470952Y-85970159D01*
X147461066Y-85981066D01*
X147450159Y-85990952D01*
X147438336Y-85999720D01*
X147425710Y-86007288D01*
X147412403Y-86013582D01*
X147398543Y-86018541D01*
X147384264Y-86022118D01*
X147369703Y-86024278D01*
X147355000Y-86025000D01*
X145605000Y-86025000D01*
X145590297Y-86024278D01*
X145575736Y-86022118D01*
X145561457Y-86018541D01*
X145547597Y-86013582D01*
X145534290Y-86007288D01*
X145521664Y-85999720D01*
X145509841Y-85990952D01*
X145498934Y-85981066D01*
X145489048Y-85970159D01*
X145480280Y-85958336D01*
X145472712Y-85945710D01*
X145466418Y-85932403D01*
X145461459Y-85918543D01*
X145457882Y-85904264D01*
X145455722Y-85889703D01*
X145455000Y-85875000D01*
X145455000Y-85575000D01*
X145455722Y-85560297D01*
X145457882Y-85545736D01*
X145461459Y-85531457D01*
X145466418Y-85517597D01*
X145472712Y-85504290D01*
X145480280Y-85491664D01*
X145489048Y-85479841D01*
X145498934Y-85468934D01*
X145509841Y-85459048D01*
X145521664Y-85450280D01*
X145534290Y-85442712D01*
X145547597Y-85436418D01*
X145561457Y-85431459D01*
X145575736Y-85427882D01*
X145590297Y-85425722D01*
X145605000Y-85425000D01*
X147355000Y-85425000D01*
X147369703Y-85425722D01*
X147369703Y-85425722D01*
G37*
D14*
X146480000Y-85725000D03*
D10*
G36*
X147369703Y-84155722D02*
G01*
X147384264Y-84157882D01*
X147398543Y-84161459D01*
X147412403Y-84166418D01*
X147425710Y-84172712D01*
X147438336Y-84180280D01*
X147450159Y-84189048D01*
X147461066Y-84198934D01*
X147470952Y-84209841D01*
X147479720Y-84221664D01*
X147487288Y-84234290D01*
X147493582Y-84247597D01*
X147498541Y-84261457D01*
X147502118Y-84275736D01*
X147504278Y-84290297D01*
X147505000Y-84305000D01*
X147505000Y-84605000D01*
X147504278Y-84619703D01*
X147502118Y-84634264D01*
X147498541Y-84648543D01*
X147493582Y-84662403D01*
X147487288Y-84675710D01*
X147479720Y-84688336D01*
X147470952Y-84700159D01*
X147461066Y-84711066D01*
X147450159Y-84720952D01*
X147438336Y-84729720D01*
X147425710Y-84737288D01*
X147412403Y-84743582D01*
X147398543Y-84748541D01*
X147384264Y-84752118D01*
X147369703Y-84754278D01*
X147355000Y-84755000D01*
X145605000Y-84755000D01*
X145590297Y-84754278D01*
X145575736Y-84752118D01*
X145561457Y-84748541D01*
X145547597Y-84743582D01*
X145534290Y-84737288D01*
X145521664Y-84729720D01*
X145509841Y-84720952D01*
X145498934Y-84711066D01*
X145489048Y-84700159D01*
X145480280Y-84688336D01*
X145472712Y-84675710D01*
X145466418Y-84662403D01*
X145461459Y-84648543D01*
X145457882Y-84634264D01*
X145455722Y-84619703D01*
X145455000Y-84605000D01*
X145455000Y-84305000D01*
X145455722Y-84290297D01*
X145457882Y-84275736D01*
X145461459Y-84261457D01*
X145466418Y-84247597D01*
X145472712Y-84234290D01*
X145480280Y-84221664D01*
X145489048Y-84209841D01*
X145498934Y-84198934D01*
X145509841Y-84189048D01*
X145521664Y-84180280D01*
X145534290Y-84172712D01*
X145547597Y-84166418D01*
X145561457Y-84161459D01*
X145575736Y-84157882D01*
X145590297Y-84155722D01*
X145605000Y-84155000D01*
X147355000Y-84155000D01*
X147369703Y-84155722D01*
X147369703Y-84155722D01*
G37*
D14*
X146480000Y-84455000D03*
D10*
G36*
X147369703Y-82885722D02*
G01*
X147384264Y-82887882D01*
X147398543Y-82891459D01*
X147412403Y-82896418D01*
X147425710Y-82902712D01*
X147438336Y-82910280D01*
X147450159Y-82919048D01*
X147461066Y-82928934D01*
X147470952Y-82939841D01*
X147479720Y-82951664D01*
X147487288Y-82964290D01*
X147493582Y-82977597D01*
X147498541Y-82991457D01*
X147502118Y-83005736D01*
X147504278Y-83020297D01*
X147505000Y-83035000D01*
X147505000Y-83335000D01*
X147504278Y-83349703D01*
X147502118Y-83364264D01*
X147498541Y-83378543D01*
X147493582Y-83392403D01*
X147487288Y-83405710D01*
X147479720Y-83418336D01*
X147470952Y-83430159D01*
X147461066Y-83441066D01*
X147450159Y-83450952D01*
X147438336Y-83459720D01*
X147425710Y-83467288D01*
X147412403Y-83473582D01*
X147398543Y-83478541D01*
X147384264Y-83482118D01*
X147369703Y-83484278D01*
X147355000Y-83485000D01*
X145605000Y-83485000D01*
X145590297Y-83484278D01*
X145575736Y-83482118D01*
X145561457Y-83478541D01*
X145547597Y-83473582D01*
X145534290Y-83467288D01*
X145521664Y-83459720D01*
X145509841Y-83450952D01*
X145498934Y-83441066D01*
X145489048Y-83430159D01*
X145480280Y-83418336D01*
X145472712Y-83405710D01*
X145466418Y-83392403D01*
X145461459Y-83378543D01*
X145457882Y-83364264D01*
X145455722Y-83349703D01*
X145455000Y-83335000D01*
X145455000Y-83035000D01*
X145455722Y-83020297D01*
X145457882Y-83005736D01*
X145461459Y-82991457D01*
X145466418Y-82977597D01*
X145472712Y-82964290D01*
X145480280Y-82951664D01*
X145489048Y-82939841D01*
X145498934Y-82928934D01*
X145509841Y-82919048D01*
X145521664Y-82910280D01*
X145534290Y-82902712D01*
X145547597Y-82896418D01*
X145561457Y-82891459D01*
X145575736Y-82887882D01*
X145590297Y-82885722D01*
X145605000Y-82885000D01*
X147355000Y-82885000D01*
X147369703Y-82885722D01*
X147369703Y-82885722D01*
G37*
D14*
X146480000Y-83185000D03*
D10*
G36*
X147369703Y-81615722D02*
G01*
X147384264Y-81617882D01*
X147398543Y-81621459D01*
X147412403Y-81626418D01*
X147425710Y-81632712D01*
X147438336Y-81640280D01*
X147450159Y-81649048D01*
X147461066Y-81658934D01*
X147470952Y-81669841D01*
X147479720Y-81681664D01*
X147487288Y-81694290D01*
X147493582Y-81707597D01*
X147498541Y-81721457D01*
X147502118Y-81735736D01*
X147504278Y-81750297D01*
X147505000Y-81765000D01*
X147505000Y-82065000D01*
X147504278Y-82079703D01*
X147502118Y-82094264D01*
X147498541Y-82108543D01*
X147493582Y-82122403D01*
X147487288Y-82135710D01*
X147479720Y-82148336D01*
X147470952Y-82160159D01*
X147461066Y-82171066D01*
X147450159Y-82180952D01*
X147438336Y-82189720D01*
X147425710Y-82197288D01*
X147412403Y-82203582D01*
X147398543Y-82208541D01*
X147384264Y-82212118D01*
X147369703Y-82214278D01*
X147355000Y-82215000D01*
X145605000Y-82215000D01*
X145590297Y-82214278D01*
X145575736Y-82212118D01*
X145561457Y-82208541D01*
X145547597Y-82203582D01*
X145534290Y-82197288D01*
X145521664Y-82189720D01*
X145509841Y-82180952D01*
X145498934Y-82171066D01*
X145489048Y-82160159D01*
X145480280Y-82148336D01*
X145472712Y-82135710D01*
X145466418Y-82122403D01*
X145461459Y-82108543D01*
X145457882Y-82094264D01*
X145455722Y-82079703D01*
X145455000Y-82065000D01*
X145455000Y-81765000D01*
X145455722Y-81750297D01*
X145457882Y-81735736D01*
X145461459Y-81721457D01*
X145466418Y-81707597D01*
X145472712Y-81694290D01*
X145480280Y-81681664D01*
X145489048Y-81669841D01*
X145498934Y-81658934D01*
X145509841Y-81649048D01*
X145521664Y-81640280D01*
X145534290Y-81632712D01*
X145547597Y-81626418D01*
X145561457Y-81621459D01*
X145575736Y-81617882D01*
X145590297Y-81615722D01*
X145605000Y-81615000D01*
X147355000Y-81615000D01*
X147369703Y-81615722D01*
X147369703Y-81615722D01*
G37*
D14*
X146480000Y-81915000D03*
D10*
G36*
X147369703Y-80345722D02*
G01*
X147384264Y-80347882D01*
X147398543Y-80351459D01*
X147412403Y-80356418D01*
X147425710Y-80362712D01*
X147438336Y-80370280D01*
X147450159Y-80379048D01*
X147461066Y-80388934D01*
X147470952Y-80399841D01*
X147479720Y-80411664D01*
X147487288Y-80424290D01*
X147493582Y-80437597D01*
X147498541Y-80451457D01*
X147502118Y-80465736D01*
X147504278Y-80480297D01*
X147505000Y-80495000D01*
X147505000Y-80795000D01*
X147504278Y-80809703D01*
X147502118Y-80824264D01*
X147498541Y-80838543D01*
X147493582Y-80852403D01*
X147487288Y-80865710D01*
X147479720Y-80878336D01*
X147470952Y-80890159D01*
X147461066Y-80901066D01*
X147450159Y-80910952D01*
X147438336Y-80919720D01*
X147425710Y-80927288D01*
X147412403Y-80933582D01*
X147398543Y-80938541D01*
X147384264Y-80942118D01*
X147369703Y-80944278D01*
X147355000Y-80945000D01*
X145605000Y-80945000D01*
X145590297Y-80944278D01*
X145575736Y-80942118D01*
X145561457Y-80938541D01*
X145547597Y-80933582D01*
X145534290Y-80927288D01*
X145521664Y-80919720D01*
X145509841Y-80910952D01*
X145498934Y-80901066D01*
X145489048Y-80890159D01*
X145480280Y-80878336D01*
X145472712Y-80865710D01*
X145466418Y-80852403D01*
X145461459Y-80838543D01*
X145457882Y-80824264D01*
X145455722Y-80809703D01*
X145455000Y-80795000D01*
X145455000Y-80495000D01*
X145455722Y-80480297D01*
X145457882Y-80465736D01*
X145461459Y-80451457D01*
X145466418Y-80437597D01*
X145472712Y-80424290D01*
X145480280Y-80411664D01*
X145489048Y-80399841D01*
X145498934Y-80388934D01*
X145509841Y-80379048D01*
X145521664Y-80370280D01*
X145534290Y-80362712D01*
X145547597Y-80356418D01*
X145561457Y-80351459D01*
X145575736Y-80347882D01*
X145590297Y-80345722D01*
X145605000Y-80345000D01*
X147355000Y-80345000D01*
X147369703Y-80345722D01*
X147369703Y-80345722D01*
G37*
D14*
X146480000Y-80645000D03*
D10*
G36*
X152252004Y-74056204D02*
G01*
X152276273Y-74059804D01*
X152300071Y-74065765D01*
X152323171Y-74074030D01*
X152345349Y-74084520D01*
X152366393Y-74097133D01*
X152386098Y-74111747D01*
X152404277Y-74128223D01*
X152420753Y-74146402D01*
X152435367Y-74166107D01*
X152447980Y-74187151D01*
X152458470Y-74209329D01*
X152466735Y-74232429D01*
X152472696Y-74256227D01*
X152476296Y-74280496D01*
X152477500Y-74305000D01*
X152477500Y-75555000D01*
X152476296Y-75579504D01*
X152472696Y-75603773D01*
X152466735Y-75627571D01*
X152458470Y-75650671D01*
X152447980Y-75672849D01*
X152435367Y-75693893D01*
X152420753Y-75713598D01*
X152404277Y-75731777D01*
X152386098Y-75748253D01*
X152366393Y-75762867D01*
X152345349Y-75775480D01*
X152323171Y-75785970D01*
X152300071Y-75794235D01*
X152276273Y-75800196D01*
X152252004Y-75803796D01*
X152227500Y-75805000D01*
X151302500Y-75805000D01*
X151277996Y-75803796D01*
X151253727Y-75800196D01*
X151229929Y-75794235D01*
X151206829Y-75785970D01*
X151184651Y-75775480D01*
X151163607Y-75762867D01*
X151143902Y-75748253D01*
X151125723Y-75731777D01*
X151109247Y-75713598D01*
X151094633Y-75693893D01*
X151082020Y-75672849D01*
X151071530Y-75650671D01*
X151063265Y-75627571D01*
X151057304Y-75603773D01*
X151053704Y-75579504D01*
X151052500Y-75555000D01*
X151052500Y-74305000D01*
X151053704Y-74280496D01*
X151057304Y-74256227D01*
X151063265Y-74232429D01*
X151071530Y-74209329D01*
X151082020Y-74187151D01*
X151094633Y-74166107D01*
X151109247Y-74146402D01*
X151125723Y-74128223D01*
X151143902Y-74111747D01*
X151163607Y-74097133D01*
X151184651Y-74084520D01*
X151206829Y-74074030D01*
X151229929Y-74065765D01*
X151253727Y-74059804D01*
X151277996Y-74056204D01*
X151302500Y-74055000D01*
X152227500Y-74055000D01*
X152252004Y-74056204D01*
X152252004Y-74056204D01*
G37*
D15*
X151765000Y-74930000D03*
D10*
G36*
X149277004Y-74056204D02*
G01*
X149301273Y-74059804D01*
X149325071Y-74065765D01*
X149348171Y-74074030D01*
X149370349Y-74084520D01*
X149391393Y-74097133D01*
X149411098Y-74111747D01*
X149429277Y-74128223D01*
X149445753Y-74146402D01*
X149460367Y-74166107D01*
X149472980Y-74187151D01*
X149483470Y-74209329D01*
X149491735Y-74232429D01*
X149497696Y-74256227D01*
X149501296Y-74280496D01*
X149502500Y-74305000D01*
X149502500Y-75555000D01*
X149501296Y-75579504D01*
X149497696Y-75603773D01*
X149491735Y-75627571D01*
X149483470Y-75650671D01*
X149472980Y-75672849D01*
X149460367Y-75693893D01*
X149445753Y-75713598D01*
X149429277Y-75731777D01*
X149411098Y-75748253D01*
X149391393Y-75762867D01*
X149370349Y-75775480D01*
X149348171Y-75785970D01*
X149325071Y-75794235D01*
X149301273Y-75800196D01*
X149277004Y-75803796D01*
X149252500Y-75805000D01*
X148327500Y-75805000D01*
X148302996Y-75803796D01*
X148278727Y-75800196D01*
X148254929Y-75794235D01*
X148231829Y-75785970D01*
X148209651Y-75775480D01*
X148188607Y-75762867D01*
X148168902Y-75748253D01*
X148150723Y-75731777D01*
X148134247Y-75713598D01*
X148119633Y-75693893D01*
X148107020Y-75672849D01*
X148096530Y-75650671D01*
X148088265Y-75627571D01*
X148082304Y-75603773D01*
X148078704Y-75579504D01*
X148077500Y-75555000D01*
X148077500Y-74305000D01*
X148078704Y-74280496D01*
X148082304Y-74256227D01*
X148088265Y-74232429D01*
X148096530Y-74209329D01*
X148107020Y-74187151D01*
X148119633Y-74166107D01*
X148134247Y-74146402D01*
X148150723Y-74128223D01*
X148168902Y-74111747D01*
X148188607Y-74097133D01*
X148209651Y-74084520D01*
X148231829Y-74074030D01*
X148254929Y-74065765D01*
X148278727Y-74059804D01*
X148302996Y-74056204D01*
X148327500Y-74055000D01*
X149252500Y-74055000D01*
X149277004Y-74056204D01*
X149277004Y-74056204D01*
G37*
D15*
X148790000Y-74930000D03*
D10*
G36*
X152252004Y-70246204D02*
G01*
X152276273Y-70249804D01*
X152300071Y-70255765D01*
X152323171Y-70264030D01*
X152345349Y-70274520D01*
X152366393Y-70287133D01*
X152386098Y-70301747D01*
X152404277Y-70318223D01*
X152420753Y-70336402D01*
X152435367Y-70356107D01*
X152447980Y-70377151D01*
X152458470Y-70399329D01*
X152466735Y-70422429D01*
X152472696Y-70446227D01*
X152476296Y-70470496D01*
X152477500Y-70495000D01*
X152477500Y-71745000D01*
X152476296Y-71769504D01*
X152472696Y-71793773D01*
X152466735Y-71817571D01*
X152458470Y-71840671D01*
X152447980Y-71862849D01*
X152435367Y-71883893D01*
X152420753Y-71903598D01*
X152404277Y-71921777D01*
X152386098Y-71938253D01*
X152366393Y-71952867D01*
X152345349Y-71965480D01*
X152323171Y-71975970D01*
X152300071Y-71984235D01*
X152276273Y-71990196D01*
X152252004Y-71993796D01*
X152227500Y-71995000D01*
X151302500Y-71995000D01*
X151277996Y-71993796D01*
X151253727Y-71990196D01*
X151229929Y-71984235D01*
X151206829Y-71975970D01*
X151184651Y-71965480D01*
X151163607Y-71952867D01*
X151143902Y-71938253D01*
X151125723Y-71921777D01*
X151109247Y-71903598D01*
X151094633Y-71883893D01*
X151082020Y-71862849D01*
X151071530Y-71840671D01*
X151063265Y-71817571D01*
X151057304Y-71793773D01*
X151053704Y-71769504D01*
X151052500Y-71745000D01*
X151052500Y-70495000D01*
X151053704Y-70470496D01*
X151057304Y-70446227D01*
X151063265Y-70422429D01*
X151071530Y-70399329D01*
X151082020Y-70377151D01*
X151094633Y-70356107D01*
X151109247Y-70336402D01*
X151125723Y-70318223D01*
X151143902Y-70301747D01*
X151163607Y-70287133D01*
X151184651Y-70274520D01*
X151206829Y-70264030D01*
X151229929Y-70255765D01*
X151253727Y-70249804D01*
X151277996Y-70246204D01*
X151302500Y-70245000D01*
X152227500Y-70245000D01*
X152252004Y-70246204D01*
X152252004Y-70246204D01*
G37*
D15*
X151765000Y-71120000D03*
D10*
G36*
X149277004Y-70246204D02*
G01*
X149301273Y-70249804D01*
X149325071Y-70255765D01*
X149348171Y-70264030D01*
X149370349Y-70274520D01*
X149391393Y-70287133D01*
X149411098Y-70301747D01*
X149429277Y-70318223D01*
X149445753Y-70336402D01*
X149460367Y-70356107D01*
X149472980Y-70377151D01*
X149483470Y-70399329D01*
X149491735Y-70422429D01*
X149497696Y-70446227D01*
X149501296Y-70470496D01*
X149502500Y-70495000D01*
X149502500Y-71745000D01*
X149501296Y-71769504D01*
X149497696Y-71793773D01*
X149491735Y-71817571D01*
X149483470Y-71840671D01*
X149472980Y-71862849D01*
X149460367Y-71883893D01*
X149445753Y-71903598D01*
X149429277Y-71921777D01*
X149411098Y-71938253D01*
X149391393Y-71952867D01*
X149370349Y-71965480D01*
X149348171Y-71975970D01*
X149325071Y-71984235D01*
X149301273Y-71990196D01*
X149277004Y-71993796D01*
X149252500Y-71995000D01*
X148327500Y-71995000D01*
X148302996Y-71993796D01*
X148278727Y-71990196D01*
X148254929Y-71984235D01*
X148231829Y-71975970D01*
X148209651Y-71965480D01*
X148188607Y-71952867D01*
X148168902Y-71938253D01*
X148150723Y-71921777D01*
X148134247Y-71903598D01*
X148119633Y-71883893D01*
X148107020Y-71862849D01*
X148096530Y-71840671D01*
X148088265Y-71817571D01*
X148082304Y-71793773D01*
X148078704Y-71769504D01*
X148077500Y-71745000D01*
X148077500Y-70495000D01*
X148078704Y-70470496D01*
X148082304Y-70446227D01*
X148088265Y-70422429D01*
X148096530Y-70399329D01*
X148107020Y-70377151D01*
X148119633Y-70356107D01*
X148134247Y-70336402D01*
X148150723Y-70318223D01*
X148168902Y-70301747D01*
X148188607Y-70287133D01*
X148209651Y-70274520D01*
X148231829Y-70264030D01*
X148254929Y-70255765D01*
X148278727Y-70249804D01*
X148302996Y-70246204D01*
X148327500Y-70245000D01*
X149252500Y-70245000D01*
X149277004Y-70246204D01*
X149277004Y-70246204D01*
G37*
D15*
X148790000Y-71120000D03*
D16*
X161290000Y-82550000D03*
X144145000Y-83820000D03*
X151855000Y-80645000D03*
X153035000Y-82550000D03*
X143510000Y-90170000D03*
X153035000Y-84455000D03*
X143510000Y-92075000D03*
X153670000Y-85725000D03*
X147955000Y-97155000D03*
X143510000Y-86995000D03*
X149860000Y-81915000D03*
D17*
X165735000Y-85725000D02*
X167640000Y-83820000D01*
X155780000Y-85725000D02*
X165735000Y-85725000D01*
X166437919Y-83820000D02*
X167640000Y-83820000D01*
X165270000Y-83820000D02*
X166437919Y-83820000D01*
X156845000Y-75395000D02*
X165270000Y-83820000D01*
X156845000Y-74295000D02*
X156845000Y-75395000D01*
X151765000Y-71120000D02*
X151765000Y-74930000D01*
X156210000Y-74930000D02*
X156845000Y-74295000D01*
X151765000Y-74930000D02*
X156210000Y-74930000D01*
X149561347Y-70348653D02*
X148790000Y-71120000D01*
X149990010Y-69919990D02*
X149561347Y-70348653D01*
X155009990Y-69919990D02*
X149990010Y-69919990D01*
X156845000Y-71755000D02*
X155009990Y-69919990D01*
X148790000Y-71120000D02*
X148790000Y-74930000D01*
X142730000Y-85725000D02*
X146480000Y-85725000D01*
X141605000Y-86850000D02*
X142730000Y-85725000D01*
X148790000Y-74930000D02*
X148790000Y-77035000D01*
X148790000Y-77035000D02*
X150495000Y-78740000D01*
X157480000Y-78740000D02*
X150495000Y-78740000D01*
X161290000Y-82550000D02*
X157480000Y-78740000D01*
X146850710Y-85354290D02*
X148325710Y-85354290D01*
X146480000Y-85725000D02*
X146850710Y-85354290D01*
X150585001Y-78830001D02*
X150495000Y-78740000D01*
X150585001Y-83094999D02*
X150585001Y-78830001D01*
X148325710Y-85354290D02*
X150585001Y-83094999D01*
X147605000Y-85725000D02*
X146480000Y-85725000D01*
X150495000Y-88615000D02*
X147605000Y-85725000D01*
X150495000Y-95885000D02*
X150495000Y-88615000D01*
X142690009Y-85274991D02*
X144145000Y-83820000D01*
X136525000Y-86360000D02*
X137610009Y-85274991D01*
X137610009Y-85274991D02*
X142690009Y-85274991D01*
X151855000Y-80645000D02*
X155780000Y-80645000D01*
X153670000Y-81915000D02*
X155780000Y-81915000D01*
X153035000Y-82550000D02*
X153670000Y-81915000D01*
X136525000Y-91440000D02*
X142240000Y-91440000D01*
X142240000Y-91440000D02*
X143510000Y-90170000D01*
X154305000Y-83185000D02*
X155780000Y-83185000D01*
X153035000Y-84455000D02*
X154305000Y-83185000D01*
X136525000Y-93980000D02*
X141605000Y-93980000D01*
X141605000Y-93980000D02*
X143510000Y-92075000D01*
X155409290Y-84084290D02*
X155780000Y-84455000D01*
X155310710Y-84084290D02*
X155409290Y-84084290D01*
X153670000Y-85725000D02*
X155310710Y-84084290D01*
X165735000Y-86995000D02*
X167640000Y-88900000D01*
X155780000Y-86995000D02*
X165735000Y-86995000D01*
X164320000Y-91440000D02*
X161145000Y-88265000D01*
X167640000Y-91440000D02*
X164320000Y-91440000D01*
X161145000Y-88265000D02*
X155780000Y-88265000D01*
X159385000Y-97010000D02*
X159875000Y-96520000D01*
X159385000Y-102870000D02*
X159385000Y-97010000D01*
X156905000Y-88265000D02*
X155780000Y-88265000D01*
X159875000Y-96520000D02*
X159875000Y-91235000D01*
X159875000Y-91235000D02*
X156905000Y-88265000D01*
X156905000Y-89535000D02*
X155780000Y-89535000D01*
X157694999Y-90324999D02*
X156905000Y-89535000D01*
X157694999Y-102020001D02*
X157694999Y-90324999D01*
X156845000Y-102870000D02*
X157694999Y-102020001D01*
X154305000Y-97645000D02*
X152545000Y-95885000D01*
X154305000Y-102870000D02*
X154305000Y-97645000D01*
X152545000Y-94040000D02*
X155780000Y-90805000D01*
X152545000Y-95885000D02*
X152545000Y-94040000D01*
X146480000Y-97585000D02*
X151765000Y-102870000D01*
X146480000Y-90805000D02*
X146480000Y-97585000D01*
X148375001Y-102020001D02*
X149225000Y-102870000D01*
X146480000Y-89535000D02*
X145355000Y-89535000D01*
X145170000Y-98815000D02*
X149225000Y-102870000D01*
X144145000Y-98815000D02*
X145170000Y-98815000D01*
X145170010Y-97789990D02*
X144768372Y-98191628D01*
X145170010Y-95640010D02*
X145170010Y-97789990D01*
X145129990Y-95599990D02*
X145170010Y-95640010D01*
X145129990Y-89623012D02*
X145129990Y-95599990D01*
X144768372Y-98191628D02*
X144145000Y-98815000D01*
X145218002Y-89535000D02*
X145129990Y-89623012D01*
X146480000Y-89535000D02*
X145218002Y-89535000D01*
X147955000Y-88615000D02*
X147955000Y-97155000D01*
X146480000Y-88265000D02*
X147605000Y-88265000D01*
X147605000Y-88265000D02*
X147955000Y-88615000D01*
X146480000Y-86995000D02*
X143510000Y-86995000D01*
X147690710Y-84084290D02*
X149860000Y-81915000D01*
X146480000Y-84455000D02*
X146850710Y-84084290D01*
X146850710Y-84084290D02*
X147690710Y-84084290D01*
X136525000Y-78740000D02*
X149225000Y-78740000D01*
X147605000Y-83185000D02*
X146480000Y-83185000D01*
X149225000Y-81565000D02*
X147605000Y-83185000D01*
X149225000Y-78740000D02*
X149225000Y-81565000D01*
X136525000Y-81280000D02*
X142875000Y-81280000D01*
X142875000Y-81280000D02*
X144780000Y-79375000D01*
X147605000Y-81915000D02*
X146480000Y-81915000D01*
X147830010Y-81689990D02*
X147605000Y-81915000D01*
X147830010Y-80298242D02*
X147830010Y-81689990D01*
X146906768Y-79375000D02*
X147830010Y-80298242D01*
X144780000Y-79375000D02*
X146906768Y-79375000D01*
X137727081Y-83820000D02*
X136525000Y-83820000D01*
X142180000Y-83820000D02*
X137727081Y-83820000D01*
X145355000Y-80645000D02*
X142180000Y-83820000D01*
X146480000Y-80645000D02*
X145355000Y-80645000D01*
D18*
G36*
X170130001Y-108535000D02*
G01*
X134035000Y-108535000D01*
X134035000Y-96190000D01*
X142806928Y-96190000D01*
X142810000Y-96479250D01*
X142968750Y-96638000D01*
X144018000Y-96638000D01*
X144018000Y-95713750D01*
X143859250Y-95555000D01*
X143445000Y-95551928D01*
X143320518Y-95564188D01*
X143200820Y-95600498D01*
X143090506Y-95659463D01*
X142993815Y-95738815D01*
X142914463Y-95835506D01*
X142855498Y-95945820D01*
X142819188Y-96065518D01*
X142806928Y-96190000D01*
X134035000Y-96190000D01*
X134035000Y-81280000D01*
X135032815Y-81280000D01*
X135061487Y-81571111D01*
X135146401Y-81851034D01*
X135284294Y-82109014D01*
X135469866Y-82335134D01*
X135695986Y-82520706D01*
X135750791Y-82550000D01*
X135695986Y-82579294D01*
X135469866Y-82764866D01*
X135284294Y-82990986D01*
X135146401Y-83248966D01*
X135061487Y-83528889D01*
X135032815Y-83820000D01*
X135061487Y-84111111D01*
X135146401Y-84391034D01*
X135284294Y-84649014D01*
X135469866Y-84875134D01*
X135695986Y-85060706D01*
X135750791Y-85090000D01*
X135695986Y-85119294D01*
X135469866Y-85304866D01*
X135284294Y-85530986D01*
X135146401Y-85788966D01*
X135061487Y-86068889D01*
X135032815Y-86360000D01*
X135061487Y-86651111D01*
X135146401Y-86931034D01*
X135284294Y-87189014D01*
X135469866Y-87415134D01*
X135695986Y-87600706D01*
X135750791Y-87630000D01*
X135695986Y-87659294D01*
X135469866Y-87844866D01*
X135284294Y-88070986D01*
X135146401Y-88328966D01*
X135061487Y-88608889D01*
X135032815Y-88900000D01*
X135061487Y-89191111D01*
X135146401Y-89471034D01*
X135284294Y-89729014D01*
X135469866Y-89955134D01*
X135695986Y-90140706D01*
X135750791Y-90170000D01*
X135695986Y-90199294D01*
X135469866Y-90384866D01*
X135284294Y-90610986D01*
X135146401Y-90868966D01*
X135061487Y-91148889D01*
X135032815Y-91440000D01*
X135061487Y-91731111D01*
X135146401Y-92011034D01*
X135284294Y-92269014D01*
X135469866Y-92495134D01*
X135695986Y-92680706D01*
X135750791Y-92710000D01*
X135695986Y-92739294D01*
X135469866Y-92924866D01*
X135284294Y-93150986D01*
X135146401Y-93408966D01*
X135061487Y-93688889D01*
X135032815Y-93980000D01*
X135061487Y-94271111D01*
X135146401Y-94551034D01*
X135284294Y-94809014D01*
X135469866Y-95035134D01*
X135695986Y-95220706D01*
X135953966Y-95358599D01*
X136233889Y-95443513D01*
X136452050Y-95465000D01*
X136597950Y-95465000D01*
X136816111Y-95443513D01*
X137096034Y-95358599D01*
X137354014Y-95220706D01*
X137580134Y-95035134D01*
X137765706Y-94809014D01*
X137802595Y-94740000D01*
X141567678Y-94740000D01*
X141605000Y-94743676D01*
X141642322Y-94740000D01*
X141642333Y-94740000D01*
X141753986Y-94729003D01*
X141897247Y-94685546D01*
X142029276Y-94614974D01*
X142145001Y-94520001D01*
X142168804Y-94490997D01*
X143549802Y-93110000D01*
X143611939Y-93110000D01*
X143811898Y-93070226D01*
X144000256Y-92992205D01*
X144169774Y-92878937D01*
X144313937Y-92734774D01*
X144369991Y-92650884D01*
X144369991Y-95562658D01*
X144366314Y-95599990D01*
X144368058Y-95617692D01*
X144272000Y-95713750D01*
X144272000Y-96638000D01*
X144292000Y-96638000D01*
X144292000Y-96892000D01*
X144272000Y-96892000D01*
X144272000Y-96912000D01*
X144018000Y-96912000D01*
X144018000Y-96892000D01*
X142968750Y-96892000D01*
X142810000Y-97050750D01*
X142806928Y-97340000D01*
X142819188Y-97464482D01*
X142855498Y-97584180D01*
X142914463Y-97694494D01*
X142993815Y-97791185D01*
X143073594Y-97856658D01*
X143067038Y-97862038D01*
X142956595Y-97996613D01*
X142874528Y-98150149D01*
X142823992Y-98316745D01*
X142806928Y-98489999D01*
X142806928Y-99140001D01*
X142823992Y-99313255D01*
X142874528Y-99479851D01*
X142956595Y-99633387D01*
X143067038Y-99767962D01*
X143201613Y-99878405D01*
X143355149Y-99960472D01*
X143521745Y-100011008D01*
X143694999Y-100028072D01*
X144595001Y-100028072D01*
X144768255Y-100011008D01*
X144934851Y-99960472D01*
X145088387Y-99878405D01*
X145126953Y-99846754D01*
X146665198Y-101385000D01*
X146612050Y-101385000D01*
X146393889Y-101406487D01*
X146113966Y-101491401D01*
X145855986Y-101629294D01*
X145629866Y-101814866D01*
X145444294Y-102040986D01*
X145415000Y-102095791D01*
X145385706Y-102040986D01*
X145200134Y-101814866D01*
X144974014Y-101629294D01*
X144716034Y-101491401D01*
X144436111Y-101406487D01*
X144217950Y-101385000D01*
X144072050Y-101385000D01*
X143853889Y-101406487D01*
X143573966Y-101491401D01*
X143315986Y-101629294D01*
X143089866Y-101814866D01*
X142904294Y-102040986D01*
X142766401Y-102298966D01*
X142681487Y-102578889D01*
X142652815Y-102870000D01*
X142681487Y-103161111D01*
X142766401Y-103441034D01*
X142904294Y-103699014D01*
X143089866Y-103925134D01*
X143315986Y-104110706D01*
X143573966Y-104248599D01*
X143853889Y-104333513D01*
X144072050Y-104355000D01*
X144217950Y-104355000D01*
X144436111Y-104333513D01*
X144716034Y-104248599D01*
X144974014Y-104110706D01*
X145200134Y-103925134D01*
X145385706Y-103699014D01*
X145415000Y-103644209D01*
X145444294Y-103699014D01*
X145629866Y-103925134D01*
X145855986Y-104110706D01*
X146113966Y-104248599D01*
X146393889Y-104333513D01*
X146612050Y-104355000D01*
X146757950Y-104355000D01*
X146976111Y-104333513D01*
X147256034Y-104248599D01*
X147514014Y-104110706D01*
X147740134Y-103925134D01*
X147925706Y-103699014D01*
X147955000Y-103644209D01*
X147984294Y-103699014D01*
X148169866Y-103925134D01*
X148395986Y-104110706D01*
X148653966Y-104248599D01*
X148933889Y-104333513D01*
X149152050Y-104355000D01*
X149297950Y-104355000D01*
X149516111Y-104333513D01*
X149796034Y-104248599D01*
X150054014Y-104110706D01*
X150280134Y-103925134D01*
X150465706Y-103699014D01*
X150495000Y-103644209D01*
X150524294Y-103699014D01*
X150709866Y-103925134D01*
X150935986Y-104110706D01*
X151193966Y-104248599D01*
X151473889Y-104333513D01*
X151692050Y-104355000D01*
X151837950Y-104355000D01*
X152056111Y-104333513D01*
X152336034Y-104248599D01*
X152594014Y-104110706D01*
X152820134Y-103925134D01*
X153005706Y-103699014D01*
X153035000Y-103644209D01*
X153064294Y-103699014D01*
X153249866Y-103925134D01*
X153475986Y-104110706D01*
X153733966Y-104248599D01*
X154013889Y-104333513D01*
X154232050Y-104355000D01*
X154377950Y-104355000D01*
X154596111Y-104333513D01*
X154876034Y-104248599D01*
X155134014Y-104110706D01*
X155360134Y-103925134D01*
X155545706Y-103699014D01*
X155575000Y-103644209D01*
X155604294Y-103699014D01*
X155789866Y-103925134D01*
X156015986Y-104110706D01*
X156273966Y-104248599D01*
X156553889Y-104333513D01*
X156772050Y-104355000D01*
X156917950Y-104355000D01*
X157136111Y-104333513D01*
X157416034Y-104248599D01*
X157674014Y-104110706D01*
X157900134Y-103925134D01*
X157924607Y-103895313D01*
X157945498Y-103964180D01*
X158004463Y-104074494D01*
X158083815Y-104171185D01*
X158180506Y-104250537D01*
X158290820Y-104309502D01*
X158410518Y-104345812D01*
X158535000Y-104358072D01*
X160235000Y-104358072D01*
X160359482Y-104345812D01*
X160479180Y-104309502D01*
X160589494Y-104250537D01*
X160686185Y-104171185D01*
X160765537Y-104074494D01*
X160824502Y-103964180D01*
X160860812Y-103844482D01*
X160873072Y-103720000D01*
X160873072Y-102020000D01*
X160860812Y-101895518D01*
X160824502Y-101775820D01*
X160765537Y-101665506D01*
X160686185Y-101568815D01*
X160589494Y-101489463D01*
X160479180Y-101430498D01*
X160359482Y-101394188D01*
X160235000Y-101381928D01*
X160145000Y-101381928D01*
X160145000Y-97858072D01*
X160200001Y-97858072D01*
X160373255Y-97841008D01*
X160539851Y-97790472D01*
X160693387Y-97708405D01*
X160827962Y-97597962D01*
X160833342Y-97591406D01*
X160898815Y-97671185D01*
X160995506Y-97750537D01*
X161105820Y-97809502D01*
X161225518Y-97845812D01*
X161350000Y-97858072D01*
X161639250Y-97855000D01*
X161798000Y-97696250D01*
X161798000Y-96647000D01*
X162052000Y-96647000D01*
X162052000Y-97696250D01*
X162210750Y-97855000D01*
X162500000Y-97858072D01*
X162624482Y-97845812D01*
X162744180Y-97809502D01*
X162854494Y-97750537D01*
X162951185Y-97671185D01*
X163030537Y-97574494D01*
X163089502Y-97464180D01*
X163125812Y-97344482D01*
X163138072Y-97220000D01*
X163135000Y-96805750D01*
X162976250Y-96647000D01*
X162052000Y-96647000D01*
X161798000Y-96647000D01*
X161778000Y-96647000D01*
X161778000Y-96393000D01*
X161798000Y-96393000D01*
X161798000Y-95343750D01*
X162052000Y-95343750D01*
X162052000Y-96393000D01*
X162976250Y-96393000D01*
X163135000Y-96234250D01*
X163138072Y-95820000D01*
X163125812Y-95695518D01*
X163089502Y-95575820D01*
X163030537Y-95465506D01*
X162951185Y-95368815D01*
X162854494Y-95289463D01*
X162744180Y-95230498D01*
X162624482Y-95194188D01*
X162500000Y-95181928D01*
X162210750Y-95185000D01*
X162052000Y-95343750D01*
X161798000Y-95343750D01*
X161639250Y-95185000D01*
X161350000Y-95181928D01*
X161225518Y-95194188D01*
X161105820Y-95230498D01*
X160995506Y-95289463D01*
X160898815Y-95368815D01*
X160833342Y-95448594D01*
X160827962Y-95442038D01*
X160693387Y-95331595D01*
X160635000Y-95300386D01*
X160635000Y-91272322D01*
X160638676Y-91234999D01*
X160635000Y-91197676D01*
X160635000Y-91197667D01*
X160624003Y-91086014D01*
X160580546Y-90942753D01*
X160509974Y-90810724D01*
X160415001Y-90694999D01*
X160386003Y-90671201D01*
X158739801Y-89025000D01*
X160830199Y-89025000D01*
X163756201Y-91951003D01*
X163779999Y-91980001D01*
X163808997Y-92003799D01*
X163895723Y-92074974D01*
X164027753Y-92145546D01*
X164171014Y-92189003D01*
X164282667Y-92200000D01*
X164282676Y-92200000D01*
X164319999Y-92203676D01*
X164357322Y-92200000D01*
X166362405Y-92200000D01*
X166399294Y-92269014D01*
X166584866Y-92495134D01*
X166810986Y-92680706D01*
X167068966Y-92818599D01*
X167348889Y-92903513D01*
X167567050Y-92925000D01*
X167712950Y-92925000D01*
X167931111Y-92903513D01*
X168211034Y-92818599D01*
X168469014Y-92680706D01*
X168695134Y-92495134D01*
X168880706Y-92269014D01*
X169018599Y-92011034D01*
X169103513Y-91731111D01*
X169132185Y-91440000D01*
X169103513Y-91148889D01*
X169018599Y-90868966D01*
X168880706Y-90610986D01*
X168695134Y-90384866D01*
X168469014Y-90199294D01*
X168414209Y-90170000D01*
X168469014Y-90140706D01*
X168695134Y-89955134D01*
X168880706Y-89729014D01*
X169018599Y-89471034D01*
X169103513Y-89191111D01*
X169132185Y-88900000D01*
X169103513Y-88608889D01*
X169018599Y-88328966D01*
X168880706Y-88070986D01*
X168695134Y-87844866D01*
X168469014Y-87659294D01*
X168404477Y-87624799D01*
X168521355Y-87555178D01*
X168737588Y-87360269D01*
X168911641Y-87126920D01*
X169036825Y-86864099D01*
X169081476Y-86716890D01*
X168960155Y-86487000D01*
X167767000Y-86487000D01*
X167767000Y-86507000D01*
X167513000Y-86507000D01*
X167513000Y-86487000D01*
X167493000Y-86487000D01*
X167493000Y-86233000D01*
X167513000Y-86233000D01*
X167513000Y-86213000D01*
X167767000Y-86213000D01*
X167767000Y-86233000D01*
X168960155Y-86233000D01*
X169081476Y-86003110D01*
X169036825Y-85855901D01*
X168911641Y-85593080D01*
X168737588Y-85359731D01*
X168521355Y-85164822D01*
X168404477Y-85095201D01*
X168469014Y-85060706D01*
X168695134Y-84875134D01*
X168880706Y-84649014D01*
X169018599Y-84391034D01*
X169103513Y-84111111D01*
X169132185Y-83820000D01*
X169103513Y-83528889D01*
X169018599Y-83248966D01*
X168880706Y-82990986D01*
X168695134Y-82764866D01*
X168665313Y-82740393D01*
X168734180Y-82719502D01*
X168844494Y-82660537D01*
X168941185Y-82581185D01*
X169020537Y-82484494D01*
X169079502Y-82374180D01*
X169115812Y-82254482D01*
X169128072Y-82130000D01*
X169128072Y-80430000D01*
X169115812Y-80305518D01*
X169079502Y-80185820D01*
X169020537Y-80075506D01*
X168941185Y-79978815D01*
X168844494Y-79899463D01*
X168734180Y-79840498D01*
X168614482Y-79804188D01*
X168490000Y-79791928D01*
X166790000Y-79791928D01*
X166665518Y-79804188D01*
X166545820Y-79840498D01*
X166435506Y-79899463D01*
X166338815Y-79978815D01*
X166259463Y-80075506D01*
X166200498Y-80185820D01*
X166164188Y-80305518D01*
X166151928Y-80430000D01*
X166151928Y-82130000D01*
X166164188Y-82254482D01*
X166200498Y-82374180D01*
X166259463Y-82484494D01*
X166338815Y-82581185D01*
X166435506Y-82660537D01*
X166545820Y-82719502D01*
X166614687Y-82740393D01*
X166584866Y-82764866D01*
X166399294Y-82990986D01*
X166362405Y-83060000D01*
X165584802Y-83060000D01*
X158132345Y-75607543D01*
X158146185Y-75596185D01*
X158225537Y-75499494D01*
X158284502Y-75389180D01*
X158320812Y-75269482D01*
X158333072Y-75145000D01*
X158333072Y-73445000D01*
X158320812Y-73320518D01*
X158284502Y-73200820D01*
X158225537Y-73090506D01*
X158146185Y-72993815D01*
X158049494Y-72914463D01*
X157939180Y-72855498D01*
X157858534Y-72831034D01*
X157942588Y-72755269D01*
X158116641Y-72521920D01*
X158241825Y-72259099D01*
X158286476Y-72111890D01*
X158165155Y-71882000D01*
X156972000Y-71882000D01*
X156972000Y-71902000D01*
X156718000Y-71902000D01*
X156718000Y-71882000D01*
X155524845Y-71882000D01*
X155403524Y-72111890D01*
X155448175Y-72259099D01*
X155573359Y-72521920D01*
X155747412Y-72755269D01*
X155831466Y-72831034D01*
X155750820Y-72855498D01*
X155640506Y-72914463D01*
X155543815Y-72993815D01*
X155464463Y-73090506D01*
X155405498Y-73200820D01*
X155369188Y-73320518D01*
X155356928Y-73445000D01*
X155356928Y-74170000D01*
X153102276Y-74170000D01*
X153098508Y-74131746D01*
X153047972Y-73965150D01*
X152965905Y-73811614D01*
X152855462Y-73677038D01*
X152720886Y-73566595D01*
X152567350Y-73484528D01*
X152525000Y-73471681D01*
X152525000Y-72578319D01*
X152567350Y-72565472D01*
X152720886Y-72483405D01*
X152855462Y-72372962D01*
X152965905Y-72238386D01*
X153047972Y-72084850D01*
X153098508Y-71918254D01*
X153115572Y-71745000D01*
X153115572Y-71398110D01*
X155403524Y-71398110D01*
X155524845Y-71628000D01*
X156718000Y-71628000D01*
X156718000Y-70434186D01*
X156972000Y-70434186D01*
X156972000Y-71628000D01*
X158165155Y-71628000D01*
X158286476Y-71398110D01*
X158241825Y-71250901D01*
X158116641Y-70988080D01*
X157942588Y-70754731D01*
X157726355Y-70559822D01*
X157476252Y-70410843D01*
X157201891Y-70313519D01*
X156972000Y-70434186D01*
X156718000Y-70434186D01*
X156488109Y-70313519D01*
X156213748Y-70410843D01*
X155963645Y-70559822D01*
X155747412Y-70754731D01*
X155573359Y-70988080D01*
X155448175Y-71250901D01*
X155403524Y-71398110D01*
X153115572Y-71398110D01*
X153115572Y-70495000D01*
X153098508Y-70321746D01*
X153047972Y-70155150D01*
X152965905Y-70001614D01*
X152855462Y-69867038D01*
X152720886Y-69756595D01*
X152567350Y-69674528D01*
X152400754Y-69623992D01*
X152227500Y-69606928D01*
X151302500Y-69606928D01*
X151129246Y-69623992D01*
X150962650Y-69674528D01*
X150809114Y-69756595D01*
X150674538Y-69867038D01*
X150564095Y-70001614D01*
X150482028Y-70155150D01*
X150431492Y-70321746D01*
X150414428Y-70495000D01*
X150414428Y-71745000D01*
X150431492Y-71918254D01*
X150482028Y-72084850D01*
X150564095Y-72238386D01*
X150674538Y-72372962D01*
X150809114Y-72483405D01*
X150962650Y-72565472D01*
X151005000Y-72578319D01*
X151005001Y-73471681D01*
X150962650Y-73484528D01*
X150809114Y-73566595D01*
X150674538Y-73677038D01*
X150564095Y-73811614D01*
X150482028Y-73965150D01*
X150431492Y-74131746D01*
X150414428Y-74305000D01*
X150414428Y-75555000D01*
X150431492Y-75728254D01*
X150482028Y-75894850D01*
X150564095Y-76048386D01*
X150674538Y-76182962D01*
X150809114Y-76293405D01*
X150962650Y-76375472D01*
X151129246Y-76426008D01*
X151302500Y-76443072D01*
X152227500Y-76443072D01*
X152400754Y-76426008D01*
X152567350Y-76375472D01*
X152720886Y-76293405D01*
X152855462Y-76182962D01*
X152965905Y-76048386D01*
X153047972Y-75894850D01*
X153098508Y-75728254D01*
X153102276Y-75690000D01*
X155667564Y-75690000D01*
X155750820Y-75734502D01*
X155870518Y-75770812D01*
X155995000Y-75783072D01*
X156190674Y-75783072D01*
X156210026Y-75819276D01*
X156272049Y-75894850D01*
X156305000Y-75935001D01*
X156333998Y-75958799D01*
X164706201Y-84331003D01*
X164729999Y-84360001D01*
X164845724Y-84454974D01*
X164977753Y-84525546D01*
X165121014Y-84569003D01*
X165232667Y-84580000D01*
X165232676Y-84580000D01*
X165269999Y-84583676D01*
X165307322Y-84580000D01*
X165805199Y-84580000D01*
X165420199Y-84965000D01*
X157351859Y-84965000D01*
X157383084Y-84906582D01*
X157427929Y-84758745D01*
X157443072Y-84605000D01*
X157443072Y-84305000D01*
X157427929Y-84151255D01*
X157383084Y-84003418D01*
X157310258Y-83867171D01*
X157271546Y-83820000D01*
X157310258Y-83772829D01*
X157383084Y-83636582D01*
X157427929Y-83488745D01*
X157443072Y-83335000D01*
X157443072Y-83035000D01*
X157427929Y-82881255D01*
X157383084Y-82733418D01*
X157310258Y-82597171D01*
X157271546Y-82550000D01*
X157310258Y-82502829D01*
X157383084Y-82366582D01*
X157427929Y-82218745D01*
X157443072Y-82065000D01*
X157443072Y-81765000D01*
X157427929Y-81611255D01*
X157383084Y-81463418D01*
X157310258Y-81327171D01*
X157271546Y-81280000D01*
X157310258Y-81232829D01*
X157383084Y-81096582D01*
X157427929Y-80948745D01*
X157443072Y-80795000D01*
X157443072Y-80495000D01*
X157427929Y-80341255D01*
X157383084Y-80193418D01*
X157310258Y-80057171D01*
X157212251Y-79937749D01*
X157092829Y-79839742D01*
X156956582Y-79766916D01*
X156808745Y-79722071D01*
X156655000Y-79706928D01*
X154905000Y-79706928D01*
X154751255Y-79722071D01*
X154603418Y-79766916D01*
X154467171Y-79839742D01*
X154412024Y-79885000D01*
X152558711Y-79885000D01*
X152514774Y-79841063D01*
X152345256Y-79727795D01*
X152156898Y-79649774D01*
X151956939Y-79610000D01*
X151753061Y-79610000D01*
X151553102Y-79649774D01*
X151364744Y-79727795D01*
X151195226Y-79841063D01*
X151051063Y-79985226D01*
X150937795Y-80154744D01*
X150859774Y-80343102D01*
X150820000Y-80543061D01*
X150820000Y-80746939D01*
X150859774Y-80946898D01*
X150937795Y-81135256D01*
X151051063Y-81304774D01*
X151195226Y-81448937D01*
X151364744Y-81562205D01*
X151553102Y-81640226D01*
X151753061Y-81680000D01*
X151956939Y-81680000D01*
X152156898Y-81640226D01*
X152345256Y-81562205D01*
X152514774Y-81448937D01*
X152558711Y-81405000D01*
X153105198Y-81405000D01*
X152995198Y-81515000D01*
X152933061Y-81515000D01*
X152733102Y-81554774D01*
X152544744Y-81632795D01*
X152375226Y-81746063D01*
X152231063Y-81890226D01*
X152117795Y-82059744D01*
X152039774Y-82248102D01*
X152000000Y-82448061D01*
X152000000Y-82651939D01*
X152039774Y-82851898D01*
X152117795Y-83040256D01*
X152231063Y-83209774D01*
X152375226Y-83353937D01*
X152544744Y-83467205D01*
X152629953Y-83502500D01*
X152544744Y-83537795D01*
X152375226Y-83651063D01*
X152231063Y-83795226D01*
X152117795Y-83964744D01*
X152039774Y-84153102D01*
X152000000Y-84353061D01*
X152000000Y-84556939D01*
X152039774Y-84756898D01*
X152117795Y-84945256D01*
X152231063Y-85114774D01*
X152375226Y-85258937D01*
X152544744Y-85372205D01*
X152674229Y-85425840D01*
X152635000Y-85623061D01*
X152635000Y-85826939D01*
X152674774Y-86026898D01*
X152752795Y-86215256D01*
X152866063Y-86384774D01*
X153010226Y-86528937D01*
X153179744Y-86642205D01*
X153368102Y-86720226D01*
X153568061Y-86760000D01*
X153771939Y-86760000D01*
X153971898Y-86720226D01*
X154145038Y-86648509D01*
X154132071Y-86691255D01*
X154116928Y-86845000D01*
X154116928Y-87145000D01*
X154132071Y-87298745D01*
X154176916Y-87446582D01*
X154249742Y-87582829D01*
X154288454Y-87630000D01*
X154249742Y-87677171D01*
X154176916Y-87813418D01*
X154132071Y-87961255D01*
X154116928Y-88115000D01*
X154116928Y-88415000D01*
X154132071Y-88568745D01*
X154176916Y-88716582D01*
X154249742Y-88852829D01*
X154288454Y-88900000D01*
X154249742Y-88947171D01*
X154176916Y-89083418D01*
X154132071Y-89231255D01*
X154116928Y-89385000D01*
X154116928Y-89685000D01*
X154132071Y-89838745D01*
X154176916Y-89986582D01*
X154249742Y-90122829D01*
X154288454Y-90170000D01*
X154249742Y-90217171D01*
X154176916Y-90353418D01*
X154132071Y-90501255D01*
X154116928Y-90655000D01*
X154116928Y-90955000D01*
X154132071Y-91108745D01*
X154176916Y-91256582D01*
X154203633Y-91306565D01*
X152033998Y-93476201D01*
X152005000Y-93499999D01*
X151981202Y-93528997D01*
X151981201Y-93528998D01*
X151910026Y-93615724D01*
X151839454Y-93747754D01*
X151795998Y-93891015D01*
X151781324Y-94040000D01*
X151785001Y-94077332D01*
X151785001Y-94665386D01*
X151726613Y-94696595D01*
X151592038Y-94807038D01*
X151586658Y-94813594D01*
X151521185Y-94733815D01*
X151424494Y-94654463D01*
X151314180Y-94595498D01*
X151194482Y-94559188D01*
X151070000Y-94546928D01*
X150780750Y-94550000D01*
X150622000Y-94708750D01*
X150622000Y-95758000D01*
X150642000Y-95758000D01*
X150642000Y-96012000D01*
X150622000Y-96012000D01*
X150622000Y-97061250D01*
X150780750Y-97220000D01*
X151070000Y-97223072D01*
X151194482Y-97210812D01*
X151314180Y-97174502D01*
X151424494Y-97115537D01*
X151521185Y-97036185D01*
X151586658Y-96956406D01*
X151592038Y-96962962D01*
X151726613Y-97073405D01*
X151880149Y-97155472D01*
X152046745Y-97206008D01*
X152219999Y-97223072D01*
X152808271Y-97223072D01*
X153545001Y-97959803D01*
X153545000Y-101592405D01*
X153475986Y-101629294D01*
X153249866Y-101814866D01*
X153064294Y-102040986D01*
X153035000Y-102095791D01*
X153005706Y-102040986D01*
X152820134Y-101814866D01*
X152594014Y-101629294D01*
X152336034Y-101491401D01*
X152056111Y-101406487D01*
X151837950Y-101385000D01*
X151692050Y-101385000D01*
X151473889Y-101406487D01*
X151399005Y-101429203D01*
X148142735Y-98172934D01*
X148256898Y-98150226D01*
X148445256Y-98072205D01*
X148614774Y-97958937D01*
X148758937Y-97814774D01*
X148872205Y-97645256D01*
X148950226Y-97456898D01*
X148990000Y-97256939D01*
X148990000Y-97053061D01*
X148950226Y-96853102D01*
X148872205Y-96664744D01*
X148818922Y-96585000D01*
X149281928Y-96585000D01*
X149294188Y-96709482D01*
X149330498Y-96829180D01*
X149389463Y-96939494D01*
X149468815Y-97036185D01*
X149565506Y-97115537D01*
X149675820Y-97174502D01*
X149795518Y-97210812D01*
X149920000Y-97223072D01*
X150209250Y-97220000D01*
X150368000Y-97061250D01*
X150368000Y-96012000D01*
X149443750Y-96012000D01*
X149285000Y-96170750D01*
X149281928Y-96585000D01*
X148818922Y-96585000D01*
X148758937Y-96495226D01*
X148715000Y-96451289D01*
X148715000Y-95185000D01*
X149281928Y-95185000D01*
X149285000Y-95599250D01*
X149443750Y-95758000D01*
X150368000Y-95758000D01*
X150368000Y-94708750D01*
X150209250Y-94550000D01*
X149920000Y-94546928D01*
X149795518Y-94559188D01*
X149675820Y-94595498D01*
X149565506Y-94654463D01*
X149468815Y-94733815D01*
X149389463Y-94830506D01*
X149330498Y-94940820D01*
X149294188Y-95060518D01*
X149281928Y-95185000D01*
X148715000Y-95185000D01*
X148715000Y-88652325D01*
X148718676Y-88615000D01*
X148715000Y-88577675D01*
X148715000Y-88577667D01*
X148704003Y-88466014D01*
X148660546Y-88322753D01*
X148589974Y-88190724D01*
X148495001Y-88074999D01*
X148465998Y-88051197D01*
X148168804Y-87754003D01*
X148145001Y-87724999D01*
X148029276Y-87630026D01*
X147989134Y-87608569D01*
X148010258Y-87582829D01*
X148083084Y-87446582D01*
X148127929Y-87298745D01*
X148143072Y-87145000D01*
X148143072Y-86845000D01*
X148127929Y-86691255D01*
X148083084Y-86543418D01*
X148011270Y-86409064D01*
X148035537Y-86379494D01*
X148094502Y-86269180D01*
X148130812Y-86149482D01*
X148143072Y-86025000D01*
X148140000Y-86010750D01*
X147981250Y-85852000D01*
X146607000Y-85852000D01*
X146607000Y-85872000D01*
X146353000Y-85872000D01*
X146353000Y-85852000D01*
X144978750Y-85852000D01*
X144820000Y-86010750D01*
X144816928Y-86025000D01*
X144829188Y-86149482D01*
X144855130Y-86235000D01*
X144213711Y-86235000D01*
X144169774Y-86191063D01*
X144000256Y-86077795D01*
X143811898Y-85999774D01*
X143611939Y-85960000D01*
X143408061Y-85960000D01*
X143208102Y-85999774D01*
X143019744Y-86077795D01*
X142850226Y-86191063D01*
X142706063Y-86335226D01*
X142592795Y-86504744D01*
X142514774Y-86693102D01*
X142475000Y-86893061D01*
X142475000Y-87096939D01*
X142514774Y-87296898D01*
X142592795Y-87485256D01*
X142706063Y-87654774D01*
X142850226Y-87798937D01*
X143019744Y-87912205D01*
X143208102Y-87990226D01*
X143408061Y-88030000D01*
X143611939Y-88030000D01*
X143811898Y-87990226D01*
X144000256Y-87912205D01*
X144169774Y-87798937D01*
X144213711Y-87755000D01*
X144908141Y-87755000D01*
X144876916Y-87813418D01*
X144832071Y-87961255D01*
X144816928Y-88115000D01*
X144816928Y-88415000D01*
X144832071Y-88568745D01*
X144876916Y-88716582D01*
X144935644Y-88826454D01*
X144925755Y-88829454D01*
X144793726Y-88900026D01*
X144678001Y-88994999D01*
X144654198Y-89024003D01*
X144618993Y-89059208D01*
X144589989Y-89083011D01*
X144547323Y-89135000D01*
X144495016Y-89198736D01*
X144471488Y-89242754D01*
X144424444Y-89330766D01*
X144380987Y-89474027D01*
X144369990Y-89585680D01*
X144369990Y-89585690D01*
X144369267Y-89593033D01*
X144313937Y-89510226D01*
X144169774Y-89366063D01*
X144000256Y-89252795D01*
X143811898Y-89174774D01*
X143611939Y-89135000D01*
X143408061Y-89135000D01*
X143208102Y-89174774D01*
X143019744Y-89252795D01*
X142850226Y-89366063D01*
X142706063Y-89510226D01*
X142592795Y-89679744D01*
X142514774Y-89868102D01*
X142475000Y-90068061D01*
X142475000Y-90130198D01*
X141925199Y-90680000D01*
X137802595Y-90680000D01*
X137765706Y-90610986D01*
X137580134Y-90384866D01*
X137354014Y-90199294D01*
X137299209Y-90170000D01*
X137354014Y-90140706D01*
X137580134Y-89955134D01*
X137765706Y-89729014D01*
X137903599Y-89471034D01*
X137988513Y-89191111D01*
X138017185Y-88900000D01*
X137988513Y-88608889D01*
X137903599Y-88328966D01*
X137765706Y-88070986D01*
X137580134Y-87844866D01*
X137354014Y-87659294D01*
X137299209Y-87630000D01*
X137354014Y-87600706D01*
X137580134Y-87415134D01*
X137765706Y-87189014D01*
X137903599Y-86931034D01*
X137988513Y-86651111D01*
X138017185Y-86360000D01*
X137988513Y-86068889D01*
X137978230Y-86034991D01*
X142652687Y-86034991D01*
X142690009Y-86038667D01*
X142727331Y-86034991D01*
X142727342Y-86034991D01*
X142838995Y-86023994D01*
X142982256Y-85980537D01*
X143114285Y-85909965D01*
X143230010Y-85814992D01*
X143253813Y-85785988D01*
X144184802Y-84855000D01*
X144246939Y-84855000D01*
X144446898Y-84815226D01*
X144635256Y-84737205D01*
X144804774Y-84623937D01*
X144817536Y-84611175D01*
X144832071Y-84758745D01*
X144876916Y-84906582D01*
X144948730Y-85040936D01*
X144924463Y-85070506D01*
X144865498Y-85180820D01*
X144829188Y-85300518D01*
X144816928Y-85425000D01*
X144820000Y-85439250D01*
X144978750Y-85598000D01*
X146353000Y-85598000D01*
X146353000Y-85578000D01*
X146607000Y-85578000D01*
X146607000Y-85598000D01*
X147981250Y-85598000D01*
X148140000Y-85439250D01*
X148143072Y-85425000D01*
X148130812Y-85300518D01*
X148094502Y-85180820D01*
X148035537Y-85070506D01*
X148011270Y-85040936D01*
X148083084Y-84906582D01*
X148127929Y-84758745D01*
X148133298Y-84704236D01*
X148230711Y-84624291D01*
X148254514Y-84595287D01*
X149899802Y-82950000D01*
X149961939Y-82950000D01*
X150161898Y-82910226D01*
X150350256Y-82832205D01*
X150519774Y-82718937D01*
X150663937Y-82574774D01*
X150777205Y-82405256D01*
X150855226Y-82216898D01*
X150895000Y-82016939D01*
X150895000Y-81813061D01*
X150855226Y-81613102D01*
X150777205Y-81424744D01*
X150663937Y-81255226D01*
X150519774Y-81111063D01*
X150350256Y-80997795D01*
X150161898Y-80919774D01*
X149985000Y-80884587D01*
X149985000Y-78777333D01*
X149988677Y-78740000D01*
X149974003Y-78591014D01*
X149930546Y-78447753D01*
X149859974Y-78315724D01*
X149765001Y-78199999D01*
X149649276Y-78105026D01*
X149517247Y-78034454D01*
X149373986Y-77990997D01*
X149262333Y-77980000D01*
X149225000Y-77976323D01*
X149187667Y-77980000D01*
X138013072Y-77980000D01*
X138013072Y-77890000D01*
X138000812Y-77765518D01*
X137964502Y-77645820D01*
X137905537Y-77535506D01*
X137826185Y-77438815D01*
X137729494Y-77359463D01*
X137619180Y-77300498D01*
X137499482Y-77264188D01*
X137375000Y-77251928D01*
X135675000Y-77251928D01*
X135550518Y-77264188D01*
X135430820Y-77300498D01*
X135320506Y-77359463D01*
X135223815Y-77438815D01*
X135144463Y-77535506D01*
X135085498Y-77645820D01*
X135049188Y-77765518D01*
X135036928Y-77890000D01*
X135036928Y-79590000D01*
X135049188Y-79714482D01*
X135085498Y-79834180D01*
X135144463Y-79944494D01*
X135223815Y-80041185D01*
X135320506Y-80120537D01*
X135430820Y-80179502D01*
X135499687Y-80200393D01*
X135469866Y-80224866D01*
X135284294Y-80450986D01*
X135146401Y-80708966D01*
X135061487Y-80988889D01*
X135032815Y-81280000D01*
X134035000Y-81280000D01*
X134035000Y-75805000D01*
X147439428Y-75805000D01*
X147451688Y-75929482D01*
X147487998Y-76049180D01*
X147546963Y-76159494D01*
X147626315Y-76256185D01*
X147723006Y-76335537D01*
X147833320Y-76394502D01*
X147953018Y-76430812D01*
X148077500Y-76443072D01*
X148504250Y-76440000D01*
X148663000Y-76281250D01*
X148663000Y-75057000D01*
X148917000Y-75057000D01*
X148917000Y-76281250D01*
X149075750Y-76440000D01*
X149502500Y-76443072D01*
X149626982Y-76430812D01*
X149746680Y-76394502D01*
X149856994Y-76335537D01*
X149953685Y-76256185D01*
X150033037Y-76159494D01*
X150092002Y-76049180D01*
X150128312Y-75929482D01*
X150140572Y-75805000D01*
X150137500Y-75215750D01*
X149978750Y-75057000D01*
X148917000Y-75057000D01*
X148663000Y-75057000D01*
X147601250Y-75057000D01*
X147442500Y-75215750D01*
X147439428Y-75805000D01*
X134035000Y-75805000D01*
X134035000Y-74055000D01*
X147439428Y-74055000D01*
X147442500Y-74644250D01*
X147601250Y-74803000D01*
X148663000Y-74803000D01*
X148663000Y-73578750D01*
X148917000Y-73578750D01*
X148917000Y-74803000D01*
X149978750Y-74803000D01*
X150137500Y-74644250D01*
X150140572Y-74055000D01*
X150128312Y-73930518D01*
X150092002Y-73810820D01*
X150033037Y-73700506D01*
X149953685Y-73603815D01*
X149856994Y-73524463D01*
X149746680Y-73465498D01*
X149626982Y-73429188D01*
X149502500Y-73416928D01*
X149075750Y-73420000D01*
X148917000Y-73578750D01*
X148663000Y-73578750D01*
X148504250Y-73420000D01*
X148077500Y-73416928D01*
X147953018Y-73429188D01*
X147833320Y-73465498D01*
X147723006Y-73524463D01*
X147626315Y-73603815D01*
X147546963Y-73700506D01*
X147487998Y-73810820D01*
X147451688Y-73930518D01*
X147439428Y-74055000D01*
X134035000Y-74055000D01*
X134035000Y-71995000D01*
X147439428Y-71995000D01*
X147451688Y-72119482D01*
X147487998Y-72239180D01*
X147546963Y-72349494D01*
X147626315Y-72446185D01*
X147723006Y-72525537D01*
X147833320Y-72584502D01*
X147953018Y-72620812D01*
X148077500Y-72633072D01*
X148504250Y-72630000D01*
X148663000Y-72471250D01*
X148663000Y-71247000D01*
X148917000Y-71247000D01*
X148917000Y-72471250D01*
X149075750Y-72630000D01*
X149502500Y-72633072D01*
X149626982Y-72620812D01*
X149746680Y-72584502D01*
X149856994Y-72525537D01*
X149953685Y-72446185D01*
X150033037Y-72349494D01*
X150092002Y-72239180D01*
X150128312Y-72119482D01*
X150140572Y-71995000D01*
X150137500Y-71405750D01*
X149978750Y-71247000D01*
X148917000Y-71247000D01*
X148663000Y-71247000D01*
X147601250Y-71247000D01*
X147442500Y-71405750D01*
X147439428Y-71995000D01*
X134035000Y-71995000D01*
X134035000Y-70245000D01*
X147439428Y-70245000D01*
X147442500Y-70834250D01*
X147601250Y-70993000D01*
X148663000Y-70993000D01*
X148663000Y-69768750D01*
X148917000Y-69768750D01*
X148917000Y-70993000D01*
X149978750Y-70993000D01*
X150137500Y-70834250D01*
X150140572Y-70245000D01*
X150128312Y-70120518D01*
X150092002Y-70000820D01*
X150033037Y-69890506D01*
X149953685Y-69793815D01*
X149856994Y-69714463D01*
X149746680Y-69655498D01*
X149626982Y-69619188D01*
X149502500Y-69606928D01*
X149075750Y-69610000D01*
X148917000Y-69768750D01*
X148663000Y-69768750D01*
X148504250Y-69610000D01*
X148077500Y-69606928D01*
X147953018Y-69619188D01*
X147833320Y-69655498D01*
X147723006Y-69714463D01*
X147626315Y-69793815D01*
X147546963Y-69890506D01*
X147487998Y-70000820D01*
X147451688Y-70120518D01*
X147439428Y-70245000D01*
X134035000Y-70245000D01*
X134035000Y-69265000D01*
X170130000Y-69265000D01*
X170130001Y-108535000D01*
X170130001Y-108535000D01*
G37*
X170130001Y-108535000D02*
X134035000Y-108535000D01*
X134035000Y-96190000D01*
X142806928Y-96190000D01*
X142810000Y-96479250D01*
X142968750Y-96638000D01*
X144018000Y-96638000D01*
X144018000Y-95713750D01*
X143859250Y-95555000D01*
X143445000Y-95551928D01*
X143320518Y-95564188D01*
X143200820Y-95600498D01*
X143090506Y-95659463D01*
X142993815Y-95738815D01*
X142914463Y-95835506D01*
X142855498Y-95945820D01*
X142819188Y-96065518D01*
X142806928Y-96190000D01*
X134035000Y-96190000D01*
X134035000Y-81280000D01*
X135032815Y-81280000D01*
X135061487Y-81571111D01*
X135146401Y-81851034D01*
X135284294Y-82109014D01*
X135469866Y-82335134D01*
X135695986Y-82520706D01*
X135750791Y-82550000D01*
X135695986Y-82579294D01*
X135469866Y-82764866D01*
X135284294Y-82990986D01*
X135146401Y-83248966D01*
X135061487Y-83528889D01*
X135032815Y-83820000D01*
X135061487Y-84111111D01*
X135146401Y-84391034D01*
X135284294Y-84649014D01*
X135469866Y-84875134D01*
X135695986Y-85060706D01*
X135750791Y-85090000D01*
X135695986Y-85119294D01*
X135469866Y-85304866D01*
X135284294Y-85530986D01*
X135146401Y-85788966D01*
X135061487Y-86068889D01*
X135032815Y-86360000D01*
X135061487Y-86651111D01*
X135146401Y-86931034D01*
X135284294Y-87189014D01*
X135469866Y-87415134D01*
X135695986Y-87600706D01*
X135750791Y-87630000D01*
X135695986Y-87659294D01*
X135469866Y-87844866D01*
X135284294Y-88070986D01*
X135146401Y-88328966D01*
X135061487Y-88608889D01*
X135032815Y-88900000D01*
X135061487Y-89191111D01*
X135146401Y-89471034D01*
X135284294Y-89729014D01*
X135469866Y-89955134D01*
X135695986Y-90140706D01*
X135750791Y-90170000D01*
X135695986Y-90199294D01*
X135469866Y-90384866D01*
X135284294Y-90610986D01*
X135146401Y-90868966D01*
X135061487Y-91148889D01*
X135032815Y-91440000D01*
X135061487Y-91731111D01*
X135146401Y-92011034D01*
X135284294Y-92269014D01*
X135469866Y-92495134D01*
X135695986Y-92680706D01*
X135750791Y-92710000D01*
X135695986Y-92739294D01*
X135469866Y-92924866D01*
X135284294Y-93150986D01*
X135146401Y-93408966D01*
X135061487Y-93688889D01*
X135032815Y-93980000D01*
X135061487Y-94271111D01*
X135146401Y-94551034D01*
X135284294Y-94809014D01*
X135469866Y-95035134D01*
X135695986Y-95220706D01*
X135953966Y-95358599D01*
X136233889Y-95443513D01*
X136452050Y-95465000D01*
X136597950Y-95465000D01*
X136816111Y-95443513D01*
X137096034Y-95358599D01*
X137354014Y-95220706D01*
X137580134Y-95035134D01*
X137765706Y-94809014D01*
X137802595Y-94740000D01*
X141567678Y-94740000D01*
X141605000Y-94743676D01*
X141642322Y-94740000D01*
X141642333Y-94740000D01*
X141753986Y-94729003D01*
X141897247Y-94685546D01*
X142029276Y-94614974D01*
X142145001Y-94520001D01*
X142168804Y-94490997D01*
X143549802Y-93110000D01*
X143611939Y-93110000D01*
X143811898Y-93070226D01*
X144000256Y-92992205D01*
X144169774Y-92878937D01*
X144313937Y-92734774D01*
X144369991Y-92650884D01*
X144369991Y-95562658D01*
X144366314Y-95599990D01*
X144368058Y-95617692D01*
X144272000Y-95713750D01*
X144272000Y-96638000D01*
X144292000Y-96638000D01*
X144292000Y-96892000D01*
X144272000Y-96892000D01*
X144272000Y-96912000D01*
X144018000Y-96912000D01*
X144018000Y-96892000D01*
X142968750Y-96892000D01*
X142810000Y-97050750D01*
X142806928Y-97340000D01*
X142819188Y-97464482D01*
X142855498Y-97584180D01*
X142914463Y-97694494D01*
X142993815Y-97791185D01*
X143073594Y-97856658D01*
X143067038Y-97862038D01*
X142956595Y-97996613D01*
X142874528Y-98150149D01*
X142823992Y-98316745D01*
X142806928Y-98489999D01*
X142806928Y-99140001D01*
X142823992Y-99313255D01*
X142874528Y-99479851D01*
X142956595Y-99633387D01*
X143067038Y-99767962D01*
X143201613Y-99878405D01*
X143355149Y-99960472D01*
X143521745Y-100011008D01*
X143694999Y-100028072D01*
X144595001Y-100028072D01*
X144768255Y-100011008D01*
X144934851Y-99960472D01*
X145088387Y-99878405D01*
X145126953Y-99846754D01*
X146665198Y-101385000D01*
X146612050Y-101385000D01*
X146393889Y-101406487D01*
X146113966Y-101491401D01*
X145855986Y-101629294D01*
X145629866Y-101814866D01*
X145444294Y-102040986D01*
X145415000Y-102095791D01*
X145385706Y-102040986D01*
X145200134Y-101814866D01*
X144974014Y-101629294D01*
X144716034Y-101491401D01*
X144436111Y-101406487D01*
X144217950Y-101385000D01*
X144072050Y-101385000D01*
X143853889Y-101406487D01*
X143573966Y-101491401D01*
X143315986Y-101629294D01*
X143089866Y-101814866D01*
X142904294Y-102040986D01*
X142766401Y-102298966D01*
X142681487Y-102578889D01*
X142652815Y-102870000D01*
X142681487Y-103161111D01*
X142766401Y-103441034D01*
X142904294Y-103699014D01*
X143089866Y-103925134D01*
X143315986Y-104110706D01*
X143573966Y-104248599D01*
X143853889Y-104333513D01*
X144072050Y-104355000D01*
X144217950Y-104355000D01*
X144436111Y-104333513D01*
X144716034Y-104248599D01*
X144974014Y-104110706D01*
X145200134Y-103925134D01*
X145385706Y-103699014D01*
X145415000Y-103644209D01*
X145444294Y-103699014D01*
X145629866Y-103925134D01*
X145855986Y-104110706D01*
X146113966Y-104248599D01*
X146393889Y-104333513D01*
X146612050Y-104355000D01*
X146757950Y-104355000D01*
X146976111Y-104333513D01*
X147256034Y-104248599D01*
X147514014Y-104110706D01*
X147740134Y-103925134D01*
X147925706Y-103699014D01*
X147955000Y-103644209D01*
X147984294Y-103699014D01*
X148169866Y-103925134D01*
X148395986Y-104110706D01*
X148653966Y-104248599D01*
X148933889Y-104333513D01*
X149152050Y-104355000D01*
X149297950Y-104355000D01*
X149516111Y-104333513D01*
X149796034Y-104248599D01*
X150054014Y-104110706D01*
X150280134Y-103925134D01*
X150465706Y-103699014D01*
X150495000Y-103644209D01*
X150524294Y-103699014D01*
X150709866Y-103925134D01*
X150935986Y-104110706D01*
X151193966Y-104248599D01*
X151473889Y-104333513D01*
X151692050Y-104355000D01*
X151837950Y-104355000D01*
X152056111Y-104333513D01*
X152336034Y-104248599D01*
X152594014Y-104110706D01*
X152820134Y-103925134D01*
X153005706Y-103699014D01*
X153035000Y-103644209D01*
X153064294Y-103699014D01*
X153249866Y-103925134D01*
X153475986Y-104110706D01*
X153733966Y-104248599D01*
X154013889Y-104333513D01*
X154232050Y-104355000D01*
X154377950Y-104355000D01*
X154596111Y-104333513D01*
X154876034Y-104248599D01*
X155134014Y-104110706D01*
X155360134Y-103925134D01*
X155545706Y-103699014D01*
X155575000Y-103644209D01*
X155604294Y-103699014D01*
X155789866Y-103925134D01*
X156015986Y-104110706D01*
X156273966Y-104248599D01*
X156553889Y-104333513D01*
X156772050Y-104355000D01*
X156917950Y-104355000D01*
X157136111Y-104333513D01*
X157416034Y-104248599D01*
X157674014Y-104110706D01*
X157900134Y-103925134D01*
X157924607Y-103895313D01*
X157945498Y-103964180D01*
X158004463Y-104074494D01*
X158083815Y-104171185D01*
X158180506Y-104250537D01*
X158290820Y-104309502D01*
X158410518Y-104345812D01*
X158535000Y-104358072D01*
X160235000Y-104358072D01*
X160359482Y-104345812D01*
X160479180Y-104309502D01*
X160589494Y-104250537D01*
X160686185Y-104171185D01*
X160765537Y-104074494D01*
X160824502Y-103964180D01*
X160860812Y-103844482D01*
X160873072Y-103720000D01*
X160873072Y-102020000D01*
X160860812Y-101895518D01*
X160824502Y-101775820D01*
X160765537Y-101665506D01*
X160686185Y-101568815D01*
X160589494Y-101489463D01*
X160479180Y-101430498D01*
X160359482Y-101394188D01*
X160235000Y-101381928D01*
X160145000Y-101381928D01*
X160145000Y-97858072D01*
X160200001Y-97858072D01*
X160373255Y-97841008D01*
X160539851Y-97790472D01*
X160693387Y-97708405D01*
X160827962Y-97597962D01*
X160833342Y-97591406D01*
X160898815Y-97671185D01*
X160995506Y-97750537D01*
X161105820Y-97809502D01*
X161225518Y-97845812D01*
X161350000Y-97858072D01*
X161639250Y-97855000D01*
X161798000Y-97696250D01*
X161798000Y-96647000D01*
X162052000Y-96647000D01*
X162052000Y-97696250D01*
X162210750Y-97855000D01*
X162500000Y-97858072D01*
X162624482Y-97845812D01*
X162744180Y-97809502D01*
X162854494Y-97750537D01*
X162951185Y-97671185D01*
X163030537Y-97574494D01*
X163089502Y-97464180D01*
X163125812Y-97344482D01*
X163138072Y-97220000D01*
X163135000Y-96805750D01*
X162976250Y-96647000D01*
X162052000Y-96647000D01*
X161798000Y-96647000D01*
X161778000Y-96647000D01*
X161778000Y-96393000D01*
X161798000Y-96393000D01*
X161798000Y-95343750D01*
X162052000Y-95343750D01*
X162052000Y-96393000D01*
X162976250Y-96393000D01*
X163135000Y-96234250D01*
X163138072Y-95820000D01*
X163125812Y-95695518D01*
X163089502Y-95575820D01*
X163030537Y-95465506D01*
X162951185Y-95368815D01*
X162854494Y-95289463D01*
X162744180Y-95230498D01*
X162624482Y-95194188D01*
X162500000Y-95181928D01*
X162210750Y-95185000D01*
X162052000Y-95343750D01*
X161798000Y-95343750D01*
X161639250Y-95185000D01*
X161350000Y-95181928D01*
X161225518Y-95194188D01*
X161105820Y-95230498D01*
X160995506Y-95289463D01*
X160898815Y-95368815D01*
X160833342Y-95448594D01*
X160827962Y-95442038D01*
X160693387Y-95331595D01*
X160635000Y-95300386D01*
X160635000Y-91272322D01*
X160638676Y-91234999D01*
X160635000Y-91197676D01*
X160635000Y-91197667D01*
X160624003Y-91086014D01*
X160580546Y-90942753D01*
X160509974Y-90810724D01*
X160415001Y-90694999D01*
X160386003Y-90671201D01*
X158739801Y-89025000D01*
X160830199Y-89025000D01*
X163756201Y-91951003D01*
X163779999Y-91980001D01*
X163808997Y-92003799D01*
X163895723Y-92074974D01*
X164027753Y-92145546D01*
X164171014Y-92189003D01*
X164282667Y-92200000D01*
X164282676Y-92200000D01*
X164319999Y-92203676D01*
X164357322Y-92200000D01*
X166362405Y-92200000D01*
X166399294Y-92269014D01*
X166584866Y-92495134D01*
X166810986Y-92680706D01*
X167068966Y-92818599D01*
X167348889Y-92903513D01*
X167567050Y-92925000D01*
X167712950Y-92925000D01*
X167931111Y-92903513D01*
X168211034Y-92818599D01*
X168469014Y-92680706D01*
X168695134Y-92495134D01*
X168880706Y-92269014D01*
X169018599Y-92011034D01*
X169103513Y-91731111D01*
X169132185Y-91440000D01*
X169103513Y-91148889D01*
X169018599Y-90868966D01*
X168880706Y-90610986D01*
X168695134Y-90384866D01*
X168469014Y-90199294D01*
X168414209Y-90170000D01*
X168469014Y-90140706D01*
X168695134Y-89955134D01*
X168880706Y-89729014D01*
X169018599Y-89471034D01*
X169103513Y-89191111D01*
X169132185Y-88900000D01*
X169103513Y-88608889D01*
X169018599Y-88328966D01*
X168880706Y-88070986D01*
X168695134Y-87844866D01*
X168469014Y-87659294D01*
X168404477Y-87624799D01*
X168521355Y-87555178D01*
X168737588Y-87360269D01*
X168911641Y-87126920D01*
X169036825Y-86864099D01*
X169081476Y-86716890D01*
X168960155Y-86487000D01*
X167767000Y-86487000D01*
X167767000Y-86507000D01*
X167513000Y-86507000D01*
X167513000Y-86487000D01*
X167493000Y-86487000D01*
X167493000Y-86233000D01*
X167513000Y-86233000D01*
X167513000Y-86213000D01*
X167767000Y-86213000D01*
X167767000Y-86233000D01*
X168960155Y-86233000D01*
X169081476Y-86003110D01*
X169036825Y-85855901D01*
X168911641Y-85593080D01*
X168737588Y-85359731D01*
X168521355Y-85164822D01*
X168404477Y-85095201D01*
X168469014Y-85060706D01*
X168695134Y-84875134D01*
X168880706Y-84649014D01*
X169018599Y-84391034D01*
X169103513Y-84111111D01*
X169132185Y-83820000D01*
X169103513Y-83528889D01*
X169018599Y-83248966D01*
X168880706Y-82990986D01*
X168695134Y-82764866D01*
X168665313Y-82740393D01*
X168734180Y-82719502D01*
X168844494Y-82660537D01*
X168941185Y-82581185D01*
X169020537Y-82484494D01*
X169079502Y-82374180D01*
X169115812Y-82254482D01*
X169128072Y-82130000D01*
X169128072Y-80430000D01*
X169115812Y-80305518D01*
X169079502Y-80185820D01*
X169020537Y-80075506D01*
X168941185Y-79978815D01*
X168844494Y-79899463D01*
X168734180Y-79840498D01*
X168614482Y-79804188D01*
X168490000Y-79791928D01*
X166790000Y-79791928D01*
X166665518Y-79804188D01*
X166545820Y-79840498D01*
X166435506Y-79899463D01*
X166338815Y-79978815D01*
X166259463Y-80075506D01*
X166200498Y-80185820D01*
X166164188Y-80305518D01*
X166151928Y-80430000D01*
X166151928Y-82130000D01*
X166164188Y-82254482D01*
X166200498Y-82374180D01*
X166259463Y-82484494D01*
X166338815Y-82581185D01*
X166435506Y-82660537D01*
X166545820Y-82719502D01*
X166614687Y-82740393D01*
X166584866Y-82764866D01*
X166399294Y-82990986D01*
X166362405Y-83060000D01*
X165584802Y-83060000D01*
X158132345Y-75607543D01*
X158146185Y-75596185D01*
X158225537Y-75499494D01*
X158284502Y-75389180D01*
X158320812Y-75269482D01*
X158333072Y-75145000D01*
X158333072Y-73445000D01*
X158320812Y-73320518D01*
X158284502Y-73200820D01*
X158225537Y-73090506D01*
X158146185Y-72993815D01*
X158049494Y-72914463D01*
X157939180Y-72855498D01*
X157858534Y-72831034D01*
X157942588Y-72755269D01*
X158116641Y-72521920D01*
X158241825Y-72259099D01*
X158286476Y-72111890D01*
X158165155Y-71882000D01*
X156972000Y-71882000D01*
X156972000Y-71902000D01*
X156718000Y-71902000D01*
X156718000Y-71882000D01*
X155524845Y-71882000D01*
X155403524Y-72111890D01*
X155448175Y-72259099D01*
X155573359Y-72521920D01*
X155747412Y-72755269D01*
X155831466Y-72831034D01*
X155750820Y-72855498D01*
X155640506Y-72914463D01*
X155543815Y-72993815D01*
X155464463Y-73090506D01*
X155405498Y-73200820D01*
X155369188Y-73320518D01*
X155356928Y-73445000D01*
X155356928Y-74170000D01*
X153102276Y-74170000D01*
X153098508Y-74131746D01*
X153047972Y-73965150D01*
X152965905Y-73811614D01*
X152855462Y-73677038D01*
X152720886Y-73566595D01*
X152567350Y-73484528D01*
X152525000Y-73471681D01*
X152525000Y-72578319D01*
X152567350Y-72565472D01*
X152720886Y-72483405D01*
X152855462Y-72372962D01*
X152965905Y-72238386D01*
X153047972Y-72084850D01*
X153098508Y-71918254D01*
X153115572Y-71745000D01*
X153115572Y-71398110D01*
X155403524Y-71398110D01*
X155524845Y-71628000D01*
X156718000Y-71628000D01*
X156718000Y-70434186D01*
X156972000Y-70434186D01*
X156972000Y-71628000D01*
X158165155Y-71628000D01*
X158286476Y-71398110D01*
X158241825Y-71250901D01*
X158116641Y-70988080D01*
X157942588Y-70754731D01*
X157726355Y-70559822D01*
X157476252Y-70410843D01*
X157201891Y-70313519D01*
X156972000Y-70434186D01*
X156718000Y-70434186D01*
X156488109Y-70313519D01*
X156213748Y-70410843D01*
X155963645Y-70559822D01*
X155747412Y-70754731D01*
X155573359Y-70988080D01*
X155448175Y-71250901D01*
X155403524Y-71398110D01*
X153115572Y-71398110D01*
X153115572Y-70495000D01*
X153098508Y-70321746D01*
X153047972Y-70155150D01*
X152965905Y-70001614D01*
X152855462Y-69867038D01*
X152720886Y-69756595D01*
X152567350Y-69674528D01*
X152400754Y-69623992D01*
X152227500Y-69606928D01*
X151302500Y-69606928D01*
X151129246Y-69623992D01*
X150962650Y-69674528D01*
X150809114Y-69756595D01*
X150674538Y-69867038D01*
X150564095Y-70001614D01*
X150482028Y-70155150D01*
X150431492Y-70321746D01*
X150414428Y-70495000D01*
X150414428Y-71745000D01*
X150431492Y-71918254D01*
X150482028Y-72084850D01*
X150564095Y-72238386D01*
X150674538Y-72372962D01*
X150809114Y-72483405D01*
X150962650Y-72565472D01*
X151005000Y-72578319D01*
X151005001Y-73471681D01*
X150962650Y-73484528D01*
X150809114Y-73566595D01*
X150674538Y-73677038D01*
X150564095Y-73811614D01*
X150482028Y-73965150D01*
X150431492Y-74131746D01*
X150414428Y-74305000D01*
X150414428Y-75555000D01*
X150431492Y-75728254D01*
X150482028Y-75894850D01*
X150564095Y-76048386D01*
X150674538Y-76182962D01*
X150809114Y-76293405D01*
X150962650Y-76375472D01*
X151129246Y-76426008D01*
X151302500Y-76443072D01*
X152227500Y-76443072D01*
X152400754Y-76426008D01*
X152567350Y-76375472D01*
X152720886Y-76293405D01*
X152855462Y-76182962D01*
X152965905Y-76048386D01*
X153047972Y-75894850D01*
X153098508Y-75728254D01*
X153102276Y-75690000D01*
X155667564Y-75690000D01*
X155750820Y-75734502D01*
X155870518Y-75770812D01*
X155995000Y-75783072D01*
X156190674Y-75783072D01*
X156210026Y-75819276D01*
X156272049Y-75894850D01*
X156305000Y-75935001D01*
X156333998Y-75958799D01*
X164706201Y-84331003D01*
X164729999Y-84360001D01*
X164845724Y-84454974D01*
X164977753Y-84525546D01*
X165121014Y-84569003D01*
X165232667Y-84580000D01*
X165232676Y-84580000D01*
X165269999Y-84583676D01*
X165307322Y-84580000D01*
X165805199Y-84580000D01*
X165420199Y-84965000D01*
X157351859Y-84965000D01*
X157383084Y-84906582D01*
X157427929Y-84758745D01*
X157443072Y-84605000D01*
X157443072Y-84305000D01*
X157427929Y-84151255D01*
X157383084Y-84003418D01*
X157310258Y-83867171D01*
X157271546Y-83820000D01*
X157310258Y-83772829D01*
X157383084Y-83636582D01*
X157427929Y-83488745D01*
X157443072Y-83335000D01*
X157443072Y-83035000D01*
X157427929Y-82881255D01*
X157383084Y-82733418D01*
X157310258Y-82597171D01*
X157271546Y-82550000D01*
X157310258Y-82502829D01*
X157383084Y-82366582D01*
X157427929Y-82218745D01*
X157443072Y-82065000D01*
X157443072Y-81765000D01*
X157427929Y-81611255D01*
X157383084Y-81463418D01*
X157310258Y-81327171D01*
X157271546Y-81280000D01*
X157310258Y-81232829D01*
X157383084Y-81096582D01*
X157427929Y-80948745D01*
X157443072Y-80795000D01*
X157443072Y-80495000D01*
X157427929Y-80341255D01*
X157383084Y-80193418D01*
X157310258Y-80057171D01*
X157212251Y-79937749D01*
X157092829Y-79839742D01*
X156956582Y-79766916D01*
X156808745Y-79722071D01*
X156655000Y-79706928D01*
X154905000Y-79706928D01*
X154751255Y-79722071D01*
X154603418Y-79766916D01*
X154467171Y-79839742D01*
X154412024Y-79885000D01*
X152558711Y-79885000D01*
X152514774Y-79841063D01*
X152345256Y-79727795D01*
X152156898Y-79649774D01*
X151956939Y-79610000D01*
X151753061Y-79610000D01*
X151553102Y-79649774D01*
X151364744Y-79727795D01*
X151195226Y-79841063D01*
X151051063Y-79985226D01*
X150937795Y-80154744D01*
X150859774Y-80343102D01*
X150820000Y-80543061D01*
X150820000Y-80746939D01*
X150859774Y-80946898D01*
X150937795Y-81135256D01*
X151051063Y-81304774D01*
X151195226Y-81448937D01*
X151364744Y-81562205D01*
X151553102Y-81640226D01*
X151753061Y-81680000D01*
X151956939Y-81680000D01*
X152156898Y-81640226D01*
X152345256Y-81562205D01*
X152514774Y-81448937D01*
X152558711Y-81405000D01*
X153105198Y-81405000D01*
X152995198Y-81515000D01*
X152933061Y-81515000D01*
X152733102Y-81554774D01*
X152544744Y-81632795D01*
X152375226Y-81746063D01*
X152231063Y-81890226D01*
X152117795Y-82059744D01*
X152039774Y-82248102D01*
X152000000Y-82448061D01*
X152000000Y-82651939D01*
X152039774Y-82851898D01*
X152117795Y-83040256D01*
X152231063Y-83209774D01*
X152375226Y-83353937D01*
X152544744Y-83467205D01*
X152629953Y-83502500D01*
X152544744Y-83537795D01*
X152375226Y-83651063D01*
X152231063Y-83795226D01*
X152117795Y-83964744D01*
X152039774Y-84153102D01*
X152000000Y-84353061D01*
X152000000Y-84556939D01*
X152039774Y-84756898D01*
X152117795Y-84945256D01*
X152231063Y-85114774D01*
X152375226Y-85258937D01*
X152544744Y-85372205D01*
X152674229Y-85425840D01*
X152635000Y-85623061D01*
X152635000Y-85826939D01*
X152674774Y-86026898D01*
X152752795Y-86215256D01*
X152866063Y-86384774D01*
X153010226Y-86528937D01*
X153179744Y-86642205D01*
X153368102Y-86720226D01*
X153568061Y-86760000D01*
X153771939Y-86760000D01*
X153971898Y-86720226D01*
X154145038Y-86648509D01*
X154132071Y-86691255D01*
X154116928Y-86845000D01*
X154116928Y-87145000D01*
X154132071Y-87298745D01*
X154176916Y-87446582D01*
X154249742Y-87582829D01*
X154288454Y-87630000D01*
X154249742Y-87677171D01*
X154176916Y-87813418D01*
X154132071Y-87961255D01*
X154116928Y-88115000D01*
X154116928Y-88415000D01*
X154132071Y-88568745D01*
X154176916Y-88716582D01*
X154249742Y-88852829D01*
X154288454Y-88900000D01*
X154249742Y-88947171D01*
X154176916Y-89083418D01*
X154132071Y-89231255D01*
X154116928Y-89385000D01*
X154116928Y-89685000D01*
X154132071Y-89838745D01*
X154176916Y-89986582D01*
X154249742Y-90122829D01*
X154288454Y-90170000D01*
X154249742Y-90217171D01*
X154176916Y-90353418D01*
X154132071Y-90501255D01*
X154116928Y-90655000D01*
X154116928Y-90955000D01*
X154132071Y-91108745D01*
X154176916Y-91256582D01*
X154203633Y-91306565D01*
X152033998Y-93476201D01*
X152005000Y-93499999D01*
X151981202Y-93528997D01*
X151981201Y-93528998D01*
X151910026Y-93615724D01*
X151839454Y-93747754D01*
X151795998Y-93891015D01*
X151781324Y-94040000D01*
X151785001Y-94077332D01*
X151785001Y-94665386D01*
X151726613Y-94696595D01*
X151592038Y-94807038D01*
X151586658Y-94813594D01*
X151521185Y-94733815D01*
X151424494Y-94654463D01*
X151314180Y-94595498D01*
X151194482Y-94559188D01*
X151070000Y-94546928D01*
X150780750Y-94550000D01*
X150622000Y-94708750D01*
X150622000Y-95758000D01*
X150642000Y-95758000D01*
X150642000Y-96012000D01*
X150622000Y-96012000D01*
X150622000Y-97061250D01*
X150780750Y-97220000D01*
X151070000Y-97223072D01*
X151194482Y-97210812D01*
X151314180Y-97174502D01*
X151424494Y-97115537D01*
X151521185Y-97036185D01*
X151586658Y-96956406D01*
X151592038Y-96962962D01*
X151726613Y-97073405D01*
X151880149Y-97155472D01*
X152046745Y-97206008D01*
X152219999Y-97223072D01*
X152808271Y-97223072D01*
X153545001Y-97959803D01*
X153545000Y-101592405D01*
X153475986Y-101629294D01*
X153249866Y-101814866D01*
X153064294Y-102040986D01*
X153035000Y-102095791D01*
X153005706Y-102040986D01*
X152820134Y-101814866D01*
X152594014Y-101629294D01*
X152336034Y-101491401D01*
X152056111Y-101406487D01*
X151837950Y-101385000D01*
X151692050Y-101385000D01*
X151473889Y-101406487D01*
X151399005Y-101429203D01*
X148142735Y-98172934D01*
X148256898Y-98150226D01*
X148445256Y-98072205D01*
X148614774Y-97958937D01*
X148758937Y-97814774D01*
X148872205Y-97645256D01*
X148950226Y-97456898D01*
X148990000Y-97256939D01*
X148990000Y-97053061D01*
X148950226Y-96853102D01*
X148872205Y-96664744D01*
X148818922Y-96585000D01*
X149281928Y-96585000D01*
X149294188Y-96709482D01*
X149330498Y-96829180D01*
X149389463Y-96939494D01*
X149468815Y-97036185D01*
X149565506Y-97115537D01*
X149675820Y-97174502D01*
X149795518Y-97210812D01*
X149920000Y-97223072D01*
X150209250Y-97220000D01*
X150368000Y-97061250D01*
X150368000Y-96012000D01*
X149443750Y-96012000D01*
X149285000Y-96170750D01*
X149281928Y-96585000D01*
X148818922Y-96585000D01*
X148758937Y-96495226D01*
X148715000Y-96451289D01*
X148715000Y-95185000D01*
X149281928Y-95185000D01*
X149285000Y-95599250D01*
X149443750Y-95758000D01*
X150368000Y-95758000D01*
X150368000Y-94708750D01*
X150209250Y-94550000D01*
X149920000Y-94546928D01*
X149795518Y-94559188D01*
X149675820Y-94595498D01*
X149565506Y-94654463D01*
X149468815Y-94733815D01*
X149389463Y-94830506D01*
X149330498Y-94940820D01*
X149294188Y-95060518D01*
X149281928Y-95185000D01*
X148715000Y-95185000D01*
X148715000Y-88652325D01*
X148718676Y-88615000D01*
X148715000Y-88577675D01*
X148715000Y-88577667D01*
X148704003Y-88466014D01*
X148660546Y-88322753D01*
X148589974Y-88190724D01*
X148495001Y-88074999D01*
X148465998Y-88051197D01*
X148168804Y-87754003D01*
X148145001Y-87724999D01*
X148029276Y-87630026D01*
X147989134Y-87608569D01*
X148010258Y-87582829D01*
X148083084Y-87446582D01*
X148127929Y-87298745D01*
X148143072Y-87145000D01*
X148143072Y-86845000D01*
X148127929Y-86691255D01*
X148083084Y-86543418D01*
X148011270Y-86409064D01*
X148035537Y-86379494D01*
X148094502Y-86269180D01*
X148130812Y-86149482D01*
X148143072Y-86025000D01*
X148140000Y-86010750D01*
X147981250Y-85852000D01*
X146607000Y-85852000D01*
X146607000Y-85872000D01*
X146353000Y-85872000D01*
X146353000Y-85852000D01*
X144978750Y-85852000D01*
X144820000Y-86010750D01*
X144816928Y-86025000D01*
X144829188Y-86149482D01*
X144855130Y-86235000D01*
X144213711Y-86235000D01*
X144169774Y-86191063D01*
X144000256Y-86077795D01*
X143811898Y-85999774D01*
X143611939Y-85960000D01*
X143408061Y-85960000D01*
X143208102Y-85999774D01*
X143019744Y-86077795D01*
X142850226Y-86191063D01*
X142706063Y-86335226D01*
X142592795Y-86504744D01*
X142514774Y-86693102D01*
X142475000Y-86893061D01*
X142475000Y-87096939D01*
X142514774Y-87296898D01*
X142592795Y-87485256D01*
X142706063Y-87654774D01*
X142850226Y-87798937D01*
X143019744Y-87912205D01*
X143208102Y-87990226D01*
X143408061Y-88030000D01*
X143611939Y-88030000D01*
X143811898Y-87990226D01*
X144000256Y-87912205D01*
X144169774Y-87798937D01*
X144213711Y-87755000D01*
X144908141Y-87755000D01*
X144876916Y-87813418D01*
X144832071Y-87961255D01*
X144816928Y-88115000D01*
X144816928Y-88415000D01*
X144832071Y-88568745D01*
X144876916Y-88716582D01*
X144935644Y-88826454D01*
X144925755Y-88829454D01*
X144793726Y-88900026D01*
X144678001Y-88994999D01*
X144654198Y-89024003D01*
X144618993Y-89059208D01*
X144589989Y-89083011D01*
X144547323Y-89135000D01*
X144495016Y-89198736D01*
X144471488Y-89242754D01*
X144424444Y-89330766D01*
X144380987Y-89474027D01*
X144369990Y-89585680D01*
X144369990Y-89585690D01*
X144369267Y-89593033D01*
X144313937Y-89510226D01*
X144169774Y-89366063D01*
X144000256Y-89252795D01*
X143811898Y-89174774D01*
X143611939Y-89135000D01*
X143408061Y-89135000D01*
X143208102Y-89174774D01*
X143019744Y-89252795D01*
X142850226Y-89366063D01*
X142706063Y-89510226D01*
X142592795Y-89679744D01*
X142514774Y-89868102D01*
X142475000Y-90068061D01*
X142475000Y-90130198D01*
X141925199Y-90680000D01*
X137802595Y-90680000D01*
X137765706Y-90610986D01*
X137580134Y-90384866D01*
X137354014Y-90199294D01*
X137299209Y-90170000D01*
X137354014Y-90140706D01*
X137580134Y-89955134D01*
X137765706Y-89729014D01*
X137903599Y-89471034D01*
X137988513Y-89191111D01*
X138017185Y-88900000D01*
X137988513Y-88608889D01*
X137903599Y-88328966D01*
X137765706Y-88070986D01*
X137580134Y-87844866D01*
X137354014Y-87659294D01*
X137299209Y-87630000D01*
X137354014Y-87600706D01*
X137580134Y-87415134D01*
X137765706Y-87189014D01*
X137903599Y-86931034D01*
X137988513Y-86651111D01*
X138017185Y-86360000D01*
X137988513Y-86068889D01*
X137978230Y-86034991D01*
X142652687Y-86034991D01*
X142690009Y-86038667D01*
X142727331Y-86034991D01*
X142727342Y-86034991D01*
X142838995Y-86023994D01*
X142982256Y-85980537D01*
X143114285Y-85909965D01*
X143230010Y-85814992D01*
X143253813Y-85785988D01*
X144184802Y-84855000D01*
X144246939Y-84855000D01*
X144446898Y-84815226D01*
X144635256Y-84737205D01*
X144804774Y-84623937D01*
X144817536Y-84611175D01*
X144832071Y-84758745D01*
X144876916Y-84906582D01*
X144948730Y-85040936D01*
X144924463Y-85070506D01*
X144865498Y-85180820D01*
X144829188Y-85300518D01*
X144816928Y-85425000D01*
X144820000Y-85439250D01*
X144978750Y-85598000D01*
X146353000Y-85598000D01*
X146353000Y-85578000D01*
X146607000Y-85578000D01*
X146607000Y-85598000D01*
X147981250Y-85598000D01*
X148140000Y-85439250D01*
X148143072Y-85425000D01*
X148130812Y-85300518D01*
X148094502Y-85180820D01*
X148035537Y-85070506D01*
X148011270Y-85040936D01*
X148083084Y-84906582D01*
X148127929Y-84758745D01*
X148133298Y-84704236D01*
X148230711Y-84624291D01*
X148254514Y-84595287D01*
X149899802Y-82950000D01*
X149961939Y-82950000D01*
X150161898Y-82910226D01*
X150350256Y-82832205D01*
X150519774Y-82718937D01*
X150663937Y-82574774D01*
X150777205Y-82405256D01*
X150855226Y-82216898D01*
X150895000Y-82016939D01*
X150895000Y-81813061D01*
X150855226Y-81613102D01*
X150777205Y-81424744D01*
X150663937Y-81255226D01*
X150519774Y-81111063D01*
X150350256Y-80997795D01*
X150161898Y-80919774D01*
X149985000Y-80884587D01*
X149985000Y-78777333D01*
X149988677Y-78740000D01*
X149974003Y-78591014D01*
X149930546Y-78447753D01*
X149859974Y-78315724D01*
X149765001Y-78199999D01*
X149649276Y-78105026D01*
X149517247Y-78034454D01*
X149373986Y-77990997D01*
X149262333Y-77980000D01*
X149225000Y-77976323D01*
X149187667Y-77980000D01*
X138013072Y-77980000D01*
X138013072Y-77890000D01*
X138000812Y-77765518D01*
X137964502Y-77645820D01*
X137905537Y-77535506D01*
X137826185Y-77438815D01*
X137729494Y-77359463D01*
X137619180Y-77300498D01*
X137499482Y-77264188D01*
X137375000Y-77251928D01*
X135675000Y-77251928D01*
X135550518Y-77264188D01*
X135430820Y-77300498D01*
X135320506Y-77359463D01*
X135223815Y-77438815D01*
X135144463Y-77535506D01*
X135085498Y-77645820D01*
X135049188Y-77765518D01*
X135036928Y-77890000D01*
X135036928Y-79590000D01*
X135049188Y-79714482D01*
X135085498Y-79834180D01*
X135144463Y-79944494D01*
X135223815Y-80041185D01*
X135320506Y-80120537D01*
X135430820Y-80179502D01*
X135499687Y-80200393D01*
X135469866Y-80224866D01*
X135284294Y-80450986D01*
X135146401Y-80708966D01*
X135061487Y-80988889D01*
X135032815Y-81280000D01*
X134035000Y-81280000D01*
X134035000Y-75805000D01*
X147439428Y-75805000D01*
X147451688Y-75929482D01*
X147487998Y-76049180D01*
X147546963Y-76159494D01*
X147626315Y-76256185D01*
X147723006Y-76335537D01*
X147833320Y-76394502D01*
X147953018Y-76430812D01*
X148077500Y-76443072D01*
X148504250Y-76440000D01*
X148663000Y-76281250D01*
X148663000Y-75057000D01*
X148917000Y-75057000D01*
X148917000Y-76281250D01*
X149075750Y-76440000D01*
X149502500Y-76443072D01*
X149626982Y-76430812D01*
X149746680Y-76394502D01*
X149856994Y-76335537D01*
X149953685Y-76256185D01*
X150033037Y-76159494D01*
X150092002Y-76049180D01*
X150128312Y-75929482D01*
X150140572Y-75805000D01*
X150137500Y-75215750D01*
X149978750Y-75057000D01*
X148917000Y-75057000D01*
X148663000Y-75057000D01*
X147601250Y-75057000D01*
X147442500Y-75215750D01*
X147439428Y-75805000D01*
X134035000Y-75805000D01*
X134035000Y-74055000D01*
X147439428Y-74055000D01*
X147442500Y-74644250D01*
X147601250Y-74803000D01*
X148663000Y-74803000D01*
X148663000Y-73578750D01*
X148917000Y-73578750D01*
X148917000Y-74803000D01*
X149978750Y-74803000D01*
X150137500Y-74644250D01*
X150140572Y-74055000D01*
X150128312Y-73930518D01*
X150092002Y-73810820D01*
X150033037Y-73700506D01*
X149953685Y-73603815D01*
X149856994Y-73524463D01*
X149746680Y-73465498D01*
X149626982Y-73429188D01*
X149502500Y-73416928D01*
X149075750Y-73420000D01*
X148917000Y-73578750D01*
X148663000Y-73578750D01*
X148504250Y-73420000D01*
X148077500Y-73416928D01*
X147953018Y-73429188D01*
X147833320Y-73465498D01*
X147723006Y-73524463D01*
X147626315Y-73603815D01*
X147546963Y-73700506D01*
X147487998Y-73810820D01*
X147451688Y-73930518D01*
X147439428Y-74055000D01*
X134035000Y-74055000D01*
X134035000Y-71995000D01*
X147439428Y-71995000D01*
X147451688Y-72119482D01*
X147487998Y-72239180D01*
X147546963Y-72349494D01*
X147626315Y-72446185D01*
X147723006Y-72525537D01*
X147833320Y-72584502D01*
X147953018Y-72620812D01*
X148077500Y-72633072D01*
X148504250Y-72630000D01*
X148663000Y-72471250D01*
X148663000Y-71247000D01*
X148917000Y-71247000D01*
X148917000Y-72471250D01*
X149075750Y-72630000D01*
X149502500Y-72633072D01*
X149626982Y-72620812D01*
X149746680Y-72584502D01*
X149856994Y-72525537D01*
X149953685Y-72446185D01*
X150033037Y-72349494D01*
X150092002Y-72239180D01*
X150128312Y-72119482D01*
X150140572Y-71995000D01*
X150137500Y-71405750D01*
X149978750Y-71247000D01*
X148917000Y-71247000D01*
X148663000Y-71247000D01*
X147601250Y-71247000D01*
X147442500Y-71405750D01*
X147439428Y-71995000D01*
X134035000Y-71995000D01*
X134035000Y-70245000D01*
X147439428Y-70245000D01*
X147442500Y-70834250D01*
X147601250Y-70993000D01*
X148663000Y-70993000D01*
X148663000Y-69768750D01*
X148917000Y-69768750D01*
X148917000Y-70993000D01*
X149978750Y-70993000D01*
X150137500Y-70834250D01*
X150140572Y-70245000D01*
X150128312Y-70120518D01*
X150092002Y-70000820D01*
X150033037Y-69890506D01*
X149953685Y-69793815D01*
X149856994Y-69714463D01*
X149746680Y-69655498D01*
X149626982Y-69619188D01*
X149502500Y-69606928D01*
X149075750Y-69610000D01*
X148917000Y-69768750D01*
X148663000Y-69768750D01*
X148504250Y-69610000D01*
X148077500Y-69606928D01*
X147953018Y-69619188D01*
X147833320Y-69655498D01*
X147723006Y-69714463D01*
X147626315Y-69793815D01*
X147546963Y-69890506D01*
X147487998Y-70000820D01*
X147451688Y-70120518D01*
X147439428Y-70245000D01*
X134035000Y-70245000D01*
X134035000Y-69265000D01*
X170130000Y-69265000D01*
X170130001Y-108535000D01*
M02*
