G04 #@! TF.GenerationSoftware,KiCad,Pcbnew,(5.1.4)-1*
G04 #@! TF.CreationDate,2019-11-25T23:53:57+00:00*
G04 #@! TF.ProjectId,KeyPad BCD encoder,4b657950-6164-4204-9243-4420656e636f,rev?*
G04 #@! TF.SameCoordinates,Original*
G04 #@! TF.FileFunction,Soldermask,Bot*
G04 #@! TF.FilePolarity,Negative*
%FSLAX46Y46*%
G04 Gerber Fmt 4.6, Leading zero omitted, Abs format (unit mm)*
G04 Created by KiCad (PCBNEW (5.1.4)-1) date 2019-11-25 23:53:57*
%MOMM*%
%LPD*%
G04 APERTURE LIST*
%ADD10C,0.100000*%
G04 APERTURE END LIST*
D10*
G36*
X160286000Y-103771000D02*
G01*
X158484000Y-103771000D01*
X158484000Y-101969000D01*
X160286000Y-101969000D01*
X160286000Y-103771000D01*
X160286000Y-103771000D01*
G37*
G36*
X154415442Y-101975518D02*
G01*
X154481627Y-101982037D01*
X154651466Y-102033557D01*
X154807991Y-102117222D01*
X154843729Y-102146552D01*
X154945186Y-102229814D01*
X155028448Y-102331271D01*
X155057778Y-102367009D01*
X155141443Y-102523534D01*
X155192963Y-102693373D01*
X155210359Y-102870000D01*
X155192963Y-103046627D01*
X155141443Y-103216466D01*
X155057778Y-103372991D01*
X155028448Y-103408729D01*
X154945186Y-103510186D01*
X154843729Y-103593448D01*
X154807991Y-103622778D01*
X154651466Y-103706443D01*
X154481627Y-103757963D01*
X154415443Y-103764481D01*
X154349260Y-103771000D01*
X154260740Y-103771000D01*
X154194557Y-103764481D01*
X154128373Y-103757963D01*
X153958534Y-103706443D01*
X153802009Y-103622778D01*
X153766271Y-103593448D01*
X153664814Y-103510186D01*
X153581552Y-103408729D01*
X153552222Y-103372991D01*
X153468557Y-103216466D01*
X153417037Y-103046627D01*
X153399641Y-102870000D01*
X153417037Y-102693373D01*
X153468557Y-102523534D01*
X153552222Y-102367009D01*
X153581552Y-102331271D01*
X153664814Y-102229814D01*
X153766271Y-102146552D01*
X153802009Y-102117222D01*
X153958534Y-102033557D01*
X154128373Y-101982037D01*
X154194558Y-101975518D01*
X154260740Y-101969000D01*
X154349260Y-101969000D01*
X154415442Y-101975518D01*
X154415442Y-101975518D01*
G37*
G36*
X151875442Y-101975518D02*
G01*
X151941627Y-101982037D01*
X152111466Y-102033557D01*
X152267991Y-102117222D01*
X152303729Y-102146552D01*
X152405186Y-102229814D01*
X152488448Y-102331271D01*
X152517778Y-102367009D01*
X152601443Y-102523534D01*
X152652963Y-102693373D01*
X152670359Y-102870000D01*
X152652963Y-103046627D01*
X152601443Y-103216466D01*
X152517778Y-103372991D01*
X152488448Y-103408729D01*
X152405186Y-103510186D01*
X152303729Y-103593448D01*
X152267991Y-103622778D01*
X152111466Y-103706443D01*
X151941627Y-103757963D01*
X151875443Y-103764481D01*
X151809260Y-103771000D01*
X151720740Y-103771000D01*
X151654557Y-103764481D01*
X151588373Y-103757963D01*
X151418534Y-103706443D01*
X151262009Y-103622778D01*
X151226271Y-103593448D01*
X151124814Y-103510186D01*
X151041552Y-103408729D01*
X151012222Y-103372991D01*
X150928557Y-103216466D01*
X150877037Y-103046627D01*
X150859641Y-102870000D01*
X150877037Y-102693373D01*
X150928557Y-102523534D01*
X151012222Y-102367009D01*
X151041552Y-102331271D01*
X151124814Y-102229814D01*
X151226271Y-102146552D01*
X151262009Y-102117222D01*
X151418534Y-102033557D01*
X151588373Y-101982037D01*
X151654558Y-101975518D01*
X151720740Y-101969000D01*
X151809260Y-101969000D01*
X151875442Y-101975518D01*
X151875442Y-101975518D01*
G37*
G36*
X149335442Y-101975518D02*
G01*
X149401627Y-101982037D01*
X149571466Y-102033557D01*
X149727991Y-102117222D01*
X149763729Y-102146552D01*
X149865186Y-102229814D01*
X149948448Y-102331271D01*
X149977778Y-102367009D01*
X150061443Y-102523534D01*
X150112963Y-102693373D01*
X150130359Y-102870000D01*
X150112963Y-103046627D01*
X150061443Y-103216466D01*
X149977778Y-103372991D01*
X149948448Y-103408729D01*
X149865186Y-103510186D01*
X149763729Y-103593448D01*
X149727991Y-103622778D01*
X149571466Y-103706443D01*
X149401627Y-103757963D01*
X149335443Y-103764481D01*
X149269260Y-103771000D01*
X149180740Y-103771000D01*
X149114557Y-103764481D01*
X149048373Y-103757963D01*
X148878534Y-103706443D01*
X148722009Y-103622778D01*
X148686271Y-103593448D01*
X148584814Y-103510186D01*
X148501552Y-103408729D01*
X148472222Y-103372991D01*
X148388557Y-103216466D01*
X148337037Y-103046627D01*
X148319641Y-102870000D01*
X148337037Y-102693373D01*
X148388557Y-102523534D01*
X148472222Y-102367009D01*
X148501552Y-102331271D01*
X148584814Y-102229814D01*
X148686271Y-102146552D01*
X148722009Y-102117222D01*
X148878534Y-102033557D01*
X149048373Y-101982037D01*
X149114558Y-101975518D01*
X149180740Y-101969000D01*
X149269260Y-101969000D01*
X149335442Y-101975518D01*
X149335442Y-101975518D01*
G37*
G36*
X146795442Y-101975518D02*
G01*
X146861627Y-101982037D01*
X147031466Y-102033557D01*
X147187991Y-102117222D01*
X147223729Y-102146552D01*
X147325186Y-102229814D01*
X147408448Y-102331271D01*
X147437778Y-102367009D01*
X147521443Y-102523534D01*
X147572963Y-102693373D01*
X147590359Y-102870000D01*
X147572963Y-103046627D01*
X147521443Y-103216466D01*
X147437778Y-103372991D01*
X147408448Y-103408729D01*
X147325186Y-103510186D01*
X147223729Y-103593448D01*
X147187991Y-103622778D01*
X147031466Y-103706443D01*
X146861627Y-103757963D01*
X146795443Y-103764481D01*
X146729260Y-103771000D01*
X146640740Y-103771000D01*
X146574557Y-103764481D01*
X146508373Y-103757963D01*
X146338534Y-103706443D01*
X146182009Y-103622778D01*
X146146271Y-103593448D01*
X146044814Y-103510186D01*
X145961552Y-103408729D01*
X145932222Y-103372991D01*
X145848557Y-103216466D01*
X145797037Y-103046627D01*
X145779641Y-102870000D01*
X145797037Y-102693373D01*
X145848557Y-102523534D01*
X145932222Y-102367009D01*
X145961552Y-102331271D01*
X146044814Y-102229814D01*
X146146271Y-102146552D01*
X146182009Y-102117222D01*
X146338534Y-102033557D01*
X146508373Y-101982037D01*
X146574558Y-101975518D01*
X146640740Y-101969000D01*
X146729260Y-101969000D01*
X146795442Y-101975518D01*
X146795442Y-101975518D01*
G37*
G36*
X144255442Y-101975518D02*
G01*
X144321627Y-101982037D01*
X144491466Y-102033557D01*
X144647991Y-102117222D01*
X144683729Y-102146552D01*
X144785186Y-102229814D01*
X144868448Y-102331271D01*
X144897778Y-102367009D01*
X144981443Y-102523534D01*
X145032963Y-102693373D01*
X145050359Y-102870000D01*
X145032963Y-103046627D01*
X144981443Y-103216466D01*
X144897778Y-103372991D01*
X144868448Y-103408729D01*
X144785186Y-103510186D01*
X144683729Y-103593448D01*
X144647991Y-103622778D01*
X144491466Y-103706443D01*
X144321627Y-103757963D01*
X144255443Y-103764481D01*
X144189260Y-103771000D01*
X144100740Y-103771000D01*
X144034557Y-103764481D01*
X143968373Y-103757963D01*
X143798534Y-103706443D01*
X143642009Y-103622778D01*
X143606271Y-103593448D01*
X143504814Y-103510186D01*
X143421552Y-103408729D01*
X143392222Y-103372991D01*
X143308557Y-103216466D01*
X143257037Y-103046627D01*
X143239641Y-102870000D01*
X143257037Y-102693373D01*
X143308557Y-102523534D01*
X143392222Y-102367009D01*
X143421552Y-102331271D01*
X143504814Y-102229814D01*
X143606271Y-102146552D01*
X143642009Y-102117222D01*
X143798534Y-102033557D01*
X143968373Y-101982037D01*
X144034558Y-101975518D01*
X144100740Y-101969000D01*
X144189260Y-101969000D01*
X144255442Y-101975518D01*
X144255442Y-101975518D01*
G37*
G36*
X156955442Y-101975518D02*
G01*
X157021627Y-101982037D01*
X157191466Y-102033557D01*
X157347991Y-102117222D01*
X157383729Y-102146552D01*
X157485186Y-102229814D01*
X157568448Y-102331271D01*
X157597778Y-102367009D01*
X157681443Y-102523534D01*
X157732963Y-102693373D01*
X157750359Y-102870000D01*
X157732963Y-103046627D01*
X157681443Y-103216466D01*
X157597778Y-103372991D01*
X157568448Y-103408729D01*
X157485186Y-103510186D01*
X157383729Y-103593448D01*
X157347991Y-103622778D01*
X157191466Y-103706443D01*
X157021627Y-103757963D01*
X156955443Y-103764481D01*
X156889260Y-103771000D01*
X156800740Y-103771000D01*
X156734557Y-103764481D01*
X156668373Y-103757963D01*
X156498534Y-103706443D01*
X156342009Y-103622778D01*
X156306271Y-103593448D01*
X156204814Y-103510186D01*
X156121552Y-103408729D01*
X156092222Y-103372991D01*
X156008557Y-103216466D01*
X155957037Y-103046627D01*
X155939641Y-102870000D01*
X155957037Y-102693373D01*
X156008557Y-102523534D01*
X156092222Y-102367009D01*
X156121552Y-102331271D01*
X156204814Y-102229814D01*
X156306271Y-102146552D01*
X156342009Y-102117222D01*
X156498534Y-102033557D01*
X156668373Y-101982037D01*
X156734558Y-101975518D01*
X156800740Y-101969000D01*
X156889260Y-101969000D01*
X156955442Y-101975518D01*
X156955442Y-101975518D01*
G37*
G36*
X136635443Y-93085519D02*
G01*
X136701627Y-93092037D01*
X136871466Y-93143557D01*
X137027991Y-93227222D01*
X137063729Y-93256552D01*
X137165186Y-93339814D01*
X137248448Y-93441271D01*
X137277778Y-93477009D01*
X137361443Y-93633534D01*
X137412963Y-93803373D01*
X137430359Y-93980000D01*
X137412963Y-94156627D01*
X137361443Y-94326466D01*
X137277778Y-94482991D01*
X137248448Y-94518729D01*
X137165186Y-94620186D01*
X137063729Y-94703448D01*
X137027991Y-94732778D01*
X136871466Y-94816443D01*
X136701627Y-94867963D01*
X136635443Y-94874481D01*
X136569260Y-94881000D01*
X136480740Y-94881000D01*
X136414557Y-94874481D01*
X136348373Y-94867963D01*
X136178534Y-94816443D01*
X136022009Y-94732778D01*
X135986271Y-94703448D01*
X135884814Y-94620186D01*
X135801552Y-94518729D01*
X135772222Y-94482991D01*
X135688557Y-94326466D01*
X135637037Y-94156627D01*
X135619641Y-93980000D01*
X135637037Y-93803373D01*
X135688557Y-93633534D01*
X135772222Y-93477009D01*
X135801552Y-93441271D01*
X135884814Y-93339814D01*
X135986271Y-93256552D01*
X136022009Y-93227222D01*
X136178534Y-93143557D01*
X136348373Y-93092037D01*
X136414557Y-93085519D01*
X136480740Y-93079000D01*
X136569260Y-93079000D01*
X136635443Y-93085519D01*
X136635443Y-93085519D01*
G37*
G36*
X167750443Y-90545519D02*
G01*
X167816627Y-90552037D01*
X167986466Y-90603557D01*
X168142991Y-90687222D01*
X168178729Y-90716552D01*
X168280186Y-90799814D01*
X168363448Y-90901271D01*
X168392778Y-90937009D01*
X168476443Y-91093534D01*
X168527963Y-91263373D01*
X168545359Y-91440000D01*
X168527963Y-91616627D01*
X168476443Y-91786466D01*
X168392778Y-91942991D01*
X168363448Y-91978729D01*
X168280186Y-92080186D01*
X168178729Y-92163448D01*
X168142991Y-92192778D01*
X167986466Y-92276443D01*
X167816627Y-92327963D01*
X167750443Y-92334481D01*
X167684260Y-92341000D01*
X167595740Y-92341000D01*
X167529557Y-92334481D01*
X167463373Y-92327963D01*
X167293534Y-92276443D01*
X167137009Y-92192778D01*
X167101271Y-92163448D01*
X166999814Y-92080186D01*
X166916552Y-91978729D01*
X166887222Y-91942991D01*
X166803557Y-91786466D01*
X166752037Y-91616627D01*
X166734641Y-91440000D01*
X166752037Y-91263373D01*
X166803557Y-91093534D01*
X166887222Y-90937009D01*
X166916552Y-90901271D01*
X166999814Y-90799814D01*
X167101271Y-90716552D01*
X167137009Y-90687222D01*
X167293534Y-90603557D01*
X167463373Y-90552037D01*
X167529558Y-90545518D01*
X167595740Y-90539000D01*
X167684260Y-90539000D01*
X167750443Y-90545519D01*
X167750443Y-90545519D01*
G37*
G36*
X136635443Y-90545519D02*
G01*
X136701627Y-90552037D01*
X136871466Y-90603557D01*
X137027991Y-90687222D01*
X137063729Y-90716552D01*
X137165186Y-90799814D01*
X137248448Y-90901271D01*
X137277778Y-90937009D01*
X137361443Y-91093534D01*
X137412963Y-91263373D01*
X137430359Y-91440000D01*
X137412963Y-91616627D01*
X137361443Y-91786466D01*
X137277778Y-91942991D01*
X137248448Y-91978729D01*
X137165186Y-92080186D01*
X137063729Y-92163448D01*
X137027991Y-92192778D01*
X136871466Y-92276443D01*
X136701627Y-92327963D01*
X136635443Y-92334481D01*
X136569260Y-92341000D01*
X136480740Y-92341000D01*
X136414557Y-92334481D01*
X136348373Y-92327963D01*
X136178534Y-92276443D01*
X136022009Y-92192778D01*
X135986271Y-92163448D01*
X135884814Y-92080186D01*
X135801552Y-91978729D01*
X135772222Y-91942991D01*
X135688557Y-91786466D01*
X135637037Y-91616627D01*
X135619641Y-91440000D01*
X135637037Y-91263373D01*
X135688557Y-91093534D01*
X135772222Y-90937009D01*
X135801552Y-90901271D01*
X135884814Y-90799814D01*
X135986271Y-90716552D01*
X136022009Y-90687222D01*
X136178534Y-90603557D01*
X136348373Y-90552037D01*
X136414557Y-90545519D01*
X136480740Y-90539000D01*
X136569260Y-90539000D01*
X136635443Y-90545519D01*
X136635443Y-90545519D01*
G37*
G36*
X167750443Y-88005519D02*
G01*
X167816627Y-88012037D01*
X167986466Y-88063557D01*
X168142991Y-88147222D01*
X168178729Y-88176552D01*
X168280186Y-88259814D01*
X168363448Y-88361271D01*
X168392778Y-88397009D01*
X168476443Y-88553534D01*
X168527963Y-88723373D01*
X168545359Y-88900000D01*
X168527963Y-89076627D01*
X168476443Y-89246466D01*
X168392778Y-89402991D01*
X168363448Y-89438729D01*
X168280186Y-89540186D01*
X168178729Y-89623448D01*
X168142991Y-89652778D01*
X167986466Y-89736443D01*
X167816627Y-89787963D01*
X167750443Y-89794481D01*
X167684260Y-89801000D01*
X167595740Y-89801000D01*
X167529557Y-89794481D01*
X167463373Y-89787963D01*
X167293534Y-89736443D01*
X167137009Y-89652778D01*
X167101271Y-89623448D01*
X166999814Y-89540186D01*
X166916552Y-89438729D01*
X166887222Y-89402991D01*
X166803557Y-89246466D01*
X166752037Y-89076627D01*
X166734641Y-88900000D01*
X166752037Y-88723373D01*
X166803557Y-88553534D01*
X166887222Y-88397009D01*
X166916552Y-88361271D01*
X166999814Y-88259814D01*
X167101271Y-88176552D01*
X167137009Y-88147222D01*
X167293534Y-88063557D01*
X167463373Y-88012037D01*
X167529557Y-88005519D01*
X167595740Y-87999000D01*
X167684260Y-87999000D01*
X167750443Y-88005519D01*
X167750443Y-88005519D01*
G37*
G36*
X136635443Y-88005519D02*
G01*
X136701627Y-88012037D01*
X136871466Y-88063557D01*
X137027991Y-88147222D01*
X137063729Y-88176552D01*
X137165186Y-88259814D01*
X137248448Y-88361271D01*
X137277778Y-88397009D01*
X137361443Y-88553534D01*
X137412963Y-88723373D01*
X137430359Y-88900000D01*
X137412963Y-89076627D01*
X137361443Y-89246466D01*
X137277778Y-89402991D01*
X137248448Y-89438729D01*
X137165186Y-89540186D01*
X137063729Y-89623448D01*
X137027991Y-89652778D01*
X136871466Y-89736443D01*
X136701627Y-89787963D01*
X136635443Y-89794481D01*
X136569260Y-89801000D01*
X136480740Y-89801000D01*
X136414557Y-89794481D01*
X136348373Y-89787963D01*
X136178534Y-89736443D01*
X136022009Y-89652778D01*
X135986271Y-89623448D01*
X135884814Y-89540186D01*
X135801552Y-89438729D01*
X135772222Y-89402991D01*
X135688557Y-89246466D01*
X135637037Y-89076627D01*
X135619641Y-88900000D01*
X135637037Y-88723373D01*
X135688557Y-88553534D01*
X135772222Y-88397009D01*
X135801552Y-88361271D01*
X135884814Y-88259814D01*
X135986271Y-88176552D01*
X136022009Y-88147222D01*
X136178534Y-88063557D01*
X136348373Y-88012037D01*
X136414557Y-88005519D01*
X136480740Y-87999000D01*
X136569260Y-87999000D01*
X136635443Y-88005519D01*
X136635443Y-88005519D01*
G37*
G36*
X136635442Y-85465518D02*
G01*
X136701627Y-85472037D01*
X136871466Y-85523557D01*
X137027991Y-85607222D01*
X137063729Y-85636552D01*
X137165186Y-85719814D01*
X137248448Y-85821271D01*
X137277778Y-85857009D01*
X137361443Y-86013534D01*
X137412963Y-86183373D01*
X137430359Y-86360000D01*
X137412963Y-86536627D01*
X137361443Y-86706466D01*
X137277778Y-86862991D01*
X137248448Y-86898729D01*
X137165186Y-87000186D01*
X137063729Y-87083448D01*
X137027991Y-87112778D01*
X136871466Y-87196443D01*
X136701627Y-87247963D01*
X136635442Y-87254482D01*
X136569260Y-87261000D01*
X136480740Y-87261000D01*
X136414558Y-87254482D01*
X136348373Y-87247963D01*
X136178534Y-87196443D01*
X136022009Y-87112778D01*
X135986271Y-87083448D01*
X135884814Y-87000186D01*
X135801552Y-86898729D01*
X135772222Y-86862991D01*
X135688557Y-86706466D01*
X135637037Y-86536627D01*
X135619641Y-86360000D01*
X135637037Y-86183373D01*
X135688557Y-86013534D01*
X135772222Y-85857009D01*
X135801552Y-85821271D01*
X135884814Y-85719814D01*
X135986271Y-85636552D01*
X136022009Y-85607222D01*
X136178534Y-85523557D01*
X136348373Y-85472037D01*
X136414558Y-85465518D01*
X136480740Y-85459000D01*
X136569260Y-85459000D01*
X136635442Y-85465518D01*
X136635442Y-85465518D01*
G37*
G36*
X167750442Y-85465518D02*
G01*
X167816627Y-85472037D01*
X167986466Y-85523557D01*
X168142991Y-85607222D01*
X168178729Y-85636552D01*
X168280186Y-85719814D01*
X168363448Y-85821271D01*
X168392778Y-85857009D01*
X168476443Y-86013534D01*
X168527963Y-86183373D01*
X168545359Y-86360000D01*
X168527963Y-86536627D01*
X168476443Y-86706466D01*
X168392778Y-86862991D01*
X168363448Y-86898729D01*
X168280186Y-87000186D01*
X168178729Y-87083448D01*
X168142991Y-87112778D01*
X167986466Y-87196443D01*
X167816627Y-87247963D01*
X167750442Y-87254482D01*
X167684260Y-87261000D01*
X167595740Y-87261000D01*
X167529558Y-87254482D01*
X167463373Y-87247963D01*
X167293534Y-87196443D01*
X167137009Y-87112778D01*
X167101271Y-87083448D01*
X166999814Y-87000186D01*
X166916552Y-86898729D01*
X166887222Y-86862991D01*
X166803557Y-86706466D01*
X166752037Y-86536627D01*
X166734641Y-86360000D01*
X166752037Y-86183373D01*
X166803557Y-86013534D01*
X166887222Y-85857009D01*
X166916552Y-85821271D01*
X166999814Y-85719814D01*
X167101271Y-85636552D01*
X167137009Y-85607222D01*
X167293534Y-85523557D01*
X167463373Y-85472037D01*
X167529558Y-85465518D01*
X167595740Y-85459000D01*
X167684260Y-85459000D01*
X167750442Y-85465518D01*
X167750442Y-85465518D01*
G37*
G36*
X136635443Y-82925519D02*
G01*
X136701627Y-82932037D01*
X136871466Y-82983557D01*
X137027991Y-83067222D01*
X137063729Y-83096552D01*
X137165186Y-83179814D01*
X137248448Y-83281271D01*
X137277778Y-83317009D01*
X137361443Y-83473534D01*
X137412963Y-83643373D01*
X137430359Y-83820000D01*
X137412963Y-83996627D01*
X137361443Y-84166466D01*
X137277778Y-84322991D01*
X137248448Y-84358729D01*
X137165186Y-84460186D01*
X137063729Y-84543448D01*
X137027991Y-84572778D01*
X136871466Y-84656443D01*
X136701627Y-84707963D01*
X136635443Y-84714481D01*
X136569260Y-84721000D01*
X136480740Y-84721000D01*
X136414557Y-84714481D01*
X136348373Y-84707963D01*
X136178534Y-84656443D01*
X136022009Y-84572778D01*
X135986271Y-84543448D01*
X135884814Y-84460186D01*
X135801552Y-84358729D01*
X135772222Y-84322991D01*
X135688557Y-84166466D01*
X135637037Y-83996627D01*
X135619641Y-83820000D01*
X135637037Y-83643373D01*
X135688557Y-83473534D01*
X135772222Y-83317009D01*
X135801552Y-83281271D01*
X135884814Y-83179814D01*
X135986271Y-83096552D01*
X136022009Y-83067222D01*
X136178534Y-82983557D01*
X136348373Y-82932037D01*
X136414557Y-82925519D01*
X136480740Y-82919000D01*
X136569260Y-82919000D01*
X136635443Y-82925519D01*
X136635443Y-82925519D01*
G37*
G36*
X167750443Y-82925519D02*
G01*
X167816627Y-82932037D01*
X167986466Y-82983557D01*
X168142991Y-83067222D01*
X168178729Y-83096552D01*
X168280186Y-83179814D01*
X168363448Y-83281271D01*
X168392778Y-83317009D01*
X168476443Y-83473534D01*
X168527963Y-83643373D01*
X168545359Y-83820000D01*
X168527963Y-83996627D01*
X168476443Y-84166466D01*
X168392778Y-84322991D01*
X168363448Y-84358729D01*
X168280186Y-84460186D01*
X168178729Y-84543448D01*
X168142991Y-84572778D01*
X167986466Y-84656443D01*
X167816627Y-84707963D01*
X167750443Y-84714481D01*
X167684260Y-84721000D01*
X167595740Y-84721000D01*
X167529557Y-84714481D01*
X167463373Y-84707963D01*
X167293534Y-84656443D01*
X167137009Y-84572778D01*
X167101271Y-84543448D01*
X166999814Y-84460186D01*
X166916552Y-84358729D01*
X166887222Y-84322991D01*
X166803557Y-84166466D01*
X166752037Y-83996627D01*
X166734641Y-83820000D01*
X166752037Y-83643373D01*
X166803557Y-83473534D01*
X166887222Y-83317009D01*
X166916552Y-83281271D01*
X166999814Y-83179814D01*
X167101271Y-83096552D01*
X167137009Y-83067222D01*
X167293534Y-82983557D01*
X167463373Y-82932037D01*
X167529557Y-82925519D01*
X167595740Y-82919000D01*
X167684260Y-82919000D01*
X167750443Y-82925519D01*
X167750443Y-82925519D01*
G37*
G36*
X168541000Y-82181000D02*
G01*
X166739000Y-82181000D01*
X166739000Y-80379000D01*
X168541000Y-80379000D01*
X168541000Y-82181000D01*
X168541000Y-82181000D01*
G37*
G36*
X136635442Y-80385518D02*
G01*
X136701627Y-80392037D01*
X136871466Y-80443557D01*
X137027991Y-80527222D01*
X137063729Y-80556552D01*
X137165186Y-80639814D01*
X137248448Y-80741271D01*
X137277778Y-80777009D01*
X137361443Y-80933534D01*
X137412963Y-81103373D01*
X137430359Y-81280000D01*
X137412963Y-81456627D01*
X137361443Y-81626466D01*
X137277778Y-81782991D01*
X137248448Y-81818729D01*
X137165186Y-81920186D01*
X137063729Y-82003448D01*
X137027991Y-82032778D01*
X136871466Y-82116443D01*
X136701627Y-82167963D01*
X136635443Y-82174481D01*
X136569260Y-82181000D01*
X136480740Y-82181000D01*
X136414557Y-82174481D01*
X136348373Y-82167963D01*
X136178534Y-82116443D01*
X136022009Y-82032778D01*
X135986271Y-82003448D01*
X135884814Y-81920186D01*
X135801552Y-81818729D01*
X135772222Y-81782991D01*
X135688557Y-81626466D01*
X135637037Y-81456627D01*
X135619641Y-81280000D01*
X135637037Y-81103373D01*
X135688557Y-80933534D01*
X135772222Y-80777009D01*
X135801552Y-80741271D01*
X135884814Y-80639814D01*
X135986271Y-80556552D01*
X136022009Y-80527222D01*
X136178534Y-80443557D01*
X136348373Y-80392037D01*
X136414558Y-80385518D01*
X136480740Y-80379000D01*
X136569260Y-80379000D01*
X136635442Y-80385518D01*
X136635442Y-80385518D01*
G37*
G36*
X137426000Y-79641000D02*
G01*
X135624000Y-79641000D01*
X135624000Y-77839000D01*
X137426000Y-77839000D01*
X137426000Y-79641000D01*
X137426000Y-79641000D01*
G37*
G36*
X157746000Y-75196000D02*
G01*
X155944000Y-75196000D01*
X155944000Y-73394000D01*
X157746000Y-73394000D01*
X157746000Y-75196000D01*
X157746000Y-75196000D01*
G37*
G36*
X156955442Y-70860518D02*
G01*
X157021627Y-70867037D01*
X157191466Y-70918557D01*
X157347991Y-71002222D01*
X157383729Y-71031552D01*
X157485186Y-71114814D01*
X157568448Y-71216271D01*
X157597778Y-71252009D01*
X157681443Y-71408534D01*
X157732963Y-71578373D01*
X157750359Y-71755000D01*
X157732963Y-71931627D01*
X157681443Y-72101466D01*
X157597778Y-72257991D01*
X157568448Y-72293729D01*
X157485186Y-72395186D01*
X157383729Y-72478448D01*
X157347991Y-72507778D01*
X157191466Y-72591443D01*
X157021627Y-72642963D01*
X156955443Y-72649481D01*
X156889260Y-72656000D01*
X156800740Y-72656000D01*
X156734557Y-72649481D01*
X156668373Y-72642963D01*
X156498534Y-72591443D01*
X156342009Y-72507778D01*
X156306271Y-72478448D01*
X156204814Y-72395186D01*
X156121552Y-72293729D01*
X156092222Y-72257991D01*
X156008557Y-72101466D01*
X155957037Y-71931627D01*
X155939641Y-71755000D01*
X155957037Y-71578373D01*
X156008557Y-71408534D01*
X156092222Y-71252009D01*
X156121552Y-71216271D01*
X156204814Y-71114814D01*
X156306271Y-71031552D01*
X156342009Y-71002222D01*
X156498534Y-70918557D01*
X156668373Y-70867037D01*
X156734558Y-70860518D01*
X156800740Y-70854000D01*
X156889260Y-70854000D01*
X156955442Y-70860518D01*
X156955442Y-70860518D01*
G37*
M02*
