G04 #@! TF.GenerationSoftware,KiCad,Pcbnew,(5.1.4)-1*
G04 #@! TF.CreationDate,2019-11-25T23:53:57+00:00*
G04 #@! TF.ProjectId,KeyPad BCD encoder,4b657950-6164-4204-9243-4420656e636f,rev?*
G04 #@! TF.SameCoordinates,Original*
G04 #@! TF.FileFunction,Legend,Top*
G04 #@! TF.FilePolarity,Positive*
%FSLAX46Y46*%
G04 Gerber Fmt 4.6, Leading zero omitted, Abs format (unit mm)*
G04 Created by KiCad (PCBNEW (5.1.4)-1) date 2019-11-25 23:53:57*
%MOMM*%
%LPD*%
G04 APERTURE LIST*
%ADD10C,0.150000*%
%ADD11C,0.120000*%
G04 APERTURE END LIST*
D10*
X158488571Y-93082142D02*
X158536190Y-92939285D01*
X158583809Y-92891666D01*
X158679047Y-92844047D01*
X158821904Y-92844047D01*
X158917142Y-92891666D01*
X158964761Y-92939285D01*
X159012380Y-93034523D01*
X159012380Y-93415476D01*
X158012380Y-93415476D01*
X158012380Y-93082142D01*
X158060000Y-92986904D01*
X158107619Y-92939285D01*
X158202857Y-92891666D01*
X158298095Y-92891666D01*
X158393333Y-92939285D01*
X158440952Y-92986904D01*
X158488571Y-93082142D01*
X158488571Y-93415476D01*
X158964761Y-92034523D02*
X159012380Y-92129761D01*
X159012380Y-92320238D01*
X158964761Y-92415476D01*
X158869523Y-92463095D01*
X158488571Y-92463095D01*
X158393333Y-92415476D01*
X158345714Y-92320238D01*
X158345714Y-92129761D01*
X158393333Y-92034523D01*
X158488571Y-91986904D01*
X158583809Y-91986904D01*
X158679047Y-92463095D01*
X159012380Y-91129761D02*
X158012380Y-91129761D01*
X158964761Y-91129761D02*
X159012380Y-91225000D01*
X159012380Y-91415476D01*
X158964761Y-91510714D01*
X158917142Y-91558333D01*
X158821904Y-91605952D01*
X158536190Y-91605952D01*
X158440952Y-91558333D01*
X158393333Y-91510714D01*
X158345714Y-91415476D01*
X158345714Y-91225000D01*
X158393333Y-91129761D01*
X159012380Y-90653571D02*
X158345714Y-90653571D01*
X158536190Y-90653571D02*
X158440952Y-90605952D01*
X158393333Y-90558333D01*
X158345714Y-90463095D01*
X158345714Y-90367857D01*
X159012380Y-89891666D02*
X158964761Y-89986904D01*
X158917142Y-90034523D01*
X158821904Y-90082142D01*
X158536190Y-90082142D01*
X158440952Y-90034523D01*
X158393333Y-89986904D01*
X158345714Y-89891666D01*
X158345714Y-89748809D01*
X158393333Y-89653571D01*
X158440952Y-89605952D01*
X158536190Y-89558333D01*
X158821904Y-89558333D01*
X158917142Y-89605952D01*
X158964761Y-89653571D01*
X159012380Y-89748809D01*
X159012380Y-89891666D01*
X158964761Y-88701190D02*
X159012380Y-88796428D01*
X159012380Y-88986904D01*
X158964761Y-89082142D01*
X158917142Y-89129761D01*
X158821904Y-89177380D01*
X158536190Y-89177380D01*
X158440952Y-89129761D01*
X158393333Y-89082142D01*
X158345714Y-88986904D01*
X158345714Y-88796428D01*
X158393333Y-88701190D01*
X159012380Y-88272619D02*
X158012380Y-88272619D01*
X158631428Y-88177380D02*
X159012380Y-87891666D01*
X158345714Y-87891666D02*
X158726666Y-88272619D01*
X158964761Y-86748809D02*
X159012380Y-86605952D01*
X159012380Y-86367857D01*
X158964761Y-86272619D01*
X158917142Y-86225000D01*
X158821904Y-86177380D01*
X158726666Y-86177380D01*
X158631428Y-86225000D01*
X158583809Y-86272619D01*
X158536190Y-86367857D01*
X158488571Y-86558333D01*
X158440952Y-86653571D01*
X158393333Y-86701190D01*
X158298095Y-86748809D01*
X158202857Y-86748809D01*
X158107619Y-86701190D01*
X158060000Y-86653571D01*
X158012380Y-86558333D01*
X158012380Y-86320238D01*
X158060000Y-86177380D01*
X158345714Y-85844047D02*
X159012380Y-85605952D01*
X158345714Y-85367857D02*
X159012380Y-85605952D01*
X159250476Y-85701190D01*
X159298095Y-85748809D01*
X159345714Y-85844047D01*
X158964761Y-85034523D02*
X159012380Y-84939285D01*
X159012380Y-84748809D01*
X158964761Y-84653571D01*
X158869523Y-84605952D01*
X158821904Y-84605952D01*
X158726666Y-84653571D01*
X158679047Y-84748809D01*
X158679047Y-84891666D01*
X158631428Y-84986904D01*
X158536190Y-85034523D01*
X158488571Y-85034523D01*
X158393333Y-84986904D01*
X158345714Y-84891666D01*
X158345714Y-84748809D01*
X158393333Y-84653571D01*
X158345714Y-84320238D02*
X158345714Y-83939285D01*
X158012380Y-84177380D02*
X158869523Y-84177380D01*
X158964761Y-84129761D01*
X159012380Y-84034523D01*
X159012380Y-83939285D01*
X158964761Y-83225000D02*
X159012380Y-83320238D01*
X159012380Y-83510714D01*
X158964761Y-83605952D01*
X158869523Y-83653571D01*
X158488571Y-83653571D01*
X158393333Y-83605952D01*
X158345714Y-83510714D01*
X158345714Y-83320238D01*
X158393333Y-83225000D01*
X158488571Y-83177380D01*
X158583809Y-83177380D01*
X158679047Y-83653571D01*
X159012380Y-82748809D02*
X158345714Y-82748809D01*
X158440952Y-82748809D02*
X158393333Y-82701190D01*
X158345714Y-82605952D01*
X158345714Y-82463095D01*
X158393333Y-82367857D01*
X158488571Y-82320238D01*
X159012380Y-82320238D01*
X158488571Y-82320238D02*
X158393333Y-82272619D01*
X158345714Y-82177380D01*
X158345714Y-82034523D01*
X158393333Y-81939285D01*
X158488571Y-81891666D01*
X159012380Y-81891666D01*
X158964761Y-81463095D02*
X159012380Y-81367857D01*
X159012380Y-81177380D01*
X158964761Y-81082142D01*
X158869523Y-81034523D01*
X158821904Y-81034523D01*
X158726666Y-81082142D01*
X158679047Y-81177380D01*
X158679047Y-81320238D01*
X158631428Y-81415476D01*
X158536190Y-81463095D01*
X158488571Y-81463095D01*
X158393333Y-81415476D01*
X158345714Y-81320238D01*
X158345714Y-81177380D01*
X158393333Y-81082142D01*
X159012380Y-79367857D02*
X159012380Y-79844047D01*
X158012380Y-79844047D01*
X158345714Y-79177380D02*
X158345714Y-78796428D01*
X158012380Y-79034523D02*
X158869523Y-79034523D01*
X158964761Y-78986904D01*
X159012380Y-78891666D01*
X159012380Y-78796428D01*
X159012380Y-78034523D02*
X158012380Y-78034523D01*
X158964761Y-78034523D02*
X159012380Y-78129761D01*
X159012380Y-78320238D01*
X158964761Y-78415476D01*
X158917142Y-78463095D01*
X158821904Y-78510714D01*
X158536190Y-78510714D01*
X158440952Y-78463095D01*
X158393333Y-78415476D01*
X158345714Y-78320238D01*
X158345714Y-78129761D01*
X158393333Y-78034523D01*
X159995714Y-93629761D02*
X160662380Y-93391666D01*
X159995714Y-93153571D01*
X160662380Y-92248809D02*
X160662380Y-92820238D01*
X160662380Y-92534523D02*
X159662380Y-92534523D01*
X159805238Y-92629761D01*
X159900476Y-92725000D01*
X159948095Y-92820238D01*
X160567142Y-91820238D02*
X160614761Y-91772619D01*
X160662380Y-91820238D01*
X160614761Y-91867857D01*
X160567142Y-91820238D01*
X160662380Y-91820238D01*
X159662380Y-91153571D02*
X159662380Y-91058333D01*
X159710000Y-90963095D01*
X159757619Y-90915476D01*
X159852857Y-90867857D01*
X160043333Y-90820238D01*
X160281428Y-90820238D01*
X160471904Y-90867857D01*
X160567142Y-90915476D01*
X160614761Y-90963095D01*
X160662380Y-91058333D01*
X160662380Y-91153571D01*
X160614761Y-91248809D01*
X160567142Y-91296428D01*
X160471904Y-91344047D01*
X160281428Y-91391666D01*
X160043333Y-91391666D01*
X159852857Y-91344047D01*
X159757619Y-91296428D01*
X159710000Y-91248809D01*
X159662380Y-91153571D01*
X159757619Y-88915476D02*
X159710000Y-88867857D01*
X159662380Y-88772619D01*
X159662380Y-88534523D01*
X159710000Y-88439285D01*
X159757619Y-88391666D01*
X159852857Y-88344047D01*
X159948095Y-88344047D01*
X160090952Y-88391666D01*
X160662380Y-88963095D01*
X160662380Y-88344047D01*
X159662380Y-87439285D02*
X159662380Y-87915476D01*
X160138571Y-87963095D01*
X160090952Y-87915476D01*
X160043333Y-87820238D01*
X160043333Y-87582142D01*
X160090952Y-87486904D01*
X160138571Y-87439285D01*
X160233809Y-87391666D01*
X160471904Y-87391666D01*
X160567142Y-87439285D01*
X160614761Y-87486904D01*
X160662380Y-87582142D01*
X160662380Y-87820238D01*
X160614761Y-87915476D01*
X160567142Y-87963095D01*
X159995714Y-87105952D02*
X159995714Y-86725000D01*
X159662380Y-86963095D02*
X160519523Y-86963095D01*
X160614761Y-86915476D01*
X160662380Y-86820238D01*
X160662380Y-86725000D01*
X160662380Y-86391666D02*
X159662380Y-86391666D01*
X160662380Y-85963095D02*
X160138571Y-85963095D01*
X160043333Y-86010714D01*
X159995714Y-86105952D01*
X159995714Y-86248809D01*
X160043333Y-86344047D01*
X160090952Y-86391666D01*
X160662380Y-84725000D02*
X159662380Y-84725000D01*
X160662380Y-84153571D01*
X159662380Y-84153571D01*
X160662380Y-83534523D02*
X160614761Y-83629761D01*
X160567142Y-83677380D01*
X160471904Y-83725000D01*
X160186190Y-83725000D01*
X160090952Y-83677380D01*
X160043333Y-83629761D01*
X159995714Y-83534523D01*
X159995714Y-83391666D01*
X160043333Y-83296428D01*
X160090952Y-83248809D01*
X160186190Y-83201190D01*
X160471904Y-83201190D01*
X160567142Y-83248809D01*
X160614761Y-83296428D01*
X160662380Y-83391666D01*
X160662380Y-83534523D01*
X159995714Y-82867857D02*
X160662380Y-82629761D01*
X159995714Y-82391666D01*
X159757619Y-81296428D02*
X159710000Y-81248809D01*
X159662380Y-81153571D01*
X159662380Y-80915476D01*
X159710000Y-80820238D01*
X159757619Y-80772619D01*
X159852857Y-80725000D01*
X159948095Y-80725000D01*
X160090952Y-80772619D01*
X160662380Y-81344047D01*
X160662380Y-80725000D01*
X159662380Y-80105952D02*
X159662380Y-80010714D01*
X159710000Y-79915476D01*
X159757619Y-79867857D01*
X159852857Y-79820238D01*
X160043333Y-79772619D01*
X160281428Y-79772619D01*
X160471904Y-79820238D01*
X160567142Y-79867857D01*
X160614761Y-79915476D01*
X160662380Y-80010714D01*
X160662380Y-80105952D01*
X160614761Y-80201190D01*
X160567142Y-80248809D01*
X160471904Y-80296428D01*
X160281428Y-80344047D01*
X160043333Y-80344047D01*
X159852857Y-80296428D01*
X159757619Y-80248809D01*
X159710000Y-80201190D01*
X159662380Y-80105952D01*
X160662380Y-78820238D02*
X160662380Y-79391666D01*
X160662380Y-79105952D02*
X159662380Y-79105952D01*
X159805238Y-79201190D01*
X159900476Y-79296428D01*
X159948095Y-79391666D01*
X160662380Y-78344047D02*
X160662380Y-78153571D01*
X160614761Y-78058333D01*
X160567142Y-78010714D01*
X160424285Y-77915476D01*
X160233809Y-77867857D01*
X159852857Y-77867857D01*
X159757619Y-77915476D01*
X159710000Y-77963095D01*
X159662380Y-78058333D01*
X159662380Y-78248809D01*
X159710000Y-78344047D01*
X159757619Y-78391666D01*
X159852857Y-78439285D01*
X160090952Y-78439285D01*
X160186190Y-78391666D01*
X160233809Y-78344047D01*
X160281428Y-78248809D01*
X160281428Y-78058333D01*
X160233809Y-77963095D01*
X160186190Y-77915476D01*
X160090952Y-77867857D01*
X159893095Y-70620000D02*
X159797857Y-70572380D01*
X159655000Y-70572380D01*
X159512142Y-70620000D01*
X159416904Y-70715238D01*
X159369285Y-70810476D01*
X159321666Y-71000952D01*
X159321666Y-71143809D01*
X159369285Y-71334285D01*
X159416904Y-71429523D01*
X159512142Y-71524761D01*
X159655000Y-71572380D01*
X159750238Y-71572380D01*
X159893095Y-71524761D01*
X159940714Y-71477142D01*
X159940714Y-71143809D01*
X159750238Y-71143809D01*
X160369285Y-71572380D02*
X160369285Y-70572380D01*
X160940714Y-71572380D01*
X160940714Y-70572380D01*
X161416904Y-71572380D02*
X161416904Y-70572380D01*
X161655000Y-70572380D01*
X161797857Y-70620000D01*
X161893095Y-70715238D01*
X161940714Y-70810476D01*
X161988333Y-71000952D01*
X161988333Y-71143809D01*
X161940714Y-71334285D01*
X161893095Y-71429523D01*
X161797857Y-71524761D01*
X161655000Y-71572380D01*
X161416904Y-71572380D01*
X158781904Y-74366428D02*
X159543809Y-74366428D01*
X159162857Y-74747380D02*
X159162857Y-73985476D01*
X160496190Y-73747380D02*
X160020000Y-73747380D01*
X159972380Y-74223571D01*
X160020000Y-74175952D01*
X160115238Y-74128333D01*
X160353333Y-74128333D01*
X160448571Y-74175952D01*
X160496190Y-74223571D01*
X160543809Y-74318809D01*
X160543809Y-74556904D01*
X160496190Y-74652142D01*
X160448571Y-74699761D01*
X160353333Y-74747380D01*
X160115238Y-74747380D01*
X160020000Y-74699761D01*
X159972380Y-74652142D01*
X160877142Y-74080714D02*
X161115238Y-74747380D01*
X161353333Y-74080714D01*
X163234761Y-91797142D02*
X163187142Y-91844761D01*
X163044285Y-91892380D01*
X162949047Y-91892380D01*
X162806190Y-91844761D01*
X162710952Y-91749523D01*
X162663333Y-91654285D01*
X162615714Y-91463809D01*
X162615714Y-91320952D01*
X162663333Y-91130476D01*
X162710952Y-91035238D01*
X162806190Y-90940000D01*
X162949047Y-90892380D01*
X163044285Y-90892380D01*
X163187142Y-90940000D01*
X163234761Y-90987619D01*
X164139523Y-91892380D02*
X163663333Y-91892380D01*
X163663333Y-90892380D01*
X164472857Y-91892380D02*
X164472857Y-90892380D01*
X165044285Y-91892380D02*
X164615714Y-91320952D01*
X165044285Y-90892380D02*
X164472857Y-91463809D01*
X162758571Y-89352380D02*
X162758571Y-88352380D01*
X162996666Y-88352380D01*
X163139523Y-88400000D01*
X163234761Y-88495238D01*
X163282380Y-88590476D01*
X163330000Y-88780952D01*
X163330000Y-88923809D01*
X163282380Y-89114285D01*
X163234761Y-89209523D01*
X163139523Y-89304761D01*
X162996666Y-89352380D01*
X162758571Y-89352380D01*
X163710952Y-89066666D02*
X164187142Y-89066666D01*
X163615714Y-89352380D02*
X163949047Y-88352380D01*
X164282380Y-89352380D01*
X164472857Y-88352380D02*
X165044285Y-88352380D01*
X164758571Y-89352380D02*
X164758571Y-88352380D01*
X163068095Y-85860000D02*
X162972857Y-85812380D01*
X162830000Y-85812380D01*
X162687142Y-85860000D01*
X162591904Y-85955238D01*
X162544285Y-86050476D01*
X162496666Y-86240952D01*
X162496666Y-86383809D01*
X162544285Y-86574285D01*
X162591904Y-86669523D01*
X162687142Y-86764761D01*
X162830000Y-86812380D01*
X162925238Y-86812380D01*
X163068095Y-86764761D01*
X163115714Y-86717142D01*
X163115714Y-86383809D01*
X162925238Y-86383809D01*
X163544285Y-86812380D02*
X163544285Y-85812380D01*
X164115714Y-86812380D01*
X164115714Y-85812380D01*
X164591904Y-86812380D02*
X164591904Y-85812380D01*
X164830000Y-85812380D01*
X164972857Y-85860000D01*
X165068095Y-85955238D01*
X165115714Y-86050476D01*
X165163333Y-86240952D01*
X165163333Y-86383809D01*
X165115714Y-86574285D01*
X165068095Y-86669523D01*
X164972857Y-86764761D01*
X164830000Y-86812380D01*
X164591904Y-86812380D01*
X162496666Y-83272380D02*
X162830000Y-84272380D01*
X163163333Y-83272380D01*
X163496666Y-84272380D02*
X163496666Y-83272380D01*
X163734761Y-83272380D01*
X163877619Y-83320000D01*
X163972857Y-83415238D01*
X164020476Y-83510476D01*
X164068095Y-83700952D01*
X164068095Y-83843809D01*
X164020476Y-84034285D01*
X163972857Y-84129523D01*
X163877619Y-84224761D01*
X163734761Y-84272380D01*
X163496666Y-84272380D01*
X164496666Y-84272380D02*
X164496666Y-83272380D01*
X164734761Y-83272380D01*
X164877619Y-83320000D01*
X164972857Y-83415238D01*
X165020476Y-83510476D01*
X165068095Y-83700952D01*
X165068095Y-83843809D01*
X165020476Y-84034285D01*
X164972857Y-84129523D01*
X164877619Y-84224761D01*
X164734761Y-84272380D01*
X164496666Y-84272380D01*
X162496666Y-80732380D02*
X162830000Y-81732380D01*
X163163333Y-80732380D01*
X163496666Y-81732380D02*
X163496666Y-80732380D01*
X163877619Y-80732380D01*
X163972857Y-80780000D01*
X164020476Y-80827619D01*
X164068095Y-80922857D01*
X164068095Y-81065714D01*
X164020476Y-81160952D01*
X163972857Y-81208571D01*
X163877619Y-81256190D01*
X163496666Y-81256190D01*
X164496666Y-81732380D02*
X164496666Y-80732380D01*
X164877619Y-80732380D01*
X164972857Y-80780000D01*
X165020476Y-80827619D01*
X165068095Y-80922857D01*
X165068095Y-81065714D01*
X165020476Y-81160952D01*
X164972857Y-81208571D01*
X164877619Y-81256190D01*
X164496666Y-81256190D01*
X138922380Y-93432380D02*
X138922380Y-94241904D01*
X138970000Y-94337142D01*
X139017619Y-94384761D01*
X139112857Y-94432380D01*
X139303333Y-94432380D01*
X139398571Y-94384761D01*
X139446190Y-94337142D01*
X139493809Y-94241904D01*
X139493809Y-93432380D01*
X140398571Y-93765714D02*
X140398571Y-94432380D01*
X140160476Y-93384761D02*
X139922380Y-94099047D01*
X140541428Y-94099047D01*
X140684285Y-94527619D02*
X141446190Y-94527619D01*
X142160476Y-94432380D02*
X141684285Y-94432380D01*
X141684285Y-93432380D01*
X142493809Y-94432380D02*
X142493809Y-93432380D01*
X142731904Y-93432380D01*
X142874761Y-93480000D01*
X142970000Y-93575238D01*
X143017619Y-93670476D01*
X143065238Y-93860952D01*
X143065238Y-94003809D01*
X143017619Y-94194285D01*
X142970000Y-94289523D01*
X142874761Y-94384761D01*
X142731904Y-94432380D01*
X142493809Y-94432380D01*
X138922380Y-90892380D02*
X138922380Y-91701904D01*
X138970000Y-91797142D01*
X139017619Y-91844761D01*
X139112857Y-91892380D01*
X139303333Y-91892380D01*
X139398571Y-91844761D01*
X139446190Y-91797142D01*
X139493809Y-91701904D01*
X139493809Y-90892380D01*
X139874761Y-90892380D02*
X140493809Y-90892380D01*
X140160476Y-91273333D01*
X140303333Y-91273333D01*
X140398571Y-91320952D01*
X140446190Y-91368571D01*
X140493809Y-91463809D01*
X140493809Y-91701904D01*
X140446190Y-91797142D01*
X140398571Y-91844761D01*
X140303333Y-91892380D01*
X140017619Y-91892380D01*
X139922380Y-91844761D01*
X139874761Y-91797142D01*
X140684285Y-91987619D02*
X141446190Y-91987619D01*
X142160476Y-91892380D02*
X141684285Y-91892380D01*
X141684285Y-90892380D01*
X142493809Y-91892380D02*
X142493809Y-90892380D01*
X142731904Y-90892380D01*
X142874761Y-90940000D01*
X142970000Y-91035238D01*
X143017619Y-91130476D01*
X143065238Y-91320952D01*
X143065238Y-91463809D01*
X143017619Y-91654285D01*
X142970000Y-91749523D01*
X142874761Y-91844761D01*
X142731904Y-91892380D01*
X142493809Y-91892380D01*
X138922380Y-88352380D02*
X138922380Y-89161904D01*
X138970000Y-89257142D01*
X139017619Y-89304761D01*
X139112857Y-89352380D01*
X139303333Y-89352380D01*
X139398571Y-89304761D01*
X139446190Y-89257142D01*
X139493809Y-89161904D01*
X139493809Y-88352380D01*
X139922380Y-88447619D02*
X139970000Y-88400000D01*
X140065238Y-88352380D01*
X140303333Y-88352380D01*
X140398571Y-88400000D01*
X140446190Y-88447619D01*
X140493809Y-88542857D01*
X140493809Y-88638095D01*
X140446190Y-88780952D01*
X139874761Y-89352380D01*
X140493809Y-89352380D01*
X140684285Y-89447619D02*
X141446190Y-89447619D01*
X142160476Y-89352380D02*
X141684285Y-89352380D01*
X141684285Y-88352380D01*
X142493809Y-89352380D02*
X142493809Y-88352380D01*
X142731904Y-88352380D01*
X142874761Y-88400000D01*
X142970000Y-88495238D01*
X143017619Y-88590476D01*
X143065238Y-88780952D01*
X143065238Y-88923809D01*
X143017619Y-89114285D01*
X142970000Y-89209523D01*
X142874761Y-89304761D01*
X142731904Y-89352380D01*
X142493809Y-89352380D01*
X140803333Y-86812380D02*
X140327142Y-86812380D01*
X140327142Y-85812380D01*
X141279523Y-86240952D02*
X141184285Y-86193333D01*
X141136666Y-86145714D01*
X141089047Y-86050476D01*
X141089047Y-86002857D01*
X141136666Y-85907619D01*
X141184285Y-85860000D01*
X141279523Y-85812380D01*
X141470000Y-85812380D01*
X141565238Y-85860000D01*
X141612857Y-85907619D01*
X141660476Y-86002857D01*
X141660476Y-86050476D01*
X141612857Y-86145714D01*
X141565238Y-86193333D01*
X141470000Y-86240952D01*
X141279523Y-86240952D01*
X141184285Y-86288571D01*
X141136666Y-86336190D01*
X141089047Y-86431428D01*
X141089047Y-86621904D01*
X141136666Y-86717142D01*
X141184285Y-86764761D01*
X141279523Y-86812380D01*
X141470000Y-86812380D01*
X141565238Y-86764761D01*
X141612857Y-86717142D01*
X141660476Y-86621904D01*
X141660476Y-86431428D01*
X141612857Y-86336190D01*
X141565238Y-86288571D01*
X141470000Y-86240952D01*
X140803333Y-84272380D02*
X140327142Y-84272380D01*
X140327142Y-83272380D01*
X141565238Y-83605714D02*
X141565238Y-84272380D01*
X141327142Y-83224761D02*
X141089047Y-83939047D01*
X141708095Y-83939047D01*
X140803333Y-81732380D02*
X140327142Y-81732380D01*
X140327142Y-80732380D01*
X141089047Y-80827619D02*
X141136666Y-80780000D01*
X141231904Y-80732380D01*
X141470000Y-80732380D01*
X141565238Y-80780000D01*
X141612857Y-80827619D01*
X141660476Y-80922857D01*
X141660476Y-81018095D01*
X141612857Y-81160952D01*
X141041428Y-81732380D01*
X141660476Y-81732380D01*
X140803333Y-79192380D02*
X140327142Y-79192380D01*
X140327142Y-78192380D01*
X141660476Y-79192380D02*
X141089047Y-79192380D01*
X141374761Y-79192380D02*
X141374761Y-78192380D01*
X141279523Y-78335238D01*
X141184285Y-78430476D01*
X141089047Y-78478095D01*
X144597380Y-107822857D02*
X144121190Y-108156190D01*
X144597380Y-108394285D02*
X143597380Y-108394285D01*
X143597380Y-108013333D01*
X143645000Y-107918095D01*
X143692619Y-107870476D01*
X143787857Y-107822857D01*
X143930714Y-107822857D01*
X144025952Y-107870476D01*
X144073571Y-107918095D01*
X144121190Y-108013333D01*
X144121190Y-108394285D01*
X144597380Y-107251428D02*
X144549761Y-107346666D01*
X144502142Y-107394285D01*
X144406904Y-107441904D01*
X144121190Y-107441904D01*
X144025952Y-107394285D01*
X143978333Y-107346666D01*
X143930714Y-107251428D01*
X143930714Y-107108571D01*
X143978333Y-107013333D01*
X144025952Y-106965714D01*
X144121190Y-106918095D01*
X144406904Y-106918095D01*
X144502142Y-106965714D01*
X144549761Y-107013333D01*
X144597380Y-107108571D01*
X144597380Y-107251428D01*
X143930714Y-106584761D02*
X144597380Y-106394285D01*
X144121190Y-106203809D01*
X144597380Y-106013333D01*
X143930714Y-105822857D01*
X143692619Y-105489523D02*
X143645000Y-105441904D01*
X143597380Y-105346666D01*
X143597380Y-105108571D01*
X143645000Y-105013333D01*
X143692619Y-104965714D01*
X143787857Y-104918095D01*
X143883095Y-104918095D01*
X144025952Y-104965714D01*
X144597380Y-105537142D01*
X144597380Y-104918095D01*
X147137380Y-107822857D02*
X146661190Y-108156190D01*
X147137380Y-108394285D02*
X146137380Y-108394285D01*
X146137380Y-108013333D01*
X146185000Y-107918095D01*
X146232619Y-107870476D01*
X146327857Y-107822857D01*
X146470714Y-107822857D01*
X146565952Y-107870476D01*
X146613571Y-107918095D01*
X146661190Y-108013333D01*
X146661190Y-108394285D01*
X147137380Y-107251428D02*
X147089761Y-107346666D01*
X147042142Y-107394285D01*
X146946904Y-107441904D01*
X146661190Y-107441904D01*
X146565952Y-107394285D01*
X146518333Y-107346666D01*
X146470714Y-107251428D01*
X146470714Y-107108571D01*
X146518333Y-107013333D01*
X146565952Y-106965714D01*
X146661190Y-106918095D01*
X146946904Y-106918095D01*
X147042142Y-106965714D01*
X147089761Y-107013333D01*
X147137380Y-107108571D01*
X147137380Y-107251428D01*
X146470714Y-106584761D02*
X147137380Y-106394285D01*
X146661190Y-106203809D01*
X147137380Y-106013333D01*
X146470714Y-105822857D01*
X146137380Y-105537142D02*
X146137380Y-104918095D01*
X146518333Y-105251428D01*
X146518333Y-105108571D01*
X146565952Y-105013333D01*
X146613571Y-104965714D01*
X146708809Y-104918095D01*
X146946904Y-104918095D01*
X147042142Y-104965714D01*
X147089761Y-105013333D01*
X147137380Y-105108571D01*
X147137380Y-105394285D01*
X147089761Y-105489523D01*
X147042142Y-105537142D01*
X149582142Y-107560952D02*
X149629761Y-107608571D01*
X149677380Y-107751428D01*
X149677380Y-107846666D01*
X149629761Y-107989523D01*
X149534523Y-108084761D01*
X149439285Y-108132380D01*
X149248809Y-108180000D01*
X149105952Y-108180000D01*
X148915476Y-108132380D01*
X148820238Y-108084761D01*
X148725000Y-107989523D01*
X148677380Y-107846666D01*
X148677380Y-107751428D01*
X148725000Y-107608571D01*
X148772619Y-107560952D01*
X149677380Y-106989523D02*
X149629761Y-107084761D01*
X149582142Y-107132380D01*
X149486904Y-107180000D01*
X149201190Y-107180000D01*
X149105952Y-107132380D01*
X149058333Y-107084761D01*
X149010714Y-106989523D01*
X149010714Y-106846666D01*
X149058333Y-106751428D01*
X149105952Y-106703809D01*
X149201190Y-106656190D01*
X149486904Y-106656190D01*
X149582142Y-106703809D01*
X149629761Y-106751428D01*
X149677380Y-106846666D01*
X149677380Y-106989523D01*
X149677380Y-106084761D02*
X149629761Y-106180000D01*
X149534523Y-106227619D01*
X148677380Y-106227619D01*
X148677380Y-105799047D02*
X148677380Y-105180000D01*
X149058333Y-105513333D01*
X149058333Y-105370476D01*
X149105952Y-105275238D01*
X149153571Y-105227619D01*
X149248809Y-105180000D01*
X149486904Y-105180000D01*
X149582142Y-105227619D01*
X149629761Y-105275238D01*
X149677380Y-105370476D01*
X149677380Y-105656190D01*
X149629761Y-105751428D01*
X149582142Y-105799047D01*
X152217380Y-107822857D02*
X151741190Y-108156190D01*
X152217380Y-108394285D02*
X151217380Y-108394285D01*
X151217380Y-108013333D01*
X151265000Y-107918095D01*
X151312619Y-107870476D01*
X151407857Y-107822857D01*
X151550714Y-107822857D01*
X151645952Y-107870476D01*
X151693571Y-107918095D01*
X151741190Y-108013333D01*
X151741190Y-108394285D01*
X152217380Y-107251428D02*
X152169761Y-107346666D01*
X152122142Y-107394285D01*
X152026904Y-107441904D01*
X151741190Y-107441904D01*
X151645952Y-107394285D01*
X151598333Y-107346666D01*
X151550714Y-107251428D01*
X151550714Y-107108571D01*
X151598333Y-107013333D01*
X151645952Y-106965714D01*
X151741190Y-106918095D01*
X152026904Y-106918095D01*
X152122142Y-106965714D01*
X152169761Y-107013333D01*
X152217380Y-107108571D01*
X152217380Y-107251428D01*
X151550714Y-106584761D02*
X152217380Y-106394285D01*
X151741190Y-106203809D01*
X152217380Y-106013333D01*
X151550714Y-105822857D01*
X151550714Y-105013333D02*
X152217380Y-105013333D01*
X151169761Y-105251428D02*
X151884047Y-105489523D01*
X151884047Y-104870476D01*
X154662142Y-107560952D02*
X154709761Y-107608571D01*
X154757380Y-107751428D01*
X154757380Y-107846666D01*
X154709761Y-107989523D01*
X154614523Y-108084761D01*
X154519285Y-108132380D01*
X154328809Y-108180000D01*
X154185952Y-108180000D01*
X153995476Y-108132380D01*
X153900238Y-108084761D01*
X153805000Y-107989523D01*
X153757380Y-107846666D01*
X153757380Y-107751428D01*
X153805000Y-107608571D01*
X153852619Y-107560952D01*
X154757380Y-106989523D02*
X154709761Y-107084761D01*
X154662142Y-107132380D01*
X154566904Y-107180000D01*
X154281190Y-107180000D01*
X154185952Y-107132380D01*
X154138333Y-107084761D01*
X154090714Y-106989523D01*
X154090714Y-106846666D01*
X154138333Y-106751428D01*
X154185952Y-106703809D01*
X154281190Y-106656190D01*
X154566904Y-106656190D01*
X154662142Y-106703809D01*
X154709761Y-106751428D01*
X154757380Y-106846666D01*
X154757380Y-106989523D01*
X154757380Y-106084761D02*
X154709761Y-106180000D01*
X154614523Y-106227619D01*
X153757380Y-106227619D01*
X154757380Y-105180000D02*
X154757380Y-105751428D01*
X154757380Y-105465714D02*
X153757380Y-105465714D01*
X153900238Y-105560952D01*
X153995476Y-105656190D01*
X154043095Y-105751428D01*
X157297380Y-107822857D02*
X156821190Y-108156190D01*
X157297380Y-108394285D02*
X156297380Y-108394285D01*
X156297380Y-108013333D01*
X156345000Y-107918095D01*
X156392619Y-107870476D01*
X156487857Y-107822857D01*
X156630714Y-107822857D01*
X156725952Y-107870476D01*
X156773571Y-107918095D01*
X156821190Y-108013333D01*
X156821190Y-108394285D01*
X157297380Y-107251428D02*
X157249761Y-107346666D01*
X157202142Y-107394285D01*
X157106904Y-107441904D01*
X156821190Y-107441904D01*
X156725952Y-107394285D01*
X156678333Y-107346666D01*
X156630714Y-107251428D01*
X156630714Y-107108571D01*
X156678333Y-107013333D01*
X156725952Y-106965714D01*
X156821190Y-106918095D01*
X157106904Y-106918095D01*
X157202142Y-106965714D01*
X157249761Y-107013333D01*
X157297380Y-107108571D01*
X157297380Y-107251428D01*
X156630714Y-106584761D02*
X157297380Y-106394285D01*
X156821190Y-106203809D01*
X157297380Y-106013333D01*
X156630714Y-105822857D01*
X157297380Y-104918095D02*
X157297380Y-105489523D01*
X157297380Y-105203809D02*
X156297380Y-105203809D01*
X156440238Y-105299047D01*
X156535476Y-105394285D01*
X156583095Y-105489523D01*
X160377142Y-107560952D02*
X160424761Y-107608571D01*
X160472380Y-107751428D01*
X160472380Y-107846666D01*
X160424761Y-107989523D01*
X160329523Y-108084761D01*
X160234285Y-108132380D01*
X160043809Y-108180000D01*
X159900952Y-108180000D01*
X159710476Y-108132380D01*
X159615238Y-108084761D01*
X159520000Y-107989523D01*
X159472380Y-107846666D01*
X159472380Y-107751428D01*
X159520000Y-107608571D01*
X159567619Y-107560952D01*
X160472380Y-106989523D02*
X160424761Y-107084761D01*
X160377142Y-107132380D01*
X160281904Y-107180000D01*
X159996190Y-107180000D01*
X159900952Y-107132380D01*
X159853333Y-107084761D01*
X159805714Y-106989523D01*
X159805714Y-106846666D01*
X159853333Y-106751428D01*
X159900952Y-106703809D01*
X159996190Y-106656190D01*
X160281904Y-106656190D01*
X160377142Y-106703809D01*
X160424761Y-106751428D01*
X160472380Y-106846666D01*
X160472380Y-106989523D01*
X160472380Y-106084761D02*
X160424761Y-106180000D01*
X160329523Y-106227619D01*
X159472380Y-106227619D01*
X159567619Y-105751428D02*
X159520000Y-105703809D01*
X159472380Y-105608571D01*
X159472380Y-105370476D01*
X159520000Y-105275238D01*
X159567619Y-105227619D01*
X159662857Y-105180000D01*
X159758095Y-105180000D01*
X159900952Y-105227619D01*
X160472380Y-105799047D01*
X160472380Y-105180000D01*
D11*
X160638748Y-97230000D02*
X161161252Y-97230000D01*
X160638748Y-95810000D02*
X161161252Y-95810000D01*
X151781252Y-95175000D02*
X151258748Y-95175000D01*
X151781252Y-96595000D02*
X151258748Y-96595000D01*
X144855000Y-98051252D02*
X144855000Y-97528748D01*
X143435000Y-98051252D02*
X143435000Y-97528748D01*
X158175000Y-75625000D02*
X156845000Y-75625000D01*
X158175000Y-74295000D02*
X158175000Y-75625000D01*
X158175000Y-73025000D02*
X155515000Y-73025000D01*
X155515000Y-73025000D02*
X155515000Y-70425000D01*
X158175000Y-73025000D02*
X158175000Y-70425000D01*
X158175000Y-70425000D02*
X155515000Y-70425000D01*
X166310000Y-79950000D02*
X167640000Y-79950000D01*
X166310000Y-81280000D02*
X166310000Y-79950000D01*
X166310000Y-82550000D02*
X168970000Y-82550000D01*
X168970000Y-82550000D02*
X168970000Y-92770000D01*
X166310000Y-82550000D02*
X166310000Y-92770000D01*
X166310000Y-92770000D02*
X168970000Y-92770000D01*
X160715000Y-101540000D02*
X160715000Y-102870000D01*
X159385000Y-101540000D02*
X160715000Y-101540000D01*
X158115000Y-101540000D02*
X158115000Y-104200000D01*
X158115000Y-104200000D02*
X142815000Y-104200000D01*
X158115000Y-101540000D02*
X142815000Y-101540000D01*
X142815000Y-101540000D02*
X142815000Y-104200000D01*
X135195000Y-77410000D02*
X136525000Y-77410000D01*
X135195000Y-78740000D02*
X135195000Y-77410000D01*
X135195000Y-80010000D02*
X137855000Y-80010000D01*
X137855000Y-80010000D02*
X137855000Y-95310000D01*
X135195000Y-80010000D02*
X135195000Y-95310000D01*
X135195000Y-95310000D02*
X137855000Y-95310000D01*
X147270000Y-80085000D02*
X145455000Y-80085000D01*
X147270000Y-79840000D02*
X147270000Y-80085000D01*
X151130000Y-79840000D02*
X147270000Y-79840000D01*
X154990000Y-79840000D02*
X154990000Y-80085000D01*
X151130000Y-79840000D02*
X154990000Y-79840000D01*
X147270000Y-91610000D02*
X147270000Y-91365000D01*
X151130000Y-91610000D02*
X147270000Y-91610000D01*
X154990000Y-91610000D02*
X154990000Y-91365000D01*
X151130000Y-91610000D02*
X154990000Y-91610000D01*
X149675436Y-75840000D02*
X150879564Y-75840000D01*
X149675436Y-74020000D02*
X150879564Y-74020000D01*
X149675436Y-72030000D02*
X150879564Y-72030000D01*
X149675436Y-70210000D02*
X150879564Y-70210000D01*
D10*
X160733333Y-95322380D02*
X160400000Y-94846190D01*
X160161904Y-95322380D02*
X160161904Y-94322380D01*
X160542857Y-94322380D01*
X160638095Y-94370000D01*
X160685714Y-94417619D01*
X160733333Y-94512857D01*
X160733333Y-94655714D01*
X160685714Y-94750952D01*
X160638095Y-94798571D01*
X160542857Y-94846190D01*
X160161904Y-94846190D01*
X161066666Y-94322380D02*
X161685714Y-94322380D01*
X161352380Y-94703333D01*
X161495238Y-94703333D01*
X161590476Y-94750952D01*
X161638095Y-94798571D01*
X161685714Y-94893809D01*
X161685714Y-95131904D01*
X161638095Y-95227142D01*
X161590476Y-95274761D01*
X161495238Y-95322380D01*
X161209523Y-95322380D01*
X161114285Y-95274761D01*
X161066666Y-95227142D01*
X151353333Y-97987380D02*
X151020000Y-97511190D01*
X150781904Y-97987380D02*
X150781904Y-96987380D01*
X151162857Y-96987380D01*
X151258095Y-97035000D01*
X151305714Y-97082619D01*
X151353333Y-97177857D01*
X151353333Y-97320714D01*
X151305714Y-97415952D01*
X151258095Y-97463571D01*
X151162857Y-97511190D01*
X150781904Y-97511190D01*
X151734285Y-97082619D02*
X151781904Y-97035000D01*
X151877142Y-96987380D01*
X152115238Y-96987380D01*
X152210476Y-97035000D01*
X152258095Y-97082619D01*
X152305714Y-97177857D01*
X152305714Y-97273095D01*
X152258095Y-97415952D01*
X151686666Y-97987380D01*
X152305714Y-97987380D01*
X142947380Y-97956666D02*
X142471190Y-98290000D01*
X142947380Y-98528095D02*
X141947380Y-98528095D01*
X141947380Y-98147142D01*
X141995000Y-98051904D01*
X142042619Y-98004285D01*
X142137857Y-97956666D01*
X142280714Y-97956666D01*
X142375952Y-98004285D01*
X142423571Y-98051904D01*
X142471190Y-98147142D01*
X142471190Y-98528095D01*
X142947380Y-97004285D02*
X142947380Y-97575714D01*
X142947380Y-97290000D02*
X141947380Y-97290000D01*
X142090238Y-97385238D01*
X142185476Y-97480476D01*
X142233095Y-97575714D01*
X156511666Y-76077380D02*
X156511666Y-76791666D01*
X156464047Y-76934523D01*
X156368809Y-77029761D01*
X156225952Y-77077380D01*
X156130714Y-77077380D01*
X157416428Y-76410714D02*
X157416428Y-77077380D01*
X157178333Y-76029761D02*
X156940238Y-76744047D01*
X157559285Y-76744047D01*
X163647380Y-75001190D02*
X162647380Y-75001190D01*
X162647380Y-74620238D01*
X162695000Y-74525000D01*
X162742619Y-74477380D01*
X162837857Y-74429761D01*
X162980714Y-74429761D01*
X163075952Y-74477380D01*
X163123571Y-74525000D01*
X163171190Y-74620238D01*
X163171190Y-75001190D01*
X163647380Y-73858333D02*
X163599761Y-73953571D01*
X163552142Y-74001190D01*
X163456904Y-74048809D01*
X163171190Y-74048809D01*
X163075952Y-74001190D01*
X163028333Y-73953571D01*
X162980714Y-73858333D01*
X162980714Y-73715476D01*
X163028333Y-73620238D01*
X163075952Y-73572619D01*
X163171190Y-73525000D01*
X163456904Y-73525000D01*
X163552142Y-73572619D01*
X163599761Y-73620238D01*
X163647380Y-73715476D01*
X163647380Y-73858333D01*
X162980714Y-73191666D02*
X163647380Y-73001190D01*
X163171190Y-72810714D01*
X163647380Y-72620238D01*
X162980714Y-72429761D01*
X163599761Y-71667857D02*
X163647380Y-71763095D01*
X163647380Y-71953571D01*
X163599761Y-72048809D01*
X163504523Y-72096428D01*
X163123571Y-72096428D01*
X163028333Y-72048809D01*
X162980714Y-71953571D01*
X162980714Y-71763095D01*
X163028333Y-71667857D01*
X163123571Y-71620238D01*
X163218809Y-71620238D01*
X163314047Y-72096428D01*
X163647380Y-71191666D02*
X162980714Y-71191666D01*
X163171190Y-71191666D02*
X163075952Y-71144047D01*
X163028333Y-71096428D01*
X162980714Y-71001190D01*
X162980714Y-70905952D01*
X167306666Y-78402380D02*
X167306666Y-79116666D01*
X167259047Y-79259523D01*
X167163809Y-79354761D01*
X167020952Y-79402380D01*
X166925714Y-79402380D01*
X167687619Y-78402380D02*
X168306666Y-78402380D01*
X167973333Y-78783333D01*
X168116190Y-78783333D01*
X168211428Y-78830952D01*
X168259047Y-78878571D01*
X168306666Y-78973809D01*
X168306666Y-79211904D01*
X168259047Y-79307142D01*
X168211428Y-79354761D01*
X168116190Y-79402380D01*
X167830476Y-79402380D01*
X167735238Y-79354761D01*
X167687619Y-79307142D01*
X166163809Y-94432380D02*
X166163809Y-93432380D01*
X167211428Y-94337142D02*
X167163809Y-94384761D01*
X167020952Y-94432380D01*
X166925714Y-94432380D01*
X166782857Y-94384761D01*
X166687619Y-94289523D01*
X166640000Y-94194285D01*
X166592380Y-94003809D01*
X166592380Y-93860952D01*
X166640000Y-93670476D01*
X166687619Y-93575238D01*
X166782857Y-93480000D01*
X166925714Y-93432380D01*
X167020952Y-93432380D01*
X167163809Y-93480000D01*
X167211428Y-93527619D01*
X167592380Y-94384761D02*
X167735238Y-94432380D01*
X167973333Y-94432380D01*
X168068571Y-94384761D01*
X168116190Y-94337142D01*
X168163809Y-94241904D01*
X168163809Y-94146666D01*
X168116190Y-94051428D01*
X168068571Y-94003809D01*
X167973333Y-93956190D01*
X167782857Y-93908571D01*
X167687619Y-93860952D01*
X167640000Y-93813333D01*
X167592380Y-93718095D01*
X167592380Y-93622857D01*
X167640000Y-93527619D01*
X167687619Y-93480000D01*
X167782857Y-93432380D01*
X168020952Y-93432380D01*
X168163809Y-93480000D01*
X168592380Y-94432380D02*
X168592380Y-93432380D01*
X168973333Y-93432380D01*
X169068571Y-93480000D01*
X169116190Y-93527619D01*
X169163809Y-93622857D01*
X169163809Y-93765714D01*
X169116190Y-93860952D01*
X169068571Y-93908571D01*
X168973333Y-93956190D01*
X168592380Y-93956190D01*
X161377380Y-103203333D02*
X162091666Y-103203333D01*
X162234523Y-103250952D01*
X162329761Y-103346190D01*
X162377380Y-103489047D01*
X162377380Y-103584285D01*
X161472619Y-102774761D02*
X161425000Y-102727142D01*
X161377380Y-102631904D01*
X161377380Y-102393809D01*
X161425000Y-102298571D01*
X161472619Y-102250952D01*
X161567857Y-102203333D01*
X161663095Y-102203333D01*
X161805952Y-102250952D01*
X162377380Y-102822380D01*
X162377380Y-102203333D01*
X147829047Y-100782380D02*
X147829047Y-99782380D01*
X148400476Y-100782380D02*
X147971904Y-100210952D01*
X148400476Y-99782380D02*
X147829047Y-100353809D01*
X149210000Y-100734761D02*
X149114761Y-100782380D01*
X148924285Y-100782380D01*
X148829047Y-100734761D01*
X148781428Y-100639523D01*
X148781428Y-100258571D01*
X148829047Y-100163333D01*
X148924285Y-100115714D01*
X149114761Y-100115714D01*
X149210000Y-100163333D01*
X149257619Y-100258571D01*
X149257619Y-100353809D01*
X148781428Y-100449047D01*
X149590952Y-100115714D02*
X149829047Y-100782380D01*
X150067142Y-100115714D02*
X149829047Y-100782380D01*
X149733809Y-101020476D01*
X149686190Y-101068095D01*
X149590952Y-101115714D01*
X150448095Y-100782380D02*
X150448095Y-99782380D01*
X150829047Y-99782380D01*
X150924285Y-99830000D01*
X150971904Y-99877619D01*
X151019523Y-99972857D01*
X151019523Y-100115714D01*
X150971904Y-100210952D01*
X150924285Y-100258571D01*
X150829047Y-100306190D01*
X150448095Y-100306190D01*
X151876666Y-100782380D02*
X151876666Y-100258571D01*
X151829047Y-100163333D01*
X151733809Y-100115714D01*
X151543333Y-100115714D01*
X151448095Y-100163333D01*
X151876666Y-100734761D02*
X151781428Y-100782380D01*
X151543333Y-100782380D01*
X151448095Y-100734761D01*
X151400476Y-100639523D01*
X151400476Y-100544285D01*
X151448095Y-100449047D01*
X151543333Y-100401428D01*
X151781428Y-100401428D01*
X151876666Y-100353809D01*
X152781428Y-100782380D02*
X152781428Y-99782380D01*
X152781428Y-100734761D02*
X152686190Y-100782380D01*
X152495714Y-100782380D01*
X152400476Y-100734761D01*
X152352857Y-100687142D01*
X152305238Y-100591904D01*
X152305238Y-100306190D01*
X152352857Y-100210952D01*
X152400476Y-100163333D01*
X152495714Y-100115714D01*
X152686190Y-100115714D01*
X152781428Y-100163333D01*
X154019523Y-100782380D02*
X154019523Y-99782380D01*
X154352857Y-100496666D01*
X154686190Y-99782380D01*
X154686190Y-100782380D01*
X155733809Y-100687142D02*
X155686190Y-100734761D01*
X155543333Y-100782380D01*
X155448095Y-100782380D01*
X155305238Y-100734761D01*
X155210000Y-100639523D01*
X155162380Y-100544285D01*
X155114761Y-100353809D01*
X155114761Y-100210952D01*
X155162380Y-100020476D01*
X155210000Y-99925238D01*
X155305238Y-99830000D01*
X155448095Y-99782380D01*
X155543333Y-99782380D01*
X155686190Y-99830000D01*
X155733809Y-99877619D01*
X156114761Y-100496666D02*
X156590952Y-100496666D01*
X156019523Y-100782380D02*
X156352857Y-99782380D01*
X156686190Y-100782380D01*
X157019523Y-100782380D02*
X157019523Y-99782380D01*
X157590952Y-100782380D02*
X157162380Y-100210952D01*
X157590952Y-99782380D02*
X157019523Y-100353809D01*
X157924285Y-99782380D02*
X158543333Y-99782380D01*
X158210000Y-100163333D01*
X158352857Y-100163333D01*
X158448095Y-100210952D01*
X158495714Y-100258571D01*
X158543333Y-100353809D01*
X158543333Y-100591904D01*
X158495714Y-100687142D01*
X158448095Y-100734761D01*
X158352857Y-100782380D01*
X158067142Y-100782380D01*
X157971904Y-100734761D01*
X157924285Y-100687142D01*
X159162380Y-99782380D02*
X159257619Y-99782380D01*
X159352857Y-99830000D01*
X159400476Y-99877619D01*
X159448095Y-99972857D01*
X159495714Y-100163333D01*
X159495714Y-100401428D01*
X159448095Y-100591904D01*
X159400476Y-100687142D01*
X159352857Y-100734761D01*
X159257619Y-100782380D01*
X159162380Y-100782380D01*
X159067142Y-100734761D01*
X159019523Y-100687142D01*
X158971904Y-100591904D01*
X158924285Y-100401428D01*
X158924285Y-100163333D01*
X158971904Y-99972857D01*
X159019523Y-99877619D01*
X159067142Y-99830000D01*
X159162380Y-99782380D01*
X160352857Y-100115714D02*
X160352857Y-100782380D01*
X160114761Y-99734761D02*
X159876666Y-100449047D01*
X160495714Y-100449047D01*
X160876666Y-100782380D02*
X160876666Y-99782380D01*
X161448095Y-100782380D01*
X161448095Y-99782380D01*
X162257619Y-100258571D02*
X162400476Y-100306190D01*
X162448095Y-100353809D01*
X162495714Y-100449047D01*
X162495714Y-100591904D01*
X162448095Y-100687142D01*
X162400476Y-100734761D01*
X162305238Y-100782380D01*
X161924285Y-100782380D01*
X161924285Y-99782380D01*
X162257619Y-99782380D01*
X162352857Y-99830000D01*
X162400476Y-99877619D01*
X162448095Y-99972857D01*
X162448095Y-100068095D01*
X162400476Y-100163333D01*
X162352857Y-100210952D01*
X162257619Y-100258571D01*
X161924285Y-100258571D01*
X162829047Y-99782380D02*
X163067142Y-100782380D01*
X163257619Y-100068095D01*
X163448095Y-100782380D01*
X163686190Y-99782380D01*
X164400476Y-100258571D02*
X164543333Y-100306190D01*
X164590952Y-100353809D01*
X164638571Y-100449047D01*
X164638571Y-100591904D01*
X164590952Y-100687142D01*
X164543333Y-100734761D01*
X164448095Y-100782380D01*
X164067142Y-100782380D01*
X164067142Y-99782380D01*
X164400476Y-99782380D01*
X164495714Y-99830000D01*
X164543333Y-99877619D01*
X164590952Y-99972857D01*
X164590952Y-100068095D01*
X164543333Y-100163333D01*
X164495714Y-100210952D01*
X164400476Y-100258571D01*
X164067142Y-100258571D01*
X136191666Y-75862380D02*
X136191666Y-76576666D01*
X136144047Y-76719523D01*
X136048809Y-76814761D01*
X135905952Y-76862380D01*
X135810714Y-76862380D01*
X137191666Y-76862380D02*
X136620238Y-76862380D01*
X136905952Y-76862380D02*
X136905952Y-75862380D01*
X136810714Y-76005238D01*
X136715476Y-76100476D01*
X136620238Y-76148095D01*
X150153809Y-79457380D02*
X150153809Y-78457380D01*
X151201428Y-79362142D02*
X151153809Y-79409761D01*
X151010952Y-79457380D01*
X150915714Y-79457380D01*
X150772857Y-79409761D01*
X150677619Y-79314523D01*
X150630000Y-79219285D01*
X150582380Y-79028809D01*
X150582380Y-78885952D01*
X150630000Y-78695476D01*
X150677619Y-78600238D01*
X150772857Y-78505000D01*
X150915714Y-78457380D01*
X151010952Y-78457380D01*
X151153809Y-78505000D01*
X151201428Y-78552619D01*
X152153809Y-79457380D02*
X151582380Y-79457380D01*
X151868095Y-79457380D02*
X151868095Y-78457380D01*
X151772857Y-78600238D01*
X151677619Y-78695476D01*
X151582380Y-78743095D01*
X145106190Y-92897380D02*
X145106190Y-91897380D01*
X145487142Y-91897380D01*
X145582380Y-91945000D01*
X145630000Y-91992619D01*
X145677619Y-92087857D01*
X145677619Y-92230714D01*
X145630000Y-92325952D01*
X145582380Y-92373571D01*
X145487142Y-92421190D01*
X145106190Y-92421190D01*
X146106190Y-92897380D02*
X146106190Y-91897380D01*
X147153809Y-92802142D02*
X147106190Y-92849761D01*
X146963333Y-92897380D01*
X146868095Y-92897380D01*
X146725238Y-92849761D01*
X146630000Y-92754523D01*
X146582380Y-92659285D01*
X146534761Y-92468809D01*
X146534761Y-92325952D01*
X146582380Y-92135476D01*
X146630000Y-92040238D01*
X146725238Y-91945000D01*
X146868095Y-91897380D01*
X146963333Y-91897380D01*
X147106190Y-91945000D01*
X147153809Y-91992619D01*
X148106190Y-92897380D02*
X147534761Y-92897380D01*
X147820476Y-92897380D02*
X147820476Y-91897380D01*
X147725238Y-92040238D01*
X147630000Y-92135476D01*
X147534761Y-92183095D01*
X148963333Y-91897380D02*
X148772857Y-91897380D01*
X148677619Y-91945000D01*
X148630000Y-91992619D01*
X148534761Y-92135476D01*
X148487142Y-92325952D01*
X148487142Y-92706904D01*
X148534761Y-92802142D01*
X148582380Y-92849761D01*
X148677619Y-92897380D01*
X148868095Y-92897380D01*
X148963333Y-92849761D01*
X149010952Y-92802142D01*
X149058571Y-92706904D01*
X149058571Y-92468809D01*
X149010952Y-92373571D01*
X148963333Y-92325952D01*
X148868095Y-92278333D01*
X148677619Y-92278333D01*
X148582380Y-92325952D01*
X148534761Y-92373571D01*
X148487142Y-92468809D01*
X149820476Y-92373571D02*
X149487142Y-92373571D01*
X149487142Y-92897380D02*
X149487142Y-91897380D01*
X149963333Y-91897380D01*
X150868095Y-92897380D02*
X150296666Y-92897380D01*
X150582380Y-92897380D02*
X150582380Y-91897380D01*
X150487142Y-92040238D01*
X150391904Y-92135476D01*
X150296666Y-92183095D01*
X151439523Y-92325952D02*
X151344285Y-92278333D01*
X151296666Y-92230714D01*
X151249047Y-92135476D01*
X151249047Y-92087857D01*
X151296666Y-91992619D01*
X151344285Y-91945000D01*
X151439523Y-91897380D01*
X151630000Y-91897380D01*
X151725238Y-91945000D01*
X151772857Y-91992619D01*
X151820476Y-92087857D01*
X151820476Y-92135476D01*
X151772857Y-92230714D01*
X151725238Y-92278333D01*
X151630000Y-92325952D01*
X151439523Y-92325952D01*
X151344285Y-92373571D01*
X151296666Y-92421190D01*
X151249047Y-92516428D01*
X151249047Y-92706904D01*
X151296666Y-92802142D01*
X151344285Y-92849761D01*
X151439523Y-92897380D01*
X151630000Y-92897380D01*
X151725238Y-92849761D01*
X151772857Y-92802142D01*
X151820476Y-92706904D01*
X151820476Y-92516428D01*
X151772857Y-92421190D01*
X151725238Y-92373571D01*
X151630000Y-92325952D01*
X152677619Y-92230714D02*
X152677619Y-92897380D01*
X152439523Y-91849761D02*
X152201428Y-92564047D01*
X152820476Y-92564047D01*
X153106190Y-91897380D02*
X153772857Y-91897380D01*
X153344285Y-92897380D01*
X154153809Y-92516428D02*
X154915714Y-92516428D01*
X155391904Y-92897380D02*
X155391904Y-91897380D01*
X155630000Y-92992619D02*
X156391904Y-92992619D01*
X156630000Y-92897380D02*
X156630000Y-91897380D01*
X157010952Y-91897380D01*
X157106190Y-91945000D01*
X157153809Y-91992619D01*
X157201428Y-92087857D01*
X157201428Y-92230714D01*
X157153809Y-92325952D01*
X157106190Y-92373571D01*
X157010952Y-92421190D01*
X156630000Y-92421190D01*
X145883333Y-75287142D02*
X145835714Y-75334761D01*
X145692857Y-75382380D01*
X145597619Y-75382380D01*
X145454761Y-75334761D01*
X145359523Y-75239523D01*
X145311904Y-75144285D01*
X145264285Y-74953809D01*
X145264285Y-74810952D01*
X145311904Y-74620476D01*
X145359523Y-74525238D01*
X145454761Y-74430000D01*
X145597619Y-74382380D01*
X145692857Y-74382380D01*
X145835714Y-74430000D01*
X145883333Y-74477619D01*
X146264285Y-74477619D02*
X146311904Y-74430000D01*
X146407142Y-74382380D01*
X146645238Y-74382380D01*
X146740476Y-74430000D01*
X146788095Y-74477619D01*
X146835714Y-74572857D01*
X146835714Y-74668095D01*
X146788095Y-74810952D01*
X146216666Y-75382380D01*
X146835714Y-75382380D01*
X145883333Y-71477142D02*
X145835714Y-71524761D01*
X145692857Y-71572380D01*
X145597619Y-71572380D01*
X145454761Y-71524761D01*
X145359523Y-71429523D01*
X145311904Y-71334285D01*
X145264285Y-71143809D01*
X145264285Y-71000952D01*
X145311904Y-70810476D01*
X145359523Y-70715238D01*
X145454761Y-70620000D01*
X145597619Y-70572380D01*
X145692857Y-70572380D01*
X145835714Y-70620000D01*
X145883333Y-70667619D01*
X146835714Y-71572380D02*
X146264285Y-71572380D01*
X146550000Y-71572380D02*
X146550000Y-70572380D01*
X146454761Y-70715238D01*
X146359523Y-70810476D01*
X146264285Y-70858095D01*
M02*
