G04 #@! TF.GenerationSoftware,KiCad,Pcbnew,(5.1.4)-1*
G04 #@! TF.CreationDate,2019-11-25T23:53:57+00:00*
G04 #@! TF.ProjectId,KeyPad BCD encoder,4b657950-6164-4204-9243-4420656e636f,rev?*
G04 #@! TF.SameCoordinates,Original*
G04 #@! TF.FileFunction,Copper,L2,Bot*
G04 #@! TF.FilePolarity,Positive*
%FSLAX46Y46*%
G04 Gerber Fmt 4.6, Leading zero omitted, Abs format (unit mm)*
G04 Created by KiCad (PCBNEW (5.1.4)-1) date 2019-11-25 23:53:57*
%MOMM*%
%LPD*%
G04 APERTURE LIST*
%ADD10O,1.700000X1.700000*%
%ADD11R,1.700000X1.700000*%
%ADD12C,0.800000*%
%ADD13C,0.250000*%
%ADD14C,0.254000*%
G04 APERTURE END LIST*
D10*
X156845000Y-71755000D03*
D11*
X156845000Y-74295000D03*
D10*
X167640000Y-91440000D03*
X167640000Y-88900000D03*
X167640000Y-86360000D03*
X167640000Y-83820000D03*
D11*
X167640000Y-81280000D03*
D10*
X144145000Y-102870000D03*
X146685000Y-102870000D03*
X149225000Y-102870000D03*
X151765000Y-102870000D03*
X154305000Y-102870000D03*
X156845000Y-102870000D03*
D11*
X159385000Y-102870000D03*
D10*
X136525000Y-93980000D03*
X136525000Y-91440000D03*
X136525000Y-88900000D03*
X136525000Y-86360000D03*
X136525000Y-83820000D03*
X136525000Y-81280000D03*
D11*
X136525000Y-78740000D03*
D12*
X161290000Y-82550000D03*
X144145000Y-83820000D03*
X151855000Y-80645000D03*
X153035000Y-82550000D03*
X143510000Y-90170000D03*
X153035000Y-84455000D03*
X143510000Y-92075000D03*
X153670000Y-85725000D03*
X147955000Y-97155000D03*
X143510000Y-86995000D03*
X149860000Y-81915000D03*
D13*
X165100000Y-86360000D02*
X161290000Y-82550000D01*
X144145000Y-83820000D02*
X147320000Y-80645000D01*
X147320000Y-80645000D02*
X151855000Y-80645000D01*
X149315001Y-86269999D02*
X153035000Y-82550000D01*
X136525000Y-88900000D02*
X139155001Y-86269999D01*
X139155001Y-86269999D02*
X149315001Y-86269999D01*
X143510000Y-90170000D02*
X147320000Y-90170000D01*
X147320000Y-90170000D02*
X153035000Y-84455000D01*
X143510000Y-92075000D02*
X147320000Y-92075000D01*
X147320000Y-92075000D02*
X153670000Y-85725000D01*
X147955000Y-101600000D02*
X146685000Y-102870000D01*
X147955000Y-97155000D02*
X147955000Y-101600000D01*
X143510000Y-86995000D02*
X143510000Y-88265000D01*
X143510000Y-88265000D02*
X139700000Y-92075000D01*
X139700000Y-98425000D02*
X144145000Y-102870000D01*
X139700000Y-92075000D02*
X139700000Y-98425000D01*
X166540000Y-81280000D02*
X167640000Y-81280000D01*
X166449999Y-81370001D02*
X166540000Y-81280000D01*
X150404999Y-81370001D02*
X166449999Y-81370001D01*
X149860000Y-81915000D02*
X150404999Y-81370001D01*
D14*
G36*
X170130001Y-108535000D02*
G01*
X134035000Y-108535000D01*
X134035000Y-81280000D01*
X135032815Y-81280000D01*
X135061487Y-81571111D01*
X135146401Y-81851034D01*
X135284294Y-82109014D01*
X135469866Y-82335134D01*
X135695986Y-82520706D01*
X135750791Y-82550000D01*
X135695986Y-82579294D01*
X135469866Y-82764866D01*
X135284294Y-82990986D01*
X135146401Y-83248966D01*
X135061487Y-83528889D01*
X135032815Y-83820000D01*
X135061487Y-84111111D01*
X135146401Y-84391034D01*
X135284294Y-84649014D01*
X135469866Y-84875134D01*
X135695986Y-85060706D01*
X135750791Y-85090000D01*
X135695986Y-85119294D01*
X135469866Y-85304866D01*
X135284294Y-85530986D01*
X135146401Y-85788966D01*
X135061487Y-86068889D01*
X135032815Y-86360000D01*
X135061487Y-86651111D01*
X135146401Y-86931034D01*
X135284294Y-87189014D01*
X135469866Y-87415134D01*
X135695986Y-87600706D01*
X135750791Y-87630000D01*
X135695986Y-87659294D01*
X135469866Y-87844866D01*
X135284294Y-88070986D01*
X135146401Y-88328966D01*
X135061487Y-88608889D01*
X135032815Y-88900000D01*
X135061487Y-89191111D01*
X135146401Y-89471034D01*
X135284294Y-89729014D01*
X135469866Y-89955134D01*
X135695986Y-90140706D01*
X135750791Y-90170000D01*
X135695986Y-90199294D01*
X135469866Y-90384866D01*
X135284294Y-90610986D01*
X135146401Y-90868966D01*
X135061487Y-91148889D01*
X135032815Y-91440000D01*
X135061487Y-91731111D01*
X135146401Y-92011034D01*
X135284294Y-92269014D01*
X135469866Y-92495134D01*
X135695986Y-92680706D01*
X135750791Y-92710000D01*
X135695986Y-92739294D01*
X135469866Y-92924866D01*
X135284294Y-93150986D01*
X135146401Y-93408966D01*
X135061487Y-93688889D01*
X135032815Y-93980000D01*
X135061487Y-94271111D01*
X135146401Y-94551034D01*
X135284294Y-94809014D01*
X135469866Y-95035134D01*
X135695986Y-95220706D01*
X135953966Y-95358599D01*
X136233889Y-95443513D01*
X136452050Y-95465000D01*
X136597950Y-95465000D01*
X136816111Y-95443513D01*
X137096034Y-95358599D01*
X137354014Y-95220706D01*
X137580134Y-95035134D01*
X137765706Y-94809014D01*
X137903599Y-94551034D01*
X137988513Y-94271111D01*
X138017185Y-93980000D01*
X137988513Y-93688889D01*
X137903599Y-93408966D01*
X137765706Y-93150986D01*
X137580134Y-92924866D01*
X137354014Y-92739294D01*
X137299209Y-92710000D01*
X137354014Y-92680706D01*
X137580134Y-92495134D01*
X137765706Y-92269014D01*
X137903599Y-92011034D01*
X137988513Y-91731111D01*
X138017185Y-91440000D01*
X137988513Y-91148889D01*
X137903599Y-90868966D01*
X137765706Y-90610986D01*
X137580134Y-90384866D01*
X137354014Y-90199294D01*
X137299209Y-90170000D01*
X137354014Y-90140706D01*
X137580134Y-89955134D01*
X137765706Y-89729014D01*
X137903599Y-89471034D01*
X137988513Y-89191111D01*
X138017185Y-88900000D01*
X137988513Y-88608889D01*
X137965797Y-88534004D01*
X139469803Y-87029999D01*
X142475000Y-87029999D01*
X142475000Y-87096939D01*
X142514774Y-87296898D01*
X142592795Y-87485256D01*
X142706063Y-87654774D01*
X142750001Y-87698712D01*
X142750001Y-87950197D01*
X139189003Y-91511196D01*
X139159999Y-91534999D01*
X139119175Y-91584744D01*
X139065026Y-91650724D01*
X139022058Y-91731111D01*
X138994454Y-91782754D01*
X138950997Y-91926015D01*
X138940000Y-92037668D01*
X138940000Y-92037678D01*
X138936324Y-92075000D01*
X138940000Y-92112323D01*
X138940001Y-98387668D01*
X138936324Y-98425000D01*
X138950998Y-98573985D01*
X138994454Y-98717246D01*
X139065026Y-98849276D01*
X139136201Y-98936002D01*
X139160000Y-98965001D01*
X139188998Y-98988799D01*
X142704203Y-102504005D01*
X142681487Y-102578889D01*
X142652815Y-102870000D01*
X142681487Y-103161111D01*
X142766401Y-103441034D01*
X142904294Y-103699014D01*
X143089866Y-103925134D01*
X143315986Y-104110706D01*
X143573966Y-104248599D01*
X143853889Y-104333513D01*
X144072050Y-104355000D01*
X144217950Y-104355000D01*
X144436111Y-104333513D01*
X144716034Y-104248599D01*
X144974014Y-104110706D01*
X145200134Y-103925134D01*
X145385706Y-103699014D01*
X145415000Y-103644209D01*
X145444294Y-103699014D01*
X145629866Y-103925134D01*
X145855986Y-104110706D01*
X146113966Y-104248599D01*
X146393889Y-104333513D01*
X146612050Y-104355000D01*
X146757950Y-104355000D01*
X146976111Y-104333513D01*
X147256034Y-104248599D01*
X147514014Y-104110706D01*
X147740134Y-103925134D01*
X147925706Y-103699014D01*
X147955000Y-103644209D01*
X147984294Y-103699014D01*
X148169866Y-103925134D01*
X148395986Y-104110706D01*
X148653966Y-104248599D01*
X148933889Y-104333513D01*
X149152050Y-104355000D01*
X149297950Y-104355000D01*
X149516111Y-104333513D01*
X149796034Y-104248599D01*
X150054014Y-104110706D01*
X150280134Y-103925134D01*
X150465706Y-103699014D01*
X150495000Y-103644209D01*
X150524294Y-103699014D01*
X150709866Y-103925134D01*
X150935986Y-104110706D01*
X151193966Y-104248599D01*
X151473889Y-104333513D01*
X151692050Y-104355000D01*
X151837950Y-104355000D01*
X152056111Y-104333513D01*
X152336034Y-104248599D01*
X152594014Y-104110706D01*
X152820134Y-103925134D01*
X153005706Y-103699014D01*
X153035000Y-103644209D01*
X153064294Y-103699014D01*
X153249866Y-103925134D01*
X153475986Y-104110706D01*
X153733966Y-104248599D01*
X154013889Y-104333513D01*
X154232050Y-104355000D01*
X154377950Y-104355000D01*
X154596111Y-104333513D01*
X154876034Y-104248599D01*
X155134014Y-104110706D01*
X155360134Y-103925134D01*
X155545706Y-103699014D01*
X155575000Y-103644209D01*
X155604294Y-103699014D01*
X155789866Y-103925134D01*
X156015986Y-104110706D01*
X156273966Y-104248599D01*
X156553889Y-104333513D01*
X156772050Y-104355000D01*
X156917950Y-104355000D01*
X157136111Y-104333513D01*
X157416034Y-104248599D01*
X157674014Y-104110706D01*
X157900134Y-103925134D01*
X157924607Y-103895313D01*
X157945498Y-103964180D01*
X158004463Y-104074494D01*
X158083815Y-104171185D01*
X158180506Y-104250537D01*
X158290820Y-104309502D01*
X158410518Y-104345812D01*
X158535000Y-104358072D01*
X160235000Y-104358072D01*
X160359482Y-104345812D01*
X160479180Y-104309502D01*
X160589494Y-104250537D01*
X160686185Y-104171185D01*
X160765537Y-104074494D01*
X160824502Y-103964180D01*
X160860812Y-103844482D01*
X160873072Y-103720000D01*
X160873072Y-102020000D01*
X160860812Y-101895518D01*
X160824502Y-101775820D01*
X160765537Y-101665506D01*
X160686185Y-101568815D01*
X160589494Y-101489463D01*
X160479180Y-101430498D01*
X160359482Y-101394188D01*
X160235000Y-101381928D01*
X158535000Y-101381928D01*
X158410518Y-101394188D01*
X158290820Y-101430498D01*
X158180506Y-101489463D01*
X158083815Y-101568815D01*
X158004463Y-101665506D01*
X157945498Y-101775820D01*
X157924607Y-101844687D01*
X157900134Y-101814866D01*
X157674014Y-101629294D01*
X157416034Y-101491401D01*
X157136111Y-101406487D01*
X156917950Y-101385000D01*
X156772050Y-101385000D01*
X156553889Y-101406487D01*
X156273966Y-101491401D01*
X156015986Y-101629294D01*
X155789866Y-101814866D01*
X155604294Y-102040986D01*
X155575000Y-102095791D01*
X155545706Y-102040986D01*
X155360134Y-101814866D01*
X155134014Y-101629294D01*
X154876034Y-101491401D01*
X154596111Y-101406487D01*
X154377950Y-101385000D01*
X154232050Y-101385000D01*
X154013889Y-101406487D01*
X153733966Y-101491401D01*
X153475986Y-101629294D01*
X153249866Y-101814866D01*
X153064294Y-102040986D01*
X153035000Y-102095791D01*
X153005706Y-102040986D01*
X152820134Y-101814866D01*
X152594014Y-101629294D01*
X152336034Y-101491401D01*
X152056111Y-101406487D01*
X151837950Y-101385000D01*
X151692050Y-101385000D01*
X151473889Y-101406487D01*
X151193966Y-101491401D01*
X150935986Y-101629294D01*
X150709866Y-101814866D01*
X150524294Y-102040986D01*
X150495000Y-102095791D01*
X150465706Y-102040986D01*
X150280134Y-101814866D01*
X150054014Y-101629294D01*
X149796034Y-101491401D01*
X149516111Y-101406487D01*
X149297950Y-101385000D01*
X149152050Y-101385000D01*
X148933889Y-101406487D01*
X148715000Y-101472886D01*
X148715000Y-97858711D01*
X148758937Y-97814774D01*
X148872205Y-97645256D01*
X148950226Y-97456898D01*
X148990000Y-97256939D01*
X148990000Y-97053061D01*
X148950226Y-96853102D01*
X148872205Y-96664744D01*
X148758937Y-96495226D01*
X148614774Y-96351063D01*
X148445256Y-96237795D01*
X148256898Y-96159774D01*
X148056939Y-96120000D01*
X147853061Y-96120000D01*
X147653102Y-96159774D01*
X147464744Y-96237795D01*
X147295226Y-96351063D01*
X147151063Y-96495226D01*
X147037795Y-96664744D01*
X146959774Y-96853102D01*
X146920000Y-97053061D01*
X146920000Y-97256939D01*
X146959774Y-97456898D01*
X147037795Y-97645256D01*
X147151063Y-97814774D01*
X147195000Y-97858711D01*
X147195001Y-101285197D01*
X147050995Y-101429203D01*
X146976111Y-101406487D01*
X146757950Y-101385000D01*
X146612050Y-101385000D01*
X146393889Y-101406487D01*
X146113966Y-101491401D01*
X145855986Y-101629294D01*
X145629866Y-101814866D01*
X145444294Y-102040986D01*
X145415000Y-102095791D01*
X145385706Y-102040986D01*
X145200134Y-101814866D01*
X144974014Y-101629294D01*
X144716034Y-101491401D01*
X144436111Y-101406487D01*
X144217950Y-101385000D01*
X144072050Y-101385000D01*
X143853889Y-101406487D01*
X143779005Y-101429203D01*
X140460000Y-98110199D01*
X140460000Y-92389801D01*
X142492066Y-90357736D01*
X142514774Y-90471898D01*
X142592795Y-90660256D01*
X142706063Y-90829774D01*
X142850226Y-90973937D01*
X143019744Y-91087205D01*
X143104953Y-91122500D01*
X143019744Y-91157795D01*
X142850226Y-91271063D01*
X142706063Y-91415226D01*
X142592795Y-91584744D01*
X142514774Y-91773102D01*
X142475000Y-91973061D01*
X142475000Y-92176939D01*
X142514774Y-92376898D01*
X142592795Y-92565256D01*
X142706063Y-92734774D01*
X142850226Y-92878937D01*
X143019744Y-92992205D01*
X143208102Y-93070226D01*
X143408061Y-93110000D01*
X143611939Y-93110000D01*
X143811898Y-93070226D01*
X144000256Y-92992205D01*
X144169774Y-92878937D01*
X144213711Y-92835000D01*
X147282678Y-92835000D01*
X147320000Y-92838676D01*
X147357322Y-92835000D01*
X147357333Y-92835000D01*
X147468986Y-92824003D01*
X147612247Y-92780546D01*
X147744276Y-92709974D01*
X147860001Y-92615001D01*
X147883804Y-92585997D01*
X151569801Y-88900000D01*
X166147815Y-88900000D01*
X166176487Y-89191111D01*
X166261401Y-89471034D01*
X166399294Y-89729014D01*
X166584866Y-89955134D01*
X166810986Y-90140706D01*
X166865791Y-90170000D01*
X166810986Y-90199294D01*
X166584866Y-90384866D01*
X166399294Y-90610986D01*
X166261401Y-90868966D01*
X166176487Y-91148889D01*
X166147815Y-91440000D01*
X166176487Y-91731111D01*
X166261401Y-92011034D01*
X166399294Y-92269014D01*
X166584866Y-92495134D01*
X166810986Y-92680706D01*
X167068966Y-92818599D01*
X167348889Y-92903513D01*
X167567050Y-92925000D01*
X167712950Y-92925000D01*
X167931111Y-92903513D01*
X168211034Y-92818599D01*
X168469014Y-92680706D01*
X168695134Y-92495134D01*
X168880706Y-92269014D01*
X169018599Y-92011034D01*
X169103513Y-91731111D01*
X169132185Y-91440000D01*
X169103513Y-91148889D01*
X169018599Y-90868966D01*
X168880706Y-90610986D01*
X168695134Y-90384866D01*
X168469014Y-90199294D01*
X168414209Y-90170000D01*
X168469014Y-90140706D01*
X168695134Y-89955134D01*
X168880706Y-89729014D01*
X169018599Y-89471034D01*
X169103513Y-89191111D01*
X169132185Y-88900000D01*
X169103513Y-88608889D01*
X169018599Y-88328966D01*
X168880706Y-88070986D01*
X168695134Y-87844866D01*
X168469014Y-87659294D01*
X168404477Y-87624799D01*
X168521355Y-87555178D01*
X168737588Y-87360269D01*
X168911641Y-87126920D01*
X169036825Y-86864099D01*
X169081476Y-86716890D01*
X168960155Y-86487000D01*
X167767000Y-86487000D01*
X167767000Y-86507000D01*
X167513000Y-86507000D01*
X167513000Y-86487000D01*
X166319845Y-86487000D01*
X166198524Y-86716890D01*
X166243175Y-86864099D01*
X166368359Y-87126920D01*
X166542412Y-87360269D01*
X166758645Y-87555178D01*
X166875523Y-87624799D01*
X166810986Y-87659294D01*
X166584866Y-87844866D01*
X166399294Y-88070986D01*
X166261401Y-88328966D01*
X166176487Y-88608889D01*
X166147815Y-88900000D01*
X151569801Y-88900000D01*
X153709802Y-86760000D01*
X153771939Y-86760000D01*
X153971898Y-86720226D01*
X154160256Y-86642205D01*
X154329774Y-86528937D01*
X154473937Y-86384774D01*
X154587205Y-86215256D01*
X154665226Y-86026898D01*
X154705000Y-85826939D01*
X154705000Y-85623061D01*
X154665226Y-85423102D01*
X154587205Y-85234744D01*
X154473937Y-85065226D01*
X154329774Y-84921063D01*
X154160256Y-84807795D01*
X154030771Y-84754160D01*
X154070000Y-84556939D01*
X154070000Y-84353061D01*
X154030226Y-84153102D01*
X153952205Y-83964744D01*
X153838937Y-83795226D01*
X153694774Y-83651063D01*
X153525256Y-83537795D01*
X153440047Y-83502500D01*
X153525256Y-83467205D01*
X153694774Y-83353937D01*
X153838937Y-83209774D01*
X153952205Y-83040256D01*
X154030226Y-82851898D01*
X154070000Y-82651939D01*
X154070000Y-82448061D01*
X154030226Y-82248102D01*
X153981307Y-82130001D01*
X166151928Y-82130001D01*
X166164188Y-82254482D01*
X166200498Y-82374180D01*
X166259463Y-82484494D01*
X166338815Y-82581185D01*
X166435506Y-82660537D01*
X166545820Y-82719502D01*
X166614687Y-82740393D01*
X166584866Y-82764866D01*
X166399294Y-82990986D01*
X166261401Y-83248966D01*
X166176487Y-83528889D01*
X166147815Y-83820000D01*
X166176487Y-84111111D01*
X166261401Y-84391034D01*
X166399294Y-84649014D01*
X166584866Y-84875134D01*
X166810986Y-85060706D01*
X166875523Y-85095201D01*
X166758645Y-85164822D01*
X166542412Y-85359731D01*
X166368359Y-85593080D01*
X166243175Y-85855901D01*
X166198524Y-86003110D01*
X166319845Y-86233000D01*
X167513000Y-86233000D01*
X167513000Y-86213000D01*
X167767000Y-86213000D01*
X167767000Y-86233000D01*
X168960155Y-86233000D01*
X169081476Y-86003110D01*
X169036825Y-85855901D01*
X168911641Y-85593080D01*
X168737588Y-85359731D01*
X168521355Y-85164822D01*
X168404477Y-85095201D01*
X168469014Y-85060706D01*
X168695134Y-84875134D01*
X168880706Y-84649014D01*
X169018599Y-84391034D01*
X169103513Y-84111111D01*
X169132185Y-83820000D01*
X169103513Y-83528889D01*
X169018599Y-83248966D01*
X168880706Y-82990986D01*
X168695134Y-82764866D01*
X168665313Y-82740393D01*
X168734180Y-82719502D01*
X168844494Y-82660537D01*
X168941185Y-82581185D01*
X169020537Y-82484494D01*
X169079502Y-82374180D01*
X169115812Y-82254482D01*
X169128072Y-82130000D01*
X169128072Y-80430000D01*
X169115812Y-80305518D01*
X169079502Y-80185820D01*
X169020537Y-80075506D01*
X168941185Y-79978815D01*
X168844494Y-79899463D01*
X168734180Y-79840498D01*
X168614482Y-79804188D01*
X168490000Y-79791928D01*
X166790000Y-79791928D01*
X166665518Y-79804188D01*
X166545820Y-79840498D01*
X166435506Y-79899463D01*
X166338815Y-79978815D01*
X166259463Y-80075506D01*
X166200498Y-80185820D01*
X166164188Y-80305518D01*
X166151928Y-80430000D01*
X166151928Y-80610001D01*
X152890000Y-80610001D01*
X152890000Y-80543061D01*
X152850226Y-80343102D01*
X152772205Y-80154744D01*
X152658937Y-79985226D01*
X152514774Y-79841063D01*
X152345256Y-79727795D01*
X152156898Y-79649774D01*
X151956939Y-79610000D01*
X151753061Y-79610000D01*
X151553102Y-79649774D01*
X151364744Y-79727795D01*
X151195226Y-79841063D01*
X151151289Y-79885000D01*
X147357322Y-79885000D01*
X147319999Y-79881324D01*
X147282676Y-79885000D01*
X147282667Y-79885000D01*
X147171014Y-79895997D01*
X147027753Y-79939454D01*
X146895723Y-80010026D01*
X146815936Y-80075506D01*
X146779999Y-80104999D01*
X146756201Y-80133997D01*
X144105199Y-82785000D01*
X144043061Y-82785000D01*
X143843102Y-82824774D01*
X143654744Y-82902795D01*
X143485226Y-83016063D01*
X143341063Y-83160226D01*
X143227795Y-83329744D01*
X143149774Y-83518102D01*
X143110000Y-83718061D01*
X143110000Y-83921939D01*
X143149774Y-84121898D01*
X143227795Y-84310256D01*
X143341063Y-84479774D01*
X143485226Y-84623937D01*
X143654744Y-84737205D01*
X143843102Y-84815226D01*
X144043061Y-84855000D01*
X144246939Y-84855000D01*
X144446898Y-84815226D01*
X144635256Y-84737205D01*
X144804774Y-84623937D01*
X144948937Y-84479774D01*
X145062205Y-84310256D01*
X145140226Y-84121898D01*
X145180000Y-83921939D01*
X145180000Y-83859801D01*
X147634802Y-81405000D01*
X148955987Y-81405000D01*
X148942795Y-81424744D01*
X148864774Y-81613102D01*
X148825000Y-81813061D01*
X148825000Y-82016939D01*
X148864774Y-82216898D01*
X148942795Y-82405256D01*
X149056063Y-82574774D01*
X149200226Y-82718937D01*
X149369744Y-82832205D01*
X149558102Y-82910226D01*
X149758061Y-82950000D01*
X149961939Y-82950000D01*
X150161898Y-82910226D01*
X150350256Y-82832205D01*
X150519774Y-82718937D01*
X150663937Y-82574774D01*
X150777205Y-82405256D01*
X150855226Y-82216898D01*
X150872511Y-82130001D01*
X152088693Y-82130001D01*
X152039774Y-82248102D01*
X152000000Y-82448061D01*
X152000000Y-82510198D01*
X149000200Y-85509999D01*
X139192323Y-85509999D01*
X139155000Y-85506323D01*
X139117677Y-85509999D01*
X139117668Y-85509999D01*
X139006015Y-85520996D01*
X138862754Y-85564453D01*
X138730724Y-85635025D01*
X138647084Y-85703667D01*
X138615000Y-85729998D01*
X138591202Y-85758996D01*
X138014765Y-86335433D01*
X137988513Y-86068889D01*
X137903599Y-85788966D01*
X137765706Y-85530986D01*
X137580134Y-85304866D01*
X137354014Y-85119294D01*
X137299209Y-85090000D01*
X137354014Y-85060706D01*
X137580134Y-84875134D01*
X137765706Y-84649014D01*
X137903599Y-84391034D01*
X137988513Y-84111111D01*
X138017185Y-83820000D01*
X137988513Y-83528889D01*
X137903599Y-83248966D01*
X137765706Y-82990986D01*
X137580134Y-82764866D01*
X137354014Y-82579294D01*
X137299209Y-82550000D01*
X137354014Y-82520706D01*
X137580134Y-82335134D01*
X137765706Y-82109014D01*
X137903599Y-81851034D01*
X137988513Y-81571111D01*
X138017185Y-81280000D01*
X137988513Y-80988889D01*
X137903599Y-80708966D01*
X137765706Y-80450986D01*
X137580134Y-80224866D01*
X137550313Y-80200393D01*
X137619180Y-80179502D01*
X137729494Y-80120537D01*
X137826185Y-80041185D01*
X137905537Y-79944494D01*
X137964502Y-79834180D01*
X138000812Y-79714482D01*
X138013072Y-79590000D01*
X138013072Y-77890000D01*
X138000812Y-77765518D01*
X137964502Y-77645820D01*
X137905537Y-77535506D01*
X137826185Y-77438815D01*
X137729494Y-77359463D01*
X137619180Y-77300498D01*
X137499482Y-77264188D01*
X137375000Y-77251928D01*
X135675000Y-77251928D01*
X135550518Y-77264188D01*
X135430820Y-77300498D01*
X135320506Y-77359463D01*
X135223815Y-77438815D01*
X135144463Y-77535506D01*
X135085498Y-77645820D01*
X135049188Y-77765518D01*
X135036928Y-77890000D01*
X135036928Y-79590000D01*
X135049188Y-79714482D01*
X135085498Y-79834180D01*
X135144463Y-79944494D01*
X135223815Y-80041185D01*
X135320506Y-80120537D01*
X135430820Y-80179502D01*
X135499687Y-80200393D01*
X135469866Y-80224866D01*
X135284294Y-80450986D01*
X135146401Y-80708966D01*
X135061487Y-80988889D01*
X135032815Y-81280000D01*
X134035000Y-81280000D01*
X134035000Y-73445000D01*
X155356928Y-73445000D01*
X155356928Y-75145000D01*
X155369188Y-75269482D01*
X155405498Y-75389180D01*
X155464463Y-75499494D01*
X155543815Y-75596185D01*
X155640506Y-75675537D01*
X155750820Y-75734502D01*
X155870518Y-75770812D01*
X155995000Y-75783072D01*
X157695000Y-75783072D01*
X157819482Y-75770812D01*
X157939180Y-75734502D01*
X158049494Y-75675537D01*
X158146185Y-75596185D01*
X158225537Y-75499494D01*
X158284502Y-75389180D01*
X158320812Y-75269482D01*
X158333072Y-75145000D01*
X158333072Y-73445000D01*
X158320812Y-73320518D01*
X158284502Y-73200820D01*
X158225537Y-73090506D01*
X158146185Y-72993815D01*
X158049494Y-72914463D01*
X157939180Y-72855498D01*
X157858534Y-72831034D01*
X157942588Y-72755269D01*
X158116641Y-72521920D01*
X158241825Y-72259099D01*
X158286476Y-72111890D01*
X158165155Y-71882000D01*
X156972000Y-71882000D01*
X156972000Y-71902000D01*
X156718000Y-71902000D01*
X156718000Y-71882000D01*
X155524845Y-71882000D01*
X155403524Y-72111890D01*
X155448175Y-72259099D01*
X155573359Y-72521920D01*
X155747412Y-72755269D01*
X155831466Y-72831034D01*
X155750820Y-72855498D01*
X155640506Y-72914463D01*
X155543815Y-72993815D01*
X155464463Y-73090506D01*
X155405498Y-73200820D01*
X155369188Y-73320518D01*
X155356928Y-73445000D01*
X134035000Y-73445000D01*
X134035000Y-71398110D01*
X155403524Y-71398110D01*
X155524845Y-71628000D01*
X156718000Y-71628000D01*
X156718000Y-70434186D01*
X156972000Y-70434186D01*
X156972000Y-71628000D01*
X158165155Y-71628000D01*
X158286476Y-71398110D01*
X158241825Y-71250901D01*
X158116641Y-70988080D01*
X157942588Y-70754731D01*
X157726355Y-70559822D01*
X157476252Y-70410843D01*
X157201891Y-70313519D01*
X156972000Y-70434186D01*
X156718000Y-70434186D01*
X156488109Y-70313519D01*
X156213748Y-70410843D01*
X155963645Y-70559822D01*
X155747412Y-70754731D01*
X155573359Y-70988080D01*
X155448175Y-71250901D01*
X155403524Y-71398110D01*
X134035000Y-71398110D01*
X134035000Y-69265000D01*
X170130000Y-69265000D01*
X170130001Y-108535000D01*
X170130001Y-108535000D01*
G37*
X170130001Y-108535000D02*
X134035000Y-108535000D01*
X134035000Y-81280000D01*
X135032815Y-81280000D01*
X135061487Y-81571111D01*
X135146401Y-81851034D01*
X135284294Y-82109014D01*
X135469866Y-82335134D01*
X135695986Y-82520706D01*
X135750791Y-82550000D01*
X135695986Y-82579294D01*
X135469866Y-82764866D01*
X135284294Y-82990986D01*
X135146401Y-83248966D01*
X135061487Y-83528889D01*
X135032815Y-83820000D01*
X135061487Y-84111111D01*
X135146401Y-84391034D01*
X135284294Y-84649014D01*
X135469866Y-84875134D01*
X135695986Y-85060706D01*
X135750791Y-85090000D01*
X135695986Y-85119294D01*
X135469866Y-85304866D01*
X135284294Y-85530986D01*
X135146401Y-85788966D01*
X135061487Y-86068889D01*
X135032815Y-86360000D01*
X135061487Y-86651111D01*
X135146401Y-86931034D01*
X135284294Y-87189014D01*
X135469866Y-87415134D01*
X135695986Y-87600706D01*
X135750791Y-87630000D01*
X135695986Y-87659294D01*
X135469866Y-87844866D01*
X135284294Y-88070986D01*
X135146401Y-88328966D01*
X135061487Y-88608889D01*
X135032815Y-88900000D01*
X135061487Y-89191111D01*
X135146401Y-89471034D01*
X135284294Y-89729014D01*
X135469866Y-89955134D01*
X135695986Y-90140706D01*
X135750791Y-90170000D01*
X135695986Y-90199294D01*
X135469866Y-90384866D01*
X135284294Y-90610986D01*
X135146401Y-90868966D01*
X135061487Y-91148889D01*
X135032815Y-91440000D01*
X135061487Y-91731111D01*
X135146401Y-92011034D01*
X135284294Y-92269014D01*
X135469866Y-92495134D01*
X135695986Y-92680706D01*
X135750791Y-92710000D01*
X135695986Y-92739294D01*
X135469866Y-92924866D01*
X135284294Y-93150986D01*
X135146401Y-93408966D01*
X135061487Y-93688889D01*
X135032815Y-93980000D01*
X135061487Y-94271111D01*
X135146401Y-94551034D01*
X135284294Y-94809014D01*
X135469866Y-95035134D01*
X135695986Y-95220706D01*
X135953966Y-95358599D01*
X136233889Y-95443513D01*
X136452050Y-95465000D01*
X136597950Y-95465000D01*
X136816111Y-95443513D01*
X137096034Y-95358599D01*
X137354014Y-95220706D01*
X137580134Y-95035134D01*
X137765706Y-94809014D01*
X137903599Y-94551034D01*
X137988513Y-94271111D01*
X138017185Y-93980000D01*
X137988513Y-93688889D01*
X137903599Y-93408966D01*
X137765706Y-93150986D01*
X137580134Y-92924866D01*
X137354014Y-92739294D01*
X137299209Y-92710000D01*
X137354014Y-92680706D01*
X137580134Y-92495134D01*
X137765706Y-92269014D01*
X137903599Y-92011034D01*
X137988513Y-91731111D01*
X138017185Y-91440000D01*
X137988513Y-91148889D01*
X137903599Y-90868966D01*
X137765706Y-90610986D01*
X137580134Y-90384866D01*
X137354014Y-90199294D01*
X137299209Y-90170000D01*
X137354014Y-90140706D01*
X137580134Y-89955134D01*
X137765706Y-89729014D01*
X137903599Y-89471034D01*
X137988513Y-89191111D01*
X138017185Y-88900000D01*
X137988513Y-88608889D01*
X137965797Y-88534004D01*
X139469803Y-87029999D01*
X142475000Y-87029999D01*
X142475000Y-87096939D01*
X142514774Y-87296898D01*
X142592795Y-87485256D01*
X142706063Y-87654774D01*
X142750001Y-87698712D01*
X142750001Y-87950197D01*
X139189003Y-91511196D01*
X139159999Y-91534999D01*
X139119175Y-91584744D01*
X139065026Y-91650724D01*
X139022058Y-91731111D01*
X138994454Y-91782754D01*
X138950997Y-91926015D01*
X138940000Y-92037668D01*
X138940000Y-92037678D01*
X138936324Y-92075000D01*
X138940000Y-92112323D01*
X138940001Y-98387668D01*
X138936324Y-98425000D01*
X138950998Y-98573985D01*
X138994454Y-98717246D01*
X139065026Y-98849276D01*
X139136201Y-98936002D01*
X139160000Y-98965001D01*
X139188998Y-98988799D01*
X142704203Y-102504005D01*
X142681487Y-102578889D01*
X142652815Y-102870000D01*
X142681487Y-103161111D01*
X142766401Y-103441034D01*
X142904294Y-103699014D01*
X143089866Y-103925134D01*
X143315986Y-104110706D01*
X143573966Y-104248599D01*
X143853889Y-104333513D01*
X144072050Y-104355000D01*
X144217950Y-104355000D01*
X144436111Y-104333513D01*
X144716034Y-104248599D01*
X144974014Y-104110706D01*
X145200134Y-103925134D01*
X145385706Y-103699014D01*
X145415000Y-103644209D01*
X145444294Y-103699014D01*
X145629866Y-103925134D01*
X145855986Y-104110706D01*
X146113966Y-104248599D01*
X146393889Y-104333513D01*
X146612050Y-104355000D01*
X146757950Y-104355000D01*
X146976111Y-104333513D01*
X147256034Y-104248599D01*
X147514014Y-104110706D01*
X147740134Y-103925134D01*
X147925706Y-103699014D01*
X147955000Y-103644209D01*
X147984294Y-103699014D01*
X148169866Y-103925134D01*
X148395986Y-104110706D01*
X148653966Y-104248599D01*
X148933889Y-104333513D01*
X149152050Y-104355000D01*
X149297950Y-104355000D01*
X149516111Y-104333513D01*
X149796034Y-104248599D01*
X150054014Y-104110706D01*
X150280134Y-103925134D01*
X150465706Y-103699014D01*
X150495000Y-103644209D01*
X150524294Y-103699014D01*
X150709866Y-103925134D01*
X150935986Y-104110706D01*
X151193966Y-104248599D01*
X151473889Y-104333513D01*
X151692050Y-104355000D01*
X151837950Y-104355000D01*
X152056111Y-104333513D01*
X152336034Y-104248599D01*
X152594014Y-104110706D01*
X152820134Y-103925134D01*
X153005706Y-103699014D01*
X153035000Y-103644209D01*
X153064294Y-103699014D01*
X153249866Y-103925134D01*
X153475986Y-104110706D01*
X153733966Y-104248599D01*
X154013889Y-104333513D01*
X154232050Y-104355000D01*
X154377950Y-104355000D01*
X154596111Y-104333513D01*
X154876034Y-104248599D01*
X155134014Y-104110706D01*
X155360134Y-103925134D01*
X155545706Y-103699014D01*
X155575000Y-103644209D01*
X155604294Y-103699014D01*
X155789866Y-103925134D01*
X156015986Y-104110706D01*
X156273966Y-104248599D01*
X156553889Y-104333513D01*
X156772050Y-104355000D01*
X156917950Y-104355000D01*
X157136111Y-104333513D01*
X157416034Y-104248599D01*
X157674014Y-104110706D01*
X157900134Y-103925134D01*
X157924607Y-103895313D01*
X157945498Y-103964180D01*
X158004463Y-104074494D01*
X158083815Y-104171185D01*
X158180506Y-104250537D01*
X158290820Y-104309502D01*
X158410518Y-104345812D01*
X158535000Y-104358072D01*
X160235000Y-104358072D01*
X160359482Y-104345812D01*
X160479180Y-104309502D01*
X160589494Y-104250537D01*
X160686185Y-104171185D01*
X160765537Y-104074494D01*
X160824502Y-103964180D01*
X160860812Y-103844482D01*
X160873072Y-103720000D01*
X160873072Y-102020000D01*
X160860812Y-101895518D01*
X160824502Y-101775820D01*
X160765537Y-101665506D01*
X160686185Y-101568815D01*
X160589494Y-101489463D01*
X160479180Y-101430498D01*
X160359482Y-101394188D01*
X160235000Y-101381928D01*
X158535000Y-101381928D01*
X158410518Y-101394188D01*
X158290820Y-101430498D01*
X158180506Y-101489463D01*
X158083815Y-101568815D01*
X158004463Y-101665506D01*
X157945498Y-101775820D01*
X157924607Y-101844687D01*
X157900134Y-101814866D01*
X157674014Y-101629294D01*
X157416034Y-101491401D01*
X157136111Y-101406487D01*
X156917950Y-101385000D01*
X156772050Y-101385000D01*
X156553889Y-101406487D01*
X156273966Y-101491401D01*
X156015986Y-101629294D01*
X155789866Y-101814866D01*
X155604294Y-102040986D01*
X155575000Y-102095791D01*
X155545706Y-102040986D01*
X155360134Y-101814866D01*
X155134014Y-101629294D01*
X154876034Y-101491401D01*
X154596111Y-101406487D01*
X154377950Y-101385000D01*
X154232050Y-101385000D01*
X154013889Y-101406487D01*
X153733966Y-101491401D01*
X153475986Y-101629294D01*
X153249866Y-101814866D01*
X153064294Y-102040986D01*
X153035000Y-102095791D01*
X153005706Y-102040986D01*
X152820134Y-101814866D01*
X152594014Y-101629294D01*
X152336034Y-101491401D01*
X152056111Y-101406487D01*
X151837950Y-101385000D01*
X151692050Y-101385000D01*
X151473889Y-101406487D01*
X151193966Y-101491401D01*
X150935986Y-101629294D01*
X150709866Y-101814866D01*
X150524294Y-102040986D01*
X150495000Y-102095791D01*
X150465706Y-102040986D01*
X150280134Y-101814866D01*
X150054014Y-101629294D01*
X149796034Y-101491401D01*
X149516111Y-101406487D01*
X149297950Y-101385000D01*
X149152050Y-101385000D01*
X148933889Y-101406487D01*
X148715000Y-101472886D01*
X148715000Y-97858711D01*
X148758937Y-97814774D01*
X148872205Y-97645256D01*
X148950226Y-97456898D01*
X148990000Y-97256939D01*
X148990000Y-97053061D01*
X148950226Y-96853102D01*
X148872205Y-96664744D01*
X148758937Y-96495226D01*
X148614774Y-96351063D01*
X148445256Y-96237795D01*
X148256898Y-96159774D01*
X148056939Y-96120000D01*
X147853061Y-96120000D01*
X147653102Y-96159774D01*
X147464744Y-96237795D01*
X147295226Y-96351063D01*
X147151063Y-96495226D01*
X147037795Y-96664744D01*
X146959774Y-96853102D01*
X146920000Y-97053061D01*
X146920000Y-97256939D01*
X146959774Y-97456898D01*
X147037795Y-97645256D01*
X147151063Y-97814774D01*
X147195000Y-97858711D01*
X147195001Y-101285197D01*
X147050995Y-101429203D01*
X146976111Y-101406487D01*
X146757950Y-101385000D01*
X146612050Y-101385000D01*
X146393889Y-101406487D01*
X146113966Y-101491401D01*
X145855986Y-101629294D01*
X145629866Y-101814866D01*
X145444294Y-102040986D01*
X145415000Y-102095791D01*
X145385706Y-102040986D01*
X145200134Y-101814866D01*
X144974014Y-101629294D01*
X144716034Y-101491401D01*
X144436111Y-101406487D01*
X144217950Y-101385000D01*
X144072050Y-101385000D01*
X143853889Y-101406487D01*
X143779005Y-101429203D01*
X140460000Y-98110199D01*
X140460000Y-92389801D01*
X142492066Y-90357736D01*
X142514774Y-90471898D01*
X142592795Y-90660256D01*
X142706063Y-90829774D01*
X142850226Y-90973937D01*
X143019744Y-91087205D01*
X143104953Y-91122500D01*
X143019744Y-91157795D01*
X142850226Y-91271063D01*
X142706063Y-91415226D01*
X142592795Y-91584744D01*
X142514774Y-91773102D01*
X142475000Y-91973061D01*
X142475000Y-92176939D01*
X142514774Y-92376898D01*
X142592795Y-92565256D01*
X142706063Y-92734774D01*
X142850226Y-92878937D01*
X143019744Y-92992205D01*
X143208102Y-93070226D01*
X143408061Y-93110000D01*
X143611939Y-93110000D01*
X143811898Y-93070226D01*
X144000256Y-92992205D01*
X144169774Y-92878937D01*
X144213711Y-92835000D01*
X147282678Y-92835000D01*
X147320000Y-92838676D01*
X147357322Y-92835000D01*
X147357333Y-92835000D01*
X147468986Y-92824003D01*
X147612247Y-92780546D01*
X147744276Y-92709974D01*
X147860001Y-92615001D01*
X147883804Y-92585997D01*
X151569801Y-88900000D01*
X166147815Y-88900000D01*
X166176487Y-89191111D01*
X166261401Y-89471034D01*
X166399294Y-89729014D01*
X166584866Y-89955134D01*
X166810986Y-90140706D01*
X166865791Y-90170000D01*
X166810986Y-90199294D01*
X166584866Y-90384866D01*
X166399294Y-90610986D01*
X166261401Y-90868966D01*
X166176487Y-91148889D01*
X166147815Y-91440000D01*
X166176487Y-91731111D01*
X166261401Y-92011034D01*
X166399294Y-92269014D01*
X166584866Y-92495134D01*
X166810986Y-92680706D01*
X167068966Y-92818599D01*
X167348889Y-92903513D01*
X167567050Y-92925000D01*
X167712950Y-92925000D01*
X167931111Y-92903513D01*
X168211034Y-92818599D01*
X168469014Y-92680706D01*
X168695134Y-92495134D01*
X168880706Y-92269014D01*
X169018599Y-92011034D01*
X169103513Y-91731111D01*
X169132185Y-91440000D01*
X169103513Y-91148889D01*
X169018599Y-90868966D01*
X168880706Y-90610986D01*
X168695134Y-90384866D01*
X168469014Y-90199294D01*
X168414209Y-90170000D01*
X168469014Y-90140706D01*
X168695134Y-89955134D01*
X168880706Y-89729014D01*
X169018599Y-89471034D01*
X169103513Y-89191111D01*
X169132185Y-88900000D01*
X169103513Y-88608889D01*
X169018599Y-88328966D01*
X168880706Y-88070986D01*
X168695134Y-87844866D01*
X168469014Y-87659294D01*
X168404477Y-87624799D01*
X168521355Y-87555178D01*
X168737588Y-87360269D01*
X168911641Y-87126920D01*
X169036825Y-86864099D01*
X169081476Y-86716890D01*
X168960155Y-86487000D01*
X167767000Y-86487000D01*
X167767000Y-86507000D01*
X167513000Y-86507000D01*
X167513000Y-86487000D01*
X166319845Y-86487000D01*
X166198524Y-86716890D01*
X166243175Y-86864099D01*
X166368359Y-87126920D01*
X166542412Y-87360269D01*
X166758645Y-87555178D01*
X166875523Y-87624799D01*
X166810986Y-87659294D01*
X166584866Y-87844866D01*
X166399294Y-88070986D01*
X166261401Y-88328966D01*
X166176487Y-88608889D01*
X166147815Y-88900000D01*
X151569801Y-88900000D01*
X153709802Y-86760000D01*
X153771939Y-86760000D01*
X153971898Y-86720226D01*
X154160256Y-86642205D01*
X154329774Y-86528937D01*
X154473937Y-86384774D01*
X154587205Y-86215256D01*
X154665226Y-86026898D01*
X154705000Y-85826939D01*
X154705000Y-85623061D01*
X154665226Y-85423102D01*
X154587205Y-85234744D01*
X154473937Y-85065226D01*
X154329774Y-84921063D01*
X154160256Y-84807795D01*
X154030771Y-84754160D01*
X154070000Y-84556939D01*
X154070000Y-84353061D01*
X154030226Y-84153102D01*
X153952205Y-83964744D01*
X153838937Y-83795226D01*
X153694774Y-83651063D01*
X153525256Y-83537795D01*
X153440047Y-83502500D01*
X153525256Y-83467205D01*
X153694774Y-83353937D01*
X153838937Y-83209774D01*
X153952205Y-83040256D01*
X154030226Y-82851898D01*
X154070000Y-82651939D01*
X154070000Y-82448061D01*
X154030226Y-82248102D01*
X153981307Y-82130001D01*
X166151928Y-82130001D01*
X166164188Y-82254482D01*
X166200498Y-82374180D01*
X166259463Y-82484494D01*
X166338815Y-82581185D01*
X166435506Y-82660537D01*
X166545820Y-82719502D01*
X166614687Y-82740393D01*
X166584866Y-82764866D01*
X166399294Y-82990986D01*
X166261401Y-83248966D01*
X166176487Y-83528889D01*
X166147815Y-83820000D01*
X166176487Y-84111111D01*
X166261401Y-84391034D01*
X166399294Y-84649014D01*
X166584866Y-84875134D01*
X166810986Y-85060706D01*
X166875523Y-85095201D01*
X166758645Y-85164822D01*
X166542412Y-85359731D01*
X166368359Y-85593080D01*
X166243175Y-85855901D01*
X166198524Y-86003110D01*
X166319845Y-86233000D01*
X167513000Y-86233000D01*
X167513000Y-86213000D01*
X167767000Y-86213000D01*
X167767000Y-86233000D01*
X168960155Y-86233000D01*
X169081476Y-86003110D01*
X169036825Y-85855901D01*
X168911641Y-85593080D01*
X168737588Y-85359731D01*
X168521355Y-85164822D01*
X168404477Y-85095201D01*
X168469014Y-85060706D01*
X168695134Y-84875134D01*
X168880706Y-84649014D01*
X169018599Y-84391034D01*
X169103513Y-84111111D01*
X169132185Y-83820000D01*
X169103513Y-83528889D01*
X169018599Y-83248966D01*
X168880706Y-82990986D01*
X168695134Y-82764866D01*
X168665313Y-82740393D01*
X168734180Y-82719502D01*
X168844494Y-82660537D01*
X168941185Y-82581185D01*
X169020537Y-82484494D01*
X169079502Y-82374180D01*
X169115812Y-82254482D01*
X169128072Y-82130000D01*
X169128072Y-80430000D01*
X169115812Y-80305518D01*
X169079502Y-80185820D01*
X169020537Y-80075506D01*
X168941185Y-79978815D01*
X168844494Y-79899463D01*
X168734180Y-79840498D01*
X168614482Y-79804188D01*
X168490000Y-79791928D01*
X166790000Y-79791928D01*
X166665518Y-79804188D01*
X166545820Y-79840498D01*
X166435506Y-79899463D01*
X166338815Y-79978815D01*
X166259463Y-80075506D01*
X166200498Y-80185820D01*
X166164188Y-80305518D01*
X166151928Y-80430000D01*
X166151928Y-80610001D01*
X152890000Y-80610001D01*
X152890000Y-80543061D01*
X152850226Y-80343102D01*
X152772205Y-80154744D01*
X152658937Y-79985226D01*
X152514774Y-79841063D01*
X152345256Y-79727795D01*
X152156898Y-79649774D01*
X151956939Y-79610000D01*
X151753061Y-79610000D01*
X151553102Y-79649774D01*
X151364744Y-79727795D01*
X151195226Y-79841063D01*
X151151289Y-79885000D01*
X147357322Y-79885000D01*
X147319999Y-79881324D01*
X147282676Y-79885000D01*
X147282667Y-79885000D01*
X147171014Y-79895997D01*
X147027753Y-79939454D01*
X146895723Y-80010026D01*
X146815936Y-80075506D01*
X146779999Y-80104999D01*
X146756201Y-80133997D01*
X144105199Y-82785000D01*
X144043061Y-82785000D01*
X143843102Y-82824774D01*
X143654744Y-82902795D01*
X143485226Y-83016063D01*
X143341063Y-83160226D01*
X143227795Y-83329744D01*
X143149774Y-83518102D01*
X143110000Y-83718061D01*
X143110000Y-83921939D01*
X143149774Y-84121898D01*
X143227795Y-84310256D01*
X143341063Y-84479774D01*
X143485226Y-84623937D01*
X143654744Y-84737205D01*
X143843102Y-84815226D01*
X144043061Y-84855000D01*
X144246939Y-84855000D01*
X144446898Y-84815226D01*
X144635256Y-84737205D01*
X144804774Y-84623937D01*
X144948937Y-84479774D01*
X145062205Y-84310256D01*
X145140226Y-84121898D01*
X145180000Y-83921939D01*
X145180000Y-83859801D01*
X147634802Y-81405000D01*
X148955987Y-81405000D01*
X148942795Y-81424744D01*
X148864774Y-81613102D01*
X148825000Y-81813061D01*
X148825000Y-82016939D01*
X148864774Y-82216898D01*
X148942795Y-82405256D01*
X149056063Y-82574774D01*
X149200226Y-82718937D01*
X149369744Y-82832205D01*
X149558102Y-82910226D01*
X149758061Y-82950000D01*
X149961939Y-82950000D01*
X150161898Y-82910226D01*
X150350256Y-82832205D01*
X150519774Y-82718937D01*
X150663937Y-82574774D01*
X150777205Y-82405256D01*
X150855226Y-82216898D01*
X150872511Y-82130001D01*
X152088693Y-82130001D01*
X152039774Y-82248102D01*
X152000000Y-82448061D01*
X152000000Y-82510198D01*
X149000200Y-85509999D01*
X139192323Y-85509999D01*
X139155000Y-85506323D01*
X139117677Y-85509999D01*
X139117668Y-85509999D01*
X139006015Y-85520996D01*
X138862754Y-85564453D01*
X138730724Y-85635025D01*
X138647084Y-85703667D01*
X138615000Y-85729998D01*
X138591202Y-85758996D01*
X138014765Y-86335433D01*
X137988513Y-86068889D01*
X137903599Y-85788966D01*
X137765706Y-85530986D01*
X137580134Y-85304866D01*
X137354014Y-85119294D01*
X137299209Y-85090000D01*
X137354014Y-85060706D01*
X137580134Y-84875134D01*
X137765706Y-84649014D01*
X137903599Y-84391034D01*
X137988513Y-84111111D01*
X138017185Y-83820000D01*
X137988513Y-83528889D01*
X137903599Y-83248966D01*
X137765706Y-82990986D01*
X137580134Y-82764866D01*
X137354014Y-82579294D01*
X137299209Y-82550000D01*
X137354014Y-82520706D01*
X137580134Y-82335134D01*
X137765706Y-82109014D01*
X137903599Y-81851034D01*
X137988513Y-81571111D01*
X138017185Y-81280000D01*
X137988513Y-80988889D01*
X137903599Y-80708966D01*
X137765706Y-80450986D01*
X137580134Y-80224866D01*
X137550313Y-80200393D01*
X137619180Y-80179502D01*
X137729494Y-80120537D01*
X137826185Y-80041185D01*
X137905537Y-79944494D01*
X137964502Y-79834180D01*
X138000812Y-79714482D01*
X138013072Y-79590000D01*
X138013072Y-77890000D01*
X138000812Y-77765518D01*
X137964502Y-77645820D01*
X137905537Y-77535506D01*
X137826185Y-77438815D01*
X137729494Y-77359463D01*
X137619180Y-77300498D01*
X137499482Y-77264188D01*
X137375000Y-77251928D01*
X135675000Y-77251928D01*
X135550518Y-77264188D01*
X135430820Y-77300498D01*
X135320506Y-77359463D01*
X135223815Y-77438815D01*
X135144463Y-77535506D01*
X135085498Y-77645820D01*
X135049188Y-77765518D01*
X135036928Y-77890000D01*
X135036928Y-79590000D01*
X135049188Y-79714482D01*
X135085498Y-79834180D01*
X135144463Y-79944494D01*
X135223815Y-80041185D01*
X135320506Y-80120537D01*
X135430820Y-80179502D01*
X135499687Y-80200393D01*
X135469866Y-80224866D01*
X135284294Y-80450986D01*
X135146401Y-80708966D01*
X135061487Y-80988889D01*
X135032815Y-81280000D01*
X134035000Y-81280000D01*
X134035000Y-73445000D01*
X155356928Y-73445000D01*
X155356928Y-75145000D01*
X155369188Y-75269482D01*
X155405498Y-75389180D01*
X155464463Y-75499494D01*
X155543815Y-75596185D01*
X155640506Y-75675537D01*
X155750820Y-75734502D01*
X155870518Y-75770812D01*
X155995000Y-75783072D01*
X157695000Y-75783072D01*
X157819482Y-75770812D01*
X157939180Y-75734502D01*
X158049494Y-75675537D01*
X158146185Y-75596185D01*
X158225537Y-75499494D01*
X158284502Y-75389180D01*
X158320812Y-75269482D01*
X158333072Y-75145000D01*
X158333072Y-73445000D01*
X158320812Y-73320518D01*
X158284502Y-73200820D01*
X158225537Y-73090506D01*
X158146185Y-72993815D01*
X158049494Y-72914463D01*
X157939180Y-72855498D01*
X157858534Y-72831034D01*
X157942588Y-72755269D01*
X158116641Y-72521920D01*
X158241825Y-72259099D01*
X158286476Y-72111890D01*
X158165155Y-71882000D01*
X156972000Y-71882000D01*
X156972000Y-71902000D01*
X156718000Y-71902000D01*
X156718000Y-71882000D01*
X155524845Y-71882000D01*
X155403524Y-72111890D01*
X155448175Y-72259099D01*
X155573359Y-72521920D01*
X155747412Y-72755269D01*
X155831466Y-72831034D01*
X155750820Y-72855498D01*
X155640506Y-72914463D01*
X155543815Y-72993815D01*
X155464463Y-73090506D01*
X155405498Y-73200820D01*
X155369188Y-73320518D01*
X155356928Y-73445000D01*
X134035000Y-73445000D01*
X134035000Y-71398110D01*
X155403524Y-71398110D01*
X155524845Y-71628000D01*
X156718000Y-71628000D01*
X156718000Y-70434186D01*
X156972000Y-70434186D01*
X156972000Y-71628000D01*
X158165155Y-71628000D01*
X158286476Y-71398110D01*
X158241825Y-71250901D01*
X158116641Y-70988080D01*
X157942588Y-70754731D01*
X157726355Y-70559822D01*
X157476252Y-70410843D01*
X157201891Y-70313519D01*
X156972000Y-70434186D01*
X156718000Y-70434186D01*
X156488109Y-70313519D01*
X156213748Y-70410843D01*
X155963645Y-70559822D01*
X155747412Y-70754731D01*
X155573359Y-70988080D01*
X155448175Y-71250901D01*
X155403524Y-71398110D01*
X134035000Y-71398110D01*
X134035000Y-69265000D01*
X170130000Y-69265000D01*
X170130001Y-108535000D01*
M02*
